# https://github.com/mikedh/trimesh
v 0.33904627 0.03483819 0.20551810
v 0.30551076 0.37978671 0.20469654
v 0.32344891 0.03483819 0.20551810
v 0.34257568 0.01747329 0.20551810
v 0.29179332 0.37978671 0.20469654
v 0.30682061 0.36895921 0.20469654
v 0.30246647 0.55200558 0.19855549
v 0.29823359 0.55997303 0.19855549
v 0.28952528 0.56191384 0.19855549
v 0.29125967 0.31471944 0.20469654
v 0.29125967 0.31134860 0.20469654
v 0.29150222 0.29949960 0.20469654
v 0.33466783 -0.45617978 0.20551810
v 0.34297594 0.01389817 0.20551810
v 0.27877936 0.56170949 0.19855549
v 0.30264841 0.54975838 0.19855549
v 0.30251497 0.55200558 0.19621406
v 0.34364299 0.00664577 0.20551810
v 0.29846404 0.56079017 0.16062051
v 0.28952528 0.56334383 0.16062051
v 0.27877936 0.54965627 0.19855549
v 0.29692370 0.10266342 0.20469654
v 0.33510448 -0.46802871 0.20551810
v 0.29697221 0.10133552 0.20469654
v 0.27877936 0.56262887 0.16062051
v 0.24751188 0.56222023 0.07764418
v 0.25396427 0.56079017 0.13040807
v 0.24751188 0.55884943 0.13040807
v 0.34292743 0.05986406 0.07183172
v 0.34324276 0.01604324 0.20377231
v 0.34435859 0.00644147 0.19623461
v 0.30278180 0.55200558 0.16062051
v 0.34365512 0.00644147 0.20551810
v 0.29865811 0.56048378 0.07764418
v 0.29864598 0.56048378 0.07641182
v 0.30321844 0.55200558 0.07641182
v 0.28952528 0.56283316 0.07641182
v 0.25396427 0.56232241 0.07764418
v 0.24751188 0.50174953 0.13040807
v 0.33607477 -0.47987771 0.20551810
v 0.26808195 0.13698463 0.11319665
v 0.23134448 0.27927462 0.00407456
v 0.25518927 0.56232241 0.07641182
v 0.24751188 0.56211813 0.07641182
v 0.23178110 0.29112360 -0.00239513
v 0.23178110 0.29112360 0.00411560
v 0.34292743 0.05986406 0.07144147
v 0.34489224 -0.00540751 0.19623461
v 0.34414027 -0.00540751 0.20551810
v 0.29337004 0.46589615 0.02559910
v 0.28746342 0.46589615 0.02216915
v 0.26236939 0.46589615 0.01138634
v 0.25692365 0.46589615 0.01013348
v 0.31002259 0.46579404 0.06577280
v 0.30985278 0.46589615 0.05870748
v 0.30973147 0.46589615 0.05390142
v 0.30804561 0.46589615 0.04593242
v 0.30545009 0.46589615 0.03999671
v 0.29953135 0.46589615 0.03151423
v 0.33611116 -0.48018417 0.20551810
v 0.23247242 0.26742562 0.00376647
v 0.31290916 -0.48018417 0.00489611
v 0.23134448 0.27927462 -0.00235404
v 0.23607463 0.35649736 0.00039811
v 0.23569864 0.35036854 -0.00015641
v 0.23501944 0.33851954 -0.00106010
v 0.23432810 0.32667054 -0.00175844
v 0.23363677 0.31482158 -0.00229245
v 0.23287269 0.30297261 -0.00255946
v 0.33714209 0.05393957 0.04203004
v 0.35482554 -0.40050994 0.20237569
v 0.35481341 -0.40091851 0.19623461
v 0.35476490 -0.40255286 0.19027839
v 0.34735434 -0.48018417 0.03040516
v 0.34734221 -0.48018417 0.03017924
v 0.34587467 -0.38498368 0.03017924
v 0.34318209 -0.21889356 0.03492368
v 0.35353994 -0.40480006 0.20551810
v 0.28644461 0.42156463 0.00984593
v 0.28013776 0.40971564 0.00265736
v 0.27419475 0.40971564 -0.00093692
v 0.27253313 0.41666159 0.00019276
v 0.26581390 0.40971564 -0.00336048
v 0.25692365 0.42033886 -0.00171736
v 0.33301836 0.05312239 0.02964523
v 0.33112630 0.04862795 0.02407924
v 0.29769993 0.40971564 0.02075196
v 0.29349131 0.40971564 0.01481629
v 0.28756045 0.40971564 0.00859307
v 0.35432829 -0.48018417 0.20551810
v 0.23247242 0.26742562 -0.00247729
v 0.31290916 -0.48018417 -0.00218978
v 0.24209040 0.26742562 -0.00430525
v 0.25692365 0.40971564 -0.00426416
v 0.24209040 0.32667054 -0.00385340
v 0.24209040 0.31482158 -0.00407933
v 0.33390373 0.04209058 0.03017924
v 0.33624455 -0.01725650 0.03017924
v 0.35486195 -0.40868168 0.20247837
v 0.35525005 -0.48018417 0.19715884
v 0.34447986 -0.48018417 0.02145030
v 0.34387344 -0.38498368 0.02223074
v 0.34369150 -0.37313468 0.02212807
v 0.34350959 -0.36118358 0.02237453
v 0.28137487 0.39786664 0.00239039
v 0.27545611 0.39786664 -0.00202545
v 0.31151438 0.03024159 -0.00264163
v 0.32745134 0.04209058 0.01787656
v 0.33288496 -0.01725650 0.02091629
v 0.33104141 -0.07047479 0.01237219
v 0.32910082 -0.00540751 0.01551460
v 0.32879761 0.00644147 0.01625399
v 0.32182368 0.03483819 0.00881899
v 0.32201775 0.03024159 0.00853144
v 0.31744528 0.03024159 0.00259574
v 0.31488614 0.03483819 0.00070619
v 0.31124756 0.03483819 -0.00249787
v 0.35512874 -0.48018417 0.20338206
v 0.24209040 0.25557664 -0.00420257
v 0.31324879 -0.37313468 -0.00340156
v 0.31548043 -0.46802871 -0.00251838
v 0.32331551 -0.47987771 -0.00223086
v 0.32327909 -0.48018417 -0.00221029
v 0.31324879 -0.30193866 -0.00370965
v 0.31324879 -0.14779964 -0.00319614
v 0.33378246 -0.07660358 0.01830786
v 0.34441922 -0.48018417 0.02128597
v 0.34121728 -0.36118358 0.01643886
v 0.32061081 -0.05280346 -0.00103959
v 0.32105958 -0.06465245 -0.00149144
v 0.32149622 -0.07660358 -0.00190220
v 0.33306686 -0.06577606 0.01742472
v 0.32742708 -0.07660358 0.00633381
v 0.32286674 0.00644147 0.00744288
v 0.32244223 0.01829046 0.00797689
v 0.32428577 -0.45617978 -0.00255946
v 0.32394618 -0.46802871 -0.00251838
v 0.32986492 -0.46802871 0.00158938
v 0.32340040 -0.48018417 -0.00214870
v 0.32167812 -0.08845256 -0.00192278
v 0.34109601 -0.48018417 0.01545297
v 0.34112026 -0.46802871 0.01541192
v 0.34118090 -0.45617978 0.01553514
v 0.33528642 -0.36118358 0.00727858
v 0.33501959 -0.34933458 0.00725804
v 0.32998623 -0.34933458 0.00132237
v 0.33021667 -0.45617978 0.00126075
v 0.32923425 -0.47987771 0.00210281
v 0.33509235 -0.48018417 0.00803852
v 0.32934339 -0.48018417 0.00222606
v 0.32920999 -0.48018417 0.00212339
v 0.34102321 -0.48018417 0.01532976
v 0.33526216 -0.45617978 0.00719642
v 0.33517724 -0.46802871 0.00752505
v 0.33520149 -0.48018417 0.00816177
f 41 39 42
f 45 44 64
f 78 90 71
f 42 39 28
f 26 25 20
f 44 45 26
f 3 12 13
f 64 44 53
f 91 63 93
f 59 36 58
f 99 118 100
f 100 71 99
f 90 118 99
f 99 71 90
f 78 71 49
f 27 26 28
f 46 26 45
f 28 26 46
f 42 28 46
f 52 35 51
f 53 35 52
f 119 92 91
f 91 93 119
f 69 63 45
f 69 93 63
f 45 68 69
f 68 94 69
f 111 112 86
f 110 86 109
f 110 111 86
f 9 5 2
f 38 26 20
f 37 35 53
f 20 35 37
f 37 38 20
f 51 35 50
f 50 36 59
f 50 35 36
f 29 47 36
f 70 47 77
f 47 70 56
f 71 47 48
f 48 49 71
f 48 29 31
f 47 29 48
f 76 47 75
f 77 47 76
f 76 104 77
f 74 73 100
f 75 47 74
f 47 73 74
f 72 71 100
f 100 73 72
f 72 47 71
f 72 73 47
f 13 24 23
f 23 24 39
f 39 41 23
f 23 41 42
f 22 13 12
f 22 24 13
f 22 12 21
f 22 21 39
f 39 24 22
f 86 112 108
f 87 58 86
f 86 108 87
f 59 58 87
f 87 88 59
f 59 88 89
f 53 52 83
f 106 107 83
f 83 107 94
f 65 45 64
f 65 66 45
f 64 94 65
f 94 66 65
f 67 68 45
f 45 66 67
f 67 94 68
f 67 66 94
f 96 94 93
f 93 69 96
f 147 136 146
f 92 119 120
f 120 119 93
f 128 110 126
f 126 104 128
f 111 110 133
f 128 145 133
f 133 110 128
f 2 1 4
f 3 5 10
f 5 9 15
f 15 10 5
f 15 27 28
f 25 26 15
f 26 27 15
f 20 25 15
f 15 9 20
f 36 35 34
f 43 53 44
f 43 37 53
f 44 26 43
f 26 38 43
f 38 37 43
f 98 70 77
f 77 104 98
f 98 126 109
f 104 126 98
f 57 58 36
f 36 56 57
f 57 56 70
f 70 85 57
f 86 58 57
f 57 85 86
f 36 47 54
f 49 48 33
f 33 48 31
f 40 23 42
f 42 61 40
f 40 62 60
f 40 61 62
f 114 108 112
f 112 111 114
f 146 136 140
f 115 89 88
f 88 114 115
f 53 83 84
f 84 83 94
f 64 53 84
f 84 94 64
f 95 69 94
f 94 96 95
f 95 96 69
f 137 120 136
f 136 147 137
f 138 149 150
f 147 149 138
f 138 137 147
f 93 94 124
f 124 120 93
f 136 120 124
f 124 140 136
f 128 104 103
f 103 102 128
f 104 76 103
f 103 76 75
f 75 102 103
f 128 102 127
f 132 110 109
f 109 126 132
f 132 126 110
f 11 12 3
f 3 10 11
f 21 12 11
f 97 85 70
f 70 98 97
f 97 98 109
f 109 86 97
f 86 85 97
f 47 56 55
f 55 54 47
f 55 56 36
f 36 54 55
f 88 87 113
f 113 114 88
f 113 87 108
f 108 114 113
f 134 133 130
f 111 133 134
f 79 80 50
f 89 80 79
f 79 50 59
f 59 89 79
f 105 80 89
f 106 80 105
f 82 83 52
f 82 52 51
f 131 107 130
f 130 133 131
f 131 133 145
f 131 145 146
f 146 140 131
f 89 115 116
f 116 115 107
f 130 107 129
f 107 115 129
f 129 115 114
f 129 134 130
f 92 120 121
f 120 137 121
f 144 145 128
f 146 145 144
f 144 147 146
f 144 153 147
f 154 153 152
f 147 153 154
f 94 107 125
f 125 124 94
f 107 131 125
f 140 124 125
f 125 131 140
f 101 102 75
f 101 127 102
f 128 127 143
f 143 144 128
f 8 9 2
f 2 7 8
f 20 9 8
f 2 4 6
f 6 7 2
f 18 33 30
f 30 33 31
f 32 29 36
f 117 105 89
f 89 116 117
f 117 116 107
f 117 107 106
f 106 105 117
f 81 82 51
f 51 50 81
f 50 80 81
f 81 80 106
f 106 83 81
f 83 82 81
f 135 129 114
f 134 129 135
f 135 114 111
f 111 134 135
f 122 123 92
f 92 121 122
f 122 121 137
f 122 139 123
f 137 138 122
f 138 139 122
f 148 138 150
f 148 139 138
f 155 154 152
f 155 149 147
f 147 154 155
f 142 143 127
f 152 153 142
f 153 144 142
f 144 143 142
f 14 6 4
f 7 6 14
f 18 7 14
f 16 7 18
f 18 30 16
f 16 30 31
f 31 29 16
f 20 8 19
f 36 34 19
f 19 32 36
f 19 35 20
f 19 34 35
f 151 148 150
f 139 148 151
f 152 142 141
f 141 142 127
f 7 16 17
f 32 19 17
f 29 32 17
f 17 16 29
f 17 8 7
f 17 19 8
f 92 62 61
f 91 92 61
f 91 61 63
f 63 61 42
f 46 63 42
f 45 63 46
f 3 1 5
f 5 1 2
f 15 28 39
f 39 21 15
f 11 15 21
f 10 15 11
f 60 90 14
f 78 49 14
f 14 90 78
f 14 1 3
f 3 13 14
f 14 40 60
f 14 33 18
f 13 23 14
f 14 4 1
f 49 33 14
f 23 40 14
f 150 149 141
f 60 62 141
f 100 118 141
f 141 62 92
f 141 90 60
f 141 118 90
f 141 74 100
f 92 123 141
f 75 74 141
f 141 155 152
f 141 101 75
f 141 151 150
f 123 139 141
f 127 101 141
f 149 155 141
f 139 151 141