# https://github.com/mikedh/trimesh
v -0.22944706 -0.01297330 0.51228678
v -0.22944706 -0.01297330 0.49340307
v -0.20893895 -0.01297330 0.49871648
v -0.22944706 0.23065154 0.49357622
v -0.17554573 -0.01297330 0.40173322
v -0.22944706 -0.00593831 0.48991851
v -0.19894165 -0.01297330 0.49076260
v -0.22388485 0.23065154 0.48910689
v -0.22944706 0.23065154 0.47653219
v -0.16131343 -0.01297330 0.40173322
v -0.18046100 0.00689157 0.40173322
v -0.22944706 -0.00262353 0.48856581
v -0.19686749 -0.01297330 0.48842513
v -0.21180675 0.23065154 0.47797146
v -0.21243365 0.23065154 0.47857746
v -0.21795584 0.23065154 0.48390169
v -0.18540963 0.23065154 0.40173322
v -0.18594317 0.18438763 0.40173322
v -0.18602321 0.17251162 0.40173322
v -0.18616326 0.13693134 0.40173322
v -0.22944706 0.10135105 0.47665122
v -0.17255788 0.22802833 0.40173322
v -0.16154018 -0.01297330 0.40547750
v -0.22944706 0.00646232 0.48542754
v -0.22944706 0.01831446 0.48196463
v -0.22944706 0.03019047 0.47981113
v -0.18080780 0.01061176 0.40173322
v -0.19327941 -0.01297330 0.48373938
v -0.19944186 0.19623978 0.46712820
v -0.20587106 0.23065154 0.47124042
v -0.17268460 0.23065154 0.40173322
v -0.18608323 0.12505534 0.40173322
v -0.22944706 0.08949889 0.47680272
v -0.17346491 0.23065154 0.40979532
v -0.17295137 0.21996791 0.40979532
v -0.16187365 -0.01297330 0.41016327
v -0.22944706 0.04204261 0.47897786
v -0.18577645 0.11701878 0.40173322
v -0.18150809 0.01831446 0.40173322
v -0.18924448 -0.01297330 0.47792817
v -0.19351951 0.19623978 0.45901200
v -0.20126925 0.23065154 0.46531017
v -0.22944706 0.07762290 0.47732216
v -0.17380503 0.23065154 0.41094241
v -0.18504282 -0.01297330 0.46919513
v -0.17633937 0.21996791 0.42119048
v -0.18809068 -0.01297330 0.47622918
v -0.18949792 0.18438763 0.45388255
v -0.18997811 0.19623978 0.45309258
v -0.19050497 0.20592180 0.45214027
v -0.18907108 0.23065154 0.44447858
v -0.17682624 0.23065154 0.42030310
v -0.18876430 0.23065154 0.44388338
f 3 4 1
f 3 7 4
f 5 2 6
f 26 38 39
f 45 46 47
f 36 46 45
f 11 25 26
f 24 25 11
f 11 12 24
f 6 12 11
f 5 6 11
f 37 38 26
f 18 9 17
f 18 19 9
f 9 19 20
f 22 23 10
f 36 23 22
f 31 34 22
f 4 7 8
f 7 16 8
f 7 13 14
f 14 13 30
f 47 41 40
f 40 41 28
f 28 41 29
f 29 13 28
f 30 13 29
f 47 46 48
f 48 41 47
f 52 46 44
f 44 46 36
f 26 39 27
f 27 11 26
f 38 37 32
f 9 20 21
f 20 32 21
f 21 32 33
f 36 22 35
f 35 22 34
f 34 44 35
f 35 44 36
f 15 16 7
f 7 14 15
f 30 29 42
f 42 29 41
f 49 46 52
f 49 48 46
f 41 48 49
f 33 32 43
f 43 32 37
f 53 49 52
f 51 49 53
f 51 42 50
f 50 49 51
f 50 42 41
f 41 49 50
f 40 5 10
f 1 2 40
f 40 45 47
f 40 3 1
f 40 2 5
f 7 3 40
f 10 23 40
f 40 13 7
f 40 23 36
f 28 13 40
f 36 45 40
f 10 5 32
f 17 31 32
f 5 11 32
f 32 27 39
f 32 39 38
f 32 18 17
f 32 22 10
f 19 18 32
f 32 20 19
f 31 22 32
f 11 27 32
f 43 2 1
f 1 4 43
f 43 6 2
f 4 9 43
f 26 25 43
f 24 12 43
f 43 25 24
f 43 37 26
f 43 12 6
f 9 21 43
f 43 21 33
f 53 9 4
f 30 42 53
f 17 9 53
f 53 31 17
f 53 14 30
f 4 8 53
f 53 34 31
f 53 8 16
f 52 44 53
f 16 15 53
f 53 44 34
f 53 15 14
f 53 42 51