# https://github.com/mikedh/trimesh
v 0.00759480 0.53099171 1.06791975
v 0.00759480 0.53094108 1.17140609
v 0.00759480 0.54176763 1.06791975
v 0.01667754 0.53105556 1.06791975
v 0.21152737 0.53094108 1.06793173
v 0.18787232 0.53094108 1.06793173
v 0.00759480 0.53094108 1.19036779
v 0.02853501 0.54204507 1.06791975
v 0.00759480 0.54460803 1.09793246
v 0.03232781 0.54629686 1.09084879
v 0.14714967 0.55258538 1.08601848
v 0.13529220 0.55022720 1.07415240
v 0.13529220 0.54931781 1.06793173
v 0.02853501 0.53128018 1.06791975
v 0.21112812 0.53184385 1.06793173
v 0.21084867 0.53094108 1.07415240
v 0.03384493 0.53188567 1.06791975
v 0.03889533 0.53293156 1.06791975
v 0.03889533 0.53813014 1.06791975
v 0.00855298 0.53094108 1.19031984
v 0.01667754 0.53640168 1.18817440
v 0.00759480 0.53665931 1.18839014
v 0.14714967 0.54923194 1.06793173
v 0.16539501 0.54851634 1.06793173
v 0.17793119 0.54793064 1.06793173
v 0.18272210 0.54755414 1.06793173
v 0.18815178 0.54699485 1.06793173
v 0.19002823 0.54666236 1.06793173
v 0.00759480 0.54896992 1.16622816
v 0.02082965 0.54626383 1.10219946
v 0.13529220 0.55255235 1.09787253
v 0.14714967 0.55321510 1.09787253
v 0.15900715 0.55338685 1.09787253
v 0.15900715 0.55249731 1.08601848
v 0.14714967 0.55058609 1.07415240
v 0.20519940 0.53845163 1.06793173
v 0.20489995 0.53863658 1.07415240
v 0.20416137 0.53880172 1.08601848
v 0.20559865 0.53094108 1.09787253
v 0.20286382 0.53789895 1.09787253
v 0.19136568 0.54609650 1.06793173
v 0.19543795 0.54427116 1.06793173
v 0.20142657 0.54127661 1.06793173
v 0.02070988 0.53094108 1.18967262
v 0.02853501 0.53582482 1.18773090
v 0.00759480 0.53805749 1.18715559
v 0.02853501 0.54175663 1.18286462
v 0.15900715 0.55011268 1.07415240
v 0.17086462 0.55200410 1.08601848
v 0.18272210 0.55044516 1.08601848
v 0.19102632 0.54707192 1.07415240
v 0.19695506 0.54456401 1.07415240
v 0.00759480 0.54911965 1.16903289
v 0.12343473 0.55337805 1.13344672
v 0.13529220 0.55343529 1.13344672
v 0.15900715 0.55336483 1.10973857
v 0.17086462 0.55328117 1.09787253
v 0.19805297 0.54473135 1.08601848
v 0.19775353 0.54382639 1.09787253
v 0.20248456 0.53094108 1.10853998
v 0.20150642 0.53608242 1.10592706
v 0.03306641 0.53094108 1.18879764
v 0.04041245 0.53500570 1.18720353
v 0.04041245 0.54093532 1.18254098
v 0.00759480 0.54258671 1.18298448
v 0.01667754 0.54232911 1.18288860
v 0.04041245 0.54741759 1.17660796
v 0.18272210 0.55124445 1.09787253
v 0.19214419 0.54771706 1.08601848
v 0.00759480 0.54792403 1.17519363
v 0.02853501 0.54944994 1.16903289
v 0.09971978 0.55283198 1.15716681
v 0.09822262 0.55278355 1.15716681
v 0.08786230 0.55243784 1.15715483
v 0.12343473 0.55332300 1.14531276
v 0.09822262 0.55278355 1.15715483
v 0.13529220 0.55259199 1.14531276
v 0.17086462 0.55287823 1.10973857
v 0.19182480 0.54778533 1.09787253
v 0.19004817 0.54699265 1.10973857
v 0.18885046 0.54635191 1.11591134
v 0.20076780 0.53094108 1.11237546
v 0.19951021 0.53238769 1.11383777
v 0.04304745 0.53094108 1.18789869
v 0.04674043 0.53447285 1.18687989
v 0.09971978 0.54419408 1.17343169
v 0.05226993 0.54690016 1.17586486
v 0.02853501 0.54758055 1.17691958
v 0.00759480 0.54380655 1.18158210
v 0.11157725 0.54893028 1.16681549
v 0.09971978 0.54942349 1.16749867
v 0.18272210 0.55004002 1.10973857
v 0.00759480 0.54751450 1.17705146
v 0.11157725 0.55238940 1.15716681
v 0.12343473 0.55133471 1.15716681
v 0.13499277 0.54878497 1.15739454
v 0.14816775 0.54936406 1.14634355
v 0.15900715 0.55036370 1.13344672
v 0.17086462 0.55056406 1.12160461
v 0.19062708 0.53923108 1.12056187
v 0.18178387 0.54744404 1.12056187
v 0.17719260 0.54643559 1.12789723
v 0.18509757 0.54247223 1.12381002
v 0.18881053 0.53456754 1.12766951
v 0.19839233 0.53094108 1.11654657
v 0.04905603 0.53094108 1.18710765
v 0.10327303 0.53094108 1.17889727
v 0.11157725 0.53682004 1.17614052
v 0.09971978 0.53826888 1.17707543
v 0.11157725 0.54274967 1.17274851
v 0.12343473 0.54784476 1.16525730
v 0.14491392 0.54756513 1.15358303
v 0.13084065 0.54682532 1.16383098
v 0.15900715 0.54754311 1.14248410
v 0.16541498 0.54647961 1.13979923
v 0.16996632 0.54740660 1.13248784
v 0.17331996 0.54258452 1.13579595
v 0.16533513 0.53484716 1.15166531
v 0.18968885 0.53094108 1.12860442
v 0.16645300 0.53094108 1.15287588
v 0.11421225 0.53094108 1.17707543
v 0.11874364 0.53524131 1.17531349
v 0.12299556 0.53963622 1.17126227
v 0.15281890 0.54605686 1.15099408
v 0.13499277 0.54064247 1.16632405
v 0.14473427 0.53691472 1.16489773
v 0.13876561 0.54481942 1.16148175
v 0.15900715 0.54349609 1.14840513
v 0.16108322 0.53094108 1.15761031
v 0.15900715 0.53757089 1.15426624
v 0.15263924 0.53386736 1.16275225
v 0.15693109 0.53094108 1.16103828
v 0.12119897 0.53094108 1.17562511
v 0.12750699 0.53094108 1.17369540
v 0.14734931 0.53094108 1.16639596
v 0.14876660 0.54149020 1.15816165
v 0.14970482 0.53094108 1.16536517
f 6 2 1
f 1 5 6
f 13 8 3
f 33 54 55
f 5 18 19
f 8 28 19
f 53 54 32
f 54 33 32
f 74 54 53
f 71 72 53
f 91 72 88
f 4 5 1
f 4 14 5
f 17 18 5
f 5 14 17
f 51 52 28
f 56 33 55
f 55 78 56
f 50 51 28
f 33 56 57
f 57 56 78
f 57 78 68
f 68 50 57
f 57 50 49
f 34 49 48
f 33 57 34
f 34 57 49
f 93 89 88
f 88 72 93
f 90 91 67
f 67 91 88
f 55 54 75
f 54 72 75
f 90 95 94
f 94 91 90
f 72 91 94
f 94 75 72
f 76 72 54
f 54 74 76
f 68 78 92
f 92 79 68
f 80 79 92
f 19 43 36
f 42 43 19
f 52 43 42
f 23 8 13
f 23 24 8
f 48 49 25
f 25 24 48
f 49 26 25
f 8 24 25
f 25 26 8
f 27 50 28
f 49 50 27
f 27 26 49
f 27 28 8
f 8 26 27
f 9 10 3
f 53 32 31
f 13 3 12
f 70 71 53
f 72 71 70
f 70 93 72
f 90 67 87
f 88 89 65
f 132 118 131
f 118 130 131
f 131 130 124
f 113 127 124
f 77 78 55
f 55 75 77
f 77 94 95
f 75 94 77
f 53 72 73
f 72 76 73
f 73 74 53
f 73 76 74
f 68 79 69
f 69 50 68
f 51 50 69
f 52 51 69
f 61 60 39
f 83 60 61
f 99 92 78
f 78 77 99
f 41 19 28
f 41 42 19
f 28 52 41
f 52 42 41
f 35 34 48
f 48 24 35
f 24 23 35
f 35 23 13
f 10 9 30
f 11 31 32
f 10 30 11
f 11 30 31
f 3 10 11
f 11 12 3
f 11 32 33
f 33 34 11
f 34 35 11
f 13 12 11
f 11 35 13
f 83 105 82
f 82 60 83
f 104 119 105
f 104 105 83
f 104 120 119
f 118 120 104
f 124 130 128
f 128 130 118
f 90 87 86
f 121 108 107
f 107 108 85
f 122 108 121
f 47 67 66
f 66 67 88
f 88 65 66
f 21 22 7
f 21 45 47
f 132 131 137
f 125 122 126
f 126 122 135
f 126 131 127
f 135 137 126
f 126 137 131
f 126 113 125
f 127 113 126
f 124 127 136
f 136 131 124
f 127 131 136
f 96 77 95
f 97 77 96
f 52 69 58
f 58 69 79
f 58 43 52
f 58 36 43
f 58 37 36
f 40 61 39
f 98 77 97
f 98 99 77
f 80 92 81
f 83 61 81
f 29 30 9
f 53 31 29
f 31 30 29
f 129 118 132
f 129 120 118
f 64 86 87
f 64 67 47
f 64 87 67
f 47 45 64
f 110 86 85
f 108 122 110
f 90 86 110
f 62 84 85
f 20 44 45
f 20 21 7
f 45 21 20
f 45 44 63
f 63 64 45
f 44 62 63
f 63 62 85
f 85 86 63
f 86 64 63
f 85 84 106
f 106 107 85
f 135 122 134
f 125 113 123
f 123 122 125
f 113 110 123
f 123 110 122
f 46 66 65
f 47 66 46
f 46 21 47
f 22 21 46
f 112 113 124
f 112 96 113
f 97 96 112
f 16 40 39
f 59 79 80
f 59 58 79
f 80 81 59
f 61 40 59
f 59 81 61
f 124 128 115
f 118 117 115
f 115 128 118
f 104 81 103
f 103 117 118
f 118 104 103
f 100 104 83
f 83 81 100
f 100 81 104
f 85 108 109
f 109 110 85
f 108 110 109
f 90 110 111
f 111 110 113
f 111 95 90
f 111 96 95
f 113 96 111
f 133 122 121
f 133 134 122
f 40 16 38
f 38 59 40
f 37 58 38
f 58 59 38
f 99 98 114
f 114 115 99
f 114 98 97
f 97 112 114
f 114 112 124
f 124 115 114
f 92 99 101
f 101 81 92
f 15 16 5
f 15 38 16
f 37 38 15
f 36 37 15
f 5 19 15
f 19 36 15
f 99 115 116
f 116 101 99
f 115 101 116
f 81 101 102
f 102 101 115
f 102 115 117
f 117 103 102
f 102 103 81
f 1 3 17
f 17 3 8
f 8 19 17
f 17 4 1
f 17 19 18
f 14 4 17
f 46 3 1
f 1 2 46
f 46 2 7
f 7 22 46
f 46 65 89
f 89 93 46
f 46 70 53
f 46 9 3
f 93 70 46
f 53 29 46
f 46 29 9
f 7 2 133
f 133 82 105
f 133 6 5
f 2 6 133
f 5 16 133
f 132 137 133
f 121 107 133
f 133 106 84
f 39 60 133
f 105 119 133
f 84 62 133
f 60 82 133
f 119 120 133
f 133 129 132
f 133 20 7
f 133 137 135
f 120 129 133
f 133 62 44
f 44 20 133
f 107 106 133
f 135 134 133
f 133 16 39