# https://github.com/mikedh/trimesh
v -0.29177576 -0.52741272 -0.00258520
v -0.26804690 -0.53594826 -0.00189584
v -0.27991133 -0.53576809 -0.00157141
v -0.29307190 -0.52746299 -0.00248380
v -0.29307190 -0.52613048 -0.00254468
v -0.18504567 -0.51925845 -0.00211886
v -0.18504567 -0.52598382 -0.00211886
v -0.25618245 -0.53553761 -0.00171333
v -0.26804690 -0.54186908 0.00524118
v -0.27991133 -0.54169308 0.00467344
v -0.13758790 -0.52614723 -0.00183502
v -0.29177576 -0.54653705 0.01073586
v -0.29177576 -0.54069581 0.00481540
v -0.29177576 -0.53477078 -0.00065903
v -0.29307190 -0.53398302 -0.00078065
v -0.34125250 -0.53927533 0.12052820
v -0.29307190 -0.51914952 -0.00151060
v -0.19688517 -0.51926686 -0.00211886
v -0.18504567 -0.51925845 0.00457208
v -0.13758790 -0.51962303 -0.00183502
v -0.13758790 -0.53208064 0.00149020
v -0.27991133 -0.54644905 0.01059395
v -0.12572346 -0.52443762 -0.00110507
v -0.29177576 -0.55019932 0.01831893
v -0.29307190 -0.55007359 0.01819731
v -0.29307190 -0.54646580 0.01081697
v -0.29307190 -0.54056591 0.00497761
v -0.29307190 -0.53460319 -0.00049682
v -0.34526547 -0.54539729 0.17721878
v -0.34696038 -0.53236140 0.19126976
v -0.34613783 -0.53236140 0.18078729
v -0.34065429 -0.53236140 0.12052820
v -0.33761339 -0.55154856 0.12052820
v -0.34708501 -0.53236140 0.19455440
v -0.29307190 -0.51914952 0.00292978
v -0.13758790 -0.51962303 0.00420714
v -0.33427338 -0.53236140 0.19455440
v -0.12572346 -0.52016776 -0.00110507
v -0.12572346 -0.53037102 0.00234178
v -0.12572346 -0.53639243 0.00828254
v -0.12572346 -0.54124474 0.01831893
v -0.11385902 -0.54646580 0.03188331
v -0.27991133 -0.54977190 0.01831893
v -0.11941736 -0.52227965 -0.00005077
v -0.29307190 -0.55276376 0.03018016
v -0.33350072 -0.55716769 0.12052820
v -0.34534025 -0.54554394 0.18437606
v -0.34628739 -0.54015946 0.19455440
v -0.34638709 -0.53927533 0.19455440
v -0.34608798 -0.53927533 0.18437606
v -0.29307190 -0.56131607 0.20455027
v -0.29307190 -0.54781504 0.20455027
v -0.20877455 -0.53886047 0.20455027
v -0.20640664 -0.53861743 0.20455027
v -0.19691010 -0.53808529 0.20455027
v -0.19471667 -0.53800985 0.20455027
v -0.18502074 -0.53779195 0.20455027
v -0.17318122 -0.53808109 0.20455027
v -0.13639148 -0.53948064 0.20455027
v -0.12572346 -0.52016776 0.00307169
v -0.11941736 -0.52102255 -0.00005077
v -0.11702453 -0.53538674 0.01022897
v -0.10600755 -0.54603839 0.03374867
v -0.10201950 -0.54698118 0.04193999
v -0.11385902 -0.54808742 0.04204139
v -0.09401848 -0.54625629 0.04583292
v -0.26804690 -0.56136217 0.19621700
v -0.27988641 -0.56166803 0.19621700
v -0.29175084 -0.56193203 0.19621700
v -0.29307190 -0.56195300 0.19621700
v -0.31550466 -0.55803510 0.12052820
v -0.32774300 -0.55779207 0.12052820
v -0.33026042 -0.55753228 0.12052820
v -0.17318122 -0.55091166 0.05390262
v -0.31550466 -0.56139569 0.19455440
v -0.31697524 -0.56114845 0.19455440
v -0.33357550 -0.55720541 0.12504968
v -0.34529039 -0.54548529 0.19455440
v -0.33930830 -0.55127201 0.19455440
v -0.33524549 -0.55485469 0.19455440
v -0.33083371 -0.55769986 0.19455440
v -0.32794237 -0.55865524 0.19455440
v -0.30531020 -0.56183986 0.19455440
v -0.30361529 -0.56188176 0.19455440
v -0.27156135 -0.56127417 0.20455027
v -0.13639148 -0.55599445 0.20455027
v -0.09516505 -0.54435808 0.08395105
v -0.09356982 -0.54282446 0.07762505
v -0.09247311 -0.54168470 0.06574356
v -0.11941736 -0.52102255 0.00142936
v -0.09274729 -0.54159253 0.05390262
v -0.09401848 -0.54275743 0.04583292
v -0.10199458 -0.54863215 0.05390262
v -0.09274729 -0.54690160 0.05390262
v -0.25969692 -0.56106883 0.20455027
v -0.13968162 -0.55710486 0.20177253
v -0.13968162 -0.55710486 0.20250244
v -0.33352565 -0.55718866 0.13376819
v -0.33292743 -0.55687021 0.19287155
v -0.13826088 -0.55669004 0.20455027
v -0.09247311 -0.54711529 0.06574356
v -0.09356982 -0.54657056 0.07762505
v -0.09516505 -0.54568639 0.08395105
v -0.10199458 -0.54907215 0.06574356
f 34 51 52
f 90 59 89
f 90 60 59
f 89 59 88
f 85 51 70
f 57 37 34
f 57 58 37
f 34 35 17
f 17 16 32
f 34 37 19
f 19 35 34
f 71 45 70
f 97 95 67
f 51 75 83
f 51 82 76
f 76 75 51
f 46 75 76
f 51 78 79
f 79 80 51
f 81 82 51
f 51 80 81
f 81 80 99
f 99 80 98
f 98 81 99
f 80 79 98
f 82 81 98
f 87 88 59
f 100 95 97
f 31 17 32
f 32 16 31
f 1 3 4
f 36 19 37
f 37 58 36
f 36 58 59
f 59 60 36
f 46 33 26
f 16 33 29
f 29 33 46
f 34 50 29
f 45 71 72
f 72 83 75
f 45 67 68
f 68 67 95
f 70 51 84
f 51 83 84
f 84 71 70
f 84 72 71
f 83 72 84
f 77 98 79
f 82 98 77
f 46 76 77
f 77 76 82
f 101 100 97
f 86 100 101
f 94 93 66
f 21 11 23
f 2 3 1
f 1 7 2
f 2 7 11
f 41 40 42
f 34 52 53
f 53 54 34
f 34 54 55
f 34 17 30
f 17 31 30
f 30 50 34
f 30 29 50
f 30 31 16
f 16 29 30
f 16 17 5
f 5 4 16
f 1 4 5
f 6 7 1
f 1 5 6
f 46 26 25
f 25 45 46
f 24 45 25
f 28 33 16
f 24 25 12
f 12 25 26
f 12 13 3
f 26 13 12
f 48 78 51
f 46 45 73
f 45 72 73
f 73 75 46
f 73 72 75
f 70 45 69
f 45 68 69
f 69 68 95
f 95 85 69
f 69 85 70
f 45 42 65
f 74 67 45
f 74 93 67
f 45 65 74
f 74 65 93
f 97 67 96
f 67 93 96
f 96 101 97
f 94 101 104
f 104 93 94
f 104 96 93
f 101 96 104
f 103 86 102
f 86 101 102
f 42 40 63
f 62 63 40
f 66 63 62
f 39 40 21
f 21 23 39
f 39 62 40
f 8 11 21
f 8 2 11
f 43 45 24
f 43 42 45
f 56 57 34
f 34 55 56
f 17 6 18
f 18 5 17
f 18 6 5
f 27 26 33
f 33 28 27
f 27 13 26
f 16 4 15
f 15 28 16
f 15 4 3
f 3 13 14
f 14 15 3
f 28 15 14
f 13 27 14
f 14 27 28
f 21 40 22
f 40 41 22
f 24 12 22
f 22 43 24
f 22 41 42
f 42 43 22
f 78 48 47
f 47 48 29
f 47 79 78
f 47 77 79
f 47 29 46
f 46 77 47
f 49 51 34
f 49 48 51
f 34 29 49
f 29 48 49
f 64 66 93
f 64 63 66
f 93 65 64
f 64 65 42
f 42 63 64
f 66 62 44
f 44 39 23
f 62 39 44
f 9 8 21
f 21 22 9
f 2 8 9
f 10 22 12
f 3 2 10
f 10 12 3
f 2 9 10
f 10 9 22
f 61 91 92
f 89 91 61
f 61 90 89
f 59 86 87
f 87 86 103
f 94 91 101
f 101 91 89
f 66 91 94
f 92 91 66
f 35 19 6
f 6 17 35
f 102 87 103
f 88 87 102
f 102 101 89
f 89 88 102
f 56 52 51
f 59 58 56
f 56 86 59
f 51 85 56
f 95 100 56
f 56 85 95
f 58 57 56
f 56 100 86
f 56 53 52
f 54 53 56
f 56 55 54
f 7 6 20
f 11 7 20
f 20 6 19
f 19 36 20
f 92 66 61
f 66 44 61
f 38 20 36
f 38 36 60
f 60 90 38
f 90 61 38
f 11 20 38
f 38 23 11
f 38 61 44
f 38 44 23