# https://github.com/mikedh/trimesh
v -0.36296656 0.38313701 0.57516955
v -0.36118315 0.38313701 0.57554272
v -0.37433956 0.38313701 0.57696754
v -0.37506308 0.44124585 0.46121767
v -0.35496987 0.38313701 0.57844325
v -0.37649106 0.38313701 0.57869768
v -0.38644882 0.44281214 0.46121767
v -0.36523225 0.44691579 0.46121767
v -0.35334517 0.38313701 0.57993592
v -0.38007686 0.38313701 0.58169999
v -0.39525783 0.44849250 0.46121767
v -0.36138623 0.45396403 0.46121767
v -0.34341913 0.38313701 0.59169071
v -0.34654799 0.38313701 0.58770460
v -0.38345957 0.38313701 0.58892587
v -0.39740296 0.45192786 0.46121767
v -0.39259227 0.40392672 0.57077635
v -0.35981864 0.45737849 0.46121767
v -0.34090591 0.38313701 0.60252954
v -0.38498909 0.38313701 0.59959508
v -0.40074127 0.45744114 0.46121767
v -0.39268748 0.40367612 0.57868072
v -0.40113475 0.43352935 0.54029532
v -0.40519654 0.44872221 0.51656524
v -0.40501247 0.45010055 0.50470868
v -0.40463169 0.45102987 0.49783900
v -0.35817489 0.46910470 0.46121767
v -0.34065839 0.38313701 0.61438610
v -0.38290109 0.38313701 0.61194354
v -0.38602992 0.38607117 0.59959508
v -0.39268748 0.40367612 0.58215797
v -0.40320372 0.45475762 0.48097860
v -0.40237233 0.45782751 0.46895242
v -0.40480306 0.46217133 0.47278587
v -0.40213117 0.46900030 0.46121767
v -0.40487286 0.44919212 0.52462227
v -0.39740933 0.42166741 0.56400844
v -0.40487286 0.45285719 0.52462227
v -0.40548850 0.45724276 0.50470868
v -0.40526636 0.45704438 0.49346276
v -0.40519021 0.46068859 0.48097860
v -0.36013599 0.47644533 0.46121767
v -0.34419342 0.39410095 0.61145164
v -0.34182615 0.38313701 0.62262971
v -0.36141798 0.48053852 0.46121767
v -0.38153658 0.38313701 0.61827043
v -0.39299847 0.40980547 0.58271772
v -0.40480306 0.46462515 0.47278587
v -0.40327987 0.46879145 0.46895242
v -0.39672389 0.47996420 0.46121767
v -0.40011930 0.43352935 0.55213492
v -0.39304924 0.41720876 0.58268379
v -0.40193442 0.45699216 0.52850661
v -0.40363530 0.46077210 0.51900780
v -0.40456823 0.46335125 0.51110342
v -0.40510769 0.45699216 0.51566624
v -0.40176941 0.44538082 0.54029532
v -0.40535521 0.46540828 0.49283516
v -0.40519021 0.46553358 0.48097860
v -0.35594091 0.42953010 0.57586500
v -0.35672153 0.42794296 0.58229366
v -0.34490424 0.39235714 0.61786334
v -0.34294950 0.38581010 0.62242616
v -0.34252428 0.38313701 0.62537759
v -0.36715528 0.48812972 0.46121767
v -0.36811359 0.48751368 0.46910507
v -0.36889424 0.48690804 0.47504183
v -0.36800572 0.47614251 0.50185904
v -0.38137158 0.38313701 0.61867753
v -0.40320372 0.47146454 0.48097860
v -0.39723796 0.48018348 0.46910507
v -0.39290326 0.48391123 0.46121767
v -0.39591789 0.43402012 0.56460212
v -0.39138643 0.42511320 0.58029213
v -0.39388063 0.43038635 0.57238775
v -0.38025455 0.39078042 0.61686257
v -0.38159368 0.40507532 0.60649869
v -0.39565131 0.46581554 0.52842180
v -0.39663504 0.44581937 0.55255897
v -0.39442008 0.45334796 0.54887818
v -0.39640657 0.45728452 0.53983734
v -0.39866594 0.46861393 0.51566624
v -0.40112205 0.47019065 0.50470868
v -0.40251828 0.47133924 0.49283516
v -0.40495538 0.46425968 0.50470868
v -0.36919886 0.45124914 0.55796991
v -0.36687604 0.44064024 0.57152268
v -0.36296656 0.42961365 0.58448178
v -0.36296656 0.42519675 0.59041854
v -0.35566800 0.41721919 0.59554112
v -0.36865941 0.46341390 0.53483350
v -0.35417656 0.40623438 0.60844933
v -0.35110483 0.39465437 0.62028893
v -0.34876928 0.38313701 0.63250170
v -0.34353973 0.38313701 0.62802369
v -0.36940831 0.48869360 0.46121767
v -0.37482192 0.48919480 0.46910507
v -0.37562159 0.48763898 0.47979124
v -0.38010861 0.48710642 0.48769562
v -0.37394609 0.47856501 0.50537020
v -0.36941464 0.47460755 0.50976341
v -0.37164229 0.38313701 0.63022877
v -0.39727604 0.47970317 0.48097860
v -0.39104373 0.48612491 0.46910507
v -0.39082159 0.48589517 0.46121767
v -0.39436295 0.44215431 0.56105702
v -0.39149434 0.43828036 0.56896139
v -0.38262182 0.41782479 0.59554112
v -0.37047453 0.38313701 0.63104295
v -0.39355062 0.46389421 0.53556287
v -0.39369657 0.47579790 0.51230774
v -0.39039637 0.45005879 0.55679952
v -0.39519437 0.47704051 0.50470868
v -0.39659060 0.47858590 0.49283516
v -0.37381917 0.45499775 0.55325442
v -0.37710667 0.45195919 0.55895371
v -0.37381917 0.44817925 0.56334691
v -0.37482192 0.44151734 0.57257434
v -0.37482192 0.46467737 0.53695377
v -0.37482192 0.46136731 0.54287357
v -0.37482192 0.43690206 0.57851110
v -0.37482192 0.43098152 0.58580483
v -0.36296656 0.41926578 0.59766139
v -0.37732244 0.47666461 0.51395306
v -0.35110483 0.38976759 0.62622570
v -0.35110483 0.38383662 0.63314626
v -0.35110483 0.38313701 0.63390956
v -0.37482192 0.48981087 0.46121767
v -0.38331995 0.48781646 0.48097860
v -0.38140966 0.48710642 0.48769562
v -0.38668998 0.48062206 0.50470868
v -0.38668998 0.47683166 0.51437712
v -0.38925400 0.48563414 0.48097860
v -0.38510969 0.48858916 0.46910507
v -0.38489391 0.48857873 0.46121767
v -0.38358650 0.44101614 0.57186193
v -0.38347863 0.42978070 0.58405773
v -0.37235311 0.39508249 0.62013627
v -0.37482192 0.40730987 0.60860199
v -0.37482192 0.41324083 0.60358119
v -0.37482192 0.41971479 0.59764443
v -0.36877364 0.38313701 0.63184017
v -0.38653766 0.45493510 0.55255897
v -0.38668998 0.46128376 0.54343332
v -0.38668998 0.46503237 0.53749656
v -0.38668998 0.46986697 0.52842180
v -0.38668998 0.47393926 0.52031388
v -0.38589667 0.48450640 0.49212275
v -0.38248857 0.45195919 0.55895371
v -0.37482192 0.42565619 0.59172463
v -0.36296656 0.41411797 0.60358119
v -0.36296656 0.40818700 0.61007771
v -0.36296656 0.40262150 0.61601446
v -0.36296656 0.39669053 0.62198515
v -0.36296656 0.39046717 0.62792191
v -0.36296656 0.38453620 0.63328196
v -0.36296656 0.38313701 0.63450323
v -0.37827443 0.48960203 0.46121767
f 17 11 15
f 1 3 4
f 4 3 7
f 4 8 9
f 9 5 4
f 104 114 133
f 133 134 104
f 132 124 99
f 101 124 91
f 38 36 51
f 20 17 15
f 26 17 25
f 39 58 41
f 41 26 25
f 34 26 41
f 4 5 2
f 2 1 4
f 11 7 10
f 15 11 10
f 35 49 50
f 35 34 48
f 48 49 35
f 91 124 119
f 119 86 91
f 124 146 119
f 91 86 61
f 135 105 104
f 104 134 135
f 113 133 114
f 113 83 111
f 114 83 113
f 111 148 113
f 113 148 133
f 128 97 96
f 96 97 65
f 147 146 124
f 124 132 147
f 111 146 147
f 147 132 111
f 54 38 53
f 53 78 54
f 81 78 53
f 55 38 54
f 17 26 21
f 21 34 35
f 25 17 24
f 17 23 24
f 24 23 36
f 24 38 39
f 36 38 24
f 6 7 3
f 6 10 7
f 19 18 27
f 19 13 18
f 19 27 28
f 12 13 8
f 18 13 12
f 14 9 8
f 8 13 14
f 49 48 59
f 59 41 58
f 84 83 114
f 84 55 83
f 43 45 60
f 60 61 43
f 43 61 62
f 28 45 43
f 28 27 42
f 42 45 28
f 92 62 90
f 62 61 90
f 158 135 134
f 133 148 130
f 99 97 130
f 65 97 66
f 97 67 66
f 66 45 65
f 66 67 45
f 98 97 99
f 99 67 98
f 98 67 97
f 124 101 100
f 101 67 100
f 99 124 100
f 100 67 99
f 60 45 68
f 45 67 68
f 68 67 101
f 68 101 91
f 91 61 68
f 68 61 60
f 81 53 80
f 38 55 56
f 56 58 39
f 39 38 56
f 111 83 82
f 83 55 82
f 82 55 54
f 82 78 111
f 54 78 82
f 30 31 20
f 52 77 74
f 52 73 51
f 17 20 22
f 20 31 22
f 22 23 17
f 22 31 23
f 11 17 16
f 17 21 16
f 33 26 34
f 34 21 33
f 40 41 25
f 25 24 40
f 39 41 40
f 40 24 39
f 50 71 72
f 104 105 72
f 72 71 104
f 103 114 104
f 104 71 103
f 103 84 114
f 70 50 49
f 70 71 50
f 49 59 70
f 70 103 71
f 84 103 70
f 70 59 58
f 58 84 70
f 94 95 62
f 28 43 44
f 86 116 117
f 115 116 86
f 145 119 146
f 149 116 145
f 89 90 61
f 92 90 89
f 134 133 129
f 133 130 129
f 129 130 97
f 129 97 128
f 128 158 129
f 129 158 134
f 131 132 99
f 99 130 131
f 111 132 131
f 131 148 111
f 131 130 148
f 77 52 76
f 74 77 108
f 108 77 109
f 110 78 81
f 81 80 110
f 111 78 110
f 110 80 112
f 110 146 111
f 110 145 146
f 57 53 38
f 57 38 51
f 51 73 57
f 112 80 107
f 74 108 107
f 106 107 80
f 58 56 85
f 85 56 55
f 85 84 58
f 55 84 85
f 29 30 20
f 46 31 29
f 31 30 29
f 47 31 46
f 46 52 47
f 75 52 74
f 73 52 75
f 75 106 73
f 74 107 75
f 107 106 75
f 32 21 26
f 26 33 32
f 32 33 21
f 93 62 92
f 93 94 62
f 92 125 93
f 93 125 94
f 62 95 64
f 119 145 120
f 120 145 116
f 116 115 120
f 86 119 120
f 120 115 86
f 156 157 127
f 127 155 156
f 127 152 153
f 88 89 61
f 118 117 116
f 86 117 118
f 118 116 149
f 109 77 102
f 77 76 102
f 157 156 140
f 140 156 155
f 143 112 149
f 143 110 112
f 137 107 108
f 79 57 73
f 73 106 79
f 53 57 79
f 79 80 53
f 79 106 80
f 37 52 51
f 37 47 52
f 31 47 37
f 23 31 37
f 51 36 37
f 36 23 37
f 127 94 126
f 94 125 126
f 126 152 127
f 63 64 44
f 62 64 63
f 63 43 62
f 63 44 43
f 87 61 86
f 87 88 61
f 89 88 87
f 86 118 87
f 87 118 89
f 122 89 121
f 89 118 121
f 149 122 121
f 121 118 149
f 69 102 76
f 69 52 46
f 69 76 52
f 157 140 138
f 138 108 109
f 141 140 155
f 108 140 141
f 141 137 108
f 145 110 144
f 110 143 144
f 149 145 144
f 144 143 149
f 136 122 149
f 149 112 136
f 112 107 136
f 107 137 136
f 123 89 122
f 92 89 123
f 123 125 92
f 123 126 125
f 142 138 109
f 157 138 142
f 139 140 108
f 108 138 139
f 139 138 140
f 154 141 155
f 154 155 127
f 127 153 154
f 150 153 152
f 137 141 150
f 150 154 153
f 141 154 150
f 122 136 150
f 150 136 137
f 152 126 151
f 126 123 151
f 151 123 122
f 122 150 151
f 151 150 152
f 59 48 34
f 34 41 59
f 72 8 4
f 27 18 72
f 72 42 27
f 128 96 72
f 4 7 72
f 35 50 72
f 72 7 11
f 72 21 35
f 72 12 8
f 11 16 72
f 65 45 72
f 105 135 72
f 72 96 65
f 72 158 128
f 18 12 72
f 45 42 72
f 135 158 72
f 72 16 21
f 15 10 142
f 142 20 15
f 142 2 5
f 9 14 142
f 142 64 95
f 3 1 142
f 5 9 142
f 28 44 142
f 142 69 46
f 1 2 142
f 142 6 3
f 142 19 28
f 10 6 142
f 13 19 142
f 142 14 13
f 142 94 127
f 95 94 142
f 46 29 142
f 127 157 142
f 142 29 20
f 44 64 142
f 109 102 142
f 102 69 142