# https://github.com/mikedh/trimesh
v -0.03083183 0.50471604 -0.00445105
v -0.05455760 0.51657505 -0.00414728
v -0.01901920 0.50471604 -0.00443783
v -0.25617644 0.48386223 -0.00406808
v -0.25612617 0.49285700 -0.00430574
v -0.16122306 0.52462604 -0.00126842
v -0.14941044 0.52481481 -0.00136083
v -0.09009600 0.52616896 -0.00149292
v -0.07828338 0.52642334 -0.00137406
v -0.04274498 0.52623462 -0.00085907
v -0.03083183 0.52575859 -0.00048925
v -0.04274498 0.51657505 -0.00360584
v -0.23240038 0.50471604 -0.00360584
v -0.19681174 0.51740396 -0.00200798
v -0.01901920 0.51657505 -0.00199476
v -0.00710605 0.50471604 -0.00350020
v -0.00509539 0.50273815 -0.00364551
v -0.00509539 0.49285700 -0.00393599
v -0.03083183 0.51657505 -0.00285312
v -0.25617644 0.48386223 0.09440803
v -0.33956852 0.50657900 0.05387925
v -0.33826160 0.50657900 0.04202039
v -0.33544666 0.50657900 0.03558914
v -0.33489373 0.50657900 0.03441381
v -0.32790669 0.50657900 0.02928994
v -0.31860740 0.50657900 0.02350577
v -0.31609407 0.50657900 0.02205312
v -0.30548786 0.50657900 0.01641422
v -0.29096085 0.50657900 0.00998297
v -0.28186263 0.50657900 0.00615329
v -0.00509539 0.49071499 -0.00369833
v -0.00509539 0.48393608 -0.00155897
v 0.14902162 0.47708329 0.06097080
v 0.12087240 0.47708329 0.06097080
v 0.06809260 0.47708329 0.09203096
v 0.06050236 0.47708329 0.09790759
v 0.05572704 0.47708329 0.10171086
v 0.05457092 0.47708329 0.10357290
v 0.04974534 0.47708329 0.11272455
v 0.04954427 0.47708329 0.11318675
v 0.04758388 0.47708329 0.12505884
v -0.24426327 0.50471604 -0.00314368
v -0.27934927 0.50657900 0.00513642
v -0.27271412 0.50657900 0.00254808
v -0.26798906 0.50657900 0.00093696
v -0.26195708 0.51060862 0.00054076
v -0.25798605 0.50657900 -0.00108351
v -0.25617644 0.50579114 -0.00151937
v -0.16122306 0.53055966 0.00438367
v -0.07828338 0.53235696 0.00196701
v -0.17308595 0.52423211 -0.00104391
v -0.04274498 0.53216820 0.00175572
v -0.03083183 0.53169221 0.00174250
v -0.01901920 0.52444548 -0.00007990
v -0.18494884 0.52360837 -0.00048925
v -0.01002151 0.52313238 0.00027669
v -0.00650285 0.51756808 -0.00077980
v -0.00509539 0.51722340 -0.00072698
v -0.00509539 0.50471604 -0.00331536
v 0.17365219 0.56092530 0.06097080
v 0.17365219 0.48257373 0.06097080
v -0.25617644 0.49316888 0.10288619
v -0.33861346 0.50657900 0.07084877
v -0.33946800 0.50657900 0.05575448
v 0.04803628 0.47708329 0.13044682
v -0.33956852 0.52842585 0.07084877
v -0.33971931 0.51657505 0.05387925
v -0.33987014 0.52842585 0.05387925
v -0.33826160 0.51657505 0.04202039
v -0.33484349 0.51657505 0.03450623
v -0.33419002 0.52582424 0.03520617
v -0.33293334 0.53373573 0.03634186
v -0.32504151 0.53772430 0.03449305
v 0.14464845 0.47708329 0.06530232
v -0.26798906 0.50834349 0.00155763
v -0.29764628 0.53433483 0.02424530
v -0.27542851 0.52332934 0.01179218
v -0.26798906 0.52429777 0.01109225
v -0.25617644 0.52549597 0.01026030
v -0.19289095 0.52298466 0.00007856
v -0.17308595 0.53016573 0.00480627
v -0.17308595 0.53571359 0.01073569
v -0.16122306 0.53603366 0.01031312
v -0.14941044 0.53633733 0.00996978
v -0.07828338 0.53765044 0.00789646
v -0.03083183 0.53794590 0.00767195
v -0.24426327 0.53242262 0.01401075
v -0.01901920 0.53801976 0.00820016
v -0.00509539 0.53777355 0.00934908
v -0.01901920 0.53037090 0.00225753
v -0.25617644 0.53142959 0.01472387
v -0.00509539 0.52253328 0.00055399
v -0.00509539 0.51897969 -0.00030441
v 0.17365219 0.56076118 0.07761017
v -0.00509539 0.52593915 0.00224434
v -0.00509539 0.52771184 0.00314233
v -0.00509539 0.54369896 0.01584637
v -0.00509539 0.54770394 0.02177579
v -0.00509539 0.55156940 0.03016153
v -0.00509539 0.55629658 0.04268069
v -0.00509539 0.55748658 0.04587648
v -0.00514566 0.55789695 0.04698580
v -0.00514566 0.55803646 0.05022122
v 0.17365219 0.48469930 0.06605504
v 0.06955033 0.47708329 0.13044682
v -0.25617644 0.49891373 0.10777236
v -0.28125942 0.52579964 0.11714852
v -0.29925481 0.53821673 0.11714852
v -0.33876425 0.50982896 0.07084877
v -0.00514566 0.48881918 0.13044682
v -0.25617644 0.50492121 0.11088892
v -0.29925481 0.55038760 0.11714852
v -0.33921666 0.53353056 0.07084877
v -0.33856318 0.54028485 0.07084877
v -0.33846267 0.54028485 0.05387925
v -0.33599962 0.54028485 0.04394844
v -0.33650227 0.52923832 0.04099034
v -0.33464243 0.54732641 0.04632550
v -0.32830883 0.54112197 0.03800580
v -0.31820526 0.54563578 0.03671161
v -0.28975445 0.53568898 0.02310961
v -0.26798906 0.53023139 0.01551622
v -0.27985195 0.53659995 0.02218517
v -0.24426327 0.53824954 0.01994019
v -0.18494884 0.53525400 0.01131676
v -0.29171485 0.54758083 0.03437418
v -0.22053751 0.54482331 0.02610734
v -0.13749729 0.54247612 0.01786687
v -0.12573493 0.54666986 0.02349255
v -0.09009600 0.54334604 0.01688964
v -0.07828338 0.54357586 0.01667832
v -0.03083183 0.54387129 0.01588597
v -0.01901920 0.54395335 0.01578033
v -0.30357774 0.54698993 0.03514012
v 0.17365219 0.55993227 0.08453003
v 0.04039577 0.55867661 0.06097080
v -0.00710605 0.54771214 0.02176260
v -0.01901920 0.54774495 0.02170978
v -0.01901920 0.55154479 0.03016153
v -0.03083183 0.55143809 0.03016153
v -0.11382178 0.55026450 0.03016153
v -0.22053751 0.55180741 0.04202039
v -0.25617644 0.55102775 0.04202039
v -0.25617644 0.55267734 0.05390566
v -0.24421303 0.55296457 0.05390566
v 0.17365219 0.49088734 0.07681781
v 0.17365219 0.49224150 0.07897037
v 0.17365219 0.49670606 0.08587704
v 0.17365219 0.49847055 0.08709197
v 0.17365219 0.50553672 0.09183287
v 0.17365219 0.50900004 0.09294218
v 0.17365219 0.51627138 0.09439480
v 0.17365219 0.54196728 0.09588709
v 0.17365219 0.54776139 0.09588709
v 0.06366914 0.48151504 0.13044682
v -0.00514566 0.50082594 0.13044682
v -0.31544060 0.55051071 0.07084877
v -0.32056779 0.55030554 0.07084877
v -0.32730349 0.54985416 0.07084877
v -0.33082215 0.54894319 0.07084877
v -0.33524559 0.54776959 0.07084877
v -0.33710547 0.54358406 0.07084877
v 0.00475684 0.50141684 0.13044682
v 0.01124121 0.50113781 0.13044682
v 0.01661972 0.50089159 0.13044682
v 0.17365219 0.55367857 0.09262522
v 0.17365219 0.55522969 0.09121220
v 0.17365219 0.55962039 0.08669581
v 0.17083729 0.55961219 0.08668258
v -0.33514508 0.54768753 0.05387925
v -0.32730349 0.54809787 0.04422577
v -0.32730349 0.54970641 0.05387925
v -0.29171485 0.55009214 0.04202039
v -0.27985195 0.55042041 0.04202039
v -0.22053751 0.54845896 0.03202353
v -0.13749729 0.54648109 0.02379629
v -0.12573493 0.54997727 0.03016153
v -0.11382178 0.54680937 0.02326807
v -0.03083183 0.54768753 0.02182861
v -0.26798906 0.55225056 0.05387925
v 0.17365219 0.54914836 0.09517397
v 0.02099291 0.50036635 0.13044682
v 0.02617035 0.49945538 0.13044682
v 0.03989311 0.49467895 0.13044682
v 0.04617641 0.49233176 0.13044682
v 0.05200733 0.48971375 0.13044682
v 0.05733557 0.48605346 0.13044682
v -0.31544060 0.55048607 0.06572489
v -0.31544060 0.55027270 0.05387925
v -0.27985195 0.55178277 0.05387925
f 165 166 112
f 32 61 33
f 33 4 32
f 33 61 74
f 105 74 61
f 34 4 33
f 35 4 34
f 107 63 106
f 94 136 112
f 112 166 167
f 167 168 112
f 60 61 18
f 18 4 3
f 152 105 151
f 153 105 152
f 154 105 153
f 115 161 170
f 65 20 41
f 20 4 41
f 114 115 68
f 21 4 20
f 62 20 65
f 65 106 62
f 62 63 20
f 62 106 63
f 135 94 112
f 107 110 108
f 108 63 107
f 108 109 63
f 112 66 108
f 66 109 108
f 107 106 111
f 111 110 107
f 65 110 111
f 111 106 65
f 61 32 31
f 31 18 61
f 31 32 4
f 4 18 31
f 60 18 17
f 17 18 3
f 151 105 150
f 104 105 61
f 166 165 181
f 4 39 40
f 40 41 4
f 36 4 35
f 36 37 4
f 38 39 4
f 4 37 38
f 4 28 29
f 113 66 112
f 112 114 113
f 68 66 113
f 113 114 68
f 112 161 162
f 162 114 112
f 161 115 162
f 115 114 162
f 170 161 160
f 160 159 170
f 160 161 112
f 112 159 160
f 158 157 188
f 112 157 158
f 158 159 112
f 20 63 64
f 64 21 20
f 63 109 64
f 66 21 64
f 64 109 66
f 4 21 22
f 68 69 22
f 168 135 169
f 112 168 169
f 169 135 112
f 112 156 163
f 59 58 60
f 60 17 59
f 105 148 149
f 149 150 105
f 105 104 146
f 105 154 155
f 25 4 24
f 25 26 4
f 27 28 4
f 4 26 27
f 71 28 27
f 27 26 71
f 4 29 30
f 71 117 116
f 68 115 116
f 116 69 68
f 116 117 69
f 144 157 112
f 112 145 144
f 3 4 1
f 1 2 3
f 4 30 5
f 5 1 4
f 2 1 5
f 6 2 14
f 24 4 23
f 4 22 23
f 23 22 69
f 68 22 67
f 67 22 21
f 67 66 68
f 67 21 66
f 102 144 145
f 164 165 112
f 112 163 164
f 16 17 3
f 16 59 17
f 58 59 16
f 147 148 105
f 105 146 147
f 182 183 154
f 154 181 182
f 182 181 165
f 185 186 154
f 154 186 187
f 187 155 154
f 71 26 70
f 26 25 70
f 70 25 24
f 24 23 70
f 70 23 69
f 69 117 70
f 70 117 71
f 71 116 72
f 119 73 72
f 72 28 71
f 72 29 28
f 72 30 29
f 72 73 30
f 3 19 15
f 15 16 3
f 3 2 12
f 12 19 3
f 58 16 57
f 16 15 57
f 7 2 6
f 7 8 2
f 44 5 43
f 43 5 30
f 43 73 44
f 30 73 43
f 2 5 13
f 13 5 42
f 13 14 2
f 42 14 13
f 6 14 51
f 124 126 82
f 49 81 82
f 6 51 49
f 49 51 81
f 60 99 100
f 60 102 103
f 103 94 60
f 136 94 103
f 103 102 145
f 112 136 103
f 103 145 112
f 144 102 143
f 154 183 184
f 184 185 154
f 84 128 85
f 85 128 129
f 119 72 118
f 118 72 116
f 118 115 170
f 118 116 115
f 120 121 76
f 120 73 119
f 76 73 120
f 119 118 120
f 120 118 171
f 45 5 44
f 42 5 48
f 5 47 48
f 44 73 75
f 75 45 44
f 46 14 42
f 42 48 46
f 46 48 47
f 45 75 46
f 46 47 5
f 5 45 46
f 46 73 76
f 46 75 73
f 82 81 125
f 125 124 82
f 81 124 125
f 101 102 60
f 60 100 101
f 142 102 141
f 141 143 142
f 142 143 102
f 132 133 85
f 179 133 132
f 60 89 97
f 82 126 83
f 126 84 83
f 83 49 82
f 83 84 49
f 127 84 126
f 128 84 127
f 141 179 178
f 178 129 141
f 175 143 141
f 126 143 175
f 171 118 172
f 172 173 171
f 189 173 172
f 170 159 172
f 172 118 170
f 159 158 172
f 172 158 188
f 188 189 172
f 123 121 134
f 121 120 134
f 134 120 171
f 134 173 126
f 171 173 134
f 2 8 9
f 11 12 2
f 19 12 11
f 85 133 86
f 133 97 86
f 8 7 50
f 50 7 6
f 6 49 50
f 85 86 50
f 50 84 85
f 49 84 50
f 55 51 14
f 14 46 55
f 76 121 77
f 77 46 76
f 141 102 140
f 140 179 141
f 174 143 126
f 126 173 174
f 144 143 174
f 174 173 144
f 190 173 189
f 190 189 188
f 98 97 133
f 98 99 60
f 60 97 98
f 176 129 128
f 128 127 176
f 176 127 126
f 126 175 176
f 176 175 129
f 179 132 131
f 131 178 179
f 131 132 85
f 129 178 131
f 141 129 177
f 177 175 141
f 129 175 177
f 2 9 10
f 10 11 2
f 10 9 53
f 53 11 10
f 54 15 19
f 19 11 54
f 54 11 53
f 88 97 89
f 88 86 97
f 89 53 88
f 53 86 88
f 52 9 8
f 8 50 52
f 53 9 52
f 52 86 53
f 52 50 86
f 96 89 60
f 60 95 96
f 139 101 100
f 139 100 99
f 102 101 139
f 139 140 102
f 144 173 180
f 173 190 180
f 157 144 180
f 188 157 180
f 180 190 188
f 138 133 179
f 138 139 99
f 179 140 138
f 140 139 138
f 85 129 130
f 130 131 85
f 129 131 130
f 56 57 15
f 15 54 56
f 80 55 46
f 46 79 80
f 80 91 55
f 79 91 80
f 46 77 78
f 78 79 46
f 78 77 121
f 78 121 123
f 137 98 133
f 133 138 137
f 99 98 137
f 137 138 99
f 57 56 92
f 92 95 60
f 90 54 53
f 90 56 54
f 90 92 56
f 95 92 90
f 90 96 95
f 90 53 89
f 89 96 90
f 87 91 123
f 55 91 87
f 126 124 87
f 87 124 81
f 123 134 87
f 87 134 126
f 81 51 87
f 51 55 87
f 122 91 79
f 79 78 122
f 123 91 122
f 122 78 123
f 58 57 93
f 57 92 93
f 60 58 93
f 93 92 60
f 112 108 156
f 156 108 110
f 38 34 33
f 38 105 65
f 33 74 38
f 74 105 38
f 35 34 38
f 65 41 38
f 38 40 39
f 38 36 35
f 41 40 38
f 37 36 38
f 147 135 168
f 147 61 60
f 147 167 166
f 60 94 147
f 147 152 151
f 147 104 61
f 168 167 147
f 151 150 147
f 153 152 147
f 147 154 153
f 94 135 147
f 166 181 147
f 147 149 148
f 147 181 154
f 150 149 147
f 147 146 104
f 65 105 184
f 105 155 184
f 184 110 65
f 184 156 110
f 165 164 184
f 184 163 156
f 184 182 165
f 186 185 184
f 184 164 163
f 183 182 184
f 184 187 186
f 155 187 184