# https://github.com/mikedh/trimesh
v 0.08015635 0.38313701 0.83368535
v 0.07596514 0.44036450 0.95896039
v 0.08785448 0.44036450 0.95909969
v 0.09970107 0.44024398 0.95944798
v 0.09970107 0.43753224 0.95352726
v 0.11154764 0.43744187 0.95401485
v 0.08785448 0.38313701 0.83434707
v 0.07596514 0.38313701 0.83382465
v -0.10199015 0.38315709 0.83838708
v -0.01897856 0.43769293 0.95328349
v 0.19430261 0.48574074 1.10979889
v -0.01897856 0.44027410 0.95923899
v 0.11154764 0.44002304 0.95993553
v 0.12339422 0.43215900 0.94374070
v 0.13297413 0.42825211 0.93677515
v 0.12399297 0.38313701 0.83988467
v 0.01664671 0.38313701 0.83594915
v 0.00758001 0.38313701 0.83640190
v -0.10357254 0.38315709 0.83849157
v -0.11379396 0.38315709 0.83922294
v -0.06756237 0.43750212 0.95655727
v 0.00758001 0.48572066 1.17670278
v 0.15452893 0.48574074 1.15622412
v 0.19430261 0.48574074 1.13828789
v 0.20666243 0.40446926 0.93061069
v 0.14708738 0.42960799 0.94590000
v 0.13622445 0.43068263 0.94259139
v 0.12005836 0.43973178 0.96070176
v -0.07230955 0.43943044 0.96146798
v -0.09014357 0.45421438 1.02663047
v -0.10199015 0.45368210 1.02663047
v 0.14084334 0.42746873 0.93788967
v 0.12916783 0.38313701 0.84270571
v 0.00758001 0.38313701 0.86715471
v -0.23016414 0.38315709 0.92549099
v -0.16066706 0.38315709 0.86391575
v -0.14894879 0.38315709 0.85360675
v -0.13748712 0.38315709 0.84660640
v -0.13338145 0.38315709 0.84489986
v -0.12499903 0.38315709 0.84180018
v -0.11657385 0.38315709 0.83971053
v -0.12564054 0.42970840 0.94603930
v -0.11379396 0.43013023 0.94492483
v 0.00758001 0.48572066 1.18948453
v -0.23016414 0.45585149 1.08921575
v 0.15452893 0.48574074 1.17074728
v 0.19430261 0.48095002 1.13929792
v 0.19118061 0.48574074 1.14197964
v 0.19169383 0.48095002 1.14250206
v 0.19430261 0.47404013 1.13968100
v 0.20666243 0.38313701 0.93061069
v 0.20666243 0.39381319 0.91988374
v 0.13579678 0.38313701 0.84709399
v -0.12564054 0.43336424 0.95554727
v -0.13748712 0.43251054 0.95554727
v -0.14937646 0.43157649 0.95554727
v -0.10900401 0.43947064 0.97310039
v -0.11345182 0.45246682 1.02596876
v -0.22156789 0.38315709 0.95418898
v -0.23016414 0.38315709 0.95011414
v 0.17005349 0.38313701 0.93061069
v -0.23016414 0.39730830 0.94217345
v -0.23016414 0.39803143 0.94318346
v -0.23016414 0.40608624 0.95648762
v -0.16528595 0.42694646 0.95056690
v -0.15737397 0.42802113 0.94882554
v 0.00758001 0.48212510 1.18861387
v 0.01668948 0.48246656 1.18847449
v 0.01668948 0.48572066 1.18924072
v -0.23016414 0.45585149 1.13006856
v -0.22918051 0.45585149 1.13278514
v -0.22575912 0.45585149 1.13874065
v -0.22195281 0.45585149 1.14448720
v -0.21673517 0.45585149 1.15218411
v -0.21613643 0.45585149 1.15298516
v -0.21130371 0.45585149 1.15820931
v -0.20471753 0.45585149 1.16479174
v -0.19791752 0.45585149 1.16931934
v -0.19107473 0.45585149 1.17356830
v -0.18974893 0.45585149 1.17419522
v -0.18401807 0.45585149 1.17666796
v -0.17465203 0.45585149 1.17847898
v -0.17306962 0.45585149 1.17861831
v -0.14937646 0.44328714 1.00298251
v -0.16122306 0.43331400 0.96738866
v -0.16130858 0.42973856 0.95492038
v -0.16964822 0.42881454 0.95850763
v -0.23016414 0.45247687 1.07953366
v 0.02853606 0.48572066 1.18882282
v 0.04038263 0.48572066 1.18830040
v 0.05222921 0.48572066 1.18749939
v 0.05684810 0.48572066 1.18715106
v 0.12339422 0.48572066 1.17914073
v 0.13524081 0.48572066 1.17757349
v 0.14358044 0.48572066 1.17565796
v 0.14593267 0.48572066 1.17464795
v 0.15123584 0.46909876 1.17363795
v 0.15897673 0.48574074 1.16872727
v 0.18553531 0.48574074 1.14790033
v 0.18596297 0.48095002 1.14842274
v 0.18626236 0.46908872 1.14880585
v 0.19186488 0.46908872 1.14288517
v 0.19430261 0.46908872 1.13961135
v 0.20666243 0.38313701 0.90967927
v 0.19430261 0.46300240 1.13846205
v 0.19430261 0.45767937 1.13651169
v 0.19430261 0.45462617 1.13532756
v 0.19430261 0.45130179 1.13327273
v 0.19430261 0.44805777 1.13104374
v 0.19430261 0.44521547 1.12864066
v 0.19430261 0.44204174 1.12543649
v 0.19430261 0.43779338 1.11854063
v 0.19430261 0.43388648 1.10851028
v 0.19430261 0.43063242 1.09983820
v 0.19190766 0.43581481 1.12153581
v 0.18917054 0.42728796 1.10502751
v 0.17638306 0.42773991 1.12693408
v 0.19430261 0.38316713 0.94346209
v -0.22092640 0.38315709 0.95429349
v -0.22118298 0.38315709 0.95425863
v -0.19672003 0.42589191 1.14595001
v -0.20869489 0.42362208 1.13341203
v -0.23016414 0.42449586 1.09900232
v -0.21737670 0.42618317 1.13341203
v -0.22135406 0.42465655 1.12209305
v -0.22759810 0.42662508 1.11850580
v -0.22896665 0.42545000 1.10965959
v -0.23016414 0.41081671 0.96648314
v 0.00758001 0.47759552 1.18666351
v 0.13524081 0.46106403 1.17586691
v -0.17306962 0.44832895 1.17652866
v 0.02853606 0.48311941 1.18826554
v -0.23016414 0.44536612 1.12978996
v -0.22913773 0.44536612 1.13264584
v -0.22580186 0.44536612 1.13856652
v -0.22075531 0.44536612 1.14528825
v -0.21549493 0.44536612 1.15218411
v -0.20407600 0.44790712 1.16426932
v -0.19783196 0.44452250 1.16719482
v -0.18243570 0.44896167 1.17597142
v 0.04038263 0.48390278 1.18791729
v 0.05222921 0.48505778 1.18742967
v 0.14413643 0.46146574 1.17558831
v 0.13524081 0.46909876 1.17753866
v 0.13524081 0.48095002 1.17781726
v 0.14413643 0.48095002 1.17583212
v 0.14529114 0.46909876 1.17604107
v 0.15897673 0.45721738 1.16890140
v 0.15897673 0.46908872 1.16973724
v 0.16744467 0.48095002 1.16486139
v 0.16714532 0.48574074 1.16461761
v 0.17963340 0.48574074 1.15396034
v 0.18001832 0.48095002 1.15427377
v 0.18031768 0.46908872 1.15437828
v 0.17971893 0.45721738 1.15389069
v 0.18562084 0.45721738 1.14796998
v 0.19088122 0.45721738 1.14204929
v 0.18968376 0.44843944 1.14062135
v 0.19182213 0.44484388 1.13407375
v 0.18810135 0.44053524 1.13856652
v 0.19023972 0.43760256 1.13062584
v 0.18356799 0.43447904 1.13407375
v 0.18232775 0.42953767 1.12237165
v 0.18018937 0.43682919 1.14257171
v 0.17176421 0.42897523 1.13344686
v 0.16847108 0.42718751 1.12954615
v -0.18825208 0.42728796 1.15200999
v -0.19274263 0.42728796 1.15200999
v -0.20869489 0.42639406 1.14197964
v -0.21498171 0.42735825 1.13968100
v -0.23016414 0.42758926 1.10965959
v -0.22584464 0.42826215 1.12644652
v -0.22969370 0.43273148 1.12209305
v -0.23016414 0.43284197 1.12052581
v 0.00758001 0.47619947 1.18603659
v 0.13524081 0.45513840 1.17241900
v -0.18495896 0.43570436 1.16695104
v -0.17306962 0.44239328 1.17255830
v 0.14708738 0.44720408 1.16684657
v -0.23016414 0.43444891 1.12202340
v -0.22815407 0.43614626 1.13059098
v -0.21472510 0.43927979 1.15131345
v -0.20245085 0.44000292 1.16277173
v -0.19453887 0.43706021 1.16524450
v -0.18581431 0.44515522 1.17301106
v 0.14768614 0.45739815 1.17280207
v 0.15897673 0.44843944 1.16534898
v 0.16586230 0.45026732 1.16374691
v 0.16693149 0.45721738 1.16461761
v 0.16761576 0.46908872 1.16507037
v 0.17334658 0.48095002 1.16022931
v 0.17308997 0.48574074 1.15988102
v 0.17351767 0.46908872 1.16029900
v 0.17287614 0.45721738 1.15981137
v 0.17835039 0.44842939 1.15270653
v 0.17565604 0.44051515 1.15051240
v 0.16774407 0.43814492 1.15277621
v 0.17133651 0.43520216 1.14601966
v 0.15897673 0.43718073 1.15427377
v 0.15897673 0.43283193 1.14525343
v -0.18457408 0.42972852 1.15639829
v -0.20065461 0.42817178 1.15037309
v -0.21686348 0.43459956 1.14427825
v -0.22353518 0.43273148 1.13403892
v 0.14708738 0.44126840 1.16057760
v 0.15897673 0.44251380 1.16022931
f 26 11 25
f 118 119 51
f 119 61 51
f 11 26 27
f 11 27 28
f 28 27 14
f 22 23 11
f 63 37 62
f 179 131 178
f 176 131 179
f 179 143 176
f 59 60 34
f 34 61 59
f 114 51 113
f 25 11 24
f 24 47 25
f 50 51 25
f 25 47 50
f 21 10 20
f 13 28 14
f 11 28 13
f 12 29 11
f 12 21 29
f 10 21 12
f 35 62 36
f 36 62 37
f 64 37 63
f 179 178 177
f 177 201 199
f 168 201 177
f 177 178 131
f 44 82 83
f 81 82 44
f 148 97 143
f 44 83 67
f 67 83 131
f 130 175 131
f 131 176 130
f 130 176 143
f 143 132 130
f 96 46 95
f 96 97 46
f 120 61 119
f 120 59 61
f 14 27 15
f 15 7 14
f 39 38 66
f 37 64 65
f 86 66 65
f 65 38 37
f 65 66 38
f 20 42 43
f 43 21 20
f 29 21 43
f 167 201 168
f 199 201 167
f 167 200 199
f 166 200 167
f 167 118 166
f 167 119 118
f 179 177 205
f 205 177 199
f 60 59 122
f 166 118 117
f 118 51 117
f 117 51 116
f 116 163 117
f 199 198 197
f 197 198 164
f 199 200 165
f 165 198 199
f 165 200 166
f 166 117 165
f 164 198 165
f 165 117 164
f 162 163 116
f 164 117 162
f 162 117 163
f 146 96 95
f 97 96 146
f 95 46 94
f 94 146 95
f 145 146 94
f 144 92 143
f 144 145 92
f 89 90 46
f 91 92 46
f 46 90 91
f 141 132 143
f 141 89 132
f 90 89 141
f 131 175 129
f 129 67 131
f 175 130 129
f 129 130 67
f 68 130 132
f 67 130 68
f 44 67 68
f 113 51 112
f 51 111 112
f 110 111 51
f 107 108 51
f 51 50 103
f 103 105 51
f 148 187 188
f 188 187 197
f 10 1 9
f 18 38 39
f 37 38 18
f 18 36 37
f 35 36 18
f 2 1 10
f 10 12 2
f 2 12 11
f 25 52 53
f 53 33 25
f 53 52 104
f 32 26 25
f 25 33 32
f 32 27 26
f 42 66 56
f 56 66 86
f 56 57 29
f 86 65 87
f 87 45 86
f 11 29 30
f 168 177 202
f 59 120 121
f 121 122 59
f 121 120 119
f 121 167 168
f 119 167 121
f 44 72 73
f 76 77 44
f 44 75 76
f 75 137 76
f 177 185 184
f 184 202 177
f 138 182 183
f 138 137 182
f 77 76 138
f 138 76 137
f 183 184 139
f 139 184 185
f 139 138 183
f 79 138 139
f 140 139 185
f 79 139 140
f 82 81 140
f 140 177 131
f 140 185 177
f 131 83 140
f 140 83 82
f 186 148 143
f 186 187 148
f 186 143 179
f 179 187 186
f 206 187 179
f 179 205 206
f 206 205 199
f 199 197 206
f 197 187 206
f 92 145 93
f 145 94 93
f 46 92 93
f 93 94 46
f 147 144 143
f 145 144 147
f 147 146 145
f 143 97 147
f 97 146 147
f 69 46 44
f 69 89 46
f 132 89 69
f 44 68 69
f 69 68 132
f 142 91 90
f 90 141 142
f 142 141 143
f 143 92 142
f 92 91 142
f 47 24 49
f 49 50 47
f 97 148 149
f 149 150 97
f 192 151 191
f 191 151 150
f 113 112 115
f 115 114 113
f 116 51 115
f 51 114 115
f 51 108 109
f 109 110 51
f 111 110 161
f 161 112 111
f 161 115 112
f 161 162 116
f 116 115 161
f 51 105 106
f 106 107 51
f 150 149 190
f 190 191 150
f 20 10 19
f 10 9 19
f 19 18 20
f 9 18 19
f 40 18 39
f 39 66 40
f 17 18 9
f 1 2 3
f 3 2 11
f 27 32 16
f 16 32 33
f 16 15 27
f 7 15 16
f 55 56 29
f 42 56 55
f 128 65 64
f 128 87 65
f 135 73 72
f 135 181 182
f 60 125 126
f 60 122 124
f 124 125 60
f 124 126 125
f 74 75 44
f 44 73 74
f 74 135 75
f 73 135 74
f 77 138 78
f 78 138 79
f 44 77 78
f 78 79 44
f 80 140 81
f 79 140 80
f 80 81 44
f 44 79 80
f 48 49 24
f 150 151 98
f 46 97 98
f 97 150 98
f 153 152 192
f 192 191 153
f 110 109 159
f 159 109 108
f 148 188 189
f 189 149 148
f 189 190 149
f 20 18 41
f 18 40 41
f 41 40 66
f 41 42 20
f 41 66 42
f 8 9 1
f 8 17 9
f 6 13 14
f 7 1 6
f 14 7 6
f 54 43 42
f 42 55 54
f 29 43 54
f 54 55 29
f 45 87 88
f 87 128 88
f 45 58 84
f 84 58 56
f 31 58 45
f 31 45 22
f 31 30 29
f 31 22 11
f 11 30 31
f 29 57 31
f 57 56 31
f 56 58 31
f 136 137 75
f 75 135 136
f 182 137 136
f 136 135 182
f 44 70 71
f 71 72 44
f 71 135 72
f 60 126 127
f 127 126 171
f 168 202 169
f 169 121 168
f 122 121 169
f 126 124 172
f 49 48 99
f 152 153 100
f 100 99 152
f 49 99 100
f 102 103 50
f 50 49 102
f 154 153 191
f 108 107 158
f 158 159 108
f 196 195 188
f 196 197 164
f 196 188 197
f 1 3 4
f 13 6 4
f 11 13 4
f 4 3 11
f 45 84 85
f 85 84 56
f 86 45 85
f 85 56 86
f 181 135 134
f 135 71 134
f 134 71 70
f 171 126 174
f 60 127 123
f 123 127 171
f 170 124 122
f 122 169 170
f 170 172 124
f 170 169 202
f 183 182 170
f 182 203 170
f 170 184 183
f 202 184 170
f 181 172 204
f 182 181 204
f 204 203 182
f 204 170 203
f 172 170 204
f 190 189 193
f 191 190 193
f 193 154 191
f 101 100 153
f 153 154 101
f 49 100 101
f 101 102 49
f 107 106 157
f 157 158 107
f 157 106 105
f 105 103 157
f 103 102 157
f 159 158 160
f 160 161 110
f 110 159 160
f 164 162 160
f 162 161 160
f 160 196 164
f 160 158 195
f 195 196 160
f 5 6 1
f 1 4 5
f 5 4 6
f 133 180 181
f 181 134 133
f 133 134 70
f 126 172 173
f 173 174 126
f 173 172 181
f 180 174 173
f 181 180 173
f 188 195 194
f 194 189 188
f 194 193 189
f 195 158 156
f 158 157 156
f 102 101 156
f 156 157 102
f 155 194 195
f 195 156 155
f 154 193 155
f 193 194 155
f 155 101 154
f 155 156 101
f 51 52 25
f 104 52 51
f 46 23 22
f 44 46 22
f 18 60 35
f 34 60 18
f 44 22 70
f 22 45 70
f 8 61 34
f 104 51 8
f 8 51 61
f 34 18 8
f 8 1 7
f 7 16 8
f 8 53 104
f 33 53 8
f 18 17 8
f 8 16 33
f 99 23 46
f 11 23 99
f 99 24 11
f 99 48 24
f 192 152 99
f 99 151 192
f 46 98 99
f 99 98 151
f 133 62 35
f 35 60 133
f 63 62 133
f 133 64 63
f 171 174 133
f 133 128 64
f 133 70 45
f 45 88 133
f 133 88 128
f 60 123 133
f 133 174 180
f 133 123 171