# https://github.com/mikedh/trimesh
v -0.18495676 0.43353904 0.03013013
v -0.18495676 0.44538040 0.03106819
v -0.17311282 0.44538040 0.03120462
v -0.16123897 0.44538040 0.03149458
v -0.16123897 0.43353904 0.03094879
v -0.18495676 0.42307941 0.03321721
v -0.19683060 0.42520025 0.03432581
v -0.19683060 0.43353904 0.03212564
v -0.19742878 0.44566961 0.03355832
v -0.19383971 0.45331748 0.03482044
v -0.18495676 0.45097171 0.03292725
v -0.17308291 0.45481171 0.03418938
v -0.17311282 0.45097171 0.03296137
v -0.16123897 0.45413688 0.03453049
v -0.15283456 0.45281939 0.03524683
v -0.15190738 0.45097171 0.03499099
v -0.14909594 0.44513938 0.03422350
v -0.14873703 0.43384430 0.03364359
v -0.15229620 0.42491104 0.03432581
v -0.15316356 0.41477279 0.04597484
v -0.29929862 0.38726612 0.08803412
v -0.20284230 0.42751392 0.03601433
v -0.20347040 0.43353904 0.03548562
v -0.20359002 0.44192598 0.03534915
v -0.19497625 0.45097171 0.03444521
v -0.20179550 0.44981487 0.03669655
v -0.18495676 0.45461892 0.03415526
v -0.31063411 0.55068339 0.11716521
v -0.17308291 0.46072437 0.03778812
v -0.16123897 0.46006562 0.03828274
v -0.14939503 0.46589791 0.04556549
v -0.00508440 0.50118102 0.11378819
v -0.14909594 0.45097171 0.03601433
v -0.14493860 0.44889906 0.03686710
v -0.14305433 0.44101017 0.03575849
v -0.14305433 0.43802170 0.03575849
v -0.14440024 0.43011676 0.03698653
v -0.13204785 0.41625094 0.06025043
v -0.13997371 0.41245916 0.05690753
v -0.14927539 0.41147907 0.05335995
v -0.29301775 0.38726612 0.09182049
v -0.29929862 0.38726612 0.10771636
v -0.31063411 0.53789407 0.18414282
v -0.31063411 0.53935617 0.11716521
v -0.28646769 0.46581759 0.08301975
v -0.14939503 0.40661078 0.06577648
v -0.28075508 0.46948085 0.08076841
v -0.28530124 0.47369043 0.08397488
v -0.18495676 0.46053154 0.03812923
v -0.31063411 0.55131000 0.16062305
v -0.30363544 0.55092441 0.12506199
v -0.30363544 0.55079585 0.11716521
v -0.25622976 0.52577955 0.09349193
v -0.17308291 0.46764922 0.04374055
v -0.16123897 0.46726363 0.04420105
v -0.14939503 0.47179452 0.05104038
v -0.00508440 0.52492802 0.18509795
v -0.00508440 0.48908258 0.11378819
v -0.14939503 0.47767504 0.05699281
v -0.14939503 0.48384476 0.06366158
v -0.29176159 0.54963902 0.11716521
v -0.12896723 0.41329461 0.06818133
v -0.13662391 0.41029009 0.06482135
v -0.29259902 0.38726612 0.09980255
v -0.25622976 0.50490855 0.20437084
v -0.31063411 0.53789407 0.18525143
v -0.29388511 0.38726612 0.10246323
v -0.13755108 0.40876372 0.07761310
v -0.12789050 0.42680695 0.12088335
v -0.12513888 0.43638286 0.13797314
v -0.12080208 0.43975695 0.14262932
v -0.09857974 0.45155013 0.15450007
v -0.13755108 0.44891511 0.15717783
v -0.14939503 0.44838492 0.15774065
v -0.14939503 0.45518125 0.16365897
v -0.29259902 0.38726612 0.10057004
v -0.31063411 0.55122967 0.16763293
v -0.30363544 0.55139032 0.16062305
v -0.29176159 0.55118148 0.17251084
v -0.00508440 0.52855917 0.20437084
v -0.00508440 0.52830207 0.19621824
v -0.16123897 0.47316020 0.04994881
v -0.00508440 0.52773974 0.19430801
v -0.00508440 0.48815068 0.12506199
v -0.12809987 0.41297330 0.07761310
v -0.24429608 0.50508530 0.20437084
v -0.25622976 0.51337586 0.20437084
v -0.31063411 0.55034599 0.18525143
v -0.12959531 0.41449967 0.08622621
v -0.12002446 0.42775490 0.11897312
v -0.12466033 0.42957048 0.12492555
v -0.11386321 0.43723444 0.13505662
v -0.09014542 0.44941320 0.14663741
v -0.09014542 0.45264268 0.15255572
v -0.00508440 0.51374540 0.20437084
v -0.09714411 0.46324688 0.16652432
v -0.00927165 0.51358474 0.20437084
v -0.31063411 0.55114934 0.17251084
v -0.30363544 0.55118148 0.17251084
v -0.29176159 0.55100474 0.18525143
v -0.25616994 0.52351411 0.20437084
v -0.00508440 0.48819891 0.12606828
v -0.00508440 0.48935571 0.13676217
v -0.00508440 0.48966100 0.13882591
v -0.00508440 0.49189431 0.14878643
v -0.08338600 0.45077888 0.14411316
v -0.00508440 0.49629664 0.16120295
v -0.00508440 0.49252091 0.15064550
f 45 21 28
f 45 24 21
f 21 24 23
f 66 42 65
f 65 42 75
f 32 53 61
f 61 57 32
f 83 57 61
f 61 81 83
f 60 53 32
f 82 53 60
f 28 24 48
f 48 45 28
f 26 24 28
f 24 26 9
f 9 26 25
f 63 68 46
f 80 79 100
f 100 101 80
f 88 101 100
f 87 101 88
f 28 21 44
f 65 75 86
f 52 53 28
f 52 61 53
f 52 79 80
f 80 81 52
f 81 61 52
f 59 60 32
f 82 60 59
f 32 35 34
f 54 29 53
f 14 29 30
f 28 53 49
f 53 29 49
f 24 45 47
f 47 48 24
f 45 48 47
f 76 46 68
f 88 100 98
f 43 44 21
f 97 75 95
f 97 86 75
f 42 68 69
f 78 100 79
f 82 59 56
f 32 31 56
f 56 59 32
f 17 34 35
f 31 30 55
f 82 56 55
f 55 56 31
f 55 53 82
f 55 54 53
f 29 54 55
f 55 30 29
f 10 26 28
f 25 26 10
f 10 9 25
f 10 2 9
f 3 4 1
f 1 2 3
f 39 19 38
f 63 46 39
f 67 68 42
f 67 76 68
f 21 46 41
f 106 107 95
f 70 71 42
f 42 69 70
f 74 75 42
f 42 73 74
f 95 75 74
f 74 73 95
f 42 71 72
f 72 73 42
f 50 78 51
f 28 50 51
f 51 52 28
f 79 52 51
f 51 78 79
f 77 78 50
f 98 78 77
f 99 98 100
f 100 78 99
f 99 78 98
f 38 19 37
f 37 58 38
f 38 58 62
f 63 39 62
f 62 39 38
f 62 68 63
f 4 17 18
f 18 17 35
f 18 37 19
f 15 4 14
f 15 31 32
f 14 30 15
f 15 30 31
f 28 49 27
f 27 10 28
f 27 49 29
f 9 2 8
f 2 1 8
f 24 9 8
f 8 23 24
f 21 23 8
f 46 76 64
f 64 41 46
f 90 69 68
f 71 70 91
f 91 70 69
f 69 90 91
f 95 73 96
f 96 72 95
f 73 72 96
f 95 72 94
f 5 1 4
f 4 18 5
f 5 18 19
f 19 6 5
f 5 6 1
f 36 18 35
f 37 18 36
f 58 37 36
f 34 17 16
f 16 17 4
f 4 15 16
f 12 29 14
f 12 27 29
f 14 4 12
f 21 8 22
f 7 8 1
f 1 6 7
f 7 22 8
f 7 6 21
f 21 22 7
f 19 39 20
f 20 6 19
f 21 6 20
f 107 106 108
f 106 105 108
f 85 105 106
f 68 62 85
f 58 84 85
f 85 62 58
f 93 106 95
f 95 94 93
f 93 90 106
f 93 94 72
f 34 16 33
f 33 16 15
f 32 34 33
f 33 15 32
f 13 4 3
f 13 12 4
f 3 2 13
f 2 12 13
f 11 12 2
f 27 12 11
f 2 10 11
f 10 27 11
f 40 39 46
f 40 20 39
f 40 46 21
f 21 20 40
f 104 85 103
f 105 85 104
f 103 85 102
f 102 85 84
f 68 85 89
f 89 85 106
f 89 90 68
f 106 90 89
f 92 91 90
f 90 93 92
f 71 91 92
f 92 72 71
f 92 93 72
f 88 66 87
f 87 66 65
f 21 42 43
f 42 66 43
f 97 95 80
f 97 87 65
f 80 101 97
f 101 87 97
f 65 86 97
f 77 66 88
f 77 50 28
f 28 44 77
f 88 98 77
f 77 43 66
f 44 43 77
f 64 42 21
f 64 67 42
f 76 67 64
f 21 41 64
f 32 58 36
f 36 35 32
f 32 57 102
f 102 81 80
f 80 95 102
f 102 57 83
f 83 81 102
f 95 107 102
f 102 58 32
f 107 108 102
f 102 104 103
f 102 84 58
f 102 108 105
f 105 104 102