# https://github.com/mikedh/trimesh
v 0.38441565 0.48029145 0.42744313
v 0.38896191 0.47911372 0.42744313
v 0.39174906 0.47584917 0.41313351
v 0.38441565 0.47921703 0.42163092
v 0.37392953 0.47731618 0.42163092
v 0.37253596 0.47795668 0.42744313
v 0.39380517 0.47741948 0.42744313
v 0.39334827 0.47694427 0.42163092
v 0.39592979 0.47130364 0.40942863
v 0.39659232 0.46665474 0.39841600
v 0.39284565 0.46496050 0.38850803
v 0.38441565 0.47144825 0.39790616
v 0.38441565 0.47446485 0.40548585
v 0.38441565 0.47642773 0.41140004
v 0.37637402 0.47607647 0.41255567
v 0.36666463 0.47500205 0.42744313
v 0.39974501 0.47204745 0.42744313
v 0.39926524 0.47198544 0.42163092
v 0.40262352 0.46367949 0.40269869
v 0.39341679 0.45442305 0.37418141
v 0.39088094 0.45179903 0.36777436
v 0.38749978 0.46287367 0.38058845
v 0.40075021 0.46132403 0.39479610
v 0.39732337 0.45814214 0.38475218
v 0.38389019 0.46553902 0.38514306
v 0.37959523 0.46326626 0.37995965
v 0.37829301 0.46326626 0.37995965
v 0.37603132 0.46479521 0.38604379
v 0.17247751 0.31646519 0.25384119
v 0.36392316 0.46917548 0.42744313
v 0.17247751 0.31601062 0.25447002
v 0.19858997 0.31208491 0.29993111
v 0.40205239 0.46901020 0.42744313
v 0.40381150 0.46605557 0.42163092
v 0.40328605 0.46479521 0.40976854
v 0.40406281 0.45731570 0.39841600
v 0.40326321 0.45341064 0.38889892
v 0.40182396 0.45024939 0.38097934
v 0.39937947 0.44593110 0.37411343
v 0.39302841 0.44537326 0.36539509
v 0.38932742 0.43785242 0.35701665
v 0.38142287 0.44130291 0.35484133
v 0.38441565 0.45281144 0.36651675
v 0.38389019 0.45944382 0.37526908
v 0.37518604 0.45283212 0.36639780
v 0.18956599 0.32210582 0.25384119
v 0.17247751 0.26925329 0.25384119
v 0.36278089 0.46434064 0.42744313
v 0.20946445 0.31489490 0.31220135
v 0.21492453 0.31489490 0.31813255
v 0.17247751 0.30375825 0.25939852
v 0.18862931 0.30906831 0.28534958
v 0.19767613 0.30303512 0.30108676
v 0.20222240 0.30303512 0.30701794
v 0.40369727 0.46611754 0.42744313
v 0.40582193 0.45723304 0.42163092
v 0.40566198 0.45723304 0.40976854
v 0.40403997 0.44593110 0.38538098
v 0.40301190 0.44235665 0.37800524
v 0.39476468 0.43374074 0.36150329
v 0.39120077 0.42995964 0.35555510
v 0.36899488 0.40745910 0.33060672
v 0.36568228 0.41537253 0.33286704
v 0.35777773 0.41636429 0.33205128
v 0.37255880 0.44175744 0.35414454
v 0.19402086 0.32332484 0.25384119
v 0.17247751 0.26937728 0.25409610
v 0.20649452 0.27195997 0.25384119
v 0.21259428 0.27330299 0.26187974
v 0.21837421 0.27960479 0.29117880
v 0.21846559 0.28297263 0.30378893
v 0.20882477 0.28340654 0.30033899
v 0.36127312 0.45723304 0.42744313
v 0.20813941 0.30303512 0.31313606
v 0.22084153 0.31489490 0.32334995
v 0.17247751 0.30185739 0.26004429
v 0.19173629 0.30303512 0.29173961
v 0.18826377 0.29621676 0.28589339
v 0.19870420 0.29355141 0.29957421
v 0.20982997 0.29386134 0.31130063
v 0.40534215 0.45723304 0.42744313
v 0.40554778 0.44537326 0.40976854
v 0.40586761 0.44537326 0.39790616
v 0.40301190 0.43553829 0.37800524
v 0.40134418 0.43235639 0.37411343
v 0.39602119 0.42165366 0.36233604
v 0.39184042 0.42165366 0.35462039
v 0.38121727 0.40979388 0.34180631
v 0.37027423 0.39793410 0.32926415
v 0.36035928 0.39820269 0.32311203
v 0.36131880 0.41076499 0.32895823
v 0.35368839 0.41636429 0.33205128
v 0.20649452 0.32460588 0.25384119
v 0.21458185 0.28594791 0.30824156
v 0.20092022 0.28563799 0.29673610
v 0.17247751 0.29150592 0.25987433
v 0.21241153 0.27257983 0.25384119
v 0.21343956 0.27288975 0.25557467
v 0.23521139 0.28534874 0.30737484
v 0.22730682 0.28489418 0.30949918
v 0.22248642 0.28489418 0.30949918
v 0.36248391 0.45091058 0.42744313
v 0.21510730 0.30303512 0.31906726
v 0.22104713 0.30303512 0.32287409
v 0.17247751 0.29268361 0.25992531
v 0.22301185 0.29621676 0.32151451
v 0.40372011 0.44679890 0.42744313
v 0.40399426 0.44498067 0.42122302
v 0.40314898 0.43787307 0.40976854
v 0.40383434 0.43588955 0.39790616
v 0.40372011 0.43421596 0.38604379
v 0.39853419 0.42165366 0.37418141
v 0.39277710 0.41103359 0.36233604
v 0.39147492 0.41256254 0.35487531
v 0.38087457 0.39793410 0.34138144
v 0.37619123 0.39793410 0.33546725
v 0.36929191 0.38607431 0.32982498
v 0.36259814 0.38607431 0.32387679
v 0.35665830 0.38607431 0.31979803
v 0.35620140 0.39442159 0.32015492
v 0.21490169 0.32220913 0.25384119
v 0.23023106 0.29491508 0.32287409
v 0.21355380 0.27282778 0.25384119
v 0.25396757 0.29303487 0.31488654
v 0.23649073 0.28508013 0.29945526
v 0.26111822 0.29658867 0.32195638
v 0.24208789 0.28948107 0.31488654
v 0.24208789 0.29433655 0.32418270
v 0.36399172 0.44582779 0.42744313
v 0.23603383 0.30884104 0.33273108
v 0.24208789 0.30714676 0.33376776
v 0.40191531 0.44305913 0.42744313
v 0.40250932 0.43903011 0.41699131
v 0.40184679 0.42828605 0.38604379
v 0.38953305 0.40508303 0.36233604
v 0.38434709 0.39793410 0.35047366
v 0.37936676 0.39059919 0.34289397
v 0.36771554 0.37836750 0.33133751
v 0.36869790 0.38311968 0.33038580
v 0.35437376 0.36921440 0.32119160
v 0.35585870 0.37708647 0.32010394
v 0.35640699 0.38311968 0.31988300
v 0.22906591 0.29117531 0.25384119
v 0.22961421 0.30303512 0.25384119
v 0.22650723 0.31216754 0.25384119
v 0.22084153 0.31809745 0.25384119
v 0.21997340 0.31871730 0.25384119
v 0.24208789 0.30121689 0.33011388
v 0.21442193 0.27340630 0.25384119
v 0.28460345 0.30836583 0.31874436
v 0.26157514 0.29623741 0.31488654
v 0.25396757 0.29547295 0.32350290
v 0.28460345 0.30836583 0.32372384
v 0.28298141 0.30921294 0.33164342
v 0.27507685 0.30768399 0.33405667
v 0.25396757 0.29968794 0.32943408
v 0.25396757 0.30561781 0.33504238
v 0.36769270 0.44047644 0.42744313
v 0.37310709 0.43634411 0.42744313
v 0.37016003 0.43836893 0.42744313
v 0.40079589 0.44130291 0.42744313
v 0.40127566 0.44074504 0.42491089
v 0.37943532 0.39095045 0.35825728
v 0.39298273 0.41229394 0.37418141
v 0.37986938 0.39016531 0.35047366
v 0.36904060 0.37696251 0.33861128
v 0.35729799 0.36545395 0.32909419
v 0.34379626 0.35539175 0.32001896
v 0.22595894 0.28293130 0.25384119
v 0.21949364 0.27700143 0.25384119
v 0.31969422 0.33227136 0.32013794
v 0.30610109 0.32160992 0.32674892
v 0.30018412 0.31787018 0.32674892
v 0.28894411 0.31150639 0.32730974
v 0.29858492 0.31902723 0.33533129
v 0.28949240 0.31669245 0.33748962
v 0.26582440 0.30636162 0.33504238
v 0.39529014 0.43657138 0.42744313
v 0.38896191 0.43413329 0.42744313
v 0.38441565 0.43289362 0.42744313
v 0.39903677 0.43969130 0.42744313
v 0.36746424 0.37940059 0.35716962
v 0.36883497 0.37772700 0.35045667
v 0.37477482 0.38421475 0.35047366
v 0.36442578 0.37105328 0.33861128
v 0.35848593 0.36446219 0.33861128
v 0.34571529 0.35361485 0.32674892
v 0.33219072 0.34351129 0.31959410
v 0.22506796 0.28206354 0.25384119
v 0.32049378 0.33169284 0.32674892
v 0.31322892 0.32654807 0.32674892
v 0.33376704 0.34231291 0.32674892
v 0.32643366 0.33638300 0.32674892
v 0.32040242 0.33179614 0.33449854
v 0.31661004 0.33406891 0.34238413
v 0.33123120 0.34439974 0.34467842
v 0.34468725 0.35497852 0.34607200
v 0.35720659 0.36601183 0.34749957
v 0.35231766 0.35853232 0.33861128
v 0.33970692 0.34768494 0.32674892
v 0.34637781 0.35330492 0.33861128
v 0.33899868 0.34737502 0.33861128
v 0.33305884 0.34299474 0.33861128
f 67 79 78
f 78 96 67
f 78 79 53
f 32 52 53
f 93 66 65
f 93 91 121
f 83 58 57
f 28 27 29
f 29 15 28
f 28 15 27
f 29 27 46
f 105 96 78
f 31 52 32
f 100 128 101
f 78 53 77
f 76 105 77
f 77 105 78
f 77 52 76
f 77 53 52
f 16 15 29
f 5 15 16
f 29 31 16
f 32 30 16
f 16 31 32
f 180 159 157
f 47 69 70
f 143 144 119
f 64 91 93
f 45 65 66
f 66 46 45
f 45 46 27
f 43 65 45
f 120 89 119
f 144 145 120
f 119 144 120
f 120 145 146
f 120 121 91
f 59 58 83
f 42 64 65
f 42 65 43
f 63 42 41
f 91 64 63
f 64 42 63
f 83 57 56
f 36 57 58
f 44 22 43
f 19 11 10
f 11 3 10
f 11 22 12
f 12 3 11
f 22 25 12
f 27 15 12
f 17 18 7
f 1 3 4
f 4 3 14
f 4 14 15
f 4 5 1
f 4 15 5
f 76 52 51
f 52 31 51
f 72 67 47
f 49 30 32
f 49 50 30
f 74 80 103
f 103 73 75
f 75 73 50
f 75 74 103
f 50 74 75
f 30 50 48
f 50 73 48
f 1 5 6
f 5 16 6
f 158 129 130
f 100 70 99
f 99 70 69
f 68 69 47
f 68 97 69
f 169 143 141
f 169 168 188
f 93 65 92
f 92 64 93
f 65 64 92
f 147 120 146
f 121 120 147
f 136 135 165
f 113 135 136
f 43 22 21
f 21 22 11
f 21 42 43
f 41 42 21
f 84 59 83
f 62 63 41
f 91 63 62
f 89 88 116
f 87 115 116
f 116 88 87
f 81 107 82
f 82 56 81
f 83 56 82
f 82 110 83
f 81 56 55
f 134 110 109
f 110 82 109
f 165 135 163
f 26 25 22
f 22 44 26
f 27 12 26
f 26 12 25
f 26 44 43
f 43 45 26
f 26 45 27
f 19 10 9
f 9 10 3
f 9 18 19
f 14 3 13
f 3 12 13
f 15 14 13
f 13 12 15
f 8 7 18
f 8 9 3
f 18 9 8
f 71 72 47
f 47 70 71
f 100 101 71
f 71 70 100
f 79 67 95
f 95 80 79
f 50 49 54
f 54 74 50
f 32 53 54
f 54 49 32
f 54 53 79
f 79 80 54
f 80 74 54
f 180 157 177
f 177 155 180
f 126 99 124
f 158 130 160
f 160 130 159
f 131 157 159
f 159 130 131
f 102 130 129
f 104 73 103
f 104 102 73
f 130 102 104
f 124 99 125
f 142 143 119
f 142 141 143
f 140 168 169
f 169 141 140
f 189 188 170
f 169 188 189
f 170 188 171
f 171 149 170
f 150 149 171
f 187 188 168
f 61 60 87
f 41 60 61
f 87 88 61
f 61 62 41
f 61 88 89
f 89 62 61
f 134 135 112
f 112 135 113
f 111 84 83
f 83 110 111
f 111 110 134
f 134 112 111
f 111 112 84
f 86 112 113
f 84 112 86
f 87 60 86
f 86 60 59
f 89 120 90
f 90 62 89
f 90 120 91
f 91 62 90
f 34 56 57
f 34 55 56
f 34 18 17
f 108 82 107
f 108 109 82
f 180 155 179
f 164 135 134
f 164 163 135
f 7 8 2
f 2 3 1
f 2 8 3
f 80 95 94
f 67 72 94
f 94 95 67
f 94 71 101
f 72 71 94
f 155 177 156
f 156 157 128
f 156 177 157
f 155 126 154
f 152 156 128
f 152 126 155
f 155 156 152
f 103 80 106
f 106 104 103
f 80 94 106
f 130 104 106
f 106 131 130
f 124 125 98
f 69 97 98
f 98 99 69
f 98 125 99
f 141 142 118
f 119 89 118
f 118 142 119
f 168 140 167
f 167 187 168
f 166 167 138
f 138 167 140
f 173 150 172
f 150 171 172
f 188 187 200
f 23 11 19
f 20 21 11
f 20 38 21
f 19 36 37
f 37 23 19
f 38 23 37
f 37 36 58
f 58 59 37
f 59 38 37
f 59 60 39
f 39 38 59
f 21 38 39
f 114 115 87
f 87 86 114
f 113 136 114
f 114 86 113
f 59 84 85
f 85 86 59
f 84 86 85
f 35 34 57
f 35 36 19
f 57 36 35
f 19 18 35
f 18 34 35
f 33 34 17
f 55 34 33
f 155 154 176
f 176 154 175
f 185 166 165
f 185 167 166
f 134 109 133
f 133 164 134
f 133 132 162
f 162 163 133
f 163 164 133
f 107 132 133
f 133 108 107
f 109 108 133
f 178 176 175
f 178 179 155
f 155 176 178
f 201 198 197
f 198 178 197
f 197 178 196
f 173 175 174
f 175 154 174
f 99 126 127
f 126 152 127
f 100 99 127
f 127 128 100
f 127 152 128
f 131 106 122
f 122 101 128
f 122 94 101
f 122 106 94
f 124 98 123
f 123 149 150
f 123 98 97
f 137 138 115
f 115 114 137
f 137 114 136
f 166 138 137
f 137 136 165
f 165 166 137
f 117 116 115
f 89 116 117
f 117 118 89
f 141 118 117
f 117 140 141
f 194 175 173
f 173 172 194
f 192 171 188
f 188 200 192
f 201 194 192
f 24 23 38
f 38 20 24
f 11 23 24
f 24 20 11
f 40 60 41
f 40 39 60
f 41 21 40
f 21 39 40
f 161 163 162
f 161 182 163
f 162 132 161
f 163 182 183
f 183 182 198
f 187 167 186
f 167 185 186
f 186 200 187
f 195 178 175
f 196 178 195
f 175 194 195
f 195 194 196
f 153 154 126
f 153 174 154
f 153 150 173
f 173 174 153
f 157 131 148
f 131 122 148
f 128 157 148
f 148 122 128
f 151 126 124
f 124 123 151
f 151 123 150
f 150 153 151
f 151 153 126
f 115 138 139
f 139 117 115
f 139 138 140
f 140 117 139
f 202 197 196
f 201 197 202
f 202 194 201
f 182 161 181
f 198 182 181
f 181 178 198
f 165 163 184
f 163 183 184
f 184 185 165
f 184 186 185
f 183 186 184
f 200 186 199
f 201 192 199
f 199 192 200
f 199 198 201
f 199 183 198
f 199 186 183
f 196 194 203
f 203 202 196
f 194 202 203
f 191 172 171
f 171 190 191
f 191 194 172
f 191 190 194
f 171 192 193
f 193 190 171
f 193 192 194
f 194 190 193
f 29 47 51
f 51 105 76
f 47 67 51
f 51 67 96
f 96 105 51
f 51 31 29
f 144 143 123
f 123 47 29
f 29 46 123
f 93 121 123
f 123 145 144
f 123 66 93
f 170 149 123
f 146 145 123
f 123 68 47
f 123 46 66
f 123 147 146
f 123 143 169
f 97 68 123
f 121 147 123
f 123 189 170
f 169 189 123
f 180 179 181
f 181 159 180
f 30 48 181
f 73 102 181
f 81 55 181
f 1 6 181
f 181 107 81
f 181 129 158
f 181 16 30
f 17 7 181
f 158 160 181
f 181 48 73
f 181 6 16
f 181 2 1
f 181 132 107
f 181 160 159
f 181 102 129
f 181 33 17
f 7 2 181
f 55 33 181
f 179 178 181
f 181 161 132