# https://github.com/mikedh/trimesh
v 0.40535120 0.45724110 0.42746013
v 0.40373411 0.44681113 0.42746013
v 0.40369299 0.46611539 0.42746013
v 0.40359707 0.46616252 0.43352811
v 0.40484413 0.45724110 0.43352811
v 0.40192514 0.44307522 0.42746013
v 0.40346003 0.44857895 0.43352811
v 0.34614903 0.36200448 0.66350990
v 0.34814984 0.36200448 0.64736202
v 0.40206218 0.46902635 0.42746013
v 0.40025325 0.47209052 0.43352811
v 0.40003397 0.47049951 0.44538827
v 0.40278853 0.46457151 0.44538827
v 0.40273369 0.45032315 0.44175249
v 0.40224034 0.46326336 0.45143118
v 0.40224034 0.46288622 0.45143118
v 0.40298037 0.45825464 0.44558887
v 0.40080140 0.44131921 0.42746013
v 0.34832799 0.36200448 0.63550186
v 0.34357263 0.36200448 0.67103219
v 0.40180182 0.45497834 0.44967598
v 0.39130440 0.45724110 0.49019610
v 0.38956395 0.45724110 0.49613872
v 0.39109884 0.46493688 0.48919313
v 0.39974618 0.47204335 0.42746013
v 0.39431931 0.47792422 0.43352811
v 0.39410007 0.47812455 0.44538827
v 0.39308593 0.47754708 0.45724843
v 0.39159219 0.47628606 0.46910859
v 0.39066029 0.47536681 0.47592881
v 0.39907467 0.46796569 0.45614516
v 0.39527861 0.46909706 0.46910859
v 0.39904727 0.43970463 0.42746013
v 0.34614903 0.36200448 0.62334081
v 0.34620386 0.36203984 0.62336588
v 0.36763723 0.45253877 0.54771662
v 0.33706314 0.36200448 0.67973299
v 0.37962839 0.45433013 0.52517480
v 0.37794278 0.46223805 0.52173962
v 0.39214034 0.46897922 0.48034189
v 0.38894728 0.47284476 0.48382722
v 0.38019030 0.46536115 0.51381612
v 0.39381227 0.47741743 0.42746013
v 0.38442487 0.48142442 0.43352811
v 0.38442487 0.48237902 0.44538827
v 0.38442487 0.48200192 0.45724843
v 0.38442487 0.48034017 0.46910859
v 0.38476750 0.47780635 0.48034189
v 0.38072473 0.47665138 0.49285398
v 0.37891580 0.47536681 0.49954883
v 0.39529233 0.43658156 0.42746013
v 0.33741945 0.36200448 0.61238333
v 0.38897468 0.43415380 0.42746013
v 0.35575567 0.45183166 0.55887470
v 0.35633126 0.44087140 0.57168768
v 0.36700684 0.46345191 0.53482842
v 0.32833356 0.36200448 0.68271683
v 0.34406598 0.42824938 0.59453040
v 0.38897468 0.47912631 0.42746013
v 0.37255703 0.48142442 0.44538827
v 0.37255703 0.48240261 0.45724843
v 0.38442487 0.48030482 0.42746013
v 0.37255703 0.48229654 0.46910859
v 0.37255703 0.48136549 0.48096874
v 0.37255703 0.47917344 0.49285398
v 0.37170740 0.47617999 0.50398699
v 0.36718500 0.47522539 0.51113317
v 0.37509231 0.47326902 0.50744725
v 0.33703574 0.36200448 0.61200721
v 0.38442487 0.43291632 0.42746013
v 0.29610130 0.36200448 0.57409482
v 0.34882134 0.45192596 0.55910037
v 0.34882134 0.44802503 0.56504299
v 0.33696722 0.42846152 0.59495667
v 0.36070291 0.46404118 0.53615736
v 0.32511309 0.36200448 0.68361950
v 0.33696722 0.42403026 0.60087421
v 0.37254335 0.47797135 0.42746013
v 0.37136477 0.47850168 0.43234962
v 0.36552679 0.47614463 0.43553406
v 0.36433452 0.47716995 0.44538827
v 0.36310115 0.47793599 0.45724843
v 0.36214184 0.47825419 0.46910859
v 0.36153885 0.47814813 0.48096874
v 0.36131958 0.47755886 0.49285398
v 0.36321078 0.47621534 0.50471414
v 0.36560902 0.47522539 0.51113317
v 0.36070291 0.46764749 0.52843446
v 0.37311890 0.43634585 0.42746013
v 0.28605610 0.36200448 0.57409482
v 0.34882134 0.45568546 0.55217985
v 0.34235297 0.45160775 0.55864903
v 0.33029329 0.42807261 0.59450533
v 0.35201445 0.46405299 0.53628273
v 0.32431823 0.36200448 0.68341891
v 0.36667793 0.47500148 0.42746013
v 0.36663684 0.47502503 0.42761057
v 0.26974810 0.40700057 0.58773526
v 0.35560495 0.47382294 0.48096874
v 0.35538567 0.47454186 0.49285398
v 0.35729056 0.47438863 0.50471414
v 0.36127849 0.47279763 0.51567163
v 0.37017251 0.43838470 0.42746013
v 0.28605610 0.36200448 0.60049809
v 0.26534905 0.38315900 0.58480156
v 0.26721282 0.38315900 0.57532346
v 0.26836398 0.38315900 0.57316707
v 0.27029627 0.38315900 0.56990741
v 0.36770575 0.44049426 0.42746013
v 0.34834171 0.46109486 0.54029462
v 0.27729911 0.40822625 0.60019720
v 0.28101295 0.40522099 0.60654101
v 0.32807321 0.41771335 0.60807054
v 0.34980805 0.46560864 0.52843446
v 0.31753466 0.36200448 0.68010910
v 0.36393709 0.46917955 0.42746013
v 0.27066628 0.40566884 0.58031326
v 0.26677428 0.39794951 0.58773526
v 0.27018663 0.40625811 0.59661157
v 0.27766912 0.41232749 0.58773526
v 0.34387414 0.46265054 0.52843446
v 0.29203113 0.36200448 0.62331574
v 0.26565054 0.38315900 0.58773526
v 0.26565054 0.38608174 0.58773526
v 0.26940550 0.39794951 0.57825716
v 0.36279963 0.46433583 0.42746013
v 0.36129218 0.45724110 0.42746013
v 0.36251187 0.45092419 0.42746013
v 0.36401933 0.44583299 0.42746013
v 0.31349193 0.36200448 0.67742614
v 0.26914511 0.39794951 0.59814111
v 0.31027142 0.36200448 0.67419156
v 0.29556683 0.36200448 0.63530127
v 0.26833656 0.38315900 0.59498174
v 0.30646165 0.36200448 0.66636837
v 0.26921363 0.38608174 0.59733873
f 89 70 90
f 90 70 71
f 90 104 105
f 105 106 90
f 62 78 60
f 60 82 61
f 37 36 55
f 44 60 61
f 62 60 44
f 19 18 6
f 19 33 18
f 71 70 53
f 34 52 53
f 51 34 53
f 108 90 107
f 107 90 106
f 127 108 107
f 107 106 127
f 128 108 127
f 128 129 108
f 109 90 108
f 108 129 109
f 123 124 105
f 104 122 123
f 105 104 123
f 123 122 133
f 133 135 123
f 123 135 134
f 134 135 132
f 61 82 83
f 83 84 61
f 61 84 63
f 82 98 99
f 99 83 82
f 81 98 82
f 82 60 81
f 79 60 78
f 38 24 42
f 110 111 92
f 8 24 20
f 20 24 38
f 36 37 20
f 26 25 43
f 43 44 26
f 7 14 8
f 8 2 7
f 51 33 35
f 35 34 51
f 35 19 34
f 33 19 35
f 6 2 9
f 9 19 6
f 9 2 8
f 71 53 69
f 69 53 52
f 89 90 103
f 90 109 103
f 111 110 119
f 119 112 111
f 115 112 130
f 112 119 130
f 130 119 132
f 85 63 84
f 84 83 100
f 83 99 100
f 101 85 100
f 100 85 84
f 100 99 98
f 127 106 126
f 106 116 126
f 96 116 117
f 98 81 80
f 80 81 60
f 60 79 80
f 41 24 30
f 41 42 24
f 50 56 42
f 50 41 30
f 42 41 50
f 39 20 38
f 36 20 39
f 38 42 39
f 39 56 36
f 42 56 39
f 62 44 59
f 44 43 59
f 26 44 45
f 45 27 26
f 45 44 61
f 61 63 45
f 121 119 114
f 114 119 110
f 101 121 114
f 118 119 98
f 105 124 118
f 98 117 118
f 118 106 105
f 132 119 131
f 131 123 134
f 124 123 131
f 131 118 124
f 119 118 131
f 101 100 120
f 120 121 101
f 120 119 121
f 98 119 120
f 120 100 98
f 125 116 106
f 125 117 116
f 106 118 125
f 125 118 117
f 98 80 97
f 97 117 98
f 96 117 97
f 97 80 79
f 78 96 97
f 97 79 78
f 95 112 115
f 54 37 55
f 54 58 37
f 55 36 54
f 36 56 54
f 74 58 54
f 37 58 57
f 57 58 76
f 74 76 77
f 77 58 74
f 76 58 77
f 1 3 4
f 30 24 40
f 40 32 30
f 24 32 40
f 30 32 31
f 1 4 5
f 5 4 13
f 5 17 14
f 14 7 5
f 5 2 1
f 5 7 2
f 8 14 21
f 14 17 21
f 27 45 46
f 46 45 63
f 134 132 136
f 136 131 134
f 132 131 136
f 94 110 92
f 92 91 94
f 88 87 94
f 94 114 110
f 101 114 102
f 114 94 102
f 102 94 87
f 56 50 68
f 67 87 88
f 56 68 67
f 67 68 50
f 67 65 87
f 111 112 93
f 93 95 76
f 93 76 74
f 92 111 93
f 93 74 92
f 75 54 56
f 56 67 75
f 75 67 88
f 88 94 75
f 75 94 91
f 92 74 72
f 72 91 92
f 72 75 91
f 54 75 72
f 11 25 26
f 26 27 11
f 15 5 13
f 24 22 15
f 15 22 8
f 15 32 24
f 15 31 32
f 23 24 8
f 8 22 23
f 23 22 24
f 27 46 28
f 87 65 86
f 86 85 101
f 101 102 86
f 86 102 87
f 64 46 63
f 63 85 64
f 85 86 64
f 64 86 65
f 46 64 47
f 47 64 65
f 47 28 46
f 50 65 66
f 66 67 50
f 65 67 66
f 112 95 113
f 113 93 112
f 95 93 113
f 74 54 73
f 73 72 74
f 54 72 73
f 25 11 10
f 10 4 3
f 10 11 4
f 13 4 12
f 4 11 12
f 12 15 13
f 31 15 12
f 30 31 12
f 12 11 27
f 27 28 12
f 17 5 16
f 5 15 16
f 16 21 17
f 8 21 16
f 16 15 8
f 49 65 50
f 49 47 65
f 49 50 30
f 30 12 29
f 29 12 28
f 28 47 29
f 48 49 30
f 47 49 48
f 30 29 48
f 48 29 47
f 57 9 8
f 57 90 71
f 71 69 57
f 133 122 57
f 57 135 133
f 57 122 104
f 8 20 57
f 57 52 34
f 104 90 57
f 115 130 57
f 34 19 57
f 57 132 135
f 57 20 37
f 19 9 57
f 57 69 52
f 57 130 132
f 57 95 115
f 76 95 57
f 62 59 10
f 127 126 10
f 10 33 51
f 51 53 10
f 1 2 10
f 10 78 62
f 6 18 10
f 10 70 89
f 10 128 127
f 10 96 78
f 89 103 10
f 10 2 6
f 18 33 10
f 10 53 70
f 129 128 10
f 10 109 129
f 10 116 96
f 10 43 25
f 10 103 109
f 10 126 116
f 10 59 43
f 10 3 1