# https://github.com/mikedh/trimesh
v -0.28590600 -0.20115609 0.96136492
v -0.29062844 -0.19839896 0.95663123
v -0.31550067 -0.15619014 0.84497428
v -0.30367189 -0.15846709 0.84497428
v -0.27992350 -0.19537851 0.94361359
v -0.28087707 -0.19990145 0.95663123
v -0.28547462 -0.20115609 0.96136492
v -0.28590600 -0.20115609 0.96161407
v -0.29062844 -0.19914245 0.96626471
v -0.30174204 -0.19262140 0.95546857
v -0.32152858 -0.15400612 0.84497428
v -0.31966686 -0.15482708 0.84497428
v -0.35229250 -0.12440574 0.79182406
v -0.29133226 -0.15866846 0.84497428
v -0.26807201 -0.19544047 0.94361359
v -0.26807201 -0.19849191 0.95546857
v -0.28087707 -0.20055201 0.96626471
v -0.28547462 -0.20115609 0.96161407
v -0.30199179 -0.19294667 0.96734433
v -0.29236528 -0.19330293 0.98013361
v -0.30020952 -0.19149066 0.97681170
v -0.30766778 -0.18613130 0.95546857
v -0.35229250 -0.12440574 0.80899408
v -0.35229250 -0.08400920 0.78308335
v -0.35108917 -0.08397821 0.78308335
v -0.25984181 -0.06257176 0.78221136
v -0.35112325 -0.12440574 0.79201092
v -0.27992350 -0.15749126 0.84497428
v -0.28265933 -0.15781653 0.84497428
v -0.30791753 -0.18636364 0.96734433
v -0.25530100 -0.19204828 0.94278313
v -0.25864985 -0.19048383 0.93601476
v -0.25620918 -0.19463502 0.95546857
v -0.26807201 -0.19812014 0.96734433
v -0.27992350 -0.19531655 0.97922009
v -0.28878940 -0.19014308 0.98590537
v -0.29669040 -0.18888843 0.98472195
v -0.30425084 -0.18388532 0.97980141
v -0.31018793 -0.17889771 0.97488087
v -0.35229250 -0.12380166 0.80934703
v -0.31080092 -0.18043118 0.96734433
v -0.35229250 -0.07660523 0.78169232
v -0.35108917 -0.07660523 0.78171307
v -0.25984181 -0.07584624 0.78850218
v -0.25984181 -0.05289083 0.78109021
v -0.24743407 -0.12404948 0.84497428
v -0.34354012 -0.12440574 0.79433625
v -0.27127328 -0.15521431 0.84497428
v -0.24881902 -0.19020504 0.94618804
v -0.25073752 -0.18908980 0.93827780
v -0.24825142 -0.19065423 0.95546857
v -0.24902336 -0.19018953 0.96377331
v -0.25564157 -0.19257492 0.96759348
v -0.25922880 -0.19107243 0.97546218
v -0.26904828 -0.19248199 0.97932390
v -0.27366855 -0.18946153 0.98528251
v -0.27992350 -0.19005013 0.98582232
v -0.27992350 -0.18335868 0.98970479
v -0.29236528 -0.18430354 0.98862517
v -0.30037979 -0.18097331 0.98733794
v -0.31262859 -0.17149375 0.96734433
v -0.30753155 -0.17149375 0.98193985
v -0.31069878 -0.17149375 0.97600199
v -0.35229250 -0.11817897 0.80957541
v -0.35229250 -0.06475577 0.78044660
v -0.35108917 -0.06475577 0.78044660
v -0.24914823 -0.13239831 0.84497428
v -0.24923904 -0.13267713 0.84497428
v -0.25984181 -0.07716284 0.78937417
v -0.25984181 -0.04294659 0.78061270
v -0.24724110 -0.11220004 0.84497428
v -0.24738867 -0.12146274 0.84497428
v -0.23736485 -0.17174158 0.94284542
v -0.23767135 -0.17875832 0.94629185
v -0.23861358 -0.17586177 0.93838160
v -0.25984181 -0.08396272 0.79412863
v -0.27112570 -0.15515235 0.84497428
v -0.27119381 -0.15518334 0.84497428
v -0.24372198 -0.18393179 0.94228482
v -0.24232568 -0.18510899 0.95546857
v -0.26002345 -0.14691195 0.84497428
v -0.23780758 -0.17843303 0.96312970
v -0.24425551 -0.18345163 0.96740663
v -0.25131647 -0.18845472 0.97168355
v -0.25585725 -0.18369945 0.97965610
v -0.26575620 -0.18684382 0.98337243
v -0.26040941 -0.17894418 0.98598842
v -0.26904828 -0.18307988 0.98713034
v -0.26807201 -0.17149375 0.99032765
v -0.27992350 -0.17149375 0.99240383
v -0.29178634 -0.17149375 0.99196783
v -0.30159447 -0.17149375 0.98810612
v -0.30020952 -0.16364059 0.98690194
v -0.31044903 -0.16360960 0.97529612
v -0.35229250 -0.11195221 0.80955464
v -0.35229250 -0.05461017 0.78034280
v -0.35128218 -0.05461017 0.78030126
v -0.35108917 -0.05461017 0.78030126
v -0.25757142 -0.14424776 0.84497428
v -0.32299297 -0.04294659 0.78119402
v -0.25984181 -0.04294659 0.79489682
v -0.23731944 -0.16218457 0.95546857
v -0.23766000 -0.16271121 0.94361359
v -0.23632047 -0.17149375 0.95546857
v -0.23741027 -0.17917652 0.95546857
v -0.23745566 -0.17149375 0.96474912
v -0.23948767 -0.17149375 0.97068699
v -0.24741137 -0.18053960 0.97596048
v -0.25634539 -0.17050242 0.98663203
v -0.25248571 -0.17378619 0.98387073
v -0.25014720 -0.16588655 0.98524101
v -0.25014720 -0.16526698 0.98524101
v -0.25620918 -0.16317589 0.98638292
v -0.26807201 -0.16131716 0.98794005
v -0.27992350 -0.16130167 0.98850061
v -0.29178634 -0.16195224 0.98818917
v -0.29178634 -0.15601976 0.98243816
v -0.29985763 -0.15230228 0.97490162
v -0.30776996 -0.15570998 0.97149670
v -0.31067608 -0.15194602 0.96358642
v -0.35229250 -0.05461017 0.79088979
v -0.34157622 -0.11218455 0.84873216
v -0.32299297 -0.04294659 0.79176178
v -0.29140038 -0.07318205 0.84759026
v -0.29178634 -0.07953274 0.85863554
v -0.26807201 -0.14029794 0.96385632
v -0.25945585 -0.14076263 0.96310891
v -0.24808115 -0.15183760 0.97581514
v -0.24625348 -0.14979299 0.96734433
v -0.24014608 -0.15962881 0.96780109
v -0.23772811 -0.16356314 0.96412623
v -0.24671890 -0.16063563 0.97955226
v -0.24631022 -0.17050242 0.97963531
v -0.25620918 -0.15724344 0.98337243
v -0.26807201 -0.15538469 0.98341397
v -0.27992350 -0.15536920 0.98316482
v -0.29178634 -0.15121802 0.97650029
v -0.31011983 -0.14111889 0.95065183
v -0.29178634 -0.13194912 0.94641644
v -0.29178634 -0.12837105 0.94047854
v -0.27992350 -0.12753461 0.94153741
v -0.27992350 -0.15067589 0.97722696
v -0.26807201 -0.14448010 0.96977347
v -0.25620918 -0.15059844 0.97743456
v -0.26807201 -0.15041256 0.97747607
f 101 102 70
f 47 27 44
f 79 50 81
f 48 27 47
f 70 102 71
f 129 101 128
f 24 25 13
f 121 95 122
f 122 94 121
f 122 95 94
f 2 3 1
f 10 22 13
f 121 118 123
f 123 118 139
f 46 44 26
f 13 25 26
f 26 27 13
f 26 44 27
f 25 43 26
f 104 102 131
f 102 101 131
f 1 3 4
f 13 14 4
f 4 3 13
f 1 4 5
f 5 4 14
f 15 5 14
f 81 50 77
f 103 102 104
f 104 71 103
f 103 71 102
f 25 24 42
f 42 43 25
f 65 96 97
f 70 98 97
f 23 39 40
f 11 10 13
f 2 10 11
f 90 58 89
f 30 23 13
f 13 22 30
f 94 95 63
f 37 59 60
f 121 94 120
f 70 97 100
f 100 97 96
f 128 101 127
f 101 126 127
f 139 118 137
f 137 126 139
f 139 126 141
f 66 42 65
f 43 42 66
f 66 98 70
f 81 77 76
f 76 77 47
f 67 44 46
f 67 68 44
f 68 67 75
f 75 67 46
f 130 129 128
f 101 129 130
f 130 131 101
f 106 82 104
f 104 131 106
f 50 79 49
f 82 52 80
f 80 52 51
f 51 49 80
f 107 108 82
f 82 106 107
f 131 130 107
f 107 106 131
f 29 15 14
f 29 14 13
f 32 48 50
f 1 5 6
f 5 15 6
f 6 15 16
f 78 48 47
f 47 77 78
f 50 48 78
f 78 77 50
f 46 26 45
f 45 72 46
f 45 66 70
f 70 71 45
f 71 72 45
f 45 26 43
f 43 66 45
f 3 2 12
f 2 11 12
f 13 3 12
f 12 11 13
f 35 20 17
f 17 34 35
f 16 34 17
f 33 34 16
f 33 49 51
f 51 52 33
f 54 56 55
f 55 56 35
f 55 34 54
f 35 34 55
f 86 56 54
f 37 20 36
f 36 20 35
f 36 59 37
f 58 59 36
f 41 39 23
f 23 30 41
f 41 30 39
f 22 10 19
f 19 30 22
f 61 40 39
f 39 63 61
f 61 63 40
f 64 63 95
f 40 63 64
f 37 60 38
f 38 60 39
f 62 60 92
f 39 60 62
f 62 63 39
f 94 63 62
f 62 93 94
f 92 93 62
f 138 118 121
f 121 120 138
f 119 93 118
f 118 138 119
f 119 138 120
f 119 120 94
f 94 93 119
f 128 127 144
f 144 127 126
f 144 134 128
f 101 123 124
f 140 123 139
f 139 141 140
f 140 141 123
f 81 76 99
f 99 76 68
f 68 75 99
f 99 79 81
f 99 75 79
f 44 68 69
f 68 76 69
f 47 44 69
f 69 76 47
f 46 72 73
f 73 71 104
f 73 72 71
f 54 34 53
f 53 84 54
f 52 84 53
f 34 33 53
f 53 33 52
f 50 49 31
f 16 15 31
f 31 33 16
f 49 33 31
f 31 32 50
f 15 32 31
f 79 75 74
f 74 49 79
f 74 80 49
f 74 73 104
f 74 75 46
f 46 73 74
f 113 134 114
f 113 114 90
f 90 89 113
f 133 107 111
f 108 107 133
f 132 107 130
f 132 130 128
f 48 32 28
f 27 48 28
f 15 29 28
f 28 32 15
f 13 27 28
f 28 29 13
f 16 17 7
f 1 6 7
f 7 6 16
f 56 86 87
f 35 56 57
f 57 36 35
f 57 56 58
f 58 36 57
f 9 17 20
f 9 8 17
f 1 8 9
f 9 19 10
f 9 2 1
f 9 10 2
f 91 116 93
f 91 93 92
f 91 58 90
f 91 59 58
f 92 60 91
f 91 60 59
f 117 137 118
f 118 93 117
f 93 116 117
f 143 144 126
f 114 134 135
f 134 144 135
f 125 126 101
f 101 124 125
f 125 141 126
f 123 141 125
f 125 124 123
f 83 52 82
f 83 84 52
f 82 108 83
f 108 84 83
f 82 80 105
f 80 74 105
f 104 82 105
f 105 74 104
f 112 89 111
f 112 113 89
f 134 113 112
f 128 134 112
f 112 132 128
f 111 107 112
f 107 132 112
f 17 8 18
f 18 7 17
f 111 87 110
f 110 87 108
f 110 133 111
f 108 133 110
f 108 87 85
f 85 87 86
f 85 86 54
f 54 84 85
f 85 84 108
f 111 89 109
f 109 87 111
f 89 87 109
f 88 89 58
f 88 87 89
f 58 56 88
f 56 87 88
f 21 9 20
f 19 9 21
f 21 20 37
f 37 38 21
f 30 19 21
f 39 30 21
f 21 38 39
f 114 135 115
f 90 114 115
f 115 91 90
f 116 91 115
f 144 143 145
f 145 135 144
f 142 145 143
f 126 137 142
f 142 143 126
f 135 145 136
f 145 142 136
f 136 115 135
f 137 117 136
f 136 142 137
f 136 117 116
f 116 115 136
f 100 123 101
f 100 101 70
f 100 96 121
f 121 123 100
f 66 97 98
f 65 97 66
f 121 96 64
f 64 96 65
f 64 24 13
f 64 95 121
f 13 23 64
f 65 42 64
f 64 42 24
f 23 40 64
f 1 7 18
f 18 8 1