# https://github.com/mikedh/trimesh
v -0.33459201 0.23065154 0.55779309
v -0.33660512 0.23065154 0.56091820
v -0.38007604 0.38313075 0.58173661
v -0.37649017 0.38313075 0.57872898
v -0.37433723 0.38313075 0.57699020
v -0.36296447 0.38313075 0.57520442
v -0.33459201 0.27930877 0.56329140
v -0.33459201 0.23065154 0.60800634
v -0.34337847 0.23065154 0.57313668
v -0.38345222 0.38313075 0.58895021
v -0.36118202 0.38313075 0.57555688
v -0.33459201 0.29115964 0.56512417
v -0.33479474 0.23065154 0.60986261
v -0.33459201 0.31450317 0.69057506
v -0.38333339 0.23065154 0.66129771
v -0.38499001 0.38313075 0.59961788
v -0.38675849 0.23065154 0.67079053
v -0.40500943 0.23066646 0.76134826
v -0.35496789 0.38313075 0.57847052
v -0.33459201 0.30050303 0.56815530
v -0.33748586 0.23065154 0.62337343
v -0.33459201 0.32974213 0.69057506
v -0.36504752 0.32724956 0.79783921
v -0.38848501 0.23066646 0.79783921
v -0.38290000 0.38313075 0.61197734
v -0.40546379 0.23066646 0.76489632
v -0.40453411 0.26389070 0.77102904
v -0.40028416 0.31486139 0.76564822
v -0.39838288 0.32672718 0.77751425
v -0.39434966 0.33472726 0.78938027
v -0.38776507 0.23065154 0.68260955
v -0.35334623 0.38313075 0.57995083
v -0.33459201 0.30301052 0.56923616
v -0.34655192 0.38313075 0.58772837
v -0.34342040 0.38313075 0.59172287
v -0.34231597 0.23065154 0.63627332
v -0.33459201 0.33195111 0.68876579
v -0.36504752 0.34602588 0.79783921
v -0.40087831 0.23066646 0.79783921
v -0.37696549 0.23065154 0.69057506
v -0.34262352 0.23065154 0.63681375
v -0.38153694 0.38313075 0.61829806
v -0.40596007 0.23066646 0.77631590
v -0.40600201 0.23066646 0.77751425
v -0.40453411 0.26389070 0.77347275
v -0.40027720 0.31486139 0.77751425
v -0.39741827 0.32672718 0.78938027
v -0.39332912 0.33363771 0.79664087
v -0.38668860 0.34001091 0.78938027
v -0.38807263 0.23065154 0.69057506
v -0.33459201 0.31353301 0.57644977
v -0.34090400 0.38313075 0.60255502
v -0.33459201 0.33293619 0.68726198
v -0.36296447 0.38313075 0.63451104
v -0.37047177 0.38313075 0.63108047
v -0.36640358 0.34586169 0.79783921
v -0.33459201 0.36311560 0.63519245
v -0.33515119 0.36438427 0.63519245
v -0.34182668 0.38313075 0.62264501
v -0.34252566 0.38313075 0.62539418
v -0.34354623 0.38313075 0.62804934
v -0.34876776 0.38313075 0.63251379
v -0.35110943 0.38313075 0.63392361
v -0.40068262 0.23953222 0.79783921
v -0.40508630 0.23066646 0.78580870
v -0.38136921 0.38313075 0.61872100
v -0.40520516 0.23066646 0.78489232
v -0.40477177 0.24374123 0.78461036
v -0.40456204 0.25196519 0.78378795
v -0.39906793 0.31486139 0.78938027
v -0.39716661 0.31486139 0.79783921
v -0.39511857 0.32624956 0.79783921
v -0.39360871 0.33147349 0.79783921
v -0.39130901 0.33426457 0.79783921
v -0.37172997 0.34533931 0.79689932
v -0.37950286 0.34387662 0.78938027
v -0.33459201 0.35768272 0.61620682
v -0.34065934 0.38313075 0.61439754
v -0.33459201 0.36289173 0.62250403
v -0.33459201 0.36281710 0.62222207
v -0.37163210 0.38313075 0.63025807
v -0.37254081 0.34444379 0.79783921
v -0.33459201 0.36320516 0.63324220
v -0.39994864 0.26436832 0.79783921
v -0.40505837 0.23187544 0.78571472
v -0.39899103 0.28778647 0.79783921
v -0.39885123 0.29115964 0.79783921
v -0.39811725 0.30301052 0.79783921
f 23 24 14
f 2 3 1
f 2 9 3
f 39 65 50
f 43 50 44
f 27 43 44
f 1 3 4
f 4 5 1
f 21 14 24
f 10 15 17
f 17 18 10
f 9 15 10
f 3 9 10
f 44 50 67
f 67 50 65
f 50 43 31
f 24 40 41
f 16 10 18
f 16 27 28
f 49 42 30
f 66 42 49
f 49 76 66
f 38 37 53
f 22 37 38
f 33 35 51
f 12 19 20
f 20 35 33
f 12 7 6
f 6 7 1
f 1 5 6
f 13 8 14
f 14 21 13
f 36 21 24
f 24 41 36
f 26 16 18
f 27 16 26
f 43 27 26
f 26 31 43
f 17 31 26
f 26 18 17
f 30 16 29
f 29 16 28
f 30 42 25
f 25 16 30
f 64 65 39
f 64 84 65
f 88 69 87
f 48 49 30
f 45 27 44
f 44 69 45
f 28 27 45
f 76 49 75
f 66 76 75
f 75 48 74
f 49 48 75
f 57 38 53
f 55 38 54
f 35 20 34
f 11 19 12
f 12 6 11
f 70 69 88
f 65 84 86
f 86 87 65
f 68 87 69
f 44 67 68
f 68 69 44
f 74 48 73
f 73 48 72
f 82 75 74
f 66 75 81
f 81 75 55
f 78 57 83
f 83 79 78
f 32 20 19
f 32 34 20
f 71 70 88
f 30 29 47
f 47 71 72
f 70 71 47
f 47 48 30
f 72 48 47
f 46 45 69
f 69 70 46
f 28 45 46
f 46 29 28
f 46 47 29
f 70 47 46
f 85 67 65
f 85 68 67
f 65 87 85
f 87 68 85
f 75 82 56
f 56 38 55
f 55 75 56
f 52 79 80
f 52 78 79
f 52 80 77
f 77 51 52
f 52 51 35
f 78 59 58
f 57 78 58
f 38 57 58
f 58 59 38
f 63 54 38
f 38 59 60
f 60 61 38
f 62 63 38
f 38 61 62
f 24 39 50
f 50 40 24
f 38 14 22
f 23 14 38
f 36 2 1
f 36 31 17
f 17 15 36
f 9 2 36
f 36 15 9
f 40 50 36
f 1 8 36
f 50 31 36
f 36 41 40
f 36 13 21
f 8 13 36
f 79 37 22
f 79 20 33
f 79 8 1
f 33 51 79
f 1 7 79
f 22 14 79
f 79 7 12
f 53 37 79
f 83 57 79
f 14 8 79
f 77 80 79
f 79 51 77
f 12 20 79
f 79 57 53
f 56 39 24
f 56 24 23
f 56 86 84
f 23 38 56
f 56 64 39
f 56 82 74
f 74 73 56
f 84 64 56
f 88 87 56
f 87 86 56
f 56 73 72
f 56 71 88
f 72 71 56
f 62 4 3
f 62 6 5
f 62 42 66
f 3 10 62
f 5 4 62
f 19 11 62
f 66 81 62
f 10 16 62
f 62 25 42
f 35 34 62
f 16 25 62
f 55 54 62
f 62 52 35
f 62 11 6
f 62 81 55
f 62 32 19
f 34 32 62
f 62 59 78
f 78 52 62
f 54 63 62
f 62 60 59
f 61 60 62