# https://github.com/mikedh/trimesh
v 0.23101470 0.23061367 0.50247287
v 0.23099421 0.23061367 0.50247287
v 0.21195130 -0.00777578 0.49957658
v 0.21347760 -0.00735485 0.49957658
v 0.23101470 0.23061367 0.48631209
v 0.23101470 0.31927313 0.50164536
v 0.18445743 -0.00777578 0.49957658
v 0.16310971 -0.00777578 0.43023611
v 0.16677693 -0.00773751 0.27062405
v 0.16889735 -0.00773751 0.27931290
v 0.21347760 -0.00716354 0.49926018
v 0.23101470 0.23130243 0.48614172
v 0.21347760 -0.00337534 0.49504962
v 0.21347760 0.00045115 0.49176392
v 0.21347760 0.00665004 0.48760203
v 0.21347760 0.01009387 0.48555759
v 0.21347760 0.01185405 0.48468141
v 0.17388600 0.04204494 0.25387916
v 0.23101470 0.31927313 0.48821049
v 0.16949148 0.38313701 0.25383047
v 0.16590621 0.38313701 0.41843193
v 0.15166758 0.38313701 0.41843193
v 0.20647098 0.31927313 0.49470888
v 0.16676668 -0.00777578 0.47231743
v 0.19483422 0.31927313 0.49127714
v 0.18842171 0.31927313 0.48769938
v 0.18743831 0.31927313 0.48692055
v 0.18390427 0.31927313 0.48326977
v 0.17754297 0.31927313 0.47618726
v 0.17623179 0.31927313 0.47455658
v 0.14110640 0.24366195 0.42775359
v 0.13653775 0.23179989 0.42164462
v 0.15717865 -0.00777578 0.42227741
v 0.16959392 -0.00536509 0.27931290
v 0.16352970 -0.00773751 0.26636480
v 0.16735056 0.02195595 0.25387916
v 0.17093584 0.03037418 0.25387916
v 0.17136607 0.03186652 0.25387916
v 0.23101470 0.23179989 0.48604437
v 0.16956318 0.23061367 0.25383047
v 0.17246214 0.26918456 0.25383047
v 0.17246214 0.31640328 0.25383047
v 0.23101470 0.26742438 0.48273432
v 0.23101470 0.25556230 0.48309940
v 0.23101470 0.25468221 0.48319676
v 0.23101470 0.24446551 0.48436500
v 0.23101470 0.31487267 0.48750467
v 0.17026999 0.37414478 0.25383047
v 0.15010031 0.38313701 0.25383047
v 0.14986470 0.38313701 0.41001079
v 0.14065568 0.30067645 0.41697162
v 0.14306294 0.29114852 0.42422450
v 0.16350921 -0.00777578 0.46637883
v 0.13653775 0.23061367 0.42164462
v 0.13655823 0.21993781 0.42164462
v 0.14253027 0.27924817 0.42551445
v 0.13838159 0.25449089 0.42261815
v 0.13692700 0.24366195 0.42164462
v 0.14122933 0.24986084 0.42758322
v 0.13513437 0.23179989 0.41845627
v 0.13512412 0.23061367 0.41845627
v 0.13125203 0.21989954 0.40974308
v 0.15421824 -0.00777578 0.41877267
v 0.16226973 -0.00773751 0.26490451
v 0.15623623 -0.00773751 0.25877120
v 0.15031543 -0.00773751 0.25404950
v 0.15007982 -0.00773751 0.25387916
v 0.15517090 0.23061367 0.25383047
v 0.23101470 0.27924817 0.48373220
v 0.14949594 0.32669649 0.25383047
v 0.12637607 -0.00773751 0.25387916
v 0.14880961 0.38313701 0.25456064
v 0.13884256 0.38313701 0.27936159
v 0.13132373 0.23179989 0.40976742
v 0.13861720 0.26742438 0.42069541
v 0.14024594 0.29114852 0.41845627
v 0.13893475 -0.00777578 0.41947849
v 0.13670164 0.20807573 0.42164462
v 0.13780795 0.13697981 0.42164462
v 0.13526753 0.21993781 0.41877267
v 0.13533924 -0.00773751 0.40981609
v 0.13790015 -0.00773751 0.41745839
v 0.13856598 -0.00777578 0.41877267
v 0.15511968 0.23107285 0.25383047
v 0.14952666 0.31150537 0.25383047
v 0.13784893 0.38313701 0.26724102
v 0.13827917 0.38313701 0.26614578
v 0.14066593 0.38313701 0.26118072
v 0.14983397 0.30063819 0.25383047
f 20 21 6
f 21 22 6
f 6 2 1
f 7 2 6
f 7 32 24
f 31 32 7
f 81 62 71
f 82 62 81
f 40 36 67
f 8 9 3
f 18 40 41
f 41 42 18
f 9 36 37
f 37 36 40
f 1 3 4
f 4 5 1
f 4 11 5
f 34 9 18
f 18 5 17
f 18 42 43
f 43 44 18
f 43 42 69
f 71 86 87
f 87 88 71
f 72 49 71
f 71 88 72
f 51 22 50
f 20 6 19
f 19 48 20
f 25 22 26
f 25 26 7
f 78 62 82
f 74 73 86
f 74 86 71
f 71 62 74
f 74 50 73
f 51 50 74
f 51 74 75
f 51 75 76
f 30 31 7
f 83 81 71
f 82 81 83
f 83 78 82
f 9 8 33
f 18 9 38
f 9 37 38
f 38 40 18
f 38 37 40
f 9 34 10
f 3 9 10
f 10 4 3
f 11 4 10
f 10 34 11
f 18 46 39
f 18 44 45
f 45 46 18
f 84 68 71
f 71 89 84
f 71 49 70
f 42 48 47
f 48 19 47
f 69 42 47
f 23 6 22
f 22 25 23
f 7 6 23
f 23 25 7
f 61 62 32
f 61 74 62
f 56 75 57
f 57 30 56
f 52 30 22
f 56 30 52
f 52 22 51
f 51 76 52
f 52 75 56
f 52 76 75
f 24 55 53
f 53 55 78
f 63 67 66
f 66 65 63
f 66 67 36
f 36 65 66
f 63 65 64
f 64 65 36
f 5 11 13
f 13 14 5
f 18 14 13
f 13 34 18
f 11 34 13
f 5 14 15
f 15 14 18
f 12 5 18
f 18 39 12
f 85 89 71
f 71 70 85
f 54 24 32
f 54 55 24
f 32 62 54
f 62 78 80
f 78 55 80
f 80 54 62
f 55 54 80
f 60 61 32
f 74 61 60
f 30 57 58
f 32 31 58
f 58 60 32
f 74 60 58
f 58 75 74
f 58 57 75
f 26 22 27
f 22 28 27
f 7 26 27
f 27 28 7
f 22 30 29
f 29 28 22
f 29 30 7
f 7 28 29
f 78 83 79
f 79 53 78
f 35 33 63
f 63 64 35
f 9 33 35
f 35 36 9
f 35 64 36
f 16 17 5
f 5 15 16
f 18 17 16
f 16 15 18
f 31 30 59
f 59 58 31
f 30 58 59
f 77 79 83
f 53 79 77
f 2 7 3
f 2 3 1
f 67 68 40
f 71 68 67
f 20 49 50
f 50 21 20
f 86 73 50
f 50 22 21
f 50 87 86
f 49 72 50
f 88 87 50
f 50 72 88
f 71 67 83
f 83 67 63
f 1 5 12
f 12 45 44
f 12 6 1
f 12 43 69
f 69 47 12
f 44 43 12
f 12 19 6
f 12 39 46
f 46 45 12
f 12 47 19
f 85 49 20
f 85 41 40
f 40 68 85
f 20 48 85
f 42 41 85
f 85 48 42
f 68 84 85
f 85 84 89
f 85 70 49
f 3 7 77
f 7 24 77
f 77 8 3
f 77 83 63
f 63 33 77
f 77 33 8
f 24 53 77