# https://github.com/mikedh/trimesh
v 0.14607931 -0.12383862 0.58664022
v 0.14716827 -0.12382510 0.58664022
v 0.14413331 -0.12381157 0.58664022
v 0.14413331 -0.12370335 0.58469173
v 0.14413331 -0.12364925 0.58386405
v 0.14413331 -0.12299996 0.57586317
v 0.14716827 -0.12294586 0.57586317
v 0.15793683 -0.12241831 0.58664022
v 0.14413331 -0.11132634 0.58664022
v 0.11046640 -0.05330994 0.43736525
v 0.11046640 -0.05330994 0.41781138
v 0.14413331 -0.12248594 0.57282836
v 0.14716827 -0.12076804 0.56399980
v 0.15641432 -0.11910424 0.56399980
v 0.16006434 -0.12024050 0.57491480
v 0.15911654 -0.12217482 0.58664022
v 0.21346351 -0.07790165 0.58664022
v 0.21346351 -0.01873547 0.53825561
v 0.21346351 -0.01294600 0.53318609
v 0.21346351 -0.00810341 0.52890975
v 0.21346351 -0.00677778 0.52756478
v 0.18835702 -0.01099814 0.51102848
v 0.14413331 -0.05621820 0.51328735
v 0.11046640 -0.03441302 0.41656987
v 0.11046640 -0.03851163 0.42132900
v 0.11046640 -0.04585668 0.42969199
v 0.11046640 -0.05187610 0.43589956
v 0.11046640 -0.04708762 0.41048299
v 0.11158562 -0.04691177 0.41048299
v 0.11158562 -0.05330994 0.41807003
v 0.14716827 -0.11619598 0.55042935
v 0.14413331 -0.11619598 0.55030865
v 0.14413331 -0.11882018 0.55624034
v 0.14413331 -0.12086272 0.56399980
v 0.14716827 -0.11877961 0.55636104
v 0.15381291 -0.11831968 0.55744736
v 0.16470248 -0.11777862 0.57032809
v 0.16705180 -0.11880665 0.57822550
v 0.17088331 -0.11089348 0.55213644
v 0.17043966 -0.11948299 0.58664022
v 0.16987502 -0.11964532 0.58664022
v 0.21346351 -0.09821888 0.58664022
v 0.21346351 0.01225441 0.50252755
v 0.20055737 0.00674900 0.49959619
v 0.19646370 0.00407070 0.49959619
v 0.19460844 -0.00871211 0.51370119
v 0.19073659 -0.00094774 0.49959619
v 0.18887125 -0.00262506 0.49959619
v 0.14413331 -0.05275534 0.50813161
v 0.11046640 -0.03209993 0.41106925
v 0.16673922 -0.00781935 0.47233459
v 0.16348245 -0.00781935 0.46640291
v 0.13893051 -0.00781935 0.41950120
v 0.13790206 -0.00781935 0.41751825
v 0.11046640 -0.03200525 0.41048299
v 0.11531629 -0.04592431 0.41048299
v 0.12481442 -0.05330994 0.42119106
v 0.15799733 -0.10894563 0.53965231
v 0.15826957 -0.11520853 0.55294687
v 0.17088331 -0.10789053 0.54341134
v 0.17751789 -0.10657843 0.54549778
v 0.19458828 -0.11050120 0.58664022
v 0.17979662 -0.10756590 0.55213644
v 0.18240809 -0.11504621 0.58664022
v 0.17599535 -0.11742692 0.58664022
v 0.20777675 -0.10295326 0.58664022
v 0.21346351 -0.09575701 0.57588042
v 0.21346351 0.01435106 0.49959619
v 0.11046640 -0.03204583 0.41091408
v 0.13554265 -0.00781935 0.41048299
v 0.12378596 -0.04359771 0.41048299
v 0.13470576 -0.05330994 0.42453625
v 0.13483684 -0.05330994 0.42458799
v 0.14746068 -0.05330994 0.43098523
v 0.14760183 -0.05330994 0.43107146
v 0.19198689 -0.09660919 0.54306648
v 0.19990198 -0.09380915 0.54713589
v 0.19540500 -0.09854352 0.55149844
v 0.18572538 -0.10445473 0.55213644
v 0.19827863 -0.10509049 0.57320771
v 0.20088002 -0.10644317 0.58112237
v 0.15552702 -0.05330994 0.43703762
v 0.20189840 -0.10716008 0.58664022
v 0.19443703 -0.10798522 0.57663912
v 0.20548791 -0.10177643 0.57663912
v 0.21254597 -0.09451255 0.56963836
v 0.21346351 -0.09539179 0.57470788
v 0.21346351 -0.00744060 0.49959619
v 0.14991082 -0.00781935 0.41048299
v 0.13466544 -0.03788940 0.41048299
v 0.13976740 -0.03396663 0.41048299
v 0.21346351 -0.08496263 0.55501606
v 0.21032774 -0.09242941 0.56172370
v 0.20241263 -0.09579759 0.55503331
v 0.17281924 -0.05330994 0.45705705
v 0.20640546 -0.09698795 0.56501716
v 0.14404256 -0.02886703 0.41048299
v 0.21346351 -0.09007576 0.56367218
v 0.21346351 -0.09268643 0.56824165
v 0.14882187 -0.01730163 0.41048299
v 0.14981000 -0.00872564 0.41048299
v 0.21346351 -0.07349191 0.54423902
v 0.21346351 -0.08365053 0.55339519
v 0.14860004 -0.01819439 0.41048299
v 0.21346351 -0.07964660 0.54899816
v 0.21147719 -0.08112102 0.54749800
f 95 100 88
f 88 89 68
f 68 89 70
f 17 18 9
f 21 9 20
f 51 45 52
f 104 100 95
f 102 105 95
f 95 88 102
f 89 88 101
f 101 88 100
f 68 70 54
f 23 9 22
f 9 21 22
f 3 4 1
f 3 9 10
f 10 11 3
f 3 11 4
f 10 9 27
f 27 9 26
f 20 9 19
f 19 9 18
f 45 21 44
f 68 54 44
f 44 54 45
f 52 45 53
f 45 54 53
f 46 21 45
f 45 22 46
f 46 22 21
f 68 44 43
f 43 44 21
f 51 49 48
f 23 22 48
f 48 49 23
f 95 105 106
f 95 77 82
f 82 77 76
f 91 82 75
f 69 54 70
f 69 50 54
f 24 9 23
f 23 49 24
f 24 51 52
f 24 49 51
f 52 53 24
f 24 53 54
f 54 50 24
f 45 51 47
f 51 48 47
f 47 22 45
f 47 48 22
f 67 42 66
f 76 77 61
f 77 78 61
f 61 82 76
f 75 82 61
f 86 67 85
f 94 78 77
f 90 91 75
f 90 73 71
f 82 91 97
f 97 104 95
f 95 82 97
f 14 13 36
f 31 58 36
f 11 30 31
f 31 30 57
f 57 58 31
f 72 58 57
f 73 58 72
f 57 71 72
f 71 73 72
f 74 90 75
f 73 90 74
f 55 69 70
f 26 9 25
f 9 24 25
f 92 77 95
f 86 98 99
f 60 61 36
f 60 58 73
f 73 74 60
f 75 61 60
f 60 74 75
f 79 61 78
f 78 94 79
f 86 85 96
f 96 94 86
f 1 4 5
f 4 11 5
f 11 6 5
f 93 92 98
f 77 92 93
f 93 98 86
f 93 94 77
f 86 94 93
f 95 106 103
f 103 92 95
f 103 106 105
f 87 67 86
f 86 99 87
f 36 58 59
f 59 60 36
f 58 60 59
f 81 67 66
f 81 85 67
f 81 96 85
f 94 96 81
f 13 14 7
f 15 7 14
f 8 7 15
f 11 33 34
f 11 31 32
f 32 33 11
f 31 33 32
f 35 31 36
f 35 33 31
f 36 13 35
f 13 34 35
f 35 34 33
f 11 28 29
f 29 30 11
f 57 30 29
f 83 81 66
f 62 81 83
f 80 79 94
f 94 81 80
f 61 79 80
f 80 81 61
f 84 81 62
f 38 37 62
f 14 37 38
f 40 15 38
f 38 15 14
f 62 37 63
f 63 84 62
f 61 81 63
f 81 84 63
f 2 7 8
f 1 5 2
f 2 5 6
f 6 7 2
f 8 15 16
f 13 7 12
f 12 34 13
f 12 7 6
f 12 6 11
f 11 34 12
f 56 71 57
f 57 29 56
f 64 38 62
f 39 37 14
f 39 63 37
f 39 14 36
f 36 61 39
f 61 63 39
f 41 15 40
f 41 16 15
f 40 38 65
f 38 64 65
f 10 27 28
f 28 11 10
f 28 27 26
f 26 25 28
f 50 69 28
f 28 24 50
f 69 55 28
f 28 25 24
f 87 88 68
f 105 102 87
f 87 18 17
f 17 42 87
f 20 19 87
f 87 21 20
f 87 102 88
f 68 43 87
f 87 19 18
f 87 43 21
f 42 67 87
f 87 103 105
f 98 92 87
f 87 99 98
f 92 103 87
f 56 70 89
f 100 104 56
f 89 101 56
f 56 101 100
f 104 97 56
f 56 90 71
f 91 90 56
f 56 97 91
f 56 55 70
f 56 28 55
f 56 29 28
f 65 3 1
f 17 9 65
f 65 42 17
f 66 42 65
f 9 3 65
f 65 83 66
f 65 41 40
f 1 2 65
f 62 83 65
f 65 2 8
f 8 16 65
f 65 64 62
f 16 41 65