# https://github.com/mikedh/trimesh
v 0.00302423 0.33872693 0.62242544
v -0.14921679 0.32629033 0.64892571
v 0.00302423 0.35139169 0.62242544
v 0.14896074 0.32789847 0.62242544
v -0.14921679 0.32631815 0.65894791
v -0.14921679 0.33870466 0.64892571
v 0.17861767 0.32789847 0.62242544
v 0.17938963 0.32789847 0.62336258
v 0.17646254 0.32789847 0.63551939
v 0.15738820 0.32789847 0.69198213
v -0.13754059 0.38313701 0.84653233
v -0.13339119 0.38313701 0.84481423
v 0.01666255 0.35246007 0.62242544
v -0.14921679 0.32665201 0.67081836
v -0.14921679 0.38313701 0.85374310
v -0.14895947 0.38313701 0.85353486
v 0.15201649 0.34397978 0.62242544
v 0.12345321 0.38312587 0.83979013
v 0.12345321 0.38312587 0.87459450
v 0.12345321 0.37700497 0.86056341
v 0.12345321 0.36689430 0.83468789
v 0.12345321 0.36344434 0.82495205
v 0.12345321 0.35490844 0.80063844
v 0.12345321 0.35187578 0.78939275
v 0.06410720 0.34400761 0.77348739
v 0.06410720 0.34200998 0.76567787
v 0.05227016 0.34159265 0.76567787
v 0.02853175 0.33204957 0.72676048
v 0.01666255 0.33016876 0.71827415
v 0.01666255 0.32856065 0.70640369
v -0.14921679 0.32806539 0.70640369
v -0.14921679 0.32734201 0.69453324
v -0.12502807 0.38313701 0.84174250
v 0.02853175 0.35293860 0.62242544
v -0.11660061 0.38313701 0.83963393
v -0.14921679 0.38313701 0.88836527
v 0.14744894 0.34606092 0.62242544
v 0.14719162 0.34616663 0.62242544
v 0.14558332 0.34662848 0.62242544
v 0.13525808 0.34933283 0.62242544
v 0.12342105 0.35020088 0.62242544
v 0.02853175 0.35308883 0.62336258
v 0.08784560 0.38312587 0.83427141
v 0.00302423 0.38313701 0.83664028
v 0.11155184 0.38312587 0.87545355
v 0.00302423 0.38313701 0.86727959
v 0.04040096 0.35177007 0.80123717
v 0.11155184 0.37972597 0.86761801
v 0.09968264 0.37960912 0.86800848
v -0.14921679 0.37931422 0.88019130
v -0.14921679 0.37607013 0.87243387
v -0.14921679 0.36632674 0.84832850
v 0.05227016 0.34376836 0.77471087
v 0.04040096 0.34370157 0.77533563
v 0.01666255 0.33195496 0.72707286
v -0.14921679 0.33006860 0.71783161
v -0.11380218 0.38313701 0.83916536
v 0.09968264 0.38312587 0.87605226
v 0.08019013 0.38312587 0.83364664
v -0.10350911 0.38313701 0.83841045
v -0.10196514 0.38313701 0.83835837
v 0.02853175 0.35153078 0.80123717
v -0.14921679 0.35308883 0.81370636
v -0.14921679 0.34854822 0.80019591
v 0.01666255 0.34355690 0.77583024
v 0.00302423 0.34100836 0.76570391
v -0.00704369 0.34094716 0.76570391
v -0.14921679 0.34260537 0.77627277
v -0.14921679 0.34883757 0.80110702
f 2 1 4
f 8 18 19
f 2 8 9
f 9 10 2
f 8 19 9
f 9 19 10
f 36 19 46
f 7 8 2
f 2 4 7
f 10 31 32
f 27 10 26
f 15 16 6
f 3 6 11
f 6 16 11
f 8 7 17
f 17 18 8
f 65 64 68
f 2 10 5
f 28 10 27
f 28 29 10
f 30 31 10
f 10 29 30
f 30 29 31
f 31 29 56
f 18 42 43
f 43 42 59
f 43 44 18
f 43 59 44
f 36 50 58
f 10 32 14
f 14 5 10
f 54 28 27
f 64 65 54
f 29 28 55
f 68 56 55
f 55 56 29
f 55 54 65
f 28 54 55
f 62 52 63
f 62 47 52
f 64 54 62
f 62 54 47
f 22 47 23
f 23 24 10
f 10 22 23
f 41 34 42
f 18 40 41
f 41 42 18
f 44 59 61
f 59 42 61
f 42 60 61
f 34 13 35
f 42 34 35
f 39 40 18
f 18 38 39
f 18 17 37
f 37 38 18
f 45 19 36
f 36 58 45
f 45 58 50
f 27 26 53
f 53 54 27
f 47 54 53
f 53 23 47
f 66 65 68
f 66 55 65
f 69 62 63
f 64 62 69
f 33 35 13
f 57 60 42
f 42 35 57
f 21 47 22
f 21 22 10
f 52 47 20
f 47 21 20
f 19 45 20
f 10 19 20
f 20 21 10
f 25 53 26
f 23 53 25
f 24 23 25
f 10 24 25
f 25 26 10
f 68 55 67
f 67 66 68
f 55 66 67
f 12 33 13
f 12 13 3
f 3 11 12
f 52 20 51
f 51 20 50
f 49 45 50
f 50 20 49
f 48 20 45
f 45 49 48
f 48 49 20
f 6 1 2
f 6 3 1
f 46 19 18
f 18 44 46
f 1 3 37
f 37 4 1
f 37 41 40
f 37 7 4
f 37 17 7
f 3 13 37
f 40 39 37
f 34 41 37
f 37 13 34
f 37 39 38
f 12 15 36
f 36 46 12
f 12 46 44
f 16 15 12
f 12 11 16
f 44 61 12
f 12 61 60
f 60 57 12
f 35 33 12
f 12 57 35
f 51 6 2
f 68 64 51
f 51 50 36
f 36 15 51
f 2 5 51
f 51 14 32
f 63 52 51
f 51 32 31
f 51 15 6
f 51 69 63
f 51 56 68
f 31 56 51
f 5 14 51
f 64 69 51