# https://github.com/mikedh/trimesh
v -0.34042964 0.04763324 0.19647700
v -0.31935892 0.04763324 0.19647700
v -0.33939478 0.04763324 0.19992965
v -0.33422042 0.38725006 0.21581753
v -0.33534010 0.38725006 0.20889537
v -0.33545886 0.38725006 0.20810938
v -0.33552674 0.38725006 0.19743139
v -0.33552674 0.38628599 0.19647700
v -0.31693289 0.05365033 0.19647700
v -0.19688729 0.05391628 0.21007430
v -0.19688729 0.04763324 0.21177536
v -0.33673123 0.04763324 0.20846308
v -0.32894424 0.38605328 0.22173475
v -0.32892727 0.38725006 0.22175161
v -0.33550977 0.38725006 0.19647700
v -0.31689894 0.05375005 0.19647700
v -0.19688729 0.06578424 0.21036065
v -0.18803146 0.06578424 0.21250521
v -0.18811628 0.05391628 0.21243786
v -0.19105127 0.04763324 0.21295433
v -0.31684807 0.05391628 0.19647700
v -0.31538905 0.06548507 0.19647700
v -0.31538905 0.06578424 0.19647700
v -0.31991874 0.26740681 0.19647700
v -0.32146257 0.33329568 0.19647700
v -0.32488955 0.38718360 0.19647700
v -0.32667091 0.04763324 0.21751859
v -0.32170009 0.20813343 0.22609130
v -0.32244655 0.27927479 0.22659094
v -0.32290462 0.36231734 0.22674813
v -0.32298944 0.38725006 0.22669199
v -0.32293856 0.37418533 0.22674251
v -0.32300641 0.38605328 0.22670323
v -0.32701022 0.38725006 0.19647700
v -0.20874594 0.35044936 0.21769262
v -0.18209365 0.06578424 0.21693473
v -0.19749803 0.35044936 0.22158318
v -0.19240848 0.38725006 0.22725902
v -0.18219544 0.05391628 0.21800700
v -0.18021053 0.04763324 0.22197616
v -0.18971101 0.04763324 0.21331924
v -0.20874594 0.38725006 0.21974175
v -0.20874594 0.36231734 0.21827086
v -0.32242962 0.04763324 0.21930946
v -0.31781508 0.07765222 0.22477759
v -0.31980001 0.12509087 0.22506952
v -0.32154743 0.19935711 0.22598463
v -0.31386218 0.12509087 0.22771377
v -0.30363219 0.11322289 0.23159309
v -0.31550781 0.20813343 0.22851096
v -0.31550781 0.27927479 0.22934185
v -0.25192232 0.29114276 0.25383047
v -0.19291743 0.38725006 0.25383047
v -0.25120978 0.29519849 0.25383047
v -0.24924182 0.30015177 0.25383047
v -0.19788823 0.36231734 0.22197616
v -0.17778450 0.06578424 0.22286881
v -0.16713038 0.38725006 0.25383047
v -0.19834629 0.38725006 0.22312705
v -0.17593529 0.04763324 0.22822465
v -0.19939814 0.38725006 0.22278460
v -0.18687783 0.04763324 0.25383047
v -0.31124955 0.06960727 0.22634953
v -0.25151516 0.28220022 0.25383047
v -0.17388251 0.04763324 0.24321987
v -0.17432361 0.04763324 0.23707804
v -0.17437449 0.04763324 0.25383047
f 3 4 1
f 26 42 43
f 58 36 38
f 53 31 55
f 42 26 34
f 25 26 10
f 58 67 65
f 57 36 58
f 58 60 57
f 4 13 14
f 52 51 50
f 54 31 52
f 54 55 31
f 63 62 49
f 52 50 49
f 4 3 12
f 12 13 4
f 12 29 13
f 63 49 45
f 45 49 48
f 44 62 63
f 63 45 44
f 44 45 27
f 35 26 43
f 25 10 24
f 24 10 23
f 22 10 21
f 23 10 22
f 66 60 58
f 58 65 66
f 43 42 61
f 61 59 43
f 18 38 36
f 30 29 51
f 30 51 52
f 13 29 30
f 30 14 13
f 52 49 64
f 64 49 62
f 28 12 27
f 28 27 47
f 29 12 28
f 28 49 50
f 28 50 51
f 51 29 28
f 47 48 28
f 48 49 28
f 46 48 47
f 46 45 48
f 47 27 46
f 27 45 46
f 17 10 26
f 26 35 17
f 17 18 10
f 35 18 17
f 36 57 39
f 39 57 60
f 38 18 37
f 37 18 35
f 32 30 52
f 14 30 32
f 1 6 7
f 1 4 5
f 5 6 1
f 40 39 60
f 10 18 19
f 19 40 41
f 39 40 19
f 19 18 36
f 36 39 19
f 10 2 9
f 11 2 10
f 56 59 38
f 38 37 56
f 43 59 56
f 56 35 43
f 56 37 35
f 52 31 33
f 33 32 52
f 31 14 33
f 14 32 33
f 8 7 15
f 1 7 8
f 21 10 16
f 10 9 16
f 20 11 10
f 10 19 20
f 20 19 41
f 64 54 52
f 64 67 58
f 58 53 64
f 53 55 64
f 64 62 67
f 55 54 64
f 5 53 58
f 5 61 42
f 58 38 5
f 5 31 53
f 4 14 5
f 42 34 5
f 38 59 5
f 5 14 31
f 34 15 5
f 59 61 5
f 15 7 5
f 5 7 6
f 16 15 34
f 16 22 21
f 16 26 25
f 25 24 16
f 16 34 26
f 1 8 16
f 16 24 23
f 23 22 16
f 16 2 1
f 16 9 2
f 16 8 15
f 62 44 20
f 20 3 1
f 20 65 67
f 67 62 20
f 20 12 3
f 60 66 20
f 27 12 20
f 20 44 27
f 1 2 20
f 20 66 65
f 20 40 60
f 41 40 20
f 2 11 20