# https://github.com/mikedh/trimesh
v 0.14656187 0.31930537 0.41845372
v 0.14733907 0.31930537 0.42165300
v 0.15191783 0.38310575 0.42006859
v 0.15168128 0.38310575 0.41845372
v 0.16151464 0.31930537 0.41845372
v 0.28296155 0.23065636 0.48263736
v 0.23102391 0.23065636 0.48632414
v 0.23102391 0.23065636 0.50247289
v 0.23114217 0.23065636 0.53982828
v 0.14857247 0.31930537 0.42427336
v 0.17597743 0.36231653 0.48868552
v 0.17543677 0.38310575 0.49019375
v 0.17150005 0.38310575 0.48097678
v 0.16719162 0.38310575 0.46950508
v 0.16325490 0.38310575 0.45718024
v 0.16592444 0.38310575 0.41845372
v 0.16714093 0.35025787 0.41845372
v 0.29539685 0.27995058 0.51205549
v 0.30043179 0.27995058 0.51734192
v 0.30519641 0.27995058 0.52530965
v 0.30791664 0.27995058 0.53282034
v 0.31842580 0.27995058 0.57131833
v 0.31916922 0.27995058 0.57407581
v 0.28296155 0.23065636 0.50395065
v 0.16734368 0.35206370 0.41845372
v 0.16822227 0.36231653 0.41845372
v 0.16756333 0.37418116 0.41845372
v 0.16599202 0.38294160 0.41845372
v 0.23636297 0.23065636 0.54608973
v 0.21820000 0.36231653 0.57409104
v 0.21750727 0.37240521 0.57409104
v 0.21747347 0.37418116 0.57409104
v 0.21776070 0.38310575 0.57409104
v 0.29282868 0.38310575 0.57407581
v 0.26032120 0.34533295 0.50973983
v 0.30964001 0.32640923 0.57407581
v 0.31257986 0.31475352 0.57407581
v 0.30563571 0.27995058 0.57407581
v 0.24205685 0.23065636 0.54962417
v 0.25391769 0.23065636 0.54605926
v 0.25853025 0.23065636 0.54027009
v 0.23036497 0.38310575 0.57409104
v 0.23100701 0.37045015 0.57409104
v 0.23100701 0.34431810 0.57409104
v 0.22157916 0.35210846 0.57409104
v 0.22698580 0.34619852 0.57409104
v 0.22603965 0.34707905 0.57409104
f 10 9 30
f 1 6 7
f 11 10 30
f 38 39 23
f 30 9 29
f 24 6 23
f 5 6 1
f 1 3 4
f 8 9 1
f 1 7 8
f 45 29 39
f 30 29 45
f 39 47 45
f 23 39 40
f 17 25 6
f 6 5 17
f 16 34 35
f 6 20 21
f 12 13 2
f 2 11 12
f 10 11 2
f 2 13 14
f 1 9 2
f 9 10 2
f 14 15 2
f 2 15 3
f 2 3 1
f 39 38 46
f 46 47 39
f 41 24 23
f 23 40 41
f 19 16 35
f 35 34 19
f 19 34 20
f 19 20 6
f 6 25 26
f 22 37 23
f 22 21 37
f 23 6 22
f 6 21 22
f 31 11 30
f 12 11 31
f 23 37 42
f 44 38 23
f 44 46 38
f 18 19 6
f 6 26 27
f 32 33 12
f 12 31 32
f 34 42 36
f 36 42 37
f 37 21 36
f 20 34 36
f 36 21 20
f 23 42 43
f 43 44 23
f 6 27 28
f 28 18 6
f 16 19 28
f 19 18 28
f 41 29 9
f 6 24 41
f 41 7 6
f 39 29 41
f 9 8 41
f 41 8 7
f 41 40 39
f 3 15 42
f 42 16 4
f 42 4 3
f 42 13 12
f 42 15 14
f 14 13 42
f 34 16 42
f 12 33 42
f 43 45 47
f 30 45 43
f 47 46 43
f 43 31 30
f 46 44 43
f 43 42 33
f 33 32 43
f 43 32 31
f 1 4 28
f 28 5 1
f 25 17 28
f 28 17 5
f 4 16 28
f 28 26 25
f 28 27 26