# https://github.com/mikedh/trimesh
v 0.24089554 0.27264255 0.77386426
v 0.24089554 0.27402537 0.77756141
v 0.24089554 0.36510184 0.77386426
v 0.36008121 0.31574888 0.71615877
v 0.24234314 0.23063294 0.77386426
v 0.24089554 0.28074882 0.78634789
v 0.24089554 0.36429121 0.77728755
v 0.27769674 0.37373264 0.78941746
v 0.27769674 0.37344654 0.77756141
v 0.27769674 0.37258825 0.77386426
v 0.36008121 0.34526531 0.71615877
v 0.36448836 0.25485641 0.71615877
v 0.36482611 0.25194769 0.71615877
v 0.36588770 0.24403214 0.71615877
v 0.26336549 -0.00545059 0.78850458
v 0.26336549 -0.01489203 0.79033034
v 0.26336549 -0.01722855 0.79080961
v 0.26336549 -0.01803917 0.79101500
v 0.26336549 -0.01803917 0.80433165
v 0.24271308 0.23063294 0.77756141
v 0.24089554 0.30287418 0.79853485
v 0.24089554 0.36357597 0.77899920
v 0.27015313 0.36920267 0.79660640
v 0.28607672 0.37482937 0.78941746
v 0.27769674 0.37039475 0.79789584
v 0.28955095 0.37521085 0.78941746
v 0.30140520 0.37602149 0.78941746
v 0.28607672 0.37401873 0.77756141
v 0.28607672 0.37301739 0.77386426
v 0.36008121 0.35980890 0.73767994
v 0.36008121 0.35728165 0.73238523
v 0.36008121 0.35041514 0.72301678
v 0.36596809 0.35561272 0.73710938
v 0.36247779 0.34249962 0.71615877
v 0.36699751 0.23950215 0.71615877
v 0.38877584 -0.11087993 0.75690749
v 0.36849337 0.23397081 0.71615877
v 0.36955495 0.23058525 0.71615877
v 0.32947251 -0.11087993 0.78325551
v 0.32384298 -0.11087993 0.78849316
v 0.32361780 -0.11087993 0.78977119
v 0.32167158 -0.11087993 0.80126209
v 0.32215412 -0.11087993 0.80492502
v 0.26823908 0.10589156 0.83145562
v 0.26823908 0.10622535 0.83150126
v 0.24089554 0.31579658 0.80275693
v 0.24089554 0.36123942 0.78242250
v 0.24089554 0.35618492 0.78835623
v 0.24089554 0.35155960 0.79260113
v 0.27300007 0.35604187 0.80704747
v 0.27726245 0.36138251 0.80441153
v 0.28607672 0.37111003 0.79859192
v 0.28955095 0.37139613 0.79886578
v 0.28607672 0.36863047 0.80044050
v 0.31324334 0.37625989 0.78941746
v 0.30140520 0.37559234 0.78616531
v 0.30140520 0.37196832 0.79925376
v 0.32834661 0.37564000 0.78616531
v 0.36008121 0.36967951 0.76416490
v 0.36008121 0.36829664 0.75889301
v 0.36008121 0.36653233 0.75395203
v 0.36008121 0.36615088 0.75298210
v 0.36078893 0.36605552 0.75330161
v 0.36148055 0.36066723 0.74143416
v 0.36796257 0.35790154 0.74501722
v 0.36854163 0.34769718 0.73227112
v 0.36648280 0.34431163 0.72436328
v 0.36381278 0.34087836 0.71615877
v 0.40312317 -0.11087993 0.75690749
v 0.38235816 0.23058525 0.71615877
v 0.34217923 -0.11087993 0.80492502
v 0.28955095 0.10455641 0.83187783
v 0.27769674 0.10493788 0.83182077
v 0.27769674 0.11328258 0.83273365
v 0.26823908 0.11251964 0.83195770
v 0.24089554 0.32681157 0.80281399
v 0.24089554 0.33792196 0.79984713
v 0.24089554 0.33329660 0.80128492
v 0.26981534 0.34803097 0.80817715
v 0.27769674 0.33854185 0.81133801
v 0.27726245 0.35141655 0.80853090
v 0.28091362 0.35680481 0.80737840
v 0.28955095 0.36290838 0.80479949
v 0.31324334 0.37215906 0.79931080
v 0.32508149 0.37206371 0.79936787
v 0.32508149 0.37611684 0.78941746
v 0.30140520 0.36286069 0.80517606
v 0.32508149 0.36367132 0.80529017
v 0.34020084 0.37535390 0.78616531
v 0.36078893 0.36987025 0.76576244
v 0.36008121 0.37234981 0.77752719
v 0.36069240 0.37225442 0.77752719
v 0.36481002 0.36753374 0.76185987
v 0.36719051 0.36867813 0.76976770
v 0.36950669 0.35995195 0.75384934
v 0.37540966 0.34941379 0.75468234
v 0.37032698 0.35117811 0.74143416
v 0.37600480 0.33839876 0.74209600
v 0.37061650 0.33963858 0.72903040
v 0.36802692 0.33553776 0.71824699
v 0.36756047 0.33453638 0.71615877
v 0.36526038 0.33844649 0.71615877
v 0.40341266 -0.11011700 0.75690749
v 0.40367005 -0.11087993 0.76515765
v 0.39073814 0.18805111 0.74011048
v 0.39676980 0.08953595 0.74011048
v 0.40466725 -0.10029408 0.75690749
v 0.37614955 0.30296957 0.71615877
v 0.37939862 0.29114395 0.72095140
v 0.37904474 0.30296957 0.72251470
v 0.37384949 -0.11087993 0.79949338
v 0.35662305 0.10689293 0.83103340
v 0.28955095 0.11328258 0.83259672
v 0.26823908 0.12272402 0.83153549
v 0.31324334 0.27927062 0.82167639
v 0.30140520 0.27927062 0.82117430
v 0.25823455 0.23063294 0.82026142
v 0.26780479 0.33854185 0.80914709
v 0.25916746 0.24369835 0.81957676
v 0.25971432 0.25056484 0.81917737
v 0.27769674 0.32671622 0.81316377
v 0.29466581 0.29748592 0.81910890
v 0.30140520 0.29872570 0.81930290
v 0.31324334 0.30034697 0.81957676
v 0.33695180 0.33854185 0.81219383
v 0.33695180 0.35046287 0.80959212
v 0.32508149 0.35775849 0.80762942
v 0.33695180 0.36381437 0.80523313
v 0.33695180 0.37187297 0.79931080
v 0.33695180 0.37578305 0.78941746
v 0.33695180 0.35785388 0.80770931
v 0.34880600 0.37473401 0.78616531
v 0.36008121 0.37239747 0.77813196
v 0.36773739 0.36925033 0.77752719
v 0.36165747 0.37111003 0.79018199
v 0.36754439 0.36905962 0.78674728
v 0.37016614 0.36305143 0.76576244
v 0.37859438 0.34483613 0.75918970
v 0.37743631 0.34216583 0.75128185
v 0.37656773 0.35122577 0.76569397
v 0.37890000 0.33425028 0.74613550
v 0.37745240 0.33024485 0.73821625
v 0.37048785 0.32652548 0.71615877
v 0.40521413 -0.10029408 0.76569397
v 0.40368610 -0.11087993 0.76563691
v 0.39318298 0.16063280 0.76569397
v 0.40331617 0.00647041 0.77755001
v 0.39691455 0.08953595 0.74198189
v 0.38066930 0.30296957 0.73011443
v 0.38089448 0.32671622 0.75384934
v 0.38142524 0.32671622 0.76569397
v 0.40333226 -0.00540291 0.76569397
v 0.40225459 0.00122517 0.75944074
v 0.37420333 0.31412765 0.71615877
v 0.37859438 0.30940691 0.72387262
v 0.38515684 -0.11087993 0.79701720
v 0.37256272 0.11323490 0.82808938
v 0.35662305 0.10908640 0.83103340
v 0.37256272 0.10140927 0.82667441
v 0.31324334 0.26739730 0.82241809
v 0.29025866 0.29033331 0.81939418
v 0.28607672 0.28761532 0.81922301
v 0.28327802 0.28580333 0.81908608
v 0.32508149 0.27927062 0.82125417
v 0.32508149 0.29114395 0.82046682
v 0.31324334 0.29114395 0.82067222
v 0.30140520 0.29114395 0.82015871
v 0.32508149 0.30020392 0.81951970
v 0.34880600 0.33854185 0.81222807
v 0.34880600 0.35046287 0.80943238
v 0.34880600 0.35718629 0.80751533
v 0.34880600 0.36314679 0.80455987
v 0.34880600 0.37120538 0.79864896
v 0.34880600 0.37482937 0.78941746
v 0.36008121 0.37158683 0.79009070
v 0.37188718 0.36228846 0.77752719
v 0.36008121 0.37058549 0.79347978
v 0.36625762 0.36796289 0.79465511
v 0.37008571 0.36333753 0.79018199
v 0.37872308 0.34531297 0.76569397
v 0.37999372 0.33858954 0.76569397
v 0.37931818 0.33839876 0.75468234
v 0.37671251 0.35132116 0.77752719
v 0.37943079 0.32643012 0.74209600
v 0.37881956 0.32228157 0.73487284
v 0.40383088 -0.08842076 0.77755001
v 0.40349309 -0.10129546 0.77867969
v 0.40312317 -0.10911564 0.77547320
v 0.40367005 -0.11087993 0.76596784
v 0.40395954 -0.00540291 0.77755001
v 0.39036822 0.20245168 0.78262790
v 0.39324729 0.16063280 0.77753859
v 0.40236719 0.01414754 0.78394018
v 0.40276929 0.00570746 0.76583091
v 0.39036822 0.20245168 0.78358642
v 0.37935036 0.31393687 0.73059370
v 0.38078187 0.32671622 0.77752719
v 0.38460996 0.27927062 0.77752719
v 0.37967206 0.33858954 0.77752719
v 0.38581629 -0.11087993 0.79684602
v 0.38343580 0.11323490 0.82317122
v 0.38420786 0.12510822 0.82342226
v 0.38398268 0.13693386 0.82328533
v 0.37256272 0.12510822 0.82775845
v 0.38681353 -0.11087993 0.79656076
v 0.39033604 -0.11087993 0.79530554
v 0.39067380 -0.10797121 0.79551094
v 0.37256272 0.17250612 0.82545342
v 0.37256272 0.18437945 0.82482583
v 0.37256272 0.19625275 0.82415257
v 0.37256272 0.20807840 0.82344509
v 0.36069240 0.23182503 0.82296582
v 0.36069240 0.24369835 0.82221270
v 0.33283419 0.29858265 0.81925725
v 0.36008121 0.33858954 0.81107555
v 0.36069240 0.32671622 0.81274156
v 0.36008121 0.34569446 0.80935249
v 0.35507896 0.35651871 0.80727569
v 0.35831191 0.36987025 0.79718835
v 0.36008121 0.36419582 0.80046332
v 0.36067632 0.36224080 0.80158160
v 0.36300858 0.35380072 0.80599766
v 0.36879898 0.36004734 0.79808983
v 0.37587611 0.34950918 0.78842469
v 0.37859438 0.34493149 0.78382606
v 0.37873917 0.34540836 0.77752719
v 0.40296230 -0.01727623 0.78532090
v 0.40284973 -0.06472181 0.78502421
v 0.40276929 -0.07654746 0.78483023
v 0.40215810 -0.10587312 0.78338103
v 0.40264063 -0.08842076 0.78447648
v 0.40244759 -0.09795758 0.78402004
v 0.40125738 -0.11087993 0.77995772
v 0.40204549 -0.11087993 0.77703650
v 0.40272103 -0.11087993 0.77327089
v 0.40265669 0.00647041 0.78460201
v 0.40296230 -0.00540291 0.78521821
v 0.39097941 0.13693386 0.81120108
v 0.39014300 0.12510822 0.81841284
v 0.38221338 0.17250612 0.82242951
v 0.38168259 0.18437945 0.82201872
v 0.39591735 -0.11087993 0.78904089
v 0.39792788 -0.10129546 0.78855022
v 0.38115183 0.19625275 0.82150521
v 0.38050843 0.20807840 0.82092326
v 0.37256272 0.21995170 0.82240669
v 0.36920108 0.25552398 0.81998756
v 0.36760873 0.26482235 0.81942841
v 0.36484220 0.27273790 0.81894915
v 0.36069240 0.25552398 0.82104877
v 0.36069240 0.33858954 0.81100708
v 0.36825210 0.33858954 0.80853090
v 0.36728703 0.34588517 0.80769790
v 0.36008121 0.34989064 0.80827986
v 0.35969517 0.35008138 0.80830268
v 0.36008121 0.35055822 0.80805164
v 0.36008121 0.36166860 0.80218638
v 0.36992488 0.35008138 0.80172994
v 0.37235363 0.33858954 0.80126209
v 0.37833703 0.28446818 0.80675078
v 0.37891608 0.27655263 0.80799457
v 0.38279244 0.25552398 0.80126209
v 0.38385399 0.24369835 0.80126209
v 0.38991782 0.13693386 0.81712338
v 0.37962380 0.21995170 0.82012449
v 0.37122773 0.24369835 0.82058093
v 0.37822446 0.23692722 0.81886928
v 0.37890000 0.22901168 0.81945123
v 0.37946297 0.26739730 0.80907863
v 0.38292109 0.21995170 0.81312955
v 0.38414351 0.20807840 0.81312955
v 0.38012242 0.25552398 0.81057346
f 1 4 5
f 38 36 15
f 10 11 3
f 1 5 2
f 5 6 2
f 12 5 4
f 15 5 14
f 5 19 20
f 27 57 55
f 37 38 15
f 5 12 13
f 13 14 5
f 44 19 43
f 43 45 44
f 44 45 19
f 73 45 43
f 18 19 5
f 39 40 18
f 21 20 19
f 21 6 5
f 5 20 21
f 9 10 3
f 3 8 9
f 25 8 23
f 23 51 25
f 23 49 50
f 50 51 23
f 15 14 35
f 35 37 15
f 69 70 103
f 103 70 107
f 103 104 69
f 103 107 144
f 144 104 103
f 107 70 106
f 144 189 145
f 145 104 144
f 75 45 74
f 45 73 74
f 43 71 72
f 72 73 43
f 113 74 72
f 72 74 73
f 16 5 15
f 15 36 16
f 43 19 42
f 19 18 42
f 115 74 113
f 11 10 32
f 10 31 32
f 22 47 23
f 48 49 23
f 23 47 48
f 19 45 46
f 46 21 19
f 46 45 75
f 27 9 26
f 28 9 27
f 28 29 10
f 10 9 28
f 57 27 53
f 27 26 53
f 105 70 110
f 105 106 70
f 107 106 153
f 147 190 194
f 230 207 206
f 17 18 5
f 5 16 17
f 17 16 36
f 36 39 17
f 39 18 17
f 41 18 40
f 41 42 18
f 90 92 94
f 59 92 90
f 160 115 113
f 113 158 160
f 160 158 115
f 259 225 224
f 59 90 60
f 60 28 59
f 29 28 60
f 33 32 31
f 33 64 65
f 11 32 33
f 7 22 23
f 7 8 3
f 23 8 7
f 75 117 76
f 76 46 75
f 120 118 76
f 76 118 79
f 24 9 8
f 24 26 9
f 8 25 24
f 24 53 26
f 56 27 55
f 55 28 56
f 56 28 27
f 54 25 51
f 216 214 249
f 51 50 83
f 83 54 51
f 57 53 83
f 53 54 83
f 149 105 110
f 150 105 149
f 148 105 147
f 106 105 148
f 147 194 148
f 70 108 109
f 110 70 109
f 109 108 110
f 155 108 154
f 110 108 155
f 155 149 110
f 237 190 236
f 239 237 236
f 263 225 262
f 264 263 262
f 264 238 225
f 225 263 264
f 239 236 264
f 264 236 238
f 134 136 176
f 94 92 134
f 92 136 134
f 179 136 178
f 224 225 179
f 176 136 179
f 135 136 92
f 178 136 135
f 135 177 178
f 182 181 150
f 138 181 182
f 96 138 139
f 96 140 138
f 151 105 150
f 150 181 151
f 152 194 190
f 144 107 152
f 152 190 144
f 107 153 152
f 152 153 106
f 106 148 152
f 152 148 194
f 111 156 112
f 71 111 112
f 112 72 71
f 113 72 112
f 112 158 113
f 227 237 239
f 239 228 227
f 227 190 237
f 239 232 231
f 243 230 232
f 207 230 243
f 243 232 239
f 239 207 243
f 188 235 189
f 188 189 144
f 230 233 188
f 91 92 59
f 174 132 130
f 79 118 121
f 121 118 120
f 120 163 121
f 74 115 116
f 262 225 261
f 63 64 30
f 30 62 63
f 30 33 31
f 64 33 30
f 29 62 30
f 10 29 30
f 30 31 10
f 93 64 63
f 65 64 93
f 94 65 93
f 63 60 93
f 93 90 94
f 93 60 90
f 119 76 117
f 120 76 119
f 79 50 78
f 78 76 79
f 25 54 52
f 52 54 53
f 52 24 25
f 53 24 52
f 249 214 250
f 250 213 249
f 214 213 250
f 165 213 214
f 214 168 165
f 169 124 168
f 169 168 214
f 214 216 169
f 82 127 88
f 82 83 50
f 88 127 131
f 57 88 84
f 55 57 84
f 174 130 173
f 173 130 129
f 196 155 185
f 149 155 196
f 238 236 193
f 193 190 147
f 193 236 190
f 174 177 175
f 177 135 175
f 183 140 176
f 183 225 226
f 183 179 225
f 176 179 183
f 138 140 180
f 226 181 180
f 180 181 138
f 180 183 226
f 140 183 180
f 184 196 185
f 150 149 184
f 149 196 184
f 140 96 137
f 176 140 137
f 94 134 137
f 137 134 176
f 198 151 197
f 199 151 181
f 226 225 199
f 199 181 226
f 225 197 199
f 199 197 151
f 206 207 157
f 158 112 157
f 229 228 239
f 239 231 229
f 242 230 206
f 242 233 230
f 235 188 234
f 234 188 233
f 129 130 86
f 89 130 132
f 89 91 59
f 132 91 89
f 89 86 130
f 74 116 114
f 114 116 161
f 75 74 114
f 161 162 114
f 114 162 163
f 114 163 120
f 120 119 114
f 114 117 75
f 114 119 117
f 268 261 267
f 267 261 252
f 225 259 260
f 260 261 225
f 259 252 260
f 260 252 261
f 270 264 271
f 271 261 270
f 271 264 262
f 262 261 271
f 61 60 63
f 63 62 61
f 29 60 61
f 61 62 29
f 143 155 154
f 185 155 143
f 77 50 49
f 77 78 50
f 212 213 158
f 158 211 212
f 212 211 213
f 213 211 247
f 161 116 167
f 164 165 115
f 213 165 164
f 115 158 164
f 158 213 164
f 168 124 166
f 166 165 168
f 115 165 166
f 166 116 115
f 166 167 116
f 87 82 88
f 83 82 87
f 87 88 57
f 57 83 87
f 81 82 50
f 126 131 127
f 127 82 126
f 126 169 170
f 170 131 126
f 82 81 126
f 128 84 88
f 88 131 128
f 128 173 129
f 128 172 173
f 178 177 219
f 219 172 218
f 173 172 219
f 219 177 174
f 174 173 219
f 133 135 92
f 133 175 135
f 174 175 133
f 133 132 174
f 92 91 133
f 133 91 132
f 95 96 65
f 95 137 96
f 95 65 94
f 94 137 95
f 105 151 146
f 147 105 146
f 146 192 147
f 195 151 198
f 225 238 195
f 238 193 195
f 195 197 225
f 198 197 195
f 195 193 147
f 147 192 195
f 206 157 205
f 201 207 239
f 201 157 207
f 187 229 231
f 187 231 232
f 232 230 187
f 187 188 144
f 230 188 187
f 59 28 58
f 58 89 59
f 58 28 55
f 55 86 58
f 86 89 58
f 239 264 245
f 216 252 251
f 258 252 259
f 258 259 224
f 11 33 34
f 33 68 34
f 67 68 33
f 141 98 139
f 139 138 141
f 138 182 141
f 141 184 185
f 141 182 150
f 150 184 141
f 97 96 139
f 139 98 97
f 65 96 97
f 249 213 248
f 213 247 248
f 248 216 249
f 248 252 216
f 267 252 248
f 248 247 267
f 266 268 267
f 267 247 266
f 161 167 122
f 122 162 161
f 122 121 163
f 163 162 122
f 121 122 80
f 79 121 80
f 80 50 79
f 80 81 50
f 85 128 129
f 84 128 85
f 55 84 85
f 85 86 55
f 129 86 85
f 218 172 171
f 172 128 171
f 171 128 131
f 170 218 171
f 171 131 170
f 221 222 178
f 191 146 151
f 151 195 191
f 192 146 191
f 191 195 192
f 159 205 157
f 159 112 156
f 159 157 112
f 202 201 239
f 157 201 202
f 209 208 241
f 158 208 209
f 241 208 204
f 158 157 204
f 204 208 158
f 228 229 186
f 229 187 186
f 186 187 144
f 186 227 228
f 144 190 186
f 190 227 186
f 261 268 269
f 268 272 269
f 270 261 269
f 269 272 270
f 244 245 211
f 244 241 239
f 239 245 244
f 215 169 216
f 216 251 215
f 170 169 215
f 253 251 252
f 252 258 253
f 102 67 101
f 68 67 102
f 142 141 185
f 98 141 142
f 185 143 142
f 143 98 142
f 101 67 66
f 66 97 98
f 66 67 33
f 66 33 65
f 65 97 66
f 246 247 211
f 246 266 247
f 211 245 246
f 268 266 265
f 265 246 245
f 266 246 265
f 270 272 265
f 265 272 268
f 265 264 270
f 265 245 264
f 123 122 167
f 123 166 124
f 167 166 123
f 124 80 123
f 123 80 122
f 125 126 81
f 81 80 125
f 169 126 125
f 124 169 125
f 125 80 124
f 178 219 220
f 220 221 178
f 200 159 156
f 205 159 200
f 241 204 240
f 239 241 240
f 157 202 203
f 203 204 157
f 203 240 204
f 203 202 239
f 239 240 203
f 210 244 211
f 210 211 158
f 158 209 210
f 210 209 241
f 241 244 210
f 223 253 258
f 223 179 178
f 178 222 223
f 222 253 223
f 224 179 223
f 223 258 224
f 99 66 98
f 221 220 257
f 218 222 257
f 222 221 257
f 257 219 218
f 257 220 219
f 255 254 218
f 218 254 256
f 256 254 253
f 256 222 218
f 256 253 222
f 251 253 217
f 253 254 217
f 254 255 217
f 217 255 218
f 217 215 251
f 217 218 170
f 170 215 217
f 100 98 143
f 100 99 98
f 100 143 101
f 101 66 100
f 66 99 100
f 1 3 11
f 11 4 1
f 70 69 36
f 36 38 70
f 77 3 1
f 1 2 77
f 77 2 6
f 6 21 77
f 77 7 3
f 49 48 77
f 47 22 77
f 77 48 47
f 21 46 77
f 22 7 77
f 46 76 77
f 76 78 77
f 4 11 102
f 102 13 12
f 102 12 4
f 38 37 102
f 102 70 38
f 14 13 102
f 102 35 14
f 37 35 102
f 102 108 70
f 154 108 102
f 102 143 154
f 11 34 102
f 101 143 102
f 102 34 68
f 36 69 200
f 200 39 36
f 200 71 43
f 200 41 40
f 200 145 189
f 200 40 39
f 69 104 200
f 189 235 200
f 104 145 200
f 235 234 200
f 200 111 71
f 43 42 200
f 42 41 200
f 200 156 111
f 200 242 206
f 233 242 200
f 200 234 233
f 206 205 200