# https://github.com/mikedh/trimesh
v 0.26581652 -0.16839466 0.96731965
v 0.25661968 -0.16684967 0.96731965
v 0.25710772 -0.16659953 0.95745753
v 0.26581652 -0.16709981 0.95562767
v 0.31237547 -0.14822154 0.75619876
v 0.27832115 -0.16692325 0.96741472
v 0.27765960 -0.16651125 0.97665897
v 0.26581652 -0.16683496 0.97646886
v 0.26335462 -0.16664367 0.97589851
v 0.25831156 -0.16623167 0.97468655
v 0.25068730 -0.16412756 0.96731965
v 0.25347454 -0.16412756 0.95427312
v 0.26335462 -0.14240945 0.75619876
v 0.30136747 -0.14702970 0.75619876
v 0.31237547 -0.14855997 0.76575196
v 0.28413425 -0.16579026 0.97147839
v 0.31237547 -0.13567036 0.75619876
v 0.34907601 -0.08846732 0.80496283
v 0.34890249 -0.09021831 0.80496283
v 0.34770952 -0.10065065 0.80496283
v 0.34164696 -0.11217184 0.80496283
v 0.33577966 -0.12292790 0.80496283
v 0.28413425 -0.16579026 0.97490042
v 0.27765960 -0.16492212 0.98260001
v 0.26581652 -0.16398041 0.98240991
v 0.26335462 -0.16471612 0.97989089
v 0.25624009 -0.15603477 0.98723403
v 0.25331185 -0.16012531 0.97977210
v 0.24553576 -0.15631433 0.97692039
v 0.24394151 -0.15819776 0.96731965
v 0.24446209 -0.15781517 0.95546135
v 0.24641423 -0.12088263 0.81351793
v 0.24632746 -0.12067663 0.81351793
v 0.24306303 -0.11217184 0.81351793
v 0.24299796 -0.11181870 0.81351793
v 0.24126271 -0.10031223 0.81351793
v 0.24124102 -0.09995909 0.81351793
v 0.24065537 -0.07663714 0.81351793
v 0.26335462 -0.12810728 0.75619876
v 0.23940816 -0.14776540 0.95546135
v 0.30542361 -0.15088481 0.97917798
v 0.29949122 -0.15709418 0.97917798
v 0.28865675 -0.16330356 0.97898788
v 0.31238629 -0.01807477 0.78782886
v 0.34750343 -0.07637229 0.80496283
v 0.34298096 -0.08234623 0.85501018
v 0.34298096 -0.08325851 0.85501018
v 0.30810239 -0.14391029 0.98630722
v 0.30885073 -0.14495500 0.97917798
v 0.28981720 -0.15756503 0.99198685
v 0.28608640 -0.15418078 0.99733382
v 0.27773552 -0.15822717 0.99191557
v 0.26581652 -0.15805061 0.98927776
v 0.26335462 -0.15753562 0.98877868
v 0.27384204 -0.15222379 0.99647828
v 0.26335462 -0.14961940 0.99388799
v 0.25294313 -0.14875126 0.98980057
v 0.24832300 -0.15334207 0.98483385
v 0.24321486 -0.14875126 0.98019983
v 0.23839954 -0.14776540 0.96731965
v 0.24296543 -0.06473338 0.81351793
v 0.26335462 -0.01807477 0.79106081
v 0.23828025 -0.13590579 0.96731965
v 0.24105665 -0.07663714 0.82504356
v 0.29839584 -0.15606419 0.98870741
v 0.31238629 -0.01807477 0.80097045
v 0.33542176 -0.04438369 0.80496283
v 0.34488973 -0.06894163 0.80496283
v 0.33315508 -0.06764679 0.86059477
v 0.33894650 -0.07768185 0.85962044
v 0.30766858 -0.11757194 0.97404492
v 0.30771196 -0.12910785 0.98576066
v 0.30821086 -0.13590579 0.98649733
v 0.31030399 -0.13590579 0.97917798
v 0.30266891 -0.13590579 0.99243838
v 0.29653044 -0.14486671 0.99764275
v 0.30142167 -0.14833926 0.99146405
v 0.29397095 -0.15278294 0.99659711
v 0.28981720 -0.14838340 0.99821307
v 0.28173744 -0.15418078 0.99733382
v 0.26853869 -0.14433701 0.99761899
v 0.26507904 -0.14808912 0.99548019
v 0.24615394 -0.14545528 0.98697265
v 0.25395173 -0.13590579 0.99277111
v 0.24069875 -0.13590579 0.97917798
v 0.24496097 -0.06387996 0.82535250
v 0.26335462 -0.01807477 0.80436874
v 0.24484166 -0.12575302 0.97917798
v 0.32018410 -0.05827386 0.86705862
v 0.32828555 -0.06170227 0.86059477
v 0.33323102 -0.04201472 0.80496283
v 0.30113971 -0.01807477 0.80410733
v 0.28951353 -0.09516227 0.94816573
v 0.29812470 -0.09277857 0.94072755
v 0.29643283 -0.11758666 0.98587946
v 0.33157168 -0.06986862 0.86691603
v 0.30575980 -0.10715431 0.95983395
v 0.30436078 -0.12123577 0.98195838
v 0.30020700 -0.12528216 0.98975305
v 0.29607496 -0.12929913 0.99735757
v 0.29673649 -0.13590579 0.99776155
v 0.28951353 -0.13590579 0.99897354
v 0.27773552 -0.14808912 0.99818931
v 0.26905926 -0.13590579 0.99752392
v 0.26312688 -0.13590579 0.99614559
v 0.27765960 -0.13590579 0.99868836
v 0.24548155 -0.13590579 0.98766180
v 0.27136931 -0.12985827 0.99704864
v 0.24650099 -0.12807785 0.98661616
v 0.26599003 -0.01807477 0.80520048
v 0.24835555 -0.11833708 0.97226261
v 0.25296480 -0.11972021 0.98005724
v 0.25626178 -0.11633595 0.97665897
v 0.26335462 -0.11552667 0.97798979
v 0.26581652 -0.11524711 0.97844128
v 0.28952438 -0.01807477 0.80691149
v 0.27765960 -0.01807477 0.80736302
v 0.27341908 -0.01807477 0.80657879
v 0.26581652 -0.11863136 0.98435857
v 0.28168320 -0.11783680 0.98547548
v 0.28951353 -0.11752780 0.98597453
v 0.28951353 -0.12300147 0.99189181
v 0.28951353 -0.12894599 0.99764275
v 0.27765960 -0.12929913 0.99738133
v 0.26678174 -0.12554702 0.99165415
v 0.25395173 -0.12588544 0.98849354
v 0.26335462 -0.11882264 0.98355058
v 0.27770298 -0.12250119 0.99008574
f 17 39 44
f 18 5 17
f 44 39 62
f 62 39 38
f 38 39 13
f 64 38 63
f 61 62 38
f 38 64 61
f 63 86 61
f 61 64 63
f 87 61 86
f 62 61 87
f 18 17 45
f 45 17 44
f 38 13 37
f 37 13 36
f 21 22 5
f 5 22 15
f 15 22 41
f 6 1 5
f 93 121 95
f 92 93 66
f 66 67 44
f 66 91 67
f 72 71 98
f 98 71 95
f 44 67 68
f 68 45 44
f 5 3 14
f 14 3 13
f 5 1 4
f 4 3 5
f 1 3 4
f 33 13 32
f 33 34 13
f 36 13 35
f 13 34 35
f 32 13 40
f 13 31 40
f 40 33 32
f 34 33 40
f 11 31 13
f 20 21 5
f 42 15 41
f 48 74 73
f 16 6 5
f 23 6 16
f 5 15 16
f 88 86 63
f 88 87 86
f 1 6 7
f 7 6 23
f 117 93 116
f 116 93 92
f 120 93 119
f 121 93 120
f 89 66 95
f 94 93 95
f 95 66 94
f 94 66 93
f 95 121 122
f 121 120 122
f 95 122 100
f 100 122 123
f 45 68 46
f 18 45 46
f 46 67 69
f 46 68 67
f 72 73 46
f 46 73 74
f 46 71 72
f 13 3 12
f 12 11 13
f 3 11 12
f 2 3 1
f 2 11 3
f 56 55 82
f 60 40 31
f 60 37 36
f 36 35 60
f 63 38 60
f 38 37 60
f 60 35 34
f 34 40 60
f 49 48 41
f 49 20 48
f 21 20 49
f 41 22 49
f 22 21 49
f 15 42 43
f 43 16 15
f 23 16 43
f 114 113 119
f 87 113 114
f 119 113 127
f 87 88 111
f 111 88 109
f 118 93 117
f 118 110 93
f 115 110 87
f 115 114 119
f 87 114 115
f 119 93 115
f 93 110 115
f 95 71 97
f 97 89 95
f 71 89 97
f 71 96 90
f 90 89 71
f 90 96 69
f 66 89 90
f 91 66 90
f 69 67 90
f 67 91 90
f 128 120 119
f 128 122 120
f 82 55 81
f 72 98 99
f 99 100 72
f 99 98 95
f 95 100 99
f 18 46 47
f 48 20 47
f 47 74 48
f 47 46 74
f 69 96 70
f 70 46 69
f 70 96 71
f 71 46 70
f 10 2 1
f 11 2 10
f 31 11 30
f 30 60 31
f 63 60 85
f 85 88 63
f 109 88 85
f 65 43 42
f 65 77 78
f 65 42 41
f 41 48 65
f 48 77 65
f 112 111 109
f 112 127 113
f 112 113 87
f 87 111 112
f 126 125 119
f 119 127 126
f 126 112 109
f 127 112 126
f 106 81 103
f 48 73 75
f 100 101 75
f 75 73 72
f 72 100 75
f 18 47 19
f 19 47 20
f 19 5 18
f 19 20 5
f 55 56 27
f 11 10 29
f 29 30 11
f 60 30 29
f 80 81 55
f 103 81 80
f 80 79 103
f 24 7 23
f 23 43 24
f 52 25 24
f 78 77 76
f 76 79 78
f 76 77 48
f 48 75 76
f 76 75 101
f 125 126 108
f 119 125 108
f 108 126 109
f 105 81 104
f 81 106 104
f 104 108 105
f 106 108 104
f 102 101 100
f 102 76 101
f 79 76 102
f 102 106 103
f 103 79 102
f 102 100 123
f 123 106 102
f 82 81 84
f 84 81 105
f 84 108 109
f 105 108 84
f 53 80 55
f 52 80 53
f 53 25 52
f 43 65 50
f 50 24 43
f 50 65 78
f 51 80 52
f 52 24 51
f 24 50 51
f 51 50 78
f 78 79 51
f 79 80 51
f 8 24 25
f 7 24 8
f 1 7 8
f 124 106 123
f 124 108 106
f 123 122 124
f 122 128 124
f 124 128 119
f 119 108 124
f 28 29 10
f 28 58 29
f 10 27 28
f 27 58 28
f 57 27 56
f 57 58 27
f 57 56 82
f 82 84 57
f 60 29 59
f 29 58 59
f 59 85 60
f 107 84 109
f 109 85 107
f 27 25 54
f 25 53 54
f 55 27 54
f 54 53 55
f 9 8 25
f 9 10 1
f 1 8 9
f 83 59 58
f 58 57 83
f 85 59 83
f 83 107 85
f 83 57 84
f 84 107 83
f 10 9 26
f 26 9 25
f 26 27 10
f 26 25 27
f 39 17 14
f 14 17 5
f 14 13 39
f 117 116 118
f 44 62 118
f 118 66 44
f 62 87 118
f 92 66 118
f 118 116 92
f 87 110 118