# https://github.com/mikedh/trimesh
v 0.35758850 -0.50369411 0.19623482
v 0.35721593 -0.51553193 0.19623482
v 0.35715628 -0.51553193 0.18435467
v 0.35481638 -0.52095682 0.12730544
v 0.35706687 -0.50369411 0.18435467
v 0.35660484 -0.49182439 0.19623482
v 0.35512935 -0.48019053 0.20337110
v 0.35575532 -0.49182439 0.20508870
v 0.35591926 -0.49765089 0.20551810
v 0.35615773 -0.50369411 0.20551810
v 0.35596398 -0.50978195 0.20551810
v 0.35581493 -0.51553193 0.20508870
v 0.35526348 -0.52284375 0.20361646
v 0.35569571 -0.52383820 0.19623482
v 0.35575532 -0.52387645 0.18435467
v 0.35481638 -0.52168356 0.12730544
v 0.35132883 -0.52740165 0.06577814
v 0.34965959 -0.51553193 0.04203828
v 0.34928701 -0.50369411 0.04203828
v 0.34734949 -0.48018417 0.03038307
v 0.35524860 -0.48019053 0.19713451
v 0.34779660 -0.48018417 0.04203828
v 0.34778171 -0.48018417 0.04226321
v 0.34730477 -0.48018417 0.04653678
v 0.35432455 -0.48019053 0.20551810
v 0.35559137 -0.49182439 0.20551810
v 0.35566590 -0.51553193 0.20551810
v 0.35375819 -0.52475617 0.20551810
v 0.35274472 -0.52977306 0.19623482
v 0.35262550 -0.52980491 0.18435467
v 0.34690239 -0.53647287 0.06577814
v 0.35256589 -0.52740165 0.11317604
v 0.35176106 -0.52740165 0.07765829
v 0.34639563 -0.53635174 0.05391843
v 0.35024087 -0.52740165 0.05391843
v 0.34988318 -0.52004525 0.04653678
v 0.34810960 -0.52740165 0.04203828
v 0.34734949 -0.51553193 0.03015813
v 0.34793074 -0.50369411 0.03015813
v 0.34769226 -0.49182439 0.03015813
v 0.34733461 -0.48018417 0.03015813
v 0.33579893 -0.48018417 0.04653678
v 0.33611193 -0.48019053 0.20551810
v 0.35210386 -0.52758653 0.20551810
v 0.34761777 -0.53460510 0.20551810
v 0.34681297 -0.53617326 0.19623482
v 0.33696146 -0.53960923 0.19623482
v 0.33696146 -0.53981959 0.06577814
v 0.33696146 -0.53970486 0.05391843
v 0.33696146 -0.53889525 0.04653678
v 0.33696146 -0.53838529 0.04203828
v 0.34533744 -0.53551028 0.04653678
v 0.34469659 -0.53498758 0.04203828
v 0.34329562 -0.53370626 0.03557680
v 0.34466678 -0.52656019 0.03103739
v 0.34325090 -0.52205327 0.02375800
v 0.34405573 -0.51553193 0.02265381
v 0.34468170 -0.50369411 0.02150875
v 0.34457737 -0.49182439 0.02122247
v 0.34441342 -0.48018417 0.02128381
v 0.31290647 -0.48018417 0.00490516
v 0.20532980 -0.52663033 0.20551810
v 0.34632110 -0.53600115 0.20551810
v 0.33696146 -0.53947537 0.20551810
v 0.32511281 -0.54075029 0.20551810
v 0.32961379 -0.54010647 0.04653678
v 0.31324928 -0.54179576 0.20551810
v 0.30207130 -0.54263722 0.20551810
v 0.30137083 -0.54268824 0.20551810
v 0.26053401 -0.54523172 0.20177617
v 0.32511281 -0.54034232 0.04203828
v 0.32511281 -0.53793906 0.03015813
v 0.33578405 -0.53493656 0.03103739
v 0.33104459 -0.53334291 0.02422830
v 0.33895859 -0.52995793 0.02766352
v 0.33578405 -0.52656019 0.02193814
v 0.32964359 -0.52017911 0.01300248
v 0.33243064 -0.51227448 0.01128487
v 0.33383160 -0.50369411 0.00999665
v 0.33976339 -0.50369411 0.01557887
v 0.34074705 -0.49182439 0.01529263
v 0.34101533 -0.48018417 0.01533350
v 0.34108982 -0.48018417 0.01545619
v 0.31290647 -0.48018417 -0.00219021
v 0.20532980 -0.52983044 0.17249496
v 0.20532980 -0.54248424 0.20551810
v 0.25393156 -0.54501499 0.20551810
v 0.26053401 -0.54523172 0.20245093
v 0.25393156 -0.54530823 0.20073332
v 0.31324928 -0.54063556 0.04203828
v 0.30137083 -0.53987061 0.03017861
v 0.30207130 -0.53984508 0.03015813
v 0.31324928 -0.53945624 0.03015813
v 0.31324928 -0.53568879 0.02093620
v 0.32511281 -0.53433736 0.02294008
v 0.31324928 -0.53038503 0.01500636
v 0.32545558 -0.52699368 0.01649904
v 0.32174452 -0.52276724 0.01146889
v 0.30913577 -0.51057879 -0.00008407
v 0.31703488 -0.50751895 0.00149038
v 0.32023922 -0.49961429 -0.00006364
v 0.32189355 -0.49182439 -0.00120874
v 0.33483019 -0.49182439 0.00874934
v 0.32781041 -0.49182439 0.00283994
v 0.33508355 -0.48018417 0.00803367
v 0.32329451 -0.48018417 -0.00221064
v 0.31324928 -0.49182439 -0.00337617
v 0.30207130 -0.49295909 -0.00206752
v 0.30207130 -0.49233436 -0.00198571
v 0.30657231 -0.48448708 -0.00028857
v 0.23689636 -0.52741441 0.03017861
v 0.20532980 -0.53129023 0.15979690
v 0.23486943 -0.54523172 0.20165349
v 0.23486943 -0.54523172 0.20247137
v 0.23209728 -0.54465164 0.20551810
v 0.20532980 -0.54050807 0.17249496
v 0.23689636 -0.54022759 0.03017861
v 0.24209784 -0.54503412 0.20551810
v 0.25393156 -0.54530823 0.20328928
v 0.24209784 -0.54530823 0.20065154
v 0.24208294 -0.54034232 0.03017861
v 0.30137083 -0.54066105 0.04205875
v 0.26579511 -0.54029134 0.03017861
v 0.27765864 -0.54018294 0.03017861
v 0.30137083 -0.53985785 0.03013770
v 0.30207130 -0.53983872 0.03013770
v 0.30207130 -0.53630712 0.02052724
v 0.30207130 -0.53609039 0.01999560
v 0.30207130 -0.53201057 0.01441338
v 0.30207130 -0.53169820 0.01406576
v 0.30207130 -0.52612033 0.00934232
v 0.30207130 -0.52576974 0.00905605
v 0.31324928 -0.52445653 0.01018068
v 0.30207130 -0.51783323 0.00349426
v 0.30207130 -0.51141389 -0.00061575
v 0.30207130 -0.50431244 -0.00290587
v 0.30207130 -0.50368774 -0.00308993
v 0.31315983 -0.50361123 -0.00143367
v 0.32921141 -0.48018417 0.00210380
v 0.23689636 -0.53293491 0.03013770
v 0.20532980 -0.53136674 0.15938798
v 0.24209784 -0.54530823 0.20330975
v 0.23808868 -0.54493848 0.20551810
v 0.20532980 -0.53719320 0.15979690
v 0.24208294 -0.54032956 0.03013770
v 0.20532980 -0.53711033 0.15949019
v 0.20532980 -0.53707847 0.15938798
v 0.25394647 -0.54031047 0.03013770
v 0.26579511 -0.54027858 0.03013770
v 0.27765864 -0.54017021 0.03013770
f 43 61 62
f 111 140 141
f 110 109 111
f 147 140 117
f 147 141 140
f 117 146 147
f 86 114 115
f 86 113 114
f 86 116 117
f 117 113 86
f 111 109 108
f 13 28 29
f 8 9 1
f 1 7 8
f 111 141 112
f 117 116 144
f 144 146 117
f 115 114 143
f 121 113 117
f 120 113 121
f 89 120 121
f 49 48 66
f 48 71 66
f 3 4 1
f 22 7 21
f 6 7 1
f 21 7 6
f 1 4 5
f 5 6 1
f 27 28 13
f 13 29 14
f 25 8 7
f 87 88 69
f 142 143 114
f 67 48 65
f 49 34 31
f 31 48 49
f 91 71 90
f 122 90 89
f 89 121 122
f 122 121 90
f 20 22 21
f 21 6 20
f 6 5 20
f 34 51 52
f 1 9 10
f 44 29 28
f 44 45 29
f 4 3 16
f 2 3 1
f 13 14 2
f 1 10 2
f 9 8 26
f 8 25 26
f 61 43 42
f 68 48 67
f 68 69 48
f 48 69 70
f 70 69 88
f 70 71 48
f 90 71 70
f 89 90 70
f 119 88 87
f 143 142 118
f 142 119 118
f 118 119 87
f 64 65 47
f 47 65 48
f 48 31 47
f 29 31 30
f 90 121 123
f 50 66 71
f 71 51 50
f 49 66 50
f 50 34 49
f 50 51 34
f 72 51 71
f 19 5 4
f 19 20 5
f 41 20 19
f 84 106 107
f 107 108 84
f 84 108 109
f 109 110 84
f 62 61 84
f 84 85 62
f 84 112 85
f 84 110 111
f 111 112 84
f 15 16 3
f 3 2 15
f 15 2 14
f 15 30 31
f 15 14 29
f 29 30 15
f 16 15 33
f 12 27 13
f 13 2 12
f 24 25 7
f 63 64 46
f 64 47 46
f 46 47 31
f 46 31 29
f 46 45 63
f 29 45 46
f 124 91 90
f 90 123 124
f 148 123 121
f 56 54 75
f 55 54 56
f 104 106 139
f 34 35 17
f 17 31 34
f 17 33 31
f 4 16 17
f 16 33 17
f 32 15 31
f 31 33 32
f 32 33 15
f 27 12 11
f 11 2 10
f 11 12 2
f 7 22 23
f 23 24 7
f 37 54 55
f 37 35 34
f 34 52 37
f 75 54 74
f 96 97 74
f 76 56 74
f 74 56 75
f 82 81 105
f 137 108 107
f 117 140 137
f 137 140 111
f 111 108 137
f 134 132 117
f 117 135 134
f 18 19 4
f 4 17 18
f 39 40 18
f 41 19 18
f 18 40 41
f 93 72 71
f 91 124 150
f 150 124 123
f 145 148 121
f 145 128 148
f 145 121 117
f 117 128 145
f 41 40 60
f 60 40 39
f 38 56 57
f 39 18 38
f 38 18 37
f 55 56 38
f 38 37 55
f 53 37 52
f 54 37 53
f 53 52 51
f 51 54 53
f 72 74 73
f 73 74 54
f 51 72 73
f 73 54 51
f 72 93 94
f 94 93 128
f 79 80 57
f 57 56 79
f 79 56 78
f 106 104 102
f 107 106 102
f 78 101 102
f 102 79 78
f 104 79 102
f 99 134 135
f 36 17 35
f 36 18 17
f 35 37 36
f 37 18 36
f 128 93 127
f 148 128 127
f 132 96 131
f 96 130 131
f 117 132 131
f 131 130 117
f 58 38 57
f 39 38 58
f 57 80 58
f 58 80 81
f 58 81 82
f 96 74 95
f 95 94 96
f 95 74 72
f 72 94 95
f 129 94 128
f 129 128 117
f 117 130 129
f 129 130 96
f 96 94 129
f 103 104 139
f 103 79 104
f 80 79 103
f 139 105 103
f 103 105 81
f 81 80 103
f 77 101 78
f 77 56 76
f 78 56 77
f 76 74 77
f 77 74 97
f 136 99 135
f 137 99 136
f 136 135 117
f 117 137 136
f 138 137 107
f 138 99 137
f 107 102 138
f 138 102 101
f 99 77 98
f 98 97 96
f 98 77 97
f 126 127 93
f 91 150 125
f 150 127 125
f 125 126 91
f 127 126 125
f 149 150 123
f 149 127 150
f 123 148 149
f 148 127 149
f 59 60 39
f 39 58 59
f 59 58 82
f 100 77 99
f 99 138 100
f 101 77 100
f 100 138 101
f 99 98 133
f 132 134 133
f 134 99 133
f 133 96 132
f 133 98 96
f 91 126 92
f 92 126 93
f 71 91 92
f 92 93 71
f 83 59 82
f 60 59 83
f 62 85 144
f 141 147 144
f 144 86 62
f 144 112 141
f 144 147 146
f 116 86 144
f 85 112 144
f 142 113 120
f 114 113 142
f 119 70 88
f 89 70 119
f 119 142 120
f 119 120 89
f 43 25 24
f 24 42 43
f 62 86 11
f 67 65 11
f 11 43 62
f 63 45 11
f 115 143 11
f 11 25 43
f 11 86 115
f 11 64 63
f 11 68 67
f 9 26 11
f 28 27 11
f 11 10 9
f 11 44 28
f 87 69 11
f 11 65 64
f 11 118 87
f 45 44 11
f 11 26 25
f 69 68 11
f 143 118 11
f 83 20 41
f 83 105 139
f 61 42 83
f 22 20 83
f 139 106 83
f 83 84 61
f 83 23 22
f 106 84 83
f 42 24 83
f 24 23 83
f 82 105 83
f 41 60 83