# https://github.com/mikedh/trimesh
v -0.33960578 0.50657119 0.05387197
v -0.33951301 0.50657119 0.05574048
v -0.33851319 0.50657119 0.04388444
v -0.33959546 0.50468440 0.05387197
v -0.33862657 0.50657119 0.07085895
v -0.33828642 0.50657119 0.04201597
v -0.33828642 0.50468440 0.04201597
v -0.33190615 0.04763326 0.03015994
v -0.33940991 0.49282458 0.05387197
v -0.33600849 0.40302261 0.07085895
v -0.32644325 0.50657119 0.07085895
v -0.33186493 0.04763326 0.03113126
v -0.33114343 0.04763326 0.04201597
v -0.33106094 0.04763326 0.04321714
v -0.33547250 0.50657119 0.03558744
v -0.33003022 0.04763326 0.01812596
v -0.33587450 0.39794629 0.07085895
v -0.25624995 0.50657119 0.01387735
v -0.32228936 0.38725452 0.07085895
v -0.23431584 0.23186431 0.00386758
v -0.31791902 0.04763326 0.04321714
v -0.33555495 0.38725452 0.07085895
v -0.33493651 0.50657119 0.03439370
v -0.33494684 0.50468440 0.03437888
v -0.32469100 0.04763326 0.00630701
v -0.24709699 0.48383992 0.00313353
v -0.25624995 0.50657119 -0.00123370
v -0.31700169 0.05275453 0.04321714
v -0.23570733 0.18442514 0.00345237
v -0.23511981 0.19628492 0.00378602
v -0.23481059 0.20814472 0.00383792
v -0.23446014 0.22000451 0.00385277
v -0.23431584 0.23186431 -0.00258315
v -0.30438544 0.04763326 0.00410485
v -0.28499725 0.07099345 0.00136144
v -0.27291699 0.09278131 0.00185080
v -0.23809864 0.15392212 0.00099812
v -0.23749051 0.16070556 0.00179889
v -0.23659377 0.17256536 0.00277022
v -0.32790690 0.50657119 0.02928499
v -0.31024004 0.48860178 0.01186799
v -0.31144598 0.48091986 0.01091151
v -0.31739336 0.48091986 0.01582742
v -0.31246642 0.46906012 0.00995500
v -0.31839318 0.46906012 0.01508594
v -0.32448484 0.46906012 0.02102508
v -0.32145448 0.39224100 0.01235738
v -0.32221720 0.36227707 0.01153434
v -0.32098032 0.04763326 0.00090913
v -0.24709699 0.48383992 -0.00196775
v -0.25624995 0.50571763 -0.00151541
v -0.25802282 0.50657119 -0.00109284
v -0.23570733 0.18442514 -0.00242002
v -0.23511981 0.19628492 -0.00270180
v -0.23446014 0.22000451 -0.00260542
v -0.23481059 0.20814472 -0.00268695
v -0.24433462 0.19628492 -0.00488911
v -0.24433462 0.24372409 -0.00454807
v -0.25624995 0.49282458 -0.00430334
v -0.30438544 0.04763326 -0.00210861
v -0.28499725 0.07099345 -0.00035136
v -0.23809864 0.15392212 0.00001938
v -0.23749051 0.16070556 -0.00078878
v -0.23659377 0.17256536 -0.00175272
v -0.31864056 0.50657119 0.02350899
v -0.30816824 0.49650832 0.01318781
v -0.29784024 0.47525954 0.00042717
v -0.30389067 0.46906012 0.00403071
v -0.31550710 0.37418179 0.00751561
v -0.31550710 0.36227707 0.00710039
v -0.31559987 0.04763326 -0.00210861
v -0.30695197 0.37418179 0.00208807
v -0.25732191 0.50585241 -0.00137455
v -0.26807252 0.50657119 0.00093880
v -0.26807252 0.50234839 -0.00051449
v -0.24433462 0.16070556 -0.00339873
v -0.24433462 0.17256536 -0.00418469
v -0.24433462 0.18442514 -0.00470378
v -0.29176919 0.07768704 -0.00407353
v -0.27992601 0.43352564 -0.00457027
v -0.26807252 0.46906012 -0.00428856
v -0.27992601 0.44538546 -0.00426629
v -0.27992601 0.46906012 -0.00272400
v -0.29178982 0.46906012 -0.00105572
v -0.29121260 0.47993157 -0.00029946
v -0.28687318 0.48788300 0.00013060
v -0.27935910 0.49224058 -0.00042547
v -0.27503000 0.49965295 0.00013060
v -0.30953912 0.04763326 -0.00227916
v -0.28284300 0.07768704 -0.00160443
v -0.27291699 0.09278131 -0.00083333
v -0.24398416 0.14951962 -0.00215308
v -0.24769482 0.13918723 -0.00164149
v -0.31533188 0.50657119 0.02161085
v -0.30026248 0.50104560 0.01126001
v -0.29476865 0.48316607 0.00182856
v -0.30550893 0.50657119 0.01640577
v -0.29178982 0.39794629 -0.00359898
v -0.29178982 0.38725452 -0.00388070
v -0.29176919 0.38604157 -0.00391782
v -0.30102524 0.37418179 -0.00087038
v -0.31457944 0.05392254 -0.00224946
v -0.30363300 0.06582724 -0.00313922
v -0.27274177 0.50657119 0.00254037
v -0.25619842 0.14884576 -0.00436267
v -0.29176919 0.33860241 -0.00405868
v -0.29176919 0.38720958 -0.00388812
v -0.29176919 0.37418179 -0.00398450
v -0.27935910 0.50405546 0.00393433
v -0.27942095 0.50657119 0.00514289
v -0.29101675 0.50657119 0.00998466
v -0.28189473 0.50657119 0.00614388
f 8 9 4
f 4 9 5
f 12 9 8
f 5 9 12
f 8 4 7
f 1 4 2
f 2 4 5
f 28 19 21
f 20 18 11
f 11 19 20
f 5 12 13
f 13 14 5
f 45 23 44
f 67 68 44
f 46 23 45
f 79 80 57
f 69 70 48
f 72 70 69
f 67 72 69
f 69 68 67
f 65 66 40
f 5 14 10
f 3 6 7
f 3 4 1
f 3 7 4
f 43 44 23
f 47 44 68
f 47 69 48
f 68 69 47
f 45 44 47
f 47 46 45
f 48 23 47
f 23 46 47
f 25 23 48
f 25 24 23
f 23 24 15
f 67 100 101
f 101 100 71
f 101 72 67
f 71 72 101
f 71 100 102
f 80 79 106
f 67 66 96
f 19 28 29
f 57 80 59
f 33 59 50
f 26 18 20
f 94 66 65
f 94 97 66
f 95 97 111
f 66 97 95
f 95 96 66
f 111 112 95
f 95 112 109
f 14 22 17
f 17 10 14
f 42 43 23
f 67 44 42
f 44 43 42
f 8 7 16
f 7 6 16
f 6 15 16
f 24 25 16
f 16 15 24
f 49 25 48
f 48 70 49
f 49 72 71
f 49 70 72
f 99 100 67
f 67 98 99
f 80 100 107
f 100 99 107
f 107 99 98
f 108 100 80
f 80 106 108
f 108 102 100
f 108 106 102
f 103 106 79
f 102 106 103
f 103 79 71
f 71 102 103
f 34 35 21
f 36 37 21
f 21 35 36
f 36 35 37
f 21 37 38
f 109 112 110
f 80 107 82
f 82 107 98
f 88 110 104
f 109 110 88
f 88 95 109
f 57 59 58
f 58 33 57
f 59 33 58
f 23 40 41
f 41 42 23
f 41 40 66
f 41 66 67
f 67 42 41
f 77 105 78
f 57 54 78
f 78 79 57
f 78 105 79
f 53 77 78
f 78 54 53
f 39 29 28
f 39 28 21
f 21 38 39
f 59 82 83
f 81 59 80
f 80 82 81
f 81 82 59
f 84 98 67
f 84 82 98
f 84 83 82
f 59 83 84
f 85 84 67
f 59 84 85
f 96 95 86
f 95 88 86
f 67 96 86
f 86 85 67
f 59 85 86
f 57 33 56
f 56 54 57
f 19 29 30
f 76 105 77
f 76 77 53
f 79 105 76
f 76 92 79
f 61 60 90
f 90 60 79
f 61 90 91
f 71 79 89
f 79 60 89
f 74 88 104
f 59 88 75
f 75 74 52
f 88 74 75
f 87 88 59
f 59 86 87
f 87 86 88
f 55 56 33
f 54 56 55
f 19 30 31
f 92 63 62
f 61 91 62
f 92 76 64
f 64 63 92
f 64 76 53
f 93 91 90
f 79 92 93
f 93 90 79
f 92 62 93
f 93 62 91
f 59 75 73
f 73 75 52
f 51 27 50
f 50 59 51
f 59 73 51
f 52 27 51
f 51 73 52
f 32 31 30
f 20 19 32
f 19 31 32
f 22 14 21
f 21 19 22
f 20 33 26
f 26 33 50
f 17 11 5
f 19 11 17
f 17 22 19
f 5 10 17
f 35 34 60
f 60 61 35
f 53 54 30
f 30 29 53
f 89 49 71
f 89 13 12
f 89 12 8
f 21 14 89
f 14 13 89
f 8 16 89
f 89 16 25
f 25 49 89
f 89 34 21
f 89 60 34
f 5 11 27
f 104 110 27
f 1 2 27
f 65 40 27
f 27 2 5
f 27 11 18
f 27 112 111
f 27 3 1
f 23 15 27
f 111 97 27
f 27 40 23
f 6 3 27
f 27 15 6
f 27 94 65
f 97 94 27
f 27 110 112
f 27 74 104
f 52 74 27
f 27 26 50
f 18 26 27
f 62 63 38
f 62 38 37
f 35 61 62
f 37 35 62
f 53 29 64
f 29 39 64
f 38 63 64
f 64 39 38
f 32 30 54
f 54 55 32
f 32 33 20
f 32 55 33