# https://github.com/mikedh/trimesh
v 0.34562661 0.20811902 0.63786788
v 0.34559893 0.21908963 0.63786788
v 0.34558970 0.20739563 0.63786788
v 0.34355117 0.19626147 0.47167761
v 0.34557125 0.21997659 0.63786788
v 0.34348658 0.20491087 0.47211750
v 0.34377253 0.19626147 0.63786788
v 0.34319143 0.18946146 0.47609493
v 0.34319143 0.18946146 0.47345553
v 0.34216753 0.19626147 0.46573897
v 0.34493481 0.22573867 0.63786788
v 0.34143882 0.20856565 0.46854333
v 0.33729716 0.21997659 0.48097048
v 0.34439055 0.23065154 0.63786788
v 0.34242580 0.19158134 0.63786788
v 0.33429006 0.17492414 0.48097048
v 0.33914201 0.18473730 0.63786788
v 0.34009209 0.18506441 0.46934981
v 0.33441921 0.18439762 0.46024023
v 0.33623638 0.19626147 0.45846230
v 0.33553535 0.20811902 0.45895718
v 0.33338609 0.21671182 0.46091840
v 0.33501877 0.22039176 0.46925815
v 0.33189178 0.22671998 0.47330890
v 0.33262973 0.22760695 0.48097048
v 0.26639080 0.23065154 0.63786788
v 0.33047127 0.23065154 0.48645088
v 0.31988188 0.16638796 0.47602161
v 0.31988188 0.16638796 0.47433533
v 0.33396723 0.17562240 0.46911153
v 0.33684517 0.18196949 0.63786788
v 0.33141212 0.17746550 0.63786788
v 0.33226998 0.17739002 0.46218311
v 0.32448476 0.18519651 0.45463151
v 0.32764866 0.19626147 0.45254198
v 0.32538873 0.20856565 0.45303687
v 0.32478917 0.22039176 0.45943374
v 0.32062905 0.22653756 0.46254970
v 0.32853417 0.22462525 0.46539071
v 0.32311034 0.23065154 0.47085280
v 0.32806373 0.23065154 0.47719467
v 0.26658451 0.22239843 0.63786788
v 0.25140148 0.23065154 0.61130896
v 0.25140148 0.21931608 0.61367342
v 0.31838758 0.16638796 0.47602161
v 0.32585917 0.17496189 0.63786788
v 0.32510277 0.17465995 0.63786788
v 0.32434641 0.16986660 0.46988135
v 0.31838758 0.16638796 0.47433533
v 0.31324048 0.17501221 0.46000195
v 0.32510277 0.17569159 0.46060680
v 0.32011251 0.18968162 0.45107566
v 0.32171751 0.19626147 0.45061743
v 0.32162527 0.20490460 0.45063575
v 0.31324048 0.21997659 0.45787576
v 0.31337883 0.23065154 0.46685704
v 0.31623831 0.23065154 0.46698535
v 0.31324048 0.22671998 0.46243972
v 0.26687968 0.21997659 0.63786788
v 0.25140148 0.23065154 0.49933628
v 0.25140148 0.21571792 0.61292193
v 0.31324048 0.17467881 0.63786788
v 0.25140148 0.19730569 0.58771937
v 0.29475519 0.17778003 0.47330890
v 0.30098153 0.17523867 0.46925815
v 0.31395997 0.16933192 0.46988135
v 0.30467121 0.17648419 0.46135830
v 0.31277004 0.18519651 0.45364174
v 0.31641361 0.18968162 0.45107566
v 0.31277004 0.19649421 0.45072740
v 0.31324048 0.20443281 0.45074573
v 0.31324048 0.21036474 0.45268862
v 0.30662672 0.22636142 0.46282463
v 0.30277102 0.23065154 0.46839669
v 0.26991444 0.20935825 0.63786788
v 0.29871238 0.22224745 0.46498747
v 0.29529019 0.21434031 0.46304458
v 0.30718941 0.20245758 0.45124062
v 0.29374976 0.19626147 0.46144995
v 0.29437700 0.18814045 0.46199982
v 0.25140148 0.22854422 0.50005111
v 0.25140148 0.20987407 0.60953104
v 0.30409007 0.17913878 0.63786788
v 0.25140148 0.19872105 0.59149517
v 0.25140148 0.19845056 0.57586041
v 0.25140148 0.20870405 0.51656566
v 0.25140148 0.20975455 0.51396292
v 0.25140148 0.21357288 0.50787765
v 0.29676605 0.18023331 0.46539071
v 0.30098153 0.18427181 0.45914047
v 0.30849923 0.19269476 0.45153388
v 0.30718941 0.20059562 0.45124062
v 0.30215300 0.21897011 0.46124833
v 0.27251566 0.20389182 0.63786788
v 0.30249429 0.19649421 0.45481480
v 0.25140148 0.22013385 0.50426681
v 0.25140148 0.20768498 0.60742319
v 0.27264480 0.20365907 0.63786788
v 0.27989502 0.19687165 0.63786788
v 0.25140148 0.20223743 0.60038480
v 0.25140148 0.20018044 0.59538094
v 0.27800405 0.19843168 0.63786788
f 44 26 43
f 88 89 64
f 64 49 63
f 78 79 60
f 49 50 29
f 65 64 89
f 65 49 64
f 53 35 52
f 28 29 16
f 22 38 39
f 73 60 74
f 54 35 53
f 9 16 18
f 27 14 25
f 26 44 42
f 44 59 42
f 61 59 44
f 83 63 62
f 62 63 45
f 45 63 49
f 45 47 62
f 28 47 45
f 66 50 49
f 49 65 66
f 50 52 51
f 33 48 51
f 51 29 50
f 51 48 29
f 67 65 89
f 50 66 67
f 67 66 65
f 91 67 90
f 53 52 69
f 31 16 17
f 28 16 32
f 32 16 31
f 1 3 4
f 4 3 9
f 24 23 22
f 22 39 24
f 41 27 24
f 27 25 24
f 41 24 40
f 40 24 39
f 38 57 40
f 40 39 38
f 78 60 77
f 56 73 74
f 56 57 38
f 37 38 22
f 38 37 55
f 33 18 30
f 30 18 16
f 30 48 33
f 30 16 29
f 29 48 30
f 14 6 13
f 13 25 14
f 23 24 13
f 13 24 25
f 59 61 75
f 88 64 87
f 64 86 87
f 64 63 85
f 85 86 64
f 33 51 34
f 34 51 52
f 34 52 35
f 91 95 92
f 92 79 78
f 92 95 79
f 79 95 80
f 91 90 80
f 80 95 91
f 80 67 89
f 80 90 67
f 80 96 81
f 80 81 60
f 80 60 79
f 88 96 80
f 80 89 88
f 68 67 91
f 91 69 68
f 50 67 68
f 68 52 50
f 68 69 52
f 3 7 8
f 9 3 8
f 8 7 15
f 15 17 8
f 8 16 9
f 8 17 16
f 46 47 28
f 28 32 46
f 11 6 14
f 11 5 6
f 1 4 2
f 6 5 2
f 2 4 6
f 6 4 10
f 9 18 10
f 10 4 9
f 60 73 76
f 76 77 60
f 36 37 22
f 22 21 36
f 54 55 36
f 36 55 37
f 35 54 36
f 36 21 35
f 38 55 58
f 58 55 73
f 58 56 38
f 73 56 58
f 54 71 72
f 72 55 54
f 72 71 78
f 78 73 72
f 73 55 72
f 23 13 12
f 12 13 6
f 22 23 12
f 12 21 22
f 6 10 12
f 12 10 21
f 82 97 98
f 82 75 61
f 98 97 100
f 83 99 100
f 53 69 70
f 70 69 91
f 91 92 70
f 78 71 70
f 70 92 78
f 70 54 53
f 70 71 54
f 35 21 20
f 21 10 20
f 78 77 93
f 77 76 93
f 93 73 78
f 93 76 73
f 94 82 98
f 75 82 94
f 98 100 102
f 102 100 99
f 83 100 101
f 19 20 10
f 19 18 33
f 19 10 18
f 35 20 19
f 33 34 19
f 19 34 35
f 63 83 84
f 83 101 84
f 49 29 45
f 45 29 28
f 26 14 56
f 43 26 56
f 56 60 43
f 56 27 41
f 56 14 27
f 74 60 56
f 41 40 56
f 56 40 57
f 102 3 1
f 102 83 62
f 26 42 102
f 102 32 31
f 62 47 102
f 102 14 26
f 102 11 14
f 102 7 3
f 31 17 102
f 102 42 59
f 1 2 102
f 15 7 102
f 102 17 15
f 102 94 98
f 47 46 102
f 59 75 102
f 102 99 83
f 102 46 32
f 5 11 102
f 102 2 5
f 75 94 102
f 84 44 43
f 84 61 44
f 43 60 84
f 84 82 61
f 84 85 63
f 88 87 84
f 60 81 84
f 84 96 88
f 84 87 86
f 86 85 84
f 81 96 84
f 97 82 84
f 84 100 97
f 84 101 100