# https://github.com/mikedh/trimesh
v -0.26009929 0.36148380 0.77671585
v -0.36295959 0.34782011 0.78939977
v -0.35109465 0.34919593 0.78939977
v -0.36217887 0.34641059 0.79786271
v -0.35109465 0.34730080 0.79786271
v -0.34920447 0.34741546 0.79786271
v -0.33922971 0.34779988 0.79786271
v -0.33699025 0.34786734 0.79786271
v -0.32737505 0.34800894 0.79786271
v -0.32507397 0.34800222 0.79786271
v -0.31551011 0.34779988 0.79786271
v -0.30365542 0.34697709 0.79786271
v -0.29829311 0.34622850 0.79786271
v -0.29348549 0.34515617 0.79786271
v -0.26009929 0.34126479 0.77671585
v -0.26009929 0.35914358 0.76877790
v -0.35109465 0.33576831 0.69059543
v -0.36503468 0.34741546 0.78939977
v -0.36503468 0.34723338 0.79117424
v -0.36503468 0.34608687 0.79764221
v -0.36295959 0.34631615 0.79786271
v -0.29348549 0.32441786 0.79786271
v -0.26009929 0.30140003 0.70841382
v -0.26009929 0.34954663 0.74333657
v -0.34186978 0.33443968 0.69059543
v -0.35772053 0.33433853 0.69059543
v -0.26009929 0.33834456 0.71943874
v -0.35935389 0.33388668 0.69059543
v -0.36503468 0.34597221 0.78025432
v -0.36503468 0.34604639 0.79786271
v -0.30276170 0.32464042 0.79786271
v -0.29348549 0.29259216 0.69059543
v -0.26806060 0.29740075 0.70841382
v -0.26009929 0.32720996 0.70841382
v -0.29348549 0.31221092 0.69059543
v -0.36496277 0.32947601 0.69059543
v -0.36503468 0.32939508 0.69064794
v -0.36503468 0.32725041 0.79786271
v -0.30365542 0.32466740 0.79786271
v -0.36503468 0.30829932 0.70638732
v -0.36503468 0.30591190 0.69452241
v -0.36503468 0.30572978 0.69059543
v -0.36503468 0.32082998 0.69059543
f 37 29 36
f 39 38 32
f 41 42 32
f 24 27 17
f 34 35 25
f 25 27 34
f 17 27 25
f 32 23 33
f 33 22 32
f 33 23 22
f 22 23 15
f 13 14 1
f 1 12 13
f 37 36 43
f 28 36 29
f 28 29 18
f 32 22 31
f 31 39 32
f 32 38 40
f 40 41 32
f 16 17 1
f 16 24 17
f 2 3 1
f 2 17 18
f 1 17 2
f 11 12 1
f 1 10 11
f 4 5 1
f 1 3 4
f 3 2 4
f 18 17 26
f 26 28 18
f 19 2 18
f 1 5 6
f 9 10 1
f 1 8 9
f 21 4 2
f 2 19 20
f 30 21 20
f 20 21 2
f 7 8 1
f 1 6 7
f 32 35 23
f 23 35 34
f 15 14 22
f 1 14 15
f 16 23 34
f 1 15 16
f 34 27 16
f 27 24 16
f 16 15 23
f 26 35 32
f 32 42 26
f 42 43 26
f 17 25 26
f 26 25 35
f 26 43 36
f 36 28 26
f 20 40 38
f 42 41 20
f 18 29 20
f 20 29 37
f 20 43 42
f 38 30 20
f 37 43 20
f 41 40 20
f 20 19 18
f 22 14 7
f 7 13 12
f 7 31 22
f 7 30 38
f 38 39 7
f 12 11 7
f 5 4 7
f 14 13 7
f 39 31 7
f 7 11 10
f 7 6 5
f 10 9 7
f 7 21 30
f 7 9 8
f 4 21 7