# https://github.com/mikedh/trimesh
v -0.26008366 0.31257604 0.70842810
v -0.24947186 0.31257604 0.70842810
v -0.26008366 0.31257604 0.82672750
v -0.27950641 0.40992459 0.62342224
v -0.27910867 0.40992459 0.62017774
v -0.26642534 0.40992459 0.62017774
v -0.22328762 0.42937786 0.62017774
v -0.24893049 0.31336599 0.70842810
v -0.23621401 0.31257604 0.83970549
v -0.27936831 0.40992459 0.67084183
v -0.27942355 0.40992459 0.65896197
v -0.27950641 0.40992459 0.62352206
v -0.24935034 0.31257604 0.84849059
v -0.23021484 0.43281754 1.12052927
v -0.23351825 0.43349233 1.10959782
v -0.23786020 0.44063504 1.10250988
v -0.23881035 0.43810054 1.09462325
v -0.23945667 0.44489765 1.09826707
v -0.25264271 0.43349233 0.99099894
v -0.25407897 0.43349233 0.97911908
v -0.25512302 0.43349233 0.96723922
v -0.27972185 0.42165907 0.65896197
v -0.27962794 0.42165907 0.63525218
v -0.27929097 0.42165907 0.62342224
v -0.27895953 0.41844981 0.62017774
v -0.24764891 0.31578530 0.70842810
v -0.22328762 0.44641179 0.62017774
v -0.22328762 0.46556879 0.69185620
v -0.23021484 0.42756748 1.10959782
v -0.23021484 0.42448985 1.09886603
v -0.23021484 0.38314754 0.94996851
v -0.23621401 0.31257604 0.86790766
v -0.25534951 0.44537492 0.96723922
v -0.25506778 0.45724110 0.96728914
v -0.25453195 0.46184931 0.97193126
v -0.24350583 0.31257604 0.85897281
v -0.23021484 0.43444686 1.12197684
v -0.24272142 0.31257604 0.86032053
v -0.24062225 0.31257604 0.86281630
v -0.23317576 0.44537492 1.12147769
v -0.23877720 0.44853486 1.10530509
v -0.24056701 0.45584219 1.09781780
v -0.24215242 0.45584219 1.08454033
v -0.25435517 0.44537492 0.97911908
v -0.27909762 0.43350877 0.65896197
v -0.27929097 0.43350877 0.64713202
v -0.27614223 0.43110594 0.62017774
v -0.27880485 0.42165907 0.62017774
v -0.27598204 0.44581930 0.64783084
v -0.23075621 0.44741571 0.62017774
v -0.23247420 0.45309371 0.62711598
v -0.22349201 0.45241892 0.62781480
v -0.22328762 0.45218851 0.62756520
v -0.22328762 0.47893263 0.69185620
v -0.23021484 0.45584219 1.13011304
v -0.23021484 0.44537492 1.12971373
v -0.25412868 0.45724110 0.97911908
v -0.25484129 0.46184931 0.96728914
v -0.25395744 0.46184931 0.97911908
v -0.25080869 0.47560811 0.69185620
v -0.23904235 0.45584219 1.10610377
v -0.25058220 0.46184931 1.01311146
v -0.25117881 0.46184931 1.00752092
v -0.25239412 0.46184931 0.99559114
v -0.27588260 0.44567120 0.65826316
v -0.25528322 0.46184931 0.96000151
v -0.25554285 0.46184931 0.95540931
v -0.26872336 0.43688265 0.62017774
v -0.27539648 0.44216566 0.63784777
v -0.27272833 0.45006544 0.64433678
v -0.27415355 0.45149727 0.65382068
v -0.27415355 0.45149727 0.65222340
v -0.23247420 0.44751446 0.62017774
v -0.23247420 0.44832089 0.62117604
v -0.23930199 0.46349511 0.64069294
v -0.23587152 0.46349511 0.64069294
v -0.22796101 0.46278740 0.64154151
v -0.22328762 0.45832733 0.63739854
v -0.22328762 0.47590439 0.67887821
v -0.22524867 0.47550940 0.67488497
v -0.23247420 0.47876805 0.68272168
v -0.23247420 0.48069362 0.69185620
v -0.23575552 0.46184931 1.03108096
v -0.24649437 0.46184931 1.03108096
v -0.25357075 0.46184931 0.98376123
v -0.24443388 0.47865286 0.69185620
v -0.25053249 0.47527895 0.68746364
v -0.25609527 0.46184931 0.94352945
v -0.25589088 0.46184931 0.94812164
v -0.25004637 0.46184931 1.01590670
v -0.25589088 0.44183650 0.62017774
v -0.26481782 0.45283039 0.63934524
v -0.26848582 0.45368617 0.64783084
v -0.24899679 0.47417628 0.67952710
v -0.24475428 0.44486474 0.62017774
v -0.24153925 0.45259997 0.62791462
v -0.23247420 0.47132906 0.65896197
v -0.23213723 0.46588151 0.64613372
v -0.25618366 0.45447615 0.63714895
v -0.24368813 0.46499278 0.64778092
v -0.24108628 0.47608541 0.67323777
v -0.22328762 0.46510796 0.64957789
v -0.22328762 0.46504217 0.64942814
v -0.22328762 0.47506502 0.67618277
v -0.22328762 0.47396235 0.67303810
v -0.23247420 0.47618416 0.67268870
v -0.24476532 0.47699059 0.68317092
v -0.24433445 0.46915664 0.65896197
f 31 32 7
f 4 5 1
f 29 14 32
f 7 14 29
f 28 54 55
f 28 14 7
f 7 32 9
f 9 26 7
f 7 2 6
f 83 84 55
f 86 84 82
f 84 83 82
f 55 54 82
f 82 83 55
f 3 10 11
f 11 10 22
f 47 24 49
f 14 36 38
f 13 14 3
f 13 36 14
f 32 31 30
f 30 29 32
f 30 31 7
f 7 29 30
f 14 28 37
f 8 9 2
f 26 9 8
f 7 26 8
f 8 2 7
f 90 84 86
f 86 62 90
f 3 11 12
f 22 4 12
f 12 11 22
f 66 45 58
f 66 67 45
f 100 92 108
f 48 24 47
f 22 45 46
f 46 49 24
f 23 4 22
f 23 24 4
f 22 46 23
f 23 46 24
f 45 67 65
f 65 46 45
f 49 46 65
f 32 14 39
f 14 38 39
f 56 28 55
f 56 37 28
f 22 10 35
f 35 45 22
f 58 45 35
f 86 85 64
f 50 73 74
f 68 92 91
f 70 68 47
f 92 68 70
f 100 108 101
f 86 82 101
f 101 107 86
f 101 108 92
f 24 48 25
f 5 4 25
f 4 24 25
f 14 37 16
f 61 90 62
f 61 56 55
f 55 84 61
f 84 90 61
f 63 62 86
f 86 64 63
f 51 50 74
f 27 50 51
f 91 96 95
f 95 96 73
f 91 92 99
f 47 49 69
f 69 70 47
f 49 65 71
f 71 89 88
f 71 65 67
f 67 89 71
f 100 101 75
f 75 92 100
f 75 99 92
f 76 51 75
f 75 96 91
f 91 99 75
f 75 51 74
f 74 73 75
f 73 96 75
f 94 101 92
f 107 101 94
f 3 14 15
f 15 16 3
f 14 16 15
f 17 18 3
f 3 16 17
f 17 16 18
f 37 56 40
f 40 16 37
f 56 61 40
f 42 61 62
f 106 80 97
f 101 106 97
f 97 75 101
f 49 71 72
f 72 69 49
f 70 69 72
f 92 70 93
f 93 94 92
f 70 72 93
f 93 72 94
f 86 107 87
f 107 94 87
f 94 72 87
f 57 64 85
f 85 59 57
f 57 59 35
f 62 63 44
f 44 57 33
f 44 63 64
f 64 57 44
f 16 40 41
f 41 40 61
f 18 16 41
f 41 42 18
f 61 42 41
f 18 42 19
f 19 42 20
f 3 18 19
f 19 20 3
f 78 77 103
f 78 53 77
f 52 53 27
f 27 51 52
f 52 51 76
f 76 77 52
f 77 53 52
f 81 82 54
f 54 80 81
f 81 80 106
f 81 101 82
f 81 106 101
f 98 77 76
f 76 75 98
f 75 97 98
f 86 87 60
f 35 59 60
f 58 35 60
f 60 85 86
f 60 59 85
f 60 66 58
f 67 66 60
f 60 89 67
f 88 89 60
f 60 71 88
f 60 72 71
f 60 87 72
f 34 35 10
f 34 57 35
f 10 33 34
f 33 57 34
f 21 33 10
f 21 44 33
f 20 44 21
f 21 10 3
f 3 20 21
f 20 42 43
f 43 44 20
f 43 42 62
f 62 44 43
f 79 80 54
f 79 104 80
f 80 104 105
f 80 105 102
f 102 97 80
f 102 98 97
f 103 77 102
f 77 98 102
f 6 2 1
f 1 5 6
f 1 3 12
f 12 4 1
f 1 2 39
f 39 3 1
f 39 9 32
f 39 13 3
f 2 9 39
f 39 38 36
f 36 13 39
f 7 6 95
f 5 25 95
f 95 50 27
f 95 6 5
f 95 27 7
f 95 68 91
f 95 48 47
f 73 50 95
f 47 68 95
f 95 25 48
f 54 28 102
f 102 28 7
f 7 27 102
f 102 78 103
f 27 53 102
f 53 78 102
f 102 79 54
f 104 79 102
f 102 105 104