# https://github.com/mikedh/trimesh
v -0.37480318 0.48978817 0.46121766
v -0.37480318 0.49011705 0.45721873
v -0.37826244 0.48959082 0.46121766
v -0.36938434 0.48869183 0.46121766
v -0.37480318 0.48981010 0.44536402
v -0.38476105 0.48856028 0.45721873
v -0.38488101 0.48856028 0.46121766
v -0.36664492 0.48842872 0.45721873
v -0.36526520 0.48866991 0.44536402
v -0.36396549 0.48820948 0.43348904
v -0.36714481 0.48812176 0.46121766
v -0.36520520 0.48750781 0.42494310
v -0.37152388 0.48750781 0.42494310
v -0.37520309 0.48825332 0.43322514
v -0.38172170 0.48739821 0.43700078
v -0.38322138 0.48803404 0.44536402
v -0.39069979 0.48577567 0.45721873
v -0.39081975 0.48588527 0.46121766
v -0.35802675 0.48619226 0.43348904
v -0.36192590 0.48634574 0.42124865
v -0.36140603 0.48053527 0.46121766
v -0.34436966 0.47604041 0.41765570
v -0.36294570 0.48371458 0.40977962
v -0.37944219 0.48652114 0.42908412
v -0.37520309 0.48522752 0.42124865
v -0.38914012 0.48448201 0.44536402
v -0.39525879 0.47856193 0.44536402
v -0.39645855 0.47983363 0.45721873
v -0.39671848 0.47996519 0.46121766
v -0.39287932 0.48389002 0.46121766
v -0.35108821 0.48117114 0.40977962
v -0.34338986 0.47672012 0.40977962
v -0.34312992 0.47639124 0.39790464
v -0.34400974 0.47560189 0.39059694
v -0.35108821 0.47893465 0.39790464
v -0.36010629 0.47643508 0.46121766
v -0.23921206 0.35288073 0.34260975
v -0.24892998 0.37079445 0.34642599
v -0.26172725 0.39254530 0.34559372
v -0.28438244 0.41765084 0.35856489
v -0.29538009 0.43025843 0.36232022
v -0.35108821 0.47610620 0.38972406
v -0.35992633 0.47590885 0.39033305
v -0.36350559 0.47829881 0.39705207
v -0.37556301 0.47957052 0.40908945
v -0.38260149 0.47691747 0.41260121
v -0.38496102 0.47913200 0.42163433
v -0.38708055 0.48165353 0.43247407
v -0.37212372 0.47707095 0.40044202
v -0.39387911 0.47678588 0.43586403
v -0.39893803 0.46908978 0.44536402
v -0.40151747 0.46908978 0.45721873
v -0.40211735 0.46898014 0.46121766
v -0.30037901 0.43620043 0.36232022
v -0.31809524 0.45457462 0.37419522
v -0.33023267 0.46595434 0.38607022
v -0.33099249 0.46481416 0.37663111
v -0.33475171 0.46292851 0.36873476
v -0.33891083 0.46608590 0.37330207
v -0.35814671 0.46908978 0.46121766
v -0.23831224 0.34496536 0.34463967
v -0.22641479 0.33305940 0.33286616
v -0.23765238 0.35759486 0.33471338
v -0.26172725 0.39254530 0.34297513
v -0.28360260 0.41830863 0.35048582
v -0.27766387 0.41122645 0.35048582
v -0.27280490 0.40528445 0.35048582
v -0.25156942 0.37822746 0.33861082
v -0.19784087 0.30416063 0.25384161
v -0.35108821 0.47305844 0.38379672
v -0.34628926 0.46354246 0.36778069
v -0.35058832 0.46656826 0.37372835
v -0.36784464 0.47454943 0.39254565
v -0.38002205 0.47404511 0.40468455
v -0.39243939 0.47435207 0.42796766
v -0.39487889 0.46987913 0.43255526
v -0.39321927 0.46643673 0.42591745
v -0.39321927 0.46159100 0.42591745
v -0.39711842 0.45722770 0.44536402
v -0.39989783 0.45722770 0.45721873
v -0.40073763 0.45742502 0.46121766
v -0.30629775 0.44264674 0.36232022
v -0.31893507 0.45325904 0.36502001
v -0.34265000 0.46354246 0.36778069
v -0.32323417 0.45082523 0.35712364
v -0.33113246 0.45185577 0.35588540
v -0.35978636 0.45738118 0.46121766
v -0.23885214 0.33520817 0.34439607
v -0.23831224 0.34310162 0.34463967
v -0.22641479 0.33045019 0.33286616
v -0.21433736 0.31082618 0.30968455
v -0.19784087 0.30356860 0.25467384
v -0.22547497 0.33492313 0.32673582
v -0.22813441 0.34084321 0.32673582
v -0.27268492 0.40535021 0.34198049
v -0.28948135 0.42422871 0.35048582
v -0.19784087 0.27206061 0.25384161
v -0.21221779 0.31047539 0.25384161
v -0.30363834 0.42981988 0.34254885
v -0.29701974 0.42810966 0.34399010
v -0.28434243 0.41723425 0.34267065
v -0.36032624 0.46560351 0.37736190
v -0.33921076 0.45174614 0.35598688
v -0.34518949 0.45132954 0.35639287
v -0.35418756 0.46137176 0.36946553
v -0.37154386 0.46663405 0.38860762
v -0.38204164 0.46612974 0.40172087
v -0.38446112 0.46970373 0.40908945
v -0.39069979 0.46987913 0.42183732
v -0.38176169 0.45722770 0.40212685
v -0.38516095 0.45722770 0.40977962
v -0.38080189 0.45117606 0.40368989
v -0.25150944 0.28223437 0.25384161
v -0.39143961 0.45367563 0.43149972
v -0.39411907 0.45746886 0.43466638
v -0.39261935 0.45130762 0.43941638
v -0.39341920 0.45036479 0.44536402
v -0.39481890 0.44887378 0.45721873
v -0.39737836 0.45192154 0.46121766
v -0.29542008 0.42979796 0.35048582
v -0.30743751 0.44115576 0.35418027
v -0.31551580 0.44334837 0.35200825
v -0.31551580 0.43802032 0.34606061
v -0.31551580 0.43210021 0.34118881
v -0.32737328 0.43740637 0.34510654
v -0.36136605 0.45393875 0.46121766
v -0.22673472 0.32253482 0.33250077
v -0.36520520 0.44690044 0.46121766
v -0.21433736 0.30766883 0.30968455
v -0.19784087 0.29194772 0.26021551
v -0.19784087 0.30297661 0.25512042
v -0.19784087 0.28028296 0.25836829
v -0.21333757 0.29381144 0.29965677
v -0.21509718 0.28589606 0.29651039
v -0.22299551 0.28276061 0.30083411
v -0.22047604 0.27896738 0.29119202
v -0.22587489 0.27313500 0.28587362
v -0.22329544 0.27206061 0.27931700
v -0.22061601 0.26688602 0.25556703
v -0.22075599 0.26646943 0.25384161
v -0.21881640 0.31304075 0.25384161
v -0.35826671 0.45345636 0.36696873
v -0.36824458 0.46088937 0.38069096
v -0.34624924 0.44536559 0.35560121
v -0.23247350 0.31398358 0.25384161
v -0.24079171 0.31091390 0.25384161
v -0.24167153 0.30999300 0.25384161
v -0.24711037 0.30306433 0.25384161
v -0.24924991 0.30017005 0.25384161
v -0.25120950 0.29523664 0.25384161
v -0.36918437 0.45297400 0.37967599
v -0.36918437 0.45056211 0.37967599
v -0.37856236 0.45722770 0.39619951
v -0.25192934 0.29115837 0.25384161
v -0.24847008 0.27629237 0.25384161
v -0.35860661 0.44536559 0.36635975
v -0.39523881 0.44847914 0.46121766
v -0.23075385 0.31387394 0.25384161
v -0.23547285 0.31490449 0.33449009
v -0.22955412 0.31490449 0.33097835
v -0.22465514 0.30598049 0.32267599
v -0.22333542 0.31490449 0.32505100
v -0.37504311 0.44124348 0.46121766
v -0.23827225 0.30889669 0.33274437
v -0.21563706 0.29975345 0.30757343
v -0.19784087 0.29058828 0.26015463
v -0.22353539 0.29337290 0.31222193
v -0.22829438 0.29808704 0.32013859
v -0.23233352 0.29236431 0.31567279
v -0.23247350 0.28578644 0.30828390
v -0.22755455 0.27313500 0.28587362
v -0.23247350 0.26905671 0.26744202
v -0.23235352 0.26611859 0.25384161
v -0.23247350 0.28221245 0.30235654
v -0.35218799 0.44536559 0.36043241
v -0.24253135 0.27015302 0.25384161
v -0.38644068 0.44280022 0.46121766
v -0.24235139 0.27030650 0.25556703
v -0.24027182 0.27197291 0.26744202
v -0.23885214 0.27304730 0.27456702
v -0.24063174 0.28368151 0.30036724
v -0.24025183 0.29637682 0.32157984
v -0.23619269 0.29637682 0.32157984
v -0.23191361 0.27210447 0.27882984
v -0.23191361 0.27622660 0.29035975
v -0.23547285 0.27427516 0.28248370
v -0.23247350 0.26651327 0.25556703
v -0.24425097 0.29394299 0.31498261
f 123 98 141
f 152 113 112
f 112 113 78
f 156 113 152
f 164 128 163
f 177 182 163
f 78 113 114
f 114 115 78
f 114 113 116
f 152 112 110
f 107 110 78
f 146 147 104
f 104 145 146
f 69 98 99
f 98 123 99
f 142 175 156
f 143 102 142
f 104 147 148
f 148 149 104
f 159 128 164
f 159 127 128
f 79 114 116
f 115 114 79
f 78 115 79
f 188 177 181
f 181 182 188
f 188 182 177
f 173 178 176
f 111 112 78
f 78 110 111
f 111 110 112
f 152 110 153
f 153 107 152
f 110 107 153
f 69 101 95
f 19 11 22
f 78 79 51
f 26 27 17
f 124 158 145
f 141 158 124
f 124 123 141
f 34 33 57
f 57 33 56
f 121 83 82
f 104 149 150
f 151 156 152
f 151 142 156
f 143 142 151
f 152 107 151
f 151 107 143
f 92 62 91
f 130 91 129
f 162 129 127
f 140 137 173
f 60 89 61
f 90 89 127
f 127 129 90
f 80 79 116
f 116 117 80
f 80 51 79
f 81 80 118
f 118 80 117
f 106 102 143
f 106 73 102
f 143 107 106
f 64 39 69
f 69 95 64
f 64 65 39
f 95 65 64
f 93 63 62
f 93 92 69
f 93 62 92
f 69 39 68
f 68 63 69
f 39 63 68
f 39 22 21
f 21 22 11
f 96 95 101
f 96 65 95
f 82 65 96
f 56 33 32
f 32 33 19
f 19 22 32
f 40 22 39
f 31 33 34
f 34 20 31
f 19 33 31
f 31 20 19
f 25 24 13
f 13 23 25
f 27 51 52
f 52 81 53
f 52 80 81
f 51 80 52
f 77 107 78
f 78 51 77
f 53 29 28
f 28 52 53
f 27 52 28
f 28 17 27
f 29 17 28
f 15 24 26
f 26 17 15
f 18 17 30
f 30 17 29
f 24 46 47
f 71 103 104
f 103 71 86
f 123 124 86
f 125 124 145
f 125 145 104
f 104 103 125
f 103 86 125
f 125 86 124
f 58 57 83
f 58 59 34
f 34 57 58
f 69 99 100
f 100 101 69
f 104 150 144
f 144 150 175
f 144 142 104
f 175 142 144
f 113 156 154
f 156 175 154
f 175 150 154
f 132 129 97
f 92 91 131
f 91 130 131
f 127 159 160
f 160 159 164
f 97 137 138
f 173 137 172
f 180 179 172
f 185 174 181
f 170 182 181
f 181 174 170
f 170 174 137
f 97 129 133
f 133 134 97
f 136 137 97
f 8 11 19
f 19 9 8
f 19 20 10
f 10 9 19
f 88 126 128
f 128 127 88
f 87 126 88
f 60 87 88
f 88 89 60
f 127 89 88
f 155 118 117
f 116 113 155
f 155 117 116
f 81 118 119
f 74 106 107
f 73 106 74
f 49 73 74
f 74 46 49
f 69 63 94
f 94 93 69
f 63 93 94
f 62 63 37
f 120 96 101
f 101 100 120
f 120 100 121
f 120 121 82
f 82 96 120
f 39 65 66
f 54 65 82
f 35 20 34
f 35 23 20
f 45 46 24
f 24 25 45
f 49 46 45
f 45 25 49
f 108 74 107
f 75 47 46
f 46 74 75
f 74 108 75
f 75 108 107
f 13 24 14
f 24 15 14
f 6 17 18
f 26 24 48
f 24 47 48
f 102 73 72
f 72 71 102
f 105 71 104
f 102 71 105
f 104 142 105
f 105 142 102
f 59 58 84
f 84 86 71
f 84 58 86
f 121 100 122
f 122 99 123
f 122 100 99
f 166 130 129
f 129 132 166
f 139 140 97
f 97 138 139
f 137 140 139
f 139 138 137
f 171 172 137
f 137 174 171
f 174 185 171
f 173 172 187
f 187 172 179
f 187 178 173
f 187 179 178
f 165 133 129
f 134 133 165
f 97 134 135
f 135 136 97
f 135 170 137
f 137 136 135
f 11 8 4
f 12 10 20
f 12 23 13
f 20 23 12
f 157 155 176
f 157 176 178
f 118 155 157
f 157 119 118
f 178 179 157
f 157 179 180
f 181 177 157
f 157 180 181
f 38 37 63
f 21 37 38
f 38 63 39
f 39 21 38
f 36 61 62
f 62 37 36
f 36 37 21
f 60 61 36
f 67 40 39
f 39 66 67
f 67 66 40
f 55 54 82
f 82 83 55
f 56 32 55
f 32 54 55
f 55 57 56
f 83 57 55
f 41 32 22
f 41 54 32
f 22 40 41
f 40 66 41
f 41 66 65
f 65 54 41
f 76 77 51
f 51 75 76
f 76 75 77
f 107 77 109
f 109 75 107
f 77 75 109
f 7 6 18
f 5 14 15
f 10 12 5
f 13 14 5
f 5 12 13
f 47 75 50
f 50 48 47
f 50 51 27
f 50 75 51
f 50 27 26
f 26 48 50
f 43 72 73
f 71 72 43
f 121 122 85
f 83 121 85
f 85 58 83
f 86 58 85
f 123 86 85
f 85 122 123
f 180 172 184
f 172 171 184
f 182 170 183
f 183 168 164
f 164 163 183
f 183 163 182
f 129 162 161
f 161 165 129
f 161 162 127
f 127 160 161
f 161 160 164
f 164 168 161
f 167 135 134
f 168 135 167
f 167 161 168
f 134 165 167
f 165 161 167
f 6 7 2
f 2 5 6
f 2 8 9
f 9 10 2
f 10 5 2
f 1 4 2
f 2 4 8
f 16 5 15
f 6 5 16
f 16 15 17
f 17 6 16
f 23 35 42
f 42 43 23
f 42 35 34
f 34 59 42
f 44 73 49
f 44 43 73
f 23 43 44
f 49 25 44
f 44 25 23
f 180 184 186
f 181 180 186
f 186 185 181
f 186 171 185
f 186 184 171
f 169 183 170
f 168 183 169
f 170 135 169
f 169 135 168
f 1 2 3
f 3 2 7
f 71 43 70
f 43 42 70
f 70 84 71
f 59 84 70
f 70 42 59
f 90 61 89
f 62 61 90
f 90 91 62
f 129 91 90
f 69 97 155
f 155 158 141
f 155 148 147
f 155 98 69
f 147 146 155
f 141 98 155
f 173 176 155
f 155 140 173
f 155 146 145
f 145 158 155
f 149 148 155
f 113 154 155
f 155 150 149
f 97 140 155
f 155 154 150
f 166 97 69
f 69 92 166
f 166 132 97
f 92 131 166
f 166 131 130
f 3 29 53
f 3 163 128
f 53 81 3
f 3 4 1
f 18 30 3
f 177 163 3
f 60 36 3
f 128 126 3
f 3 87 60
f 3 157 177
f 3 126 87
f 3 21 11
f 3 30 29
f 81 119 3
f 11 4 3
f 119 157 3
f 3 36 21
f 3 7 18