# https://github.com/mikedh/trimesh
v -0.40088231 0.23060296 0.79788104
v -0.39812584 0.23060296 0.81313595
v -0.40066777 0.23947083 0.79788104
v -0.35228875 -0.05284225 0.78029659
v -0.35228875 -0.05455862 0.78032484
v -0.37506701 0.04262026 0.78956532
v -0.37506701 0.04262026 0.80251893
v -0.37506701 0.06096901 0.82880029
v -0.37506701 0.06689455 0.83403820
v -0.39470908 0.23060296 0.82095047
v -0.39725101 0.24368000 0.81313595
v -0.39749860 0.30297629 0.80129063
v -0.39827437 0.29108434 0.80129063
v -0.39875305 0.27923325 0.80129063
v -0.39994149 0.26427637 0.79788104
v -0.37506701 0.07768312 0.83736307
v -0.25663670 0.04262026 0.76575466
v -0.25660368 0.04204814 0.76575466
v -0.25523369 0.03019706 0.76575466
v -0.39883557 0.29108434 0.79788104
v -0.39810933 0.30297629 0.79788104
v -0.39715197 0.31482738 0.79788104
v -0.29349452 0.34670269 0.77673170
v -0.35228875 -0.05455862 0.79087127
v -0.24483494 -0.04287100 0.76575466
v -0.24438926 -0.04291185 0.76575466
v -0.35128189 -0.05455862 0.78028953
v -0.37480290 0.06685368 0.83406643
v -0.37480290 0.07768312 0.83741248
v -0.32299068 -0.05455862 0.79581270
v -0.37506701 0.08953420 0.83752545
v -0.37506701 0.10118096 0.83741956
v -0.37506701 0.11331810 0.83696776
v -0.38667071 0.23060296 0.82441653
v -0.39394982 0.24368000 0.82025161
v -0.39427993 0.30297629 0.80945105
v -0.39360319 0.31482738 0.80849805
v -0.39639271 0.31482738 0.80129063
v -0.24409215 0.04262026 0.76575466
v -0.26010295 0.36145527 0.77673170
v -0.39510524 0.32622895 0.79788104
v -0.39360319 0.33145974 0.79788104
v -0.39127584 0.33419774 0.79788104
v -0.37250857 0.34441423 0.79788104
v -0.23227388 -0.04291185 0.76575466
v -0.35108383 -0.05455862 0.78028953
v -0.36293509 0.06673108 0.83431351
v -0.36293509 0.07768312 0.83767367
v -0.37480290 0.08953420 0.83756073
v -0.33921602 0.06644502 0.83444764
v -0.32299068 -0.05455862 0.78196256
v -0.23333027 -0.04291185 0.77755763
v -0.23638388 -0.04291185 0.78633221
v -0.24435626 -0.04291185 0.79184544
v -0.24633697 -0.04291185 0.79241722
v -0.25635609 -0.04291185 0.79500794
v -0.27994312 0.07768312 0.83688305
v -0.29181091 0.07768312 0.83744779
v -0.30367868 0.07768312 0.83767367
v -0.37480290 0.10138528 0.83744073
v -0.37480290 0.11331810 0.83701012
v -0.37506701 0.19222996 0.83110864
v -0.38667071 0.24368000 0.82337176
v -0.39320703 0.25553108 0.81959509
v -0.39297595 0.32165196 0.80770743
v -0.39269537 0.26211047 0.81915037
v -0.39427993 0.32602459 0.80088824
v -0.23777036 0.00526893 0.76575466
v -0.36636837 0.34580364 0.79788104
v -0.26010295 0.36170042 0.77755763
v -0.23238942 -0.04099116 0.76575466
v -0.23374292 -0.02918095 0.76575466
v -0.38993887 0.32957995 0.80457314
v -0.38199949 0.33350304 0.80797568
v -0.38625804 0.33579150 0.80088824
v -0.26010295 0.35855378 0.82080927
v -0.37531460 0.34134926 0.80107179
v -0.36293509 0.34241176 0.80440372
v -0.33910048 -0.05455862 0.78090368
v -0.23341281 -0.04099116 0.77755763
v -0.33921602 0.07768312 0.83786428
v -0.36293509 0.10138528 0.83753250
v -0.32738127 0.07768312 0.83782899
v -0.23640037 -0.04099116 0.78633221
v -0.26010295 0.33857038 0.82806613
v -0.26010295 0.33836610 0.82810142
v -0.26010295 0.32671933 0.82829202
v -0.26010295 0.32631066 0.82828496
v -0.27560205 0.08953420 0.83720072
v -0.27560205 0.08201490 0.83683364
v -0.27560205 0.07768312 0.83617714
v -0.27994312 0.08953420 0.83744073
v -0.29181091 0.08953420 0.83753955
v -0.38289084 0.29108434 0.82015277
v -0.38667071 0.25553108 0.82236230
v -0.37480290 0.29108434 0.82201640
v -0.38166938 0.30076954 0.81955981
v -0.38604346 0.30399793 0.81608669
v -0.38667071 0.31482738 0.81355949
v -0.38625804 0.32602459 0.80967693
v -0.38723191 0.26656485 0.82097870
v -0.38058000 0.30873837 0.81900918
v -0.26010295 0.36092402 0.81300183
v -0.26010295 0.36247690 0.80128357
v -0.26010295 0.36284467 0.78942413
v -0.26010295 0.36198652 0.78019072
v -0.37480290 0.33497422 0.80920398
v -0.37480290 0.32667846 0.81371479
v -0.26010295 0.35111620 0.82484713
v -0.26010295 0.35099362 0.82488243
v -0.32016817 0.08491637 0.83772310
v -0.32016817 0.08953420 0.83765957
v -0.32738127 0.08953420 0.83767367
v -0.30367868 0.08953420 0.83761721
v -0.37267364 0.31168069 0.81968688
v -0.37590879 0.30399793 0.82039279
v -0.38437634 0.27923325 0.82080927
v -0.37590879 0.31531776 0.81790089
f 23 40 17
f 1 5 6
f 70 71 40
f 23 17 4
f 4 22 23
f 4 5 1
f 45 71 76
f 76 71 103
f 52 86 84
f 39 17 40
f 105 71 106
f 71 70 106
f 42 43 23
f 104 71 105
f 103 71 104
f 19 25 5
f 5 4 19
f 22 4 21
f 21 4 20
f 20 4 15
f 5 25 26
f 89 86 92
f 86 62 61
f 108 109 76
f 44 40 23
f 23 43 44
f 87 86 89
f 89 88 87
f 1 6 7
f 7 8 1
f 1 8 9
f 24 9 8
f 8 7 24
f 47 48 29
f 29 28 47
f 16 9 29
f 29 9 28
f 68 39 40
f 1 9 2
f 16 10 2
f 2 9 16
f 23 22 41
f 41 42 23
f 18 4 17
f 18 19 4
f 3 4 1
f 3 15 4
f 1 2 3
f 3 2 15
f 5 26 27
f 81 48 50
f 50 48 47
f 53 88 89
f 53 52 84
f 53 87 88
f 84 86 53
f 86 87 53
f 54 53 91
f 79 46 45
f 45 51 79
f 86 114 93
f 93 92 86
f 58 92 59
f 92 93 59
f 82 114 86
f 86 61 82
f 81 113 82
f 96 62 86
f 62 63 34
f 115 86 85
f 86 52 85
f 76 109 80
f 45 76 80
f 80 52 45
f 80 85 52
f 69 76 103
f 69 44 76
f 103 104 69
f 69 104 105
f 105 106 69
f 69 106 70
f 69 70 40
f 40 44 69
f 75 44 43
f 107 108 76
f 40 71 72
f 72 68 40
f 10 36 11
f 11 2 10
f 55 91 56
f 54 91 55
f 56 91 57
f 89 92 57
f 57 92 58
f 90 53 89
f 90 91 53
f 89 57 90
f 90 57 91
f 81 50 83
f 50 59 83
f 83 111 81
f 114 111 83
f 83 93 114
f 83 59 93
f 30 59 50
f 58 59 30
f 30 55 56
f 30 50 47
f 56 57 30
f 30 57 58
f 54 55 30
f 47 28 30
f 28 9 30
f 9 24 30
f 30 53 54
f 52 53 30
f 45 52 30
f 30 51 45
f 114 82 112
f 112 82 113
f 112 111 114
f 112 113 81
f 81 111 112
f 49 48 81
f 81 82 49
f 49 29 48
f 115 102 116
f 116 102 96
f 116 86 115
f 116 96 86
f 118 102 115
f 108 102 118
f 115 109 118
f 109 108 118
f 33 61 62
f 62 34 33
f 33 34 10
f 110 109 115
f 115 85 110
f 110 80 109
f 85 80 110
f 42 41 67
f 67 65 42
f 37 66 65
f 76 44 78
f 78 107 76
f 74 75 43
f 108 107 74
f 2 11 12
f 12 11 36
f 22 21 12
f 36 37 12
f 60 82 61
f 60 49 82
f 16 29 31
f 29 49 31
f 31 10 16
f 64 37 36
f 66 37 64
f 98 66 102
f 65 66 98
f 65 67 38
f 38 37 65
f 38 41 22
f 38 67 41
f 22 12 38
f 38 12 37
f 77 78 44
f 107 78 77
f 77 74 107
f 44 75 77
f 75 74 77
f 73 74 43
f 65 74 73
f 43 42 73
f 42 65 73
f 100 74 65
f 100 102 108
f 108 74 100
f 2 12 13
f 20 15 13
f 13 21 20
f 13 12 21
f 49 60 32
f 32 31 49
f 10 31 32
f 32 33 10
f 61 33 32
f 32 60 61
f 63 64 35
f 10 34 35
f 35 34 63
f 35 36 10
f 35 64 36
f 102 66 97
f 62 96 97
f 96 102 97
f 95 63 62
f 95 64 63
f 66 64 95
f 99 98 102
f 65 98 99
f 102 100 99
f 99 100 65
f 15 2 14
f 14 13 15
f 2 13 14
f 94 97 66
f 117 95 94
f 62 97 94
f 94 95 62
f 66 95 101
f 101 95 117
f 101 94 66
f 117 94 101
f 24 6 5
f 24 7 6
f 27 26 45
f 45 46 27
f 72 18 17
f 72 71 45
f 17 39 72
f 45 26 72
f 25 19 72
f 72 26 25
f 39 68 72
f 19 18 72
f 5 27 30
f 30 24 5
f 46 79 30
f 30 27 46
f 30 79 51