# https://github.com/mikedh/trimesh
v -0.22326510 0.38314638 0.51366694
v -0.22326510 0.38313701 0.52610015
v -0.32283331 0.38314638 0.58024478
v -0.32278084 0.38384967 0.58031453
v -0.25019104 0.39192347 0.53440059
v -0.25168692 0.40622378 0.54439249
v -0.24321024 0.41003094 0.54320671
v -0.23851264 0.41576041 0.54618860
v -0.20024947 0.40487344 0.52610015
v -0.19641791 0.40578303 0.52610015
v -0.19426594 0.40617690 0.52610015
v -0.18502818 0.40782726 0.52610015
v -0.13172745 0.41485082 0.52610015
v -0.12571766 0.41554475 0.52610015
v -0.11689981 0.41617301 0.52610015
v -0.06527866 0.41839543 0.52610015
v -0.05709066 0.41865798 0.52610015
v -0.05709066 0.40477968 0.52610015
v -0.05709066 0.40087876 0.53061656
v -0.10545760 0.39130457 0.53335431
v -0.06934641 0.39183908 0.54575265
v -0.20641672 0.38313701 0.52610015
v -0.22326510 0.38313701 0.53696395
v -0.32519524 0.38314638 0.58706300
v -0.32427670 0.38711295 0.58676655
v -0.32097000 0.39175468 0.58216295
v -0.24641196 0.41412879 0.54828114
v -0.24321024 0.41808596 0.55220467
v -0.23937867 0.42781016 0.56922404
v -0.22326510 0.46511281 0.64947319
v -0.05709066 0.44453915 0.64703188
v -0.22326510 0.47397430 0.67297945
v -0.22326510 0.47507145 0.67608340
v -0.22326510 0.47590602 0.67876883
v -0.11385555 0.47219262 0.69181237
v -0.11306825 0.47194881 0.69181237
v -0.05709066 0.39547745 0.54050384
v -0.06142085 0.39227045 0.54903097
v -0.05997745 0.39198913 0.55693033
v -0.09013135 0.38998238 0.55216979
v -0.20736149 0.38313701 0.52995392
v -0.26438882 0.38314638 0.62010779
v -0.27703825 0.38314638 0.62010779
v -0.32005150 0.38314638 0.60655855
v -0.32167859 0.38314638 0.60589591
v -0.32283331 0.38314638 0.60430907
v -0.32448668 0.38314638 0.59958340
v -0.32477532 0.38314638 0.59674102
v -0.21631055 0.38313701 0.53600487
v -0.32401426 0.38596892 0.59958340
v -0.32246589 0.39290809 0.59562500
v -0.32246589 0.39290809 0.59007975
v -0.26871901 0.43688732 0.62010779
v -0.26806292 0.43443986 0.61145860
v -0.27433514 0.42815711 0.60502402
v -0.26806292 0.43052020 0.60258271
v -0.25113580 0.41697007 0.55619794
v -0.24373512 0.42449063 0.56477738
v -0.05709066 0.44524244 0.65948253
v -0.22326510 0.47893486 0.69181237
v -0.10572004 0.46819794 0.69181237
v -0.05709066 0.39290809 0.55164665
v -0.05997745 0.39198913 0.55818586
v -0.05709066 0.39272993 0.55424490
v -0.05709066 0.39758733 0.57340913
v -0.05709066 0.39848755 0.57590275
v -0.05709066 0.40223843 0.58465657
v -0.05709066 0.42390924 0.63517412
v -0.05709066 0.42705062 0.64213184
v -0.05709066 0.43036078 0.64806072
v -0.05709066 0.43498374 0.65580314
v -0.05709066 0.43626842 0.65784337
v -0.11708352 0.45799548 0.69181237
v -0.14941563 0.45666392 0.69181237
v -0.16130399 0.45645762 0.69181237
v -0.17316609 0.45655138 0.69181237
v -0.18502818 0.45694525 0.69181237
v -0.19668034 0.45820178 0.69181237
v -0.20843748 0.46076177 0.69181237
v -0.21365994 0.46223402 0.69181237
v -0.21565446 0.46287165 0.69181237
v -0.22326510 0.46557229 0.69181237
v -0.05709066 0.44282313 0.65948253
v -0.10619243 0.46134316 0.69181237
v -0.05709066 0.39272993 0.55469828
v -0.05709066 0.39344259 0.56115030
v -0.10774080 0.46012414 0.69181237
v -0.11382931 0.45864253 0.69181237
f 18 1 17
f 36 31 17
f 17 35 36
f 59 31 36
f 53 52 60
f 53 33 54
f 60 52 51
f 25 51 52
f 17 30 32
f 32 33 17
f 32 30 54
f 54 33 32
f 34 35 17
f 17 33 34
f 60 35 34
f 34 53 60
f 33 53 34
f 16 30 17
f 16 15 30
f 17 1 16
f 1 15 16
f 30 15 29
f 8 28 29
f 54 30 29
f 26 53 54
f 52 53 26
f 26 25 52
f 19 37 20
f 20 1 19
f 1 18 19
f 8 1 7
f 1 6 7
f 3 1 2
f 24 3 2
f 2 23 24
f 59 36 61
f 23 42 43
f 45 82 60
f 8 29 14
f 14 29 15
f 14 15 1
f 54 29 58
f 58 29 28
f 9 1 8
f 8 10 9
f 9 10 1
f 6 26 27
f 27 28 8
f 8 7 27
f 27 7 6
f 25 26 4
f 4 3 24
f 24 25 4
f 4 1 3
f 5 6 1
f 5 26 6
f 1 4 5
f 5 4 26
f 63 85 86
f 20 37 21
f 21 1 20
f 22 2 1
f 1 21 22
f 73 74 42
f 78 43 77
f 79 43 78
f 42 74 75
f 75 43 42
f 82 43 81
f 46 45 60
f 23 45 46
f 44 43 82
f 82 45 44
f 23 43 44
f 44 45 23
f 54 58 56
f 57 58 28
f 28 27 57
f 57 27 26
f 26 56 57
f 57 56 58
f 63 86 65
f 66 42 65
f 65 42 63
f 38 21 37
f 63 42 40
f 40 22 21
f 49 42 23
f 88 73 72
f 72 73 42
f 77 43 76
f 43 75 76
f 80 43 79
f 80 81 43
f 67 42 66
f 67 68 42
f 69 70 42
f 42 68 69
f 60 51 50
f 50 46 60
f 50 25 24
f 51 25 50
f 1 10 11
f 11 12 1
f 11 10 8
f 8 12 11
f 13 14 1
f 1 12 13
f 8 14 13
f 13 12 8
f 55 26 54
f 54 56 55
f 55 56 26
f 62 38 37
f 42 49 41
f 41 40 42
f 22 40 41
f 84 72 83
f 61 84 83
f 59 61 83
f 88 72 87
f 87 72 84
f 42 70 71
f 71 72 42
f 46 50 47
f 23 46 47
f 38 62 39
f 63 40 39
f 21 38 39
f 39 40 21
f 24 23 48
f 23 47 48
f 48 50 24
f 48 47 50
f 64 39 62
f 2 22 41
f 23 2 41
f 41 49 23
f 60 82 87
f 87 35 60
f 87 73 88
f 87 78 77
f 82 81 87
f 87 36 35
f 87 61 36
f 87 80 79
f 87 84 61
f 74 73 87
f 79 78 87
f 87 75 74
f 77 76 87
f 87 76 75
f 81 80 87
f 37 19 64
f 17 31 64
f 64 18 17
f 64 31 59
f 64 62 37
f 70 69 64
f 64 19 18
f 66 65 64
f 64 86 85
f 64 67 66
f 64 65 86
f 59 83 64
f 68 67 64
f 64 69 68
f 64 71 70
f 64 83 72
f 72 71 64
f 64 85 63
f 63 39 64