# https://github.com/mikedh/trimesh
v 0.28948933 0.56292713 0.07637505
v 0.25515480 0.56236565 0.07637505
v 0.29865139 0.56055293 0.07637505
v 0.29858966 0.56044064 0.06572991
v 0.28948933 0.56276672 0.06572991
v 0.27761259 0.56265440 0.06572991
v 0.17084544 0.56108231 0.05386932
v 0.04041738 0.55901288 0.05386932
v 0.24747348 0.56223734 0.07637505
v 0.30321700 0.55211483 0.07637505
v 0.30349461 0.55211483 0.06572991
v 0.30306270 0.55211483 0.05386932
v 0.29794187 0.55984709 0.05386932
v 0.28948933 0.56210900 0.05386932
v 0.27761259 0.56246192 0.05386932
v -0.00455994 0.55814663 0.04762520
v 0.24747348 0.56174003 0.04845139
v -0.00455994 0.55814663 0.04958740
v 0.04041738 0.55865996 0.06093167
v 0.24747348 0.46596951 0.07637505
v 0.02971290 0.55837121 0.06093167
v 0.02335808 0.55819475 0.06093167
v 0.01913182 0.55792205 0.06093167
v 0.00975383 0.55728035 0.06093167
v -0.00011774 0.55652639 0.06093167
v -0.00508437 0.55609325 0.06093167
v 0.30762831 0.48098478 0.07637505
v 0.30799852 0.48098478 0.07514373
v 0.30735070 0.53511035 0.06009752
v 0.30642523 0.53953793 0.05422680
v 0.30219897 0.54025982 0.04200077
v 0.29849713 0.55148921 0.04234237
v 0.29664623 0.55893269 0.04650510
v 0.28847131 0.55957436 0.04234237
v 0.27761259 0.56092190 0.04200077
v 0.26576672 0.56138711 0.04200077
v -0.00508437 0.55626971 0.04266011
v -0.00508437 0.55785785 0.04694203
v -0.00508437 0.55801829 0.05019117
v 0.25392085 0.56127482 0.04200077
v 0.04041738 0.55854767 0.04601257
v 0.25392085 0.55922144 0.03389773
v -0.00508437 0.55737662 0.05454457
v 0.01166644 0.55795412 0.05906479
v 0.01956369 0.55813058 0.06037556
v 0.21107208 0.40327749 0.06229010
v 0.21853745 0.40303686 0.06229010
v 0.23019823 0.40284435 0.06229010
v 0.30830700 0.46596951 0.07637505
v -0.00508437 0.54353240 0.06093167
v 0.11895802 0.43967673 0.06093959
v 0.12367787 0.43595499 0.06093959
v 0.13527696 0.42803025 0.06093959
v 0.13882455 0.42613731 0.06093959
v 0.30775170 0.47893140 0.07637505
v 0.30830700 0.46908165 0.07637505
v 0.30833783 0.46914582 0.07625591
v 0.31006537 0.46914582 0.06573787
v 0.30735070 0.53511035 0.05842131
v 0.30346378 0.52838880 0.04200077
v 0.30676457 0.52838880 0.05220103
v 0.29800353 0.52838880 0.03340523
v 0.29704723 0.54025982 0.03454124
v 0.29602924 0.54709370 0.03550245
v 0.29174128 0.55501844 0.03861657
v 0.28384401 0.55816268 0.03593145
v 0.27761259 0.55875623 0.03505760
v 0.26576672 0.55930163 0.03396925
v -0.00508437 0.55153733 0.03015605
v 0.25392085 0.55556387 0.02797143
v 0.06413998 0.54826478 0.02037684
v 0.05229411 0.54815249 0.02058338
v -0.00508437 0.54767123 0.02178293
v 0.21107208 0.40327749 0.05901713
v 0.25688231 0.39904242 0.00444883
v 0.14715368 0.42308934 0.06093959
v 0.06413998 0.42543147 0.00274879
v 0.13530780 0.41251767 0.00351141
v 0.24148884 0.40308498 0.06229010
v 0.30833783 0.46596951 0.07629561
v 0.24204412 0.40311708 0.06229010
v 0.24259939 0.40316520 0.06229010
v 0.24929355 0.40664631 0.06229010
v 0.24815215 0.40375875 0.06010548
v -0.00508437 0.48393651 0.00268522
v 0.05747668 0.42695544 0.00126322
v 0.30957181 0.46596951 0.06858187
v 0.31000368 0.46596951 0.06573787
v 0.30972603 0.46596951 0.05386932
v 0.30975689 0.46914582 0.05386932
v 0.30926329 0.48098478 0.05386932
v 0.30735070 0.49968972 0.04779205
v 0.30753579 0.49282373 0.04722007
v 0.30516042 0.49282373 0.04130964
v 0.29852800 0.51653375 0.03269819
v 0.29093920 0.52838880 0.02747889
v 0.28443014 0.53592851 0.02361802
v 0.28134529 0.54382115 0.02531014
v 0.28847131 0.55148921 0.03392951
v 0.27344802 0.54723809 0.02356241
v 0.26576672 0.54858560 0.02248201
v 0.26576672 0.55452113 0.02803496
v 0.25392085 0.54964439 0.02136188
v 0.24204412 0.54958022 0.02111563
v 0.05229411 0.54433448 0.01464909
v -0.00508437 0.54369281 0.01584867
v 0.25688231 0.39904242 -0.00266121
v 0.13530780 0.41251767 -0.00227195
v 0.06413998 0.42543147 -0.00167614
v -0.00508437 0.48393651 -0.00156491
v 0.05747668 0.42695544 -0.00024614
v 0.30802938 0.46596951 0.04590134
v 0.30802938 0.46914582 0.04596491
v 0.30784426 0.48098478 0.04648128
v 0.30546893 0.46596951 0.03998295
v 0.30537637 0.46914582 0.04003857
v 0.29899070 0.50328312 0.03234070
v 0.29966938 0.50328312 0.03341315
v 0.29892900 0.50471085 0.03236453
v 0.29337626 0.46596951 0.02558818
v 0.25688231 0.40980657 -0.00425794
v 0.28501626 0.52838880 0.02333999
v 0.27761259 0.52838880 0.01998757
v 0.27748920 0.54001919 0.02212453
v 0.26576672 0.54025982 0.01878799
v 0.25392085 0.54025982 0.01674635
v 0.24204412 0.54025982 0.01611083
v 0.04041738 0.53841500 0.00923120
v 0.06413998 0.54412595 0.01444254
v 0.02854065 0.53811020 0.00898491
v -0.00508437 0.53777333 0.00935035
v 0.24204412 0.40980657 -0.00459163
v 0.25688231 0.40645380 -0.00407522
v 0.29951512 0.46596951 0.03151452
v 0.14715368 0.41202036 -0.00259764
v 0.07601672 0.42413205 -0.00270088
v 0.05300363 0.43414224 -0.00175554
v 0.06413998 0.43356474 -0.00427385
v -0.00508437 0.49067412 -0.00370187
v 0.29923751 0.49282373 0.03222152
v 0.25392085 0.40980657 -0.00455189
v -0.00508437 0.50270558 -0.00364622
v -0.00508437 0.50467874 -0.00331260
v -0.00508437 0.51717546 -0.00073073
v -0.00508437 0.51895610 -0.00030971
v -0.00508437 0.52251744 0.00056414
v -0.00508437 0.52593438 0.00224034
v -0.00508437 0.52769897 0.00313806
v 0.13530780 0.42169368 -0.00409113
v 0.07601672 0.43356474 -0.00478227
v 0.00481805 0.49282373 -0.00435326
v -0.00508437 0.49282373 -0.00394017
v 0.04041738 0.45727476 -0.00436917
v 0.01669478 0.48098478 -0.00442475
f 150 135 136
f 83 84 49
f 77 78 46
f 149 135 150
f 150 132 149
f 149 132 135
f 150 136 138
f 142 126 141
f 49 84 80
f 84 75 80
f 49 20 48
f 135 132 107
f 107 88 75
f 109 138 136
f 29 28 58
f 10 28 29
f 50 85 86
f 46 20 54
f 44 43 26
f 1 8 2
f 2 8 9
f 7 8 1
f 16 8 7
f 1 3 4
f 4 5 1
f 4 14 5
f 68 70 42
f 41 16 40
f 40 42 41
f 41 42 16
f 5 14 15
f 153 154 150
f 150 138 153
f 152 154 153
f 153 138 152
f 152 138 139
f 151 142 141
f 141 132 151
f 152 142 151
f 151 154 152
f 151 132 150
f 150 154 151
f 75 88 87
f 87 80 75
f 87 88 58
f 58 80 87
f 46 75 47
f 75 48 47
f 47 20 46
f 47 48 20
f 133 132 141
f 133 107 132
f 134 107 133
f 133 120 134
f 135 107 108
f 108 136 135
f 108 109 136
f 138 109 137
f 110 139 137
f 137 139 138
f 137 111 110
f 109 111 137
f 27 28 10
f 27 55 28
f 49 80 56
f 28 55 56
f 30 29 59
f 59 29 58
f 58 90 59
f 88 107 89
f 58 88 89
f 89 90 58
f 30 60 31
f 60 62 31
f 115 107 134
f 61 60 30
f 30 59 61
f 20 50 51
f 51 52 20
f 86 52 51
f 51 50 86
f 20 52 53
f 53 54 20
f 53 52 86
f 86 54 53
f 46 54 76
f 76 54 86
f 86 77 76
f 76 77 46
f 9 23 24
f 43 44 18
f 18 8 16
f 11 3 10
f 11 4 3
f 10 29 11
f 11 29 30
f 42 70 71
f 103 128 104
f 104 70 103
f 103 70 102
f 70 68 102
f 7 15 17
f 40 16 17
f 16 7 17
f 6 7 1
f 6 15 7
f 1 5 6
f 5 15 6
f 146 128 127
f 103 126 127
f 127 128 103
f 141 126 121
f 121 133 141
f 121 123 97
f 120 133 121
f 97 123 124
f 140 115 134
f 95 62 60
f 101 126 103
f 103 102 101
f 66 100 101
f 101 102 66
f 64 97 98
f 98 99 64
f 97 124 98
f 98 124 100
f 66 99 98
f 98 100 66
f 82 75 84
f 82 81 75
f 84 83 82
f 82 83 49
f 49 81 82
f 79 48 75
f 75 81 79
f 49 48 79
f 79 81 49
f 74 108 107
f 58 28 57
f 28 56 57
f 57 80 58
f 57 56 80
f 64 31 63
f 63 31 62
f 63 97 64
f 91 59 90
f 91 61 59
f 26 9 25
f 9 24 25
f 25 44 26
f 25 24 44
f 22 23 9
f 9 21 22
f 9 8 19
f 19 21 9
f 8 18 19
f 18 21 19
f 14 4 13
f 13 33 14
f 65 33 64
f 66 33 65
f 64 99 65
f 65 99 66
f 32 31 64
f 64 33 32
f 73 69 42
f 105 131 106
f 106 73 105
f 105 71 70
f 70 104 105
f 68 35 67
f 66 102 67
f 67 102 68
f 34 33 66
f 66 67 34
f 34 67 35
f 14 33 34
f 34 35 14
f 36 35 68
f 36 42 40
f 36 68 42
f 40 17 36
f 36 17 15
f 36 15 14
f 14 35 36
f 37 38 16
f 16 42 37
f 42 69 37
f 43 18 39
f 39 18 16
f 16 38 39
f 146 127 145
f 145 127 144
f 144 127 143
f 126 142 143
f 143 127 126
f 120 121 96
f 96 95 120
f 62 95 96
f 97 63 96
f 96 63 62
f 125 124 123
f 125 121 126
f 123 121 125
f 100 124 125
f 126 101 125
f 125 101 100
f 134 120 117
f 117 140 134
f 115 140 117
f 118 117 95
f 94 95 60
f 94 118 95
f 117 118 94
f 60 61 92
f 61 91 92
f 112 89 107
f 107 115 112
f 90 89 112
f 23 22 45
f 45 24 23
f 44 24 45
f 45 18 44
f 45 21 18
f 45 22 21
f 147 128 146
f 147 148 128
f 130 148 131
f 128 148 130
f 130 105 128
f 131 105 130
f 4 11 12
f 12 13 4
f 12 11 30
f 33 13 12
f 12 32 33
f 30 31 12
f 31 32 12
f 71 105 72
f 72 105 73
f 42 71 72
f 72 73 42
f 129 104 128
f 128 105 129
f 129 105 104
f 122 121 97
f 97 96 122
f 122 96 121
f 120 95 119
f 119 117 120
f 95 117 119
f 115 117 116
f 116 94 115
f 117 94 116
f 93 94 60
f 60 92 93
f 114 94 93
f 90 114 93
f 93 91 90
f 93 92 91
f 113 112 115
f 115 94 113
f 113 94 114
f 113 114 90
f 90 112 113
f 50 20 9
f 50 9 26
f 77 109 108
f 78 77 108
f 111 85 110
f 86 85 111
f 111 109 77
f 111 77 86
f 9 20 56
f 56 27 10
f 56 3 1
f 56 20 49
f 10 3 56
f 1 2 56
f 56 2 9
f 55 27 56
f 74 107 75
f 74 75 46
f 78 108 74
f 46 78 74
f 26 43 147
f 43 39 147
f 147 139 110
f 147 37 69
f 110 85 147
f 147 50 26
f 147 142 152
f 85 50 147
f 147 143 142
f 152 139 147
f 146 145 147
f 106 131 147
f 147 73 106
f 131 148 147
f 69 73 147
f 38 37 147
f 147 39 38
f 147 145 144
f 144 143 147