# https://github.com/mikedh/trimesh
v -0.17387196 0.04763322 0.24321811
v -0.17431680 0.04763322 0.23707058
v -0.17431680 0.04763322 0.25383047
v 0.33898058 0.03463872 0.20552287
v -0.17590556 0.04763322 0.22822776
v -0.18683625 0.04763322 0.25383047
v -0.15378999 0.01425283 0.25383047
v 0.17203340 0.03463872 0.25382563
v 0.31730987 0.03463872 0.22559038
v 0.31781825 0.03463872 0.22548428
v 0.32455458 0.03463872 0.22369546
v 0.32785923 0.03463872 0.22192595
v 0.33465914 0.03463872 0.21802047
v 0.33885348 0.03463872 0.20811691
v 0.34241230 0.01735244 0.20552287
v -0.00495473 -0.53539099 0.20457785
v 0.32334715 0.03463872 0.20552287
v -0.25616985 0.04763322 0.20801565
v -0.24428590 0.04763322 0.20834835
v -0.23240196 0.04763322 0.20916319
v -0.20876118 0.04763322 0.21083144
v -0.19687723 0.04763322 0.21177650
v -0.19103059 0.04763322 0.21295295
v -0.18969602 0.04763322 0.21331941
v -0.18016345 0.04763322 0.22197898
v -0.18709046 0.04197049 0.25383047
v -0.29302912 0.04763322 0.22183915
v -0.29302912 0.01544499 0.22633773
v -0.29302912 0.00644422 0.22692594
v -0.29296559 -0.07670871 0.22902818
v -0.14908726 0.00596734 0.25383047
v 0.17127080 0.03171792 0.25382563
v 0.32093223 -0.49169846 0.22627020
v 0.32105933 -0.48383021 0.22632807
v 0.32061449 0.00638461 0.22633773
v 0.32036028 0.01824656 0.22625574
v 0.31991544 0.02700891 0.22611591
v -0.14228735 -0.00690794 0.25383047
v 0.32423688 0.03064499 0.22424033
v 0.32633403 0.01824656 0.22417764
v 0.33491334 0.03010852 0.21816511
v 0.34241230 -0.00547735 0.21293368
v 0.34190388 0.00638461 0.21149202
v 0.34158614 0.01925989 0.20790474
v 0.34292071 0.01383558 0.20552287
v -0.00495473 -0.55029294 0.20457785
v -0.06621741 -0.53610630 0.20457785
v 0.34361976 0.00638461 0.20552287
v 0.34406460 -0.00547735 0.20552287
v 0.35613921 -0.50356043 0.20552287
v -0.18486618 -0.53765608 0.20457785
v -0.19668658 -0.53795412 0.20457785
v -0.20621915 -0.53855022 0.20457785
v -0.20863408 -0.53872905 0.20457785
v -0.29296559 -0.54772980 0.20457785
v -0.26799023 0.04763322 0.20803011
v -0.18569234 0.03028735 0.25383047
v -0.29296559 -0.50356043 0.22702720
v -0.29302912 0.04763322 0.21005517
v -0.29309269 -0.00696755 0.22481892
v -0.29309269 -0.06270088 0.22815546
v 0.17082594 0.03022774 0.25382563
v 0.31324264 -0.49169846 0.22696451
v 0.31959766 -0.49807650 0.22597127
v 0.33681986 -0.52734392 0.22067235
v 0.33681986 -0.51548198 0.22107735
v 0.33681986 -0.50356043 0.22136182
v 0.33681986 -0.49169846 0.22156914
v 0.33681986 -0.20719027 0.22197898
v 0.32652467 0.00638461 0.22422102
v -0.09519643 -0.04970637 0.25382563
v -0.08998530 -0.04964676 0.25382563
v 0.05224072 -0.04714323 0.25382563
v 0.06406111 -0.04654715 0.25382563
v 0.07594505 -0.04565304 0.25382563
v 0.08782900 -0.04440128 0.25382563
v 0.08922711 -0.04422245 0.25382563
v 0.09971295 -0.04285147 0.25382563
v 0.11229594 -0.04028833 0.25382563
v 0.11947715 -0.03808285 0.25382563
v 0.12716676 -0.03450637 0.25382563
v 0.13523767 -0.02943970 0.25382563
v 0.13549187 -0.02926089 0.25382563
v 0.14165627 -0.02318088 0.25382563
v 0.14578706 -0.01716049 0.25382563
v 0.14610481 -0.01668364 0.25382563
v 0.16733067 0.02182303 0.25382563
v -0.16402163 -0.00690794 0.25383047
v 0.34520853 -0.20719027 0.21779865
v 0.33681986 -0.04106323 0.21908121
v 0.33599370 0.00638461 0.21828563
v 0.33548529 0.01824656 0.21824225
v 0.34323845 -0.04106323 0.21472250
v 0.34304781 -0.03164520 0.21443318
v 0.34393750 -0.00547735 0.20700795
v 0.31324264 -0.54176903 0.20552287
v 0.30135867 -0.54254392 0.20552287
v -0.01042007 -0.55059099 0.20457785
v 0.35588500 -0.50964039 0.20552287
v 0.35563079 -0.51548198 0.20552287
v 0.35372428 -0.52472117 0.20552287
v 0.35207197 -0.52752274 0.20552287
v 0.34755989 -0.53449688 0.20552287
v 0.34622533 -0.53592747 0.20552287
v 0.33681986 -0.53938472 0.20552287
v 0.32499946 -0.54069609 0.20552287
v 0.35016546 -0.26638084 0.20811207
v 0.35601210 -0.50356043 0.20591825
v -0.29296559 -0.56132042 0.20457785
v -0.29309269 -0.02788990 0.21028180
v -0.29302912 0.04197049 0.20979001
v -0.29302912 0.04262616 0.20979481
v -0.27987419 0.04763322 0.20898959
v -0.29302912 0.04328187 0.20980447
v -0.18111671 0.01949833 0.25383047
v -0.29169459 -0.50356043 0.22719595
v -0.29296559 -0.50481216 0.22698862
v -0.29309269 -0.01733932 0.21079771
v -0.29309269 -0.01602795 0.21091343
v -0.29309269 -0.00696755 0.21212846
v -0.29296559 -0.56096276 0.20811691
v -0.29296559 -0.55828040 0.21600987
v -0.29296559 -0.55184275 0.22063378
v -0.29296559 -0.55100825 0.22117380
v -0.29296559 -0.54051726 0.22300599
v -0.29296559 -0.51178629 0.22666558
v -0.29309269 -0.06270088 0.21681505
v 0.30135867 -0.49169846 0.22791437
v 0.32499946 -0.52734392 0.22190668
v 0.32499946 -0.53711963 0.21815546
v 0.33681986 -0.53616591 0.21717186
v 0.34457302 -0.53485450 0.21564341
v 0.34622533 -0.52734392 0.21689220
v 0.34730569 -0.51548198 0.21738400
v 0.34755989 -0.50356043 0.21749010
v 0.34635243 -0.26638084 0.21765401
v -0.10186923 -0.04964676 0.25382563
v -0.24415880 -0.45617218 0.23095198
v 0.19459384 -0.45617218 0.23091341
v -0.15804788 -0.01835265 0.25382563
v -0.15016762 -0.02932050 0.25382563
v -0.14921436 -0.03033382 0.25382563
v -0.13752107 -0.04052677 0.25382563
v -0.13720331 -0.04070558 0.25382563
v -0.12557357 -0.04624912 0.25382563
v -0.11375318 -0.04881226 0.25382563
v 0.35353364 -0.50356043 0.21185364
v 0.34412817 -0.01733932 0.20771188
v 0.31324264 -0.54194786 0.20811207
v 0.30135867 -0.54284196 0.20811207
v 0.25388645 -0.54492823 0.20552287
v -0.01874519 -0.55100825 0.20457785
v 0.35315233 -0.51548198 0.21107737
v 0.35188133 -0.52692668 0.20779867
v 0.34616179 -0.53586786 0.20811207
v 0.33681986 -0.53932511 0.20811207
v 0.32499946 -0.54075570 0.20811207
v -0.27148552 -0.56126081 0.20457785
v -0.26792669 -0.56102237 0.20811691
v -0.29309269 -0.05149460 0.21305902
v -0.29309269 -0.04106323 0.21115933
v -0.29309269 -0.03975186 0.21104361
v -0.29309269 -0.02926089 0.21029626
v -0.29169459 -0.51214392 0.22680060
v -0.26792669 -0.55845923 0.21614485
v -0.26792669 -0.55100825 0.22160291
v -0.27974709 -0.55100825 0.22146308
v -0.26856221 -0.53813295 0.22538786
v -0.27866673 -0.53813295 0.22496837
v 0.11153333 -0.53348355 0.22601468
v 0.11814259 -0.53336433 0.22596161
v 0.24187540 -0.52734392 0.22421137
v 0.30135867 -0.52734392 0.22286616
v 0.31324264 -0.53789452 0.21850746
v -0.27409108 -0.53348355 0.22591342
v 0.30135867 -0.53843100 0.21864725
v 0.25388645 -0.54439177 0.20925960
v -0.25610630 -0.56090315 0.20811691
v -0.25610630 -0.56090315 0.20457785
v -0.13809301 -0.55661141 0.20457785
v -0.25610630 -0.55845923 0.21614485
v 0.17819781 -0.54516666 0.21421621
f 61 126 117
f 9 10 3
f 3 8 9
f 86 128 87
f 112 114 56
f 56 114 113
f 50 16 49
f 16 48 49
f 4 16 17
f 17 54 55
f 55 56 17
f 55 112 56
f 46 16 50
f 125 61 124
f 126 61 125
f 124 61 123
f 123 61 122
f 121 61 109
f 122 61 121
f 58 26 30
f 58 61 117
f 30 61 58
f 30 26 6
f 86 87 38
f 69 136 89
f 89 40 69
f 109 61 127
f 114 112 110
f 110 55 109
f 109 163 110
f 95 48 42
f 95 49 48
f 50 49 95
f 16 4 15
f 3 4 1
f 25 4 24
f 5 4 25
f 19 4 18
f 17 56 18
f 18 4 17
f 17 16 47
f 47 51 17
f 17 51 52
f 128 139 170
f 138 170 139
f 124 168 169
f 169 125 124
f 27 28 6
f 60 28 27
f 88 140 141
f 7 8 3
f 62 38 87
f 62 87 128
f 69 40 70
f 70 35 69
f 40 35 70
f 34 35 8
f 34 68 69
f 69 35 34
f 10 9 37
f 37 9 8
f 40 89 90
f 90 89 93
f 109 127 160
f 112 55 111
f 111 110 112
f 55 110 111
f 94 95 42
f 107 93 50
f 50 95 107
f 45 48 16
f 16 15 45
f 3 10 11
f 10 37 11
f 14 4 3
f 3 13 14
f 14 15 4
f 2 4 5
f 2 1 4
f 24 4 23
f 4 22 23
f 21 22 4
f 53 54 17
f 17 52 53
f 135 136 69
f 69 68 135
f 166 170 168
f 141 140 116
f 116 58 117
f 175 169 168
f 168 170 175
f 170 138 175
f 126 125 164
f 125 169 164
f 169 175 164
f 117 126 164
f 164 116 117
f 164 175 138
f 170 166 176
f 60 61 29
f 29 28 60
f 29 61 30
f 30 6 29
f 6 28 29
f 59 113 114
f 59 119 120
f 31 38 8
f 8 7 31
f 8 38 32
f 38 62 32
f 68 34 33
f 33 64 65
f 33 34 8
f 8 32 33
f 36 35 40
f 40 37 36
f 8 35 36
f 36 37 8
f 109 160 161
f 114 110 118
f 118 59 114
f 119 59 118
f 93 107 148
f 148 107 95
f 148 94 93
f 95 94 148
f 12 13 3
f 3 11 12
f 40 13 12
f 39 37 40
f 39 11 37
f 40 12 39
f 39 12 11
f 44 45 15
f 15 14 44
f 44 14 13
f 20 4 19
f 20 21 4
f 66 33 65
f 136 135 147
f 147 89 136
f 93 89 147
f 172 173 128
f 167 168 124
f 167 166 168
f 124 123 167
f 167 123 122
f 122 166 167
f 140 88 115
f 115 116 140
f 179 180 151
f 151 178 179
f 151 180 152
f 159 121 109
f 65 64 129
f 128 173 129
f 129 64 128
f 38 88 71
f 71 138 139
f 75 76 38
f 139 76 75
f 146 88 145
f 88 144 145
f 145 138 146
f 145 144 138
f 142 88 141
f 141 116 142
f 128 64 63
f 64 33 63
f 63 62 128
f 63 32 62
f 63 33 32
f 91 90 93
f 93 92 91
f 40 90 91
f 91 92 40
f 93 94 41
f 41 92 93
f 42 13 41
f 41 94 42
f 41 13 40
f 40 92 41
f 162 163 109
f 109 161 162
f 43 13 42
f 43 44 13
f 45 44 43
f 42 48 43
f 48 45 43
f 68 33 67
f 33 66 67
f 134 66 65
f 134 67 66
f 134 147 135
f 134 135 68
f 68 67 134
f 50 93 108
f 93 147 108
f 173 172 171
f 170 176 171
f 128 170 171
f 171 172 128
f 116 115 57
f 26 58 57
f 58 116 57
f 158 179 178
f 158 159 109
f 178 159 158
f 151 152 98
f 181 159 178
f 181 182 176
f 181 176 166
f 100 101 46
f 100 108 147
f 103 104 46
f 97 98 46
f 151 98 97
f 97 150 151
f 46 104 105
f 105 106 46
f 38 83 84
f 84 83 128
f 38 81 82
f 82 83 38
f 82 81 128
f 128 83 82
f 78 79 38
f 78 139 128
f 128 79 78
f 80 81 38
f 38 79 80
f 128 81 80
f 80 79 128
f 72 73 38
f 38 71 72
f 139 73 72
f 72 71 139
f 137 88 146
f 137 71 88
f 146 138 137
f 138 71 137
f 38 73 74
f 74 75 38
f 74 73 139
f 139 75 74
f 143 144 88
f 88 142 143
f 143 142 116
f 116 164 143
f 143 164 138
f 138 144 143
f 176 182 177
f 177 150 176
f 177 181 178
f 182 181 177
f 177 178 151
f 151 150 177
f 121 159 165
f 159 181 165
f 122 121 165
f 165 166 122
f 165 181 166
f 99 46 50
f 99 100 46
f 50 108 99
f 108 100 99
f 147 134 153
f 153 100 147
f 101 100 153
f 46 101 102
f 102 103 46
f 46 106 96
f 96 97 46
f 150 97 96
f 106 105 157
f 86 38 85
f 38 84 85
f 85 128 86
f 85 84 128
f 38 76 77
f 77 78 38
f 77 76 139
f 139 78 77
f 133 153 134
f 133 134 65
f 130 157 131
f 65 129 130
f 130 131 65
f 65 131 132
f 132 133 65
f 149 96 106
f 106 157 149
f 150 96 149
f 157 130 149
f 156 157 105
f 131 157 156
f 156 132 131
f 156 105 104
f 101 153 154
f 153 133 154
f 133 132 154
f 154 102 101
f 176 150 174
f 174 130 129
f 150 149 174
f 174 149 130
f 174 129 173
f 173 171 174
f 174 171 176
f 155 154 132
f 104 103 155
f 103 102 155
f 102 154 155
f 155 156 104
f 132 156 155
f 59 120 60
f 60 27 59
f 20 6 3
f 20 2 5
f 56 113 20
f 3 1 20
f 20 25 24
f 20 18 56
f 113 59 20
f 5 25 20
f 24 23 20
f 19 18 20
f 20 27 6
f 1 2 20
f 20 23 22
f 22 21 20
f 20 59 27
f 60 120 162
f 162 61 60
f 162 127 61
f 162 110 163
f 120 119 162
f 162 160 127
f 162 118 110
f 162 161 160
f 119 118 162
f 3 6 57
f 57 6 26
f 38 31 57
f 57 88 38
f 57 7 3
f 57 31 7
f 57 115 88
f 109 55 98
f 54 53 98
f 98 55 54
f 98 47 16
f 16 46 98
f 51 47 98
f 98 52 51
f 98 53 52
f 98 158 109
f 180 179 98
f 98 152 180
f 179 158 98