# https://github.com/mikedh/trimesh
v 0.28604772 0.34334784 0.68094216
v 0.28573412 0.34322841 0.68094216
v 0.28604772 0.32530387 0.68094216
v 0.28604772 0.38312209 0.60289566
v 0.24708292 0.38312209 0.67426919
v 0.24669092 0.38312209 0.67495950
v 0.24188000 0.38312209 0.67978119
v 0.24086793 0.38312209 0.68074343
v 0.24086793 0.32363233 0.68094216
v 0.28604772 0.32434870 0.67850517
v 0.27353224 0.23066648 0.68094216
v 0.27393137 0.23066648 0.68037736
v 0.27967594 0.23066648 0.66960439
v 0.28450111 0.23066648 0.65775413
v 0.28501426 0.23066648 0.65165642
v 0.28604772 0.38312209 0.57409104
v 0.21955738 0.38312209 0.58774028
v 0.21323549 0.32209507 0.62536200
v 0.24086793 0.30488691 0.68094216
v 0.28604772 0.32190107 0.67127786
v 0.25854358 0.23066648 0.68094216
v 0.28490024 0.23066648 0.65039085
v 0.28604772 0.33716899 0.57409104
v 0.28604772 0.32079664 0.65903015
v 0.21773993 0.38312209 0.57409104
v 0.21780407 0.38312209 0.57587956
v 0.21323549 0.32234878 0.62357348
v 0.21323549 0.30526005 0.62536200
v 0.21323549 0.23066648 0.62186863
v 0.27242038 0.23066648 0.61557220
v 0.28362445 0.29694698 0.59361835
v 0.24071827 0.34236280 0.57409104
v 0.27345384 0.26745581 0.59070024
v 0.26195040 0.23066648 0.59172524
v 0.26936277 0.26745581 0.58475942
v 0.26343288 0.26745581 0.57939385
v 0.25393222 0.27932093 0.57425838
v 0.21747621 0.37418222 0.57409104
v 0.21323549 0.29090248 0.59070024
v 0.21323549 0.29633508 0.59222728
v 0.21323549 0.29794692 0.59302218
v 0.21323549 0.30075278 0.59452830
v 0.21323549 0.30811066 0.59939183
v 0.21323549 0.31190152 0.60277015
v 0.21323549 0.31445363 0.60518622
v 0.21323549 0.31784154 0.60949541
v 0.21323549 0.31976683 0.61204745
v 0.21323549 0.32181152 0.61542577
v 0.21323549 0.32219954 0.61898190
v 0.21323549 0.23066648 0.60856454
v 0.27036060 0.23066648 0.61024847
v 0.26606284 0.23066648 0.59961147
v 0.27220656 0.26032182 0.59283391
v 0.23288538 0.34337768 0.57409104
v 0.25383245 0.23066648 0.59047014
v 0.26133034 0.25933679 0.58080584
v 0.25393222 0.26745581 0.57669538
v 0.24207244 0.27932093 0.57510558
v 0.22157440 0.35210860 0.57409104
v 0.22602182 0.34707898 0.57409104
v 0.22696261 0.34618350 0.57409104
v 0.21749760 0.37240616 0.57409104
v 0.21323549 0.27958958 0.58993671
v 0.24598531 0.23066648 0.59189259
v 0.21323549 0.24403900 0.60256096
v 0.23328451 0.26979899 0.58031426
v 0.23661295 0.26188892 0.58218645
v 0.24453135 0.25911292 0.58069079
v 0.25393222 0.25806820 0.58020967
v 0.24117441 0.26648571 0.57875584
v 0.24086793 0.27939557 0.57553441
v 0.21816756 0.36231710 0.57409104
v 0.22409745 0.28461920 0.58169487
v 0.21323549 0.26982884 0.59204947
v 0.21323549 0.25514295 0.59780203
v 0.21775418 0.26721702 0.59034463
v 0.22537324 0.27670911 0.58271987
v 0.22967811 0.28012686 0.57957166
v 0.21323549 0.26320229 0.59462244
f 9 8 18
f 1 8 2
f 8 9 2
f 18 8 17
f 18 25 27
f 27 25 49
f 15 23 24
f 22 23 15
f 15 3 14
f 14 3 13
f 29 21 19
f 19 28 29
f 1 4 5
f 5 6 1
f 7 8 1
f 1 6 7
f 26 25 18
f 18 17 26
f 31 23 22
f 20 15 24
f 61 37 60
f 61 54 37
f 32 23 37
f 37 54 32
f 12 3 11
f 12 13 3
f 52 34 33
f 33 34 23
f 23 31 33
f 56 34 55
f 30 31 22
f 3 15 10
f 15 20 10
f 62 72 63
f 60 37 59
f 37 57 58
f 58 59 37
f 72 59 58
f 63 72 73
f 74 63 73
f 55 64 68
f 68 57 55
f 53 31 52
f 52 33 53
f 53 33 31
f 55 57 69
f 69 56 55
f 57 56 69
f 34 56 36
f 37 23 36
f 36 57 37
f 36 56 57
f 52 31 51
f 31 30 51
f 77 66 74
f 74 73 77
f 71 58 66
f 72 58 71
f 67 64 50
f 50 66 67
f 74 66 76
f 66 75 76
f 65 66 50
f 65 75 66
f 49 25 48
f 25 47 48
f 42 43 25
f 39 40 25
f 23 34 35
f 35 36 23
f 34 36 35
f 66 77 78
f 78 77 73
f 78 71 66
f 78 73 72
f 72 71 78
f 70 67 66
f 66 58 70
f 70 68 64
f 64 67 70
f 70 58 57
f 57 68 70
f 74 76 79
f 79 76 75
f 25 43 44
f 44 45 25
f 46 47 25
f 25 45 46
f 25 40 41
f 41 42 25
f 38 39 25
f 63 39 38
f 38 62 63
f 19 3 1
f 11 3 19
f 1 2 19
f 19 2 9
f 19 21 11
f 18 28 19
f 19 9 18
f 26 4 16
f 16 25 26
f 26 5 4
f 26 17 8
f 8 7 26
f 6 5 26
f 26 7 6
f 10 4 1
f 10 23 16
f 16 4 10
f 24 23 10
f 1 3 10
f 10 20 24
f 55 34 51
f 22 15 51
f 11 21 51
f 51 12 11
f 51 21 29
f 51 64 55
f 51 15 14
f 14 13 51
f 29 50 51
f 51 34 52
f 13 12 51
f 50 64 51
f 51 30 22
f 41 28 18
f 18 27 41
f 29 28 41
f 41 50 29
f 41 27 49
f 41 39 63
f 41 63 74
f 41 65 50
f 43 42 41
f 49 48 41
f 74 79 41
f 75 65 41
f 41 48 47
f 41 44 43
f 47 46 41
f 40 39 41
f 41 79 75
f 45 44 41
f 41 46 45
f 38 25 16
f 16 23 38
f 23 32 38
f 38 61 60
f 54 61 38
f 38 32 54
f 60 59 38
f 72 62 38
f 38 59 72