# https://github.com/mikedh/trimesh
v -0.23246996 0.03019048 0.64376067
v -0.22945199 0.03027082 0.64348241
v -0.22945199 0.03340375 0.64351515
v -0.23246996 0.04205278 0.64361336
v -0.23940340 0.04205278 0.64182924
v -0.23948723 0.03019048 0.64192745
v -0.23922588 0.01830141 0.64171467
v -0.23246996 0.01830141 0.64343331
v -0.22945199 0.01830141 0.64335147
v -0.22945199 0.04205278 0.64340057
v -0.22945199 0.04261511 0.64338421
v -0.22945199 0.04572126 0.64323689
v -0.22945199 0.06395654 0.64174740
v -0.23300747 0.05418285 0.64241849
v -0.23898918 0.05038049 0.64151825
v -0.23937874 0.04261511 0.64181287
v -0.25080462 0.03019048 0.62999517
v -0.24541468 0.03019048 0.63593676
v -0.24629739 0.04261511 0.63415265
v -0.24514840 0.01830141 0.63603497
v -0.23880177 0.00876872 0.64140368
v -0.23359924 0.00547513 0.64250033
v -0.22945199 -0.02912102 0.64125636
v -0.22945199 -0.01658929 0.64187834
v -0.22945199 0.15979213 0.63030616
v -0.22945692 0.18370417 0.62888214
v -0.23199162 0.18557858 0.62796554
v -0.23497015 0.17251130 0.62804738
v -0.24216987 0.19623592 0.62104187
v -0.24283067 0.18437361 0.62171296
v -0.25091311 0.01830141 0.63010975
v -0.25049395 0.03910729 0.62958597
v -0.27982054 0.23064461 0.57035012
v -0.24876305 0.18437361 0.61492022
v -0.25060737 0.00646588 0.62968418
v -0.24338299 0.00547513 0.63668968
v -0.23830372 0.00086945 0.64105995
v -0.22945199 -0.04098331 0.64014334
v -0.22945199 0.15979213 0.47683964
v -0.22945692 0.23064461 0.61586957
v -0.22945692 0.22911831 0.61670434
v -0.22945692 0.22702970 0.61778463
v -0.22945692 0.22510174 0.61871761
v -0.22945692 0.22210268 0.61968332
v -0.22945692 0.21112403 0.62313697
v -0.22945692 0.19926172 0.62565764
v -0.23247489 0.19623592 0.62596864
v -0.24055734 0.20809821 0.61955238
v -0.23910260 0.21527451 0.61807925
v -0.24040939 0.23064461 0.60794745
v -0.27982054 0.23064461 0.52435599
v -0.27982054 0.22711002 0.56923709
v -0.25136679 -0.00448600 0.62356254
v -0.25034108 0.00006613 0.62932408
v -0.24506949 -0.00448600 0.63361250
v -0.23994091 -0.04288450 0.63156650
v -0.23430934 -0.04288450 0.63654237
v -0.23332801 -0.04098331 0.63767176
v -0.23297297 -0.04288450 0.63757355
v -0.22945199 -0.04288450 0.63981597
v -0.22945199 0.15360660 0.47674143
v -0.22945692 0.23064461 0.47654502
v -0.23101029 0.23064461 0.61493659
v -0.23222832 0.21953207 0.61973242
v -0.23247489 0.20809821 0.62328428
v -0.23274117 0.23064461 0.61385630
v -0.27982054 0.22756524 0.52456878
v -0.27573248 0.23064461 0.51923281
v -0.27154085 0.20809821 0.51428966
v -0.27982054 0.22044251 0.56617628
v -0.25108079 -0.01725872 0.61960148
v -0.25052848 -0.02432790 0.61793194
v -0.24951756 -0.00783314 0.62768728
v -0.24382188 -0.04288450 0.62330065
v -0.22945199 -0.04288450 0.52481430
v -0.22945199 0.14158364 0.47665959
v -0.25372397 0.21996051 0.49597386
v -0.25351686 0.23064461 0.49605570
v -0.22945199 0.10131073 0.47667596
v -0.27982054 0.21803255 0.52736771
v -0.24870388 0.00646588 0.50137530
v -0.25132242 -0.00539642 0.50838081
v -0.27068773 0.23064461 0.51317664
v -0.27144222 0.21996051 0.51404415
v -0.26560846 0.20809821 0.50703863
v -0.24310190 0.01830141 0.49360049
v -0.24902935 0.01830141 0.50085152
v -0.27982054 0.21232900 0.56030016
v -0.25068134 -0.02601487 0.61143384
v -0.24639603 -0.04288450 0.61143384
v -0.22945199 -0.03884115 0.51756326
v -0.23138014 -0.04288450 0.52720403
v -0.25963662 0.21996051 0.50104794
v -0.22945199 0.08950199 0.47682328
v -0.25943444 0.23064461 0.50126073
v -0.27982054 0.21251646 0.53447142
v -0.25084408 -0.01284048 0.50960841
v -0.24277643 0.00646588 0.49487720
v -0.24711106 -0.00539642 0.50243922
v -0.26535203 0.23064461 0.50718594
v -0.26550984 0.21996051 0.50697316
v -0.25936541 0.20809821 0.50109704
v -0.23821989 0.03019048 0.48711876
v -0.23742102 0.01830141 0.48770800
v -0.27982054 0.21104371 0.55182153
v -0.25101667 -0.01383124 0.51658118
v -0.25055312 -0.02582742 0.60362630
v -0.24624315 -0.04288450 0.59956703
v -0.24642067 -0.04288450 0.60951878
v -0.27982054 0.21117758 0.54925175
v -0.27982054 0.21168635 0.54258996
v -0.23600078 -0.03361959 0.51658118
v -0.24082362 -0.02526510 0.50846265
v -0.22945199 -0.03503878 0.51173626
v -0.23199162 -0.04288450 0.52825158
v -0.23839741 -0.03503878 0.52253915
v -0.26476028 0.23064461 0.50658033
v -0.22945199 0.07763969 0.47734705
v -0.23941327 -0.01257271 0.49811807
v -0.24406843 -0.01664284 0.50509084
v -0.24266301 -0.02770182 0.51658118
v -0.24859046 -0.01974900 0.51658118
v -0.24543934 -0.04288450 0.58771658
v -0.23510328 0.00646588 0.48893560
v -0.24118361 -0.00539642 0.49669405
v -0.22945199 0.04205278 0.47900022
v -0.22945199 0.03019048 0.47983499
v -0.23149356 0.01830141 0.48345232
v -0.24611987 -0.04288450 0.59765197
v -0.23518219 -0.02049876 0.50055689
v -0.22945199 -0.02277482 0.49900194
v -0.22945199 -0.02625586 0.50221007
v -0.23123713 -0.02839804 0.50533636
v -0.22945199 -0.03161130 0.50751331
v -0.23881164 -0.04288450 0.55476777
v -0.24370846 -0.04288450 0.57584977
v -0.22945199 -0.00261158 0.48859188
v -0.22945199 -0.00593196 0.48995042
v -0.22945199 -0.01688384 0.49533550
v -0.22945199 0.01830141 0.48199557
v -0.22945199 0.00646588 0.48544922
v -0.22945199 -0.02896036 0.50477984
f 34 29 33
f 88 89 72
f 97 96 80
f 105 89 88
f 82 81 97
f 97 80 82
f 97 113 121
f 97 123 106
f 106 96 97
f 90 72 89
f 33 49 50
f 33 29 48
f 48 49 33
f 33 17 32
f 32 34 33
f 29 34 30
f 30 15 29
f 29 15 28
f 55 54 56
f 56 37 55
f 55 37 54
f 57 37 56
f 58 37 57
f 57 59 58
f 31 17 33
f 21 20 36
f 36 37 21
f 54 37 36
f 56 54 73
f 73 72 56
f 54 72 73
f 111 106 89
f 96 106 111
f 93 95 78
f 103 85 102
f 102 85 93
f 86 85 103
f 86 98 81
f 86 69 85
f 67 82 80
f 81 82 67
f 51 69 67
f 67 69 81
f 103 127 104
f 104 86 103
f 98 86 104
f 97 81 99
f 81 98 99
f 38 23 37
f 38 37 58
f 38 59 60
f 58 59 38
f 22 23 8
f 37 23 22
f 22 8 21
f 21 37 22
f 116 121 113
f 122 123 97
f 97 121 122
f 56 72 74
f 72 90 74
f 133 134 113
f 114 91 113
f 113 134 114
f 66 50 49
f 19 30 34
f 15 30 19
f 34 32 19
f 19 32 17
f 1 9 2
f 8 9 1
f 47 48 29
f 54 36 35
f 35 36 20
f 20 31 35
f 33 54 35
f 35 31 33
f 7 20 21
f 7 6 20
f 21 8 7
f 8 1 7
f 7 1 6
f 5 1 4
f 6 1 5
f 5 19 17
f 18 31 20
f 20 6 18
f 6 5 18
f 17 31 18
f 18 5 17
f 71 70 88
f 88 72 71
f 71 72 54
f 89 105 110
f 110 111 89
f 81 69 87
f 87 86 81
f 69 86 87
f 68 69 51
f 76 79 62
f 77 78 62
f 62 79 77
f 93 78 77
f 103 102 94
f 94 102 93
f 93 77 94
f 94 77 79
f 8 23 24
f 24 9 8
f 115 116 92
f 91 75 92
f 123 122 136
f 121 116 136
f 136 122 121
f 89 106 107
f 107 108 89
f 106 108 107
f 109 90 89
f 89 108 109
f 129 106 123
f 129 108 106
f 134 133 142
f 63 66 49
f 12 13 4
f 15 4 14
f 4 13 14
f 29 28 27
f 27 47 29
f 27 28 15
f 16 4 15
f 16 5 4
f 15 19 16
f 19 5 16
f 70 71 52
f 85 69 84
f 69 68 84
f 84 68 83
f 84 83 85
f 117 95 93
f 93 85 101
f 100 117 101
f 101 117 93
f 83 100 101
f 85 83 101
f 62 39 61
f 61 76 62
f 126 127 103
f 131 113 130
f 113 91 112
f 91 92 112
f 112 116 113
f 112 92 116
f 135 116 115
f 135 136 116
f 132 142 133
f 132 113 131
f 132 133 113
f 15 14 26
f 26 27 15
f 26 14 13
f 26 13 25
f 47 27 26
f 48 47 65
f 49 48 65
f 65 64 49
f 33 52 53
f 53 54 33
f 53 71 54
f 53 52 71
f 103 94 118
f 118 126 103
f 127 140 128
f 128 104 127
f 97 99 119
f 119 130 113
f 11 12 4
f 4 10 11
f 3 1 2
f 4 1 3
f 3 10 4
f 45 65 47
f 98 104 124
f 104 128 124
f 124 128 140
f 131 130 139
f 130 119 139
f 120 113 97
f 97 119 120
f 120 119 113
f 49 64 43
f 46 26 25
f 25 45 46
f 47 26 46
f 46 45 47
f 98 124 125
f 125 99 98
f 125 119 99
f 137 119 125
f 141 124 140
f 137 125 141
f 141 125 124
f 138 119 137
f 138 139 119
f 42 43 25
f 49 43 42
f 44 45 25
f 25 43 44
f 65 45 44
f 64 65 44
f 44 43 64
f 41 25 40
f 41 42 25
f 40 63 41
f 41 63 49
f 49 42 41
f 62 40 39
f 40 25 39
f 33 51 52
f 52 105 88
f 96 111 52
f 52 80 96
f 52 110 105
f 88 70 52
f 51 67 52
f 52 67 80
f 111 110 52
f 117 40 62
f 33 50 117
f 117 51 33
f 62 78 117
f 117 63 40
f 117 78 95
f 117 68 51
f 50 66 117
f 83 68 117
f 117 100 83
f 66 63 117
f 135 57 56
f 135 75 60
f 115 92 135
f 60 59 135
f 56 74 135
f 90 109 135
f 59 57 135
f 135 74 90
f 135 129 123
f 135 92 75
f 123 136 135
f 135 109 108
f 108 129 135
f 138 39 25
f 91 114 138
f 138 61 39
f 60 75 138
f 138 132 131
f 138 24 23
f 2 9 138
f 138 75 91
f 138 38 60
f 138 140 127
f 138 3 2
f 23 38 138
f 138 114 134
f 25 13 138
f 79 76 138
f 138 94 79
f 127 126 138
f 9 24 138
f 134 142 138
f 13 12 138
f 76 61 138
f 12 11 138
f 131 139 138
f 142 132 138
f 138 118 94
f 126 118 138
f 138 11 10
f 10 3 138
f 137 141 138
f 138 141 140