# https://github.com/mikedh/trimesh
v 0.39600913 0.04974942 0.75687801
v 0.39074246 0.18807018 0.74009101
v 0.38458146 0.23061721 0.74009101
v 0.38370517 0.04974942 0.75687801
v 0.40089640 0.00366540 0.75687801
v 0.39142001 0.18436147 0.73008405
v 0.39059792 0.19177887 0.73823873
v 0.40148359 -0.00540031 0.75687801
v 0.39677702 0.08948058 0.74009101
v 0.38410268 0.23061721 0.73008405
v 0.37211491 0.23061721 0.74009101
v 0.39074246 0.19304945 0.73008405
v 0.39062504 0.19246567 0.72078771
v 0.31244703 -0.12012962 0.69955059
v 0.38238627 -0.12012962 0.75687801
v 0.40469055 -0.10031554 0.75687801
v 0.40450087 -0.10031554 0.75381418
v 0.39600011 0.08948058 0.73008405
v 0.38279279 0.23061721 0.71822481
v 0.32833738 0.23061721 0.63788952
v 0.32434446 0.17330406 0.65589973
v 0.31241090 0.04974942 0.67092765
v 0.38518672 0.19624306 0.69450633
v 0.38345224 0.20809029 0.69450633
v 0.38553903 0.20809029 0.70636557
v 0.38324446 0.21997186 0.70636557
v 0.39084184 0.18436147 0.71952956
v 0.39076052 0.08560018 0.68771464
v 0.31241090 -0.11982056 0.69920110
v 0.31241090 -0.12012962 0.69910790
v 0.39850244 -0.12012962 0.75687801
v 0.40342585 -0.11010239 0.75687801
v 0.40332646 -0.10982768 0.75381418
v 0.40263088 -0.10766427 0.74623032
v 0.40291994 -0.10031554 0.74492558
v 0.39098637 0.07763335 0.68738845
v 0.39217885 0.07763335 0.69450633
v 0.38041689 0.23061721 0.70635392
v 0.34440840 0.23061721 0.63788952
v 0.32434446 0.19061133 0.63788952
v 0.32434446 0.19607134 0.63790117
v 0.32434446 0.19459475 0.64012624
v 0.32434446 0.19328983 0.64200181
v 0.32434446 0.17890145 0.65312713
v 0.31241090 0.04974942 0.65864902
v 0.38308186 0.18436147 0.68265874
v 0.38197975 0.19624306 0.68265874
v 0.37991103 0.20699141 0.68285678
v 0.37914314 0.21619448 0.68694577
v 0.38038076 0.22007488 0.69442478
v 0.37958579 0.18436147 0.67505158
v 0.31241090 -0.12012962 0.68538473
v 0.39844824 -0.12012962 0.75544512
v 0.40113127 -0.11604317 0.75687801
v 0.40173652 -0.11449789 0.75687801
v 0.40105900 -0.11576846 0.75381418
v 0.39413917 -0.12012962 0.71803842
v 0.39657828 -0.11216279 0.71821316
v 0.39519609 -0.10031554 0.70637722
v 0.39554841 -0.08843398 0.70637722
v 0.39557553 -0.07658674 0.70637722
v 0.39554841 -0.06470517 0.70637722
v 0.39549421 -0.05285794 0.70637722
v 0.39543099 -0.04097636 0.70637722
v 0.39523223 -0.01728189 0.70637722
v 0.39082377 0.06575177 0.68776124
v 0.38710186 0.07763335 0.68145884
v 0.39207045 -0.08843398 0.69818758
v 0.37975744 0.23061721 0.70367452
v 0.35707373 0.23061721 0.65200878
v 0.34558281 0.21997186 0.63788952
v 0.32434446 0.17464331 0.63788952
v 0.31241090 -0.00540031 0.66135172
v 0.37898959 0.19624306 0.67596025
v 0.37852884 0.20228685 0.67665922
v 0.37048883 0.23061721 0.67202271
v 0.37911606 0.22804171 0.69830408
v 0.37523154 0.18436147 0.66912197
v 0.37481597 0.19624306 0.67003063
v 0.34884397 -0.12012962 0.68599051
v 0.31241090 -0.11216279 0.68270534
v 0.34884397 -0.09516457 0.67646117
v 0.35600772 -0.09509589 0.67647282
v 0.39838502 -0.12012962 0.75381418
v 0.39241371 -0.12012962 0.70822950
v 0.39326288 -0.11257486 0.70551515
v 0.39101349 -0.10886617 0.69965542
v 0.39166393 -0.10031554 0.69879336
v 0.38117573 0.07763335 0.67409632
v 0.38125705 0.08948058 0.67394487
v 0.38679472 -0.08843398 0.69226962
v 0.36238555 0.23061721 0.65821799
v 0.36888984 0.19624306 0.66244677
v 0.34560989 0.21907902 0.63788952
v 0.36929636 0.18436147 0.66210893
v 0.32512137 0.17464331 0.63788952
v 0.31326908 -0.01728189 0.66259822
v 0.31241090 -0.01728189 0.66265646
v 0.36709212 0.23061721 0.66414760
v 0.36746250 0.23061721 0.66485823
v 0.36999198 0.23061721 0.67078785
v 0.36289145 0.23061721 0.65881211
v 0.36068721 -0.12012962 0.68652639
v 0.31241090 -0.08894907 0.67573890
v 0.34884397 -0.08843398 0.67485354
v 0.34884397 -0.07658674 0.67257023
v 0.36068721 -0.07658674 0.67375849
v 0.36024456 -0.08812491 0.67575055
v 0.36716442 -0.08393546 0.67640293
v 0.36389421 -0.09183362 0.67780088
v 0.37266596 -0.11195674 0.68637494
v 0.36985647 -0.11755413 0.68735350
v 0.36878144 -0.11968321 0.68773794
v 0.36068721 -0.11216279 0.68340431
v 0.39137483 -0.12012962 0.70609763
v 0.38988427 -0.11679865 0.70099513
v 0.37914314 -0.10783596 0.68804083
v 0.38596362 -0.10031554 0.69287539
v 0.37440945 0.07763335 0.66816670
v 0.37482502 0.08948058 0.66800361
v 0.34563701 0.20809029 0.63788952
v 0.38240434 -0.04097636 0.68412658
v 0.37702021 -0.02912913 0.67791737
v 0.38085955 -0.08843398 0.68654969
v 0.38207910 -0.05285794 0.68470906
v 0.32587115 0.17495236 0.63788952
v 0.32513042 -0.01728189 0.66281956
v 0.33699172 -0.07658674 0.67255858
v 0.31326908 -0.02693137 0.66422915
v 0.31241090 -0.02689703 0.66424080
v 0.36646880 -0.12012962 0.68750495
v 0.31241090 -0.07658674 0.67318765
v 0.31326908 -0.07658674 0.67314106
v 0.33699172 -0.01728189 0.66357678
v 0.34305336 -0.02336003 0.66484658
v 0.34884397 -0.06470517 0.67093930
v 0.36068721 -0.06470517 0.67202271
v 0.38003749 -0.10031554 0.68729526
v 0.36803166 -0.07658674 0.67576220
v 0.37669501 -0.11573413 0.68953197
v 0.36919701 -0.12012962 0.68819227
v 0.38917963 -0.12012962 0.70280081
v 0.38262114 -0.12012962 0.69668480
v 0.37934187 -0.12012962 0.69387725
v 0.36847431 0.07763335 0.66353018
v 0.34560088 0.20736915 0.63788952
v 0.37632463 -0.04097636 0.67819696
v 0.36926928 -0.06470517 0.67485354
v 0.36985647 -0.06470517 0.67530788
v 0.37590004 -0.05285794 0.67876779
v 0.33142693 0.17742484 0.63788952
v 0.31326908 -0.06470517 0.67098589
v 0.31241090 -0.06470517 0.67103248
v 0.33685620 0.18192335 0.63788952
v 0.33915078 0.18470488 0.63788952
v 0.34243906 0.19153851 0.63788952
v 0.37449982 -0.12012962 0.69091827
v 0.34378508 0.19624306 0.63788952
f 22 21 44
f 44 21 20
f 15 4 14
f 14 4 11
f 22 14 11
f 11 21 22
f 20 21 11
f 3 1 2
f 1 5 2
f 18 13 9
f 77 69 50
f 16 17 8
f 9 2 8
f 8 2 5
f 8 18 9
f 17 18 8
f 29 14 22
f 35 17 34
f 45 72 73
f 41 45 22
f 9 13 6
f 6 2 9
f 3 13 10
f 13 19 10
f 26 19 13
f 13 18 27
f 46 23 28
f 28 23 13
f 13 27 28
f 76 77 50
f 76 75 101
f 69 77 76
f 93 92 102
f 70 92 93
f 14 29 30
f 148 139 137
f 86 85 116
f 59 60 35
f 35 34 59
f 140 144 157
f 117 116 140
f 140 116 144
f 35 62 63
f 35 60 61
f 61 62 35
f 40 41 20
f 40 72 45
f 45 41 40
f 43 44 20
f 22 44 43
f 155 137 154
f 12 6 13
f 12 13 3
f 19 26 38
f 50 69 38
f 38 26 50
f 25 26 13
f 36 61 60
f 62 61 36
f 36 63 62
f 36 35 65
f 36 17 35
f 37 27 18
f 37 28 27
f 37 36 28
f 37 18 17
f 17 36 37
f 75 76 48
f 70 93 71
f 71 93 95
f 105 104 128
f 128 106 105
f 137 106 136
f 107 106 137
f 105 106 83
f 106 107 83
f 83 107 108
f 108 107 109
f 109 83 108
f 137 139 109
f 109 107 137
f 57 56 84
f 33 56 57
f 33 17 16
f 33 34 17
f 119 147 145
f 90 89 121
f 67 89 90
f 123 89 122
f 123 125 147
f 122 125 123
f 147 119 123
f 123 119 89
f 68 89 67
f 68 36 60
f 68 59 88
f 60 59 68
f 156 137 155
f 156 148 137
f 158 148 156
f 145 147 150
f 150 148 145
f 147 125 150
f 150 125 124
f 146 148 158
f 145 148 146
f 146 119 145
f 57 85 58
f 58 33 57
f 34 33 58
f 58 85 86
f 58 59 34
f 86 59 58
f 86 116 87
f 88 59 87
f 87 59 86
f 87 118 88
f 87 116 117
f 117 118 87
f 142 116 115
f 115 116 85
f 143 116 142
f 144 116 143
f 20 41 42
f 42 43 20
f 42 41 22
f 22 43 42
f 2 6 7
f 6 12 7
f 3 2 7
f 7 12 3
f 51 36 67
f 46 28 51
f 28 36 51
f 64 36 65
f 63 36 64
f 65 35 64
f 35 63 64
f 49 76 50
f 49 48 76
f 50 26 24
f 24 49 50
f 48 49 24
f 26 25 24
f 13 23 24
f 24 25 13
f 75 48 47
f 47 23 46
f 47 24 23
f 48 24 47
f 101 75 100
f 75 99 100
f 70 71 39
f 97 127 106
f 106 128 97
f 96 97 72
f 127 97 96
f 133 128 104
f 106 127 134
f 134 127 151
f 52 83 80
f 80 83 103
f 52 81 82
f 82 83 52
f 82 81 104
f 82 104 105
f 105 83 82
f 31 53 54
f 54 53 84
f 54 84 56
f 138 118 117
f 124 118 138
f 138 148 124
f 139 148 138
f 117 109 138
f 138 109 139
f 91 118 124
f 124 125 91
f 88 118 91
f 91 68 88
f 91 125 122
f 122 89 91
f 89 68 91
f 121 89 120
f 89 119 120
f 120 146 121
f 119 146 120
f 94 90 121
f 94 71 95
f 95 90 94
f 67 36 66
f 66 68 67
f 36 68 66
f 124 148 149
f 149 150 124
f 148 150 149
f 141 140 157
f 141 113 140
f 103 83 114
f 83 113 114
f 83 109 110
f 117 140 111
f 111 109 117
f 111 110 109
f 83 110 111
f 67 90 78
f 78 51 67
f 78 90 95
f 95 93 78
f 102 99 78
f 78 93 102
f 75 47 74
f 74 99 75
f 46 51 74
f 74 47 46
f 98 97 130
f 98 73 72
f 72 97 98
f 129 128 130
f 130 97 129
f 129 97 128
f 151 127 126
f 127 96 126
f 132 133 104
f 130 128 152
f 128 133 152
f 135 136 106
f 106 134 135
f 137 136 135
f 135 134 151
f 151 154 135
f 135 154 137
f 32 33 16
f 56 33 32
f 113 141 131
f 103 114 131
f 131 114 113
f 140 113 112
f 112 111 140
f 112 113 83
f 83 111 112
f 79 78 99
f 51 78 79
f 99 74 79
f 79 74 51
f 130 152 153
f 55 54 56
f 56 32 55
f 4 1 11
f 11 1 3
f 39 11 3
f 20 11 39
f 102 92 39
f 101 100 39
f 69 76 39
f 3 10 39
f 39 38 69
f 39 10 19
f 39 92 70
f 39 76 101
f 19 38 39
f 39 99 102
f 39 100 99
f 155 154 126
f 121 146 126
f 126 40 20
f 20 39 126
f 126 156 155
f 72 40 126
f 126 154 151
f 126 96 72
f 158 156 126
f 126 146 158
f 126 39 71
f 126 94 121
f 71 94 126
f 131 31 15
f 131 15 14
f 157 144 131
f 131 85 57
f 14 30 131
f 131 53 31
f 142 115 131
f 131 30 52
f 131 143 142
f 57 84 131
f 52 80 131
f 131 115 85
f 144 143 131
f 131 80 103
f 84 53 131
f 131 141 157
f 153 29 22
f 22 45 153
f 52 30 153
f 153 81 52
f 45 73 153
f 153 30 29
f 153 98 130
f 104 81 153
f 73 98 153
f 153 132 104
f 133 132 153
f 153 152 133
f 55 1 4
f 16 8 55
f 4 15 55
f 55 5 1
f 15 31 55
f 55 8 5
f 31 54 55
f 55 32 16