# https://github.com/mikedh/trimesh
v -0.19381037 0.38314440 0.25383047
v -0.19148789 0.38314440 0.33220776
v -0.22324205 0.38315179 0.52608566
v -0.22324205 0.38315179 0.51364016
v -0.22324205 0.38625321 0.51675820
v -0.22324205 0.39286959 0.52608566
v -0.19336991 0.38585444 0.25383047
v 0.15003976 0.38313701 0.25383047
v 0.14875837 0.38313701 0.25457665
v 0.14062961 0.38313701 0.26118585
v 0.13822703 0.38313701 0.26616936
v 0.13782659 0.38313701 0.26723536
v -0.18924547 0.38314440 0.38609382
v -0.18680286 0.38314440 0.39488829
v 0.18575819 0.38313701 0.51044217
v -0.20642397 0.38315179 0.52608566
v -0.21867715 0.39660607 0.52608566
v -0.16766223 0.43976028 0.45170584
v -0.16766223 0.43976028 0.44853450
v -0.18023577 0.42889052 0.44536317
v -0.16970444 0.42997601 0.30302615
v -0.17567087 0.42349254 0.30302615
v -0.17999553 0.41720844 0.29377864
v -0.18596192 0.40227728 0.25383047
v -0.19236881 0.38878605 0.25383047
v 0.16946065 0.38313701 0.25383047
v 0.13882768 0.38313701 0.27933440
v 0.14983954 0.38313701 0.40999877
v 0.15188171 0.38313701 0.42001913
v 0.16321392 0.38313701 0.45716907
v 0.16713814 0.38313701 0.46948131
v 0.17146280 0.38313701 0.48094076
v 0.17534700 0.38313701 0.49016162
v 0.18575819 0.38313701 0.48221995
v 0.18575819 0.39642148 0.52459326
v -0.05706319 0.40478056 0.52608566
v -0.20590339 0.40255047 0.52608566
v -0.20382116 0.40453689 0.52411357
v -0.14940258 0.44619206 0.44536317
v -0.13230417 0.45143497 0.45151929
v -0.15685060 0.44041750 0.29415174
v -0.16894362 0.42932617 0.29116695
v -0.17310808 0.41812411 0.25383047
v 0.16918035 0.38607598 0.25383047
v 0.18575819 0.40687032 0.49565149
v 0.18575819 0.39950813 0.48861593
v 0.18575819 0.39795004 0.48715018
v 0.18575819 0.38607598 0.48296615
v 0.18575819 0.38417819 0.48243316
v 0.18575819 0.41066589 0.52459326
v -0.05706319 0.41867053 0.52608566
v -0.20025732 0.40487655 0.52608566
v -0.13230417 0.45143497 0.44872105
v -0.13362560 0.45102142 0.44765506
v -0.13750978 0.44648006 0.29116695
v -0.12561698 0.41660294 0.52416686
v -0.12561698 0.45170816 0.45189239
v -0.07820595 0.45566619 0.44536317
v -0.09005870 0.45485393 0.44536317
v -0.11376422 0.45302258 0.44536317
v -0.19641317 0.40578484 0.52608566
v -0.19425086 0.40617622 0.52608566
v -0.18496087 0.40782291 0.52608566
v -0.15452809 0.43897015 0.28623673
v -0.13943185 0.44586714 0.29111367
v -0.15012335 0.44241866 0.29058065
v -0.15076405 0.42262120 0.25383047
v -0.14663961 0.44090484 0.28343847
v -0.13943185 0.44207897 0.28186614
v -0.13750978 0.44237436 0.28151969
v 0.16885999 0.38789993 0.25383047
v 0.18575819 0.40961731 0.50465915
v 0.16605697 0.39764729 0.25383047
v 0.18575819 0.41138219 0.51705135
v 0.13061884 0.45206264 0.45231878
v 0.18251471 0.41230522 0.52459326
v -0.01886207 0.45474316 0.45647617
v -0.06487159 0.41841208 0.52608566
v 0.16865977 0.41559866 0.52459326
v 0.16121177 0.41666937 0.52459326
v 0.15896934 0.41693521 0.52459326
v 0.14963932 0.41786566 0.52459326
v 0.14010906 0.41878130 0.52459326
v 0.12721518 0.41982988 0.52459326
v 0.11536241 0.42025817 0.52459326
v 0.04416578 0.42064217 0.52459326
v 0.02846888 0.42064217 0.52459326
v 0.00852742 0.42057570 0.52459326
v 0.00476337 0.42053140 0.52459326
v 0.02846888 0.45542252 0.45724901
v -0.12653797 0.45191492 0.44501673
v -0.11176207 0.45173772 0.29561748
v -0.12565702 0.44849597 0.29116695
v -0.13166349 0.41486023 0.52608566
v -0.12561698 0.41554697 0.52608566
v -0.11680750 0.41618203 0.52608566
v -0.11376422 0.41715675 0.52467321
v -0.07820595 0.45334011 0.45418428
v -0.06635319 0.45464717 0.30302615
v -0.03071483 0.45770429 0.44536317
v -0.05446038 0.45528223 0.30305279
v -0.05702314 0.45515668 0.30302615
v -0.12497629 0.44266972 0.27853490
v -0.12061159 0.43961260 0.27317828
v -0.00672901 0.43662933 0.25383047
v 0.15548561 0.41818319 0.25383047
v 0.15244231 0.42680072 0.30302615
v 0.14651595 0.43287807 0.30302615
v 0.14050948 0.43880769 0.30302615
v 0.15144125 0.43795849 0.44533652
v 0.14551487 0.44241866 0.44533652
v 0.13061884 0.45206264 0.44741521
v 0.12457233 0.45357642 0.44421723
v 0.11151828 0.45662616 0.44533652
v 0.12341108 0.45320721 0.45381118
v 0.17570738 0.41520728 0.52139528
v 0.16781888 0.41624846 0.52358057
v -0.01886207 0.45807351 0.44536317
v -0.03071483 0.45461022 0.45594317
v 0.11151828 0.45425578 0.45511702
v 0.09966552 0.45463978 0.45583658
v 0.08773267 0.45475794 0.45636957
v 0.04032164 0.45543729 0.45724901
v 0.04032164 0.45857563 0.44536317
v 0.02846888 0.45850916 0.44536317
v -0.00704935 0.45822858 0.44536317
v -0.11496552 0.44989902 0.29148675
v -0.10191147 0.45208477 0.29447153
v -0.06635319 0.45367980 0.45463733
v -0.00704935 0.45723170 0.30305279
v -0.01886207 0.45676645 0.30305279
v -0.03071483 0.45628650 0.30305279
v -0.11376422 0.44416137 0.27930774
v -0.11376422 0.43995965 0.27275189
v 0.00476337 0.45285277 0.28242578
v 0.01665617 0.43795110 0.25383047
v 0.14391314 0.43030093 0.25383047
v 0.13025844 0.44031412 0.25383047
v 0.13454306 0.44258112 0.30302615
v 0.11772496 0.45142758 0.29687002
v 0.11259944 0.45254263 0.30358580
v 0.09966552 0.45464717 0.30305279
v 0.09966552 0.45768952 0.44536317
v 0.00476337 0.45750489 0.30305279
v 0.08773267 0.45808087 0.44536317
v 0.01665617 0.45752706 0.30305279
v -0.10191147 0.44967748 0.28860855
v 0.00476337 0.45613878 0.29122024
v -0.07820595 0.45279369 0.29281923
v 0.01665617 0.45290446 0.28221259
v -0.06635319 0.45315552 0.29215299
v -0.00704935 0.45559236 0.29122024
v 0.01665617 0.45620525 0.29122024
v 0.02846888 0.45569574 0.29122024
v 0.09966552 0.45305214 0.29343219
v 0.11151828 0.45218076 0.29535097
v 0.08777271 0.45539296 0.30305279
v 0.07591996 0.45590989 0.30305279
v 0.06406720 0.45638988 0.30305279
v 0.05221444 0.45676645 0.30305279
f 14 15 3
f 3 15 16
f 15 35 16
f 36 16 35
f 13 14 3
f 124 90 123
f 137 138 109
f 1 12 2
f 12 13 2
f 3 1 2
f 2 13 3
f 49 34 26
f 26 48 49
f 51 89 90
f 84 85 51
f 106 137 107
f 72 73 106
f 47 48 26
f 26 46 47
f 4 1 3
f 4 5 1
f 53 92 55
f 68 69 43
f 55 69 68
f 17 18 6
f 25 7 6
f 6 7 1
f 1 5 6
f 43 23 42
f 21 41 42
f 42 41 43
f 24 23 43
f 25 6 24
f 24 6 23
f 142 140 156
f 156 140 138
f 109 138 139
f 138 140 139
f 1 8 9
f 9 10 1
f 11 12 1
f 1 10 11
f 27 13 12
f 27 28 13
f 86 51 85
f 86 85 123
f 121 85 84
f 84 120 121
f 141 140 142
f 108 137 109
f 108 107 137
f 106 107 74
f 74 72 106
f 107 108 74
f 74 108 109
f 45 71 73
f 73 72 45
f 45 46 26
f 99 92 58
f 38 18 17
f 40 18 38
f 40 53 39
f 39 18 40
f 55 41 39
f 104 105 67
f 43 41 64
f 64 68 43
f 21 6 20
f 21 42 22
f 22 42 23
f 22 6 21
f 23 6 22
f 155 156 138
f 142 156 155
f 155 157 142
f 15 14 33
f 14 13 29
f 13 28 29
f 40 63 56
f 95 96 56
f 56 96 97
f 51 86 87
f 87 123 90
f 87 86 123
f 84 51 83
f 83 120 84
f 80 51 79
f 80 81 51
f 120 81 80
f 51 50 76
f 79 51 76
f 40 61 62
f 62 63 40
f 125 90 124
f 125 126 90
f 126 125 144
f 144 125 124
f 123 85 122
f 85 121 122
f 143 121 120
f 142 157 143
f 109 111 110
f 110 74 109
f 111 74 110
f 44 45 26
f 71 45 44
f 60 53 40
f 37 38 17
f 54 53 55
f 55 39 54
f 54 39 53
f 103 104 67
f 55 68 66
f 68 64 66
f 66 64 41
f 19 6 18
f 19 20 6
f 19 39 41
f 18 39 19
f 19 41 21
f 21 20 19
f 153 160 159
f 138 153 154
f 154 155 138
f 153 155 154
f 14 31 32
f 32 33 14
f 30 31 14
f 14 29 30
f 97 96 78
f 78 119 97
f 95 56 94
f 94 56 63
f 100 58 98
f 77 51 90
f 77 78 51
f 119 78 77
f 89 51 88
f 51 87 88
f 90 89 88
f 88 87 90
f 51 81 82
f 82 83 51
f 82 81 120
f 120 83 82
f 117 80 79
f 120 80 117
f 79 76 117
f 112 139 140
f 112 111 109
f 109 139 112
f 146 160 153
f 153 144 146
f 146 144 124
f 148 144 153
f 148 135 152
f 136 135 138
f 105 135 136
f 150 153 138
f 138 135 150
f 150 148 153
f 135 148 150
f 152 135 151
f 151 148 152
f 149 148 151
f 145 122 121
f 121 143 145
f 123 122 145
f 124 123 145
f 145 146 124
f 160 146 145
f 145 159 160
f 143 159 145
f 40 58 59
f 59 60 40
f 59 58 92
f 92 60 59
f 92 53 91
f 91 60 92
f 53 60 91
f 38 37 52
f 52 61 40
f 40 38 52
f 70 103 67
f 67 43 70
f 43 69 70
f 70 69 55
f 128 148 149
f 133 135 105
f 65 41 55
f 55 66 65
f 65 66 41
f 153 159 158
f 158 155 153
f 157 155 158
f 158 143 157
f 158 159 143
f 97 98 57
f 40 56 57
f 57 56 97
f 57 58 40
f 57 98 58
f 97 119 129
f 129 98 97
f 129 119 100
f 100 98 129
f 100 119 118
f 119 77 118
f 126 144 118
f 90 126 118
f 118 77 90
f 75 76 50
f 50 74 75
f 75 74 111
f 111 112 75
f 101 58 100
f 101 128 92
f 144 148 130
f 148 131 130
f 130 131 100
f 100 118 130
f 130 118 144
f 103 70 93
f 55 92 93
f 93 70 55
f 104 103 134
f 103 133 134
f 105 104 134
f 134 133 105
f 135 133 147
f 149 151 147
f 147 151 135
f 147 128 149
f 120 117 115
f 116 117 76
f 76 75 116
f 116 115 117
f 75 115 116
f 114 115 75
f 114 141 142
f 142 143 114
f 140 141 114
f 114 143 120
f 120 115 114
f 100 131 132
f 132 101 100
f 132 131 148
f 148 128 132
f 128 101 132
f 99 58 102
f 58 101 102
f 102 92 99
f 102 101 92
f 127 133 103
f 103 93 127
f 127 147 133
f 127 93 92
f 92 128 127
f 128 147 127
f 113 75 112
f 113 114 75
f 113 112 140
f 140 114 113
f 6 4 3
f 5 4 6
f 50 51 36
f 50 36 35
f 15 34 45
f 45 35 15
f 45 49 48
f 48 47 45
f 34 49 45
f 72 74 45
f 45 47 46
f 45 50 35
f 45 74 50
f 30 8 26
f 30 34 15
f 30 9 8
f 26 34 30
f 30 27 12
f 12 11 30
f 10 9 30
f 30 11 10
f 28 27 30
f 15 33 30
f 30 29 28
f 30 32 31
f 33 32 30
f 106 73 136
f 25 24 136
f 136 43 67
f 136 8 1
f 136 137 106
f 67 105 136
f 1 7 136
f 26 8 136
f 73 71 136
f 138 137 136
f 136 7 25
f 136 44 26
f 136 24 43
f 71 44 136
f 51 78 52
f 52 6 3
f 3 16 52
f 16 36 52
f 36 51 52
f 52 62 61
f 17 6 52
f 52 96 95
f 52 37 17
f 63 62 52
f 95 94 52
f 52 78 96
f 52 94 63