# https://github.com/mikedh/trimesh
v -0.13906822 0.52786288 1.16338939
v -0.18416186 0.52786288 1.16338939
v -0.17312198 0.49747646 1.17617652
v -0.17312198 0.49466406 1.17664151
v -0.17312198 0.48098280 1.17848693
v -0.17312198 0.46912001 1.17962033
v -0.17312198 0.45725726 1.17901002
v -0.17312198 0.45586870 1.17863221
v -0.17312198 0.45585460 1.16410138
v -0.17312198 0.45585460 1.16404326
v -0.23555037 0.45585460 1.03117335
v -0.20869374 0.52592451 1.03118788
v -0.20869374 0.52786288 1.03118788
v -0.18503232 0.52786288 1.16299705
v -0.18503232 0.52727082 1.16338939
v -0.18128512 0.48098280 1.17581324
v -0.19113609 0.52304165 1.16338939
v -0.19134840 0.52297115 1.16333127
v -0.19141209 0.52256941 1.16338939
v -0.18368418 0.46912001 1.17669964
v -0.17315383 0.46912001 1.17962033
v -0.17315383 0.45725726 1.17901002
v -0.17315383 0.45585460 1.17863221
v -0.24632486 0.45585460 1.03117335
v -0.23465868 0.49747646 1.03117335
v -0.23469054 0.52786288 1.03118788
v -0.18757999 0.52786288 1.16182006
v -0.18721906 0.48098280 1.17305239
v -0.19608281 0.52786288 1.15651630
v -0.19633757 0.52786288 1.15634193
v -0.20400179 0.52447253 1.15246218
v -0.19833325 0.51655695 1.15946605
v -0.20299334 0.48754500 1.16325861
v -0.19599789 0.49747646 1.16552540
v -0.18437418 0.45725726 1.17680136
v -0.18960749 0.46912001 1.17392422
v -0.19031872 0.45725726 1.17437469
v -0.17472490 0.45585460 1.17851599
v -0.24728024 0.46935261 1.03117335
v -0.24528456 0.45585460 1.05042669
v -0.24687687 0.49747646 1.03117335
v -0.23995569 0.52400025 1.03118788
v -0.23592190 0.52786288 1.03855503
v -0.20270673 0.52786288 1.15124160
v -0.20825851 0.52786288 1.14515320
v -0.21395891 0.52786288 1.13865792
v -0.21515844 0.52364782 1.14003834
v -0.21474444 0.48722076 1.15132879
v -0.20375764 0.48098280 1.16388342
v -0.19686834 0.48098280 1.16792300
v -0.19735664 0.49202792 1.16572884
v -0.20968096 0.48098280 1.15794032
v -0.18405571 0.45585460 1.17667057
v -0.19686834 0.46912001 1.16960858
v -0.20468118 0.46912001 1.16471169
v -0.19686834 0.45725726 1.17026248
v -0.19796171 0.45585460 1.16936155
v -0.19114671 0.45585460 1.17359004
v -0.18979857 0.45585460 1.17421485
v -0.24750315 0.48098280 1.03117335
v -0.24456274 0.45585460 1.06088890
v -0.24456274 0.48098280 1.07415555
v -0.24741823 0.48507800 1.03117335
v -0.24687687 0.49748349 1.03118788
v -0.24584717 0.50470126 1.03118788
v -0.24516779 0.50919825 1.03118788
v -0.24352243 0.51655695 1.03118788
v -0.24222736 0.51949623 1.03118788
v -0.24052893 0.52478267 1.05042669
v -0.23696221 0.52786288 1.05042669
v -0.21752565 0.52786288 1.13357212
v -0.22407527 0.49283848 1.13535942
v -0.22810906 0.52786288 1.11827115
v -0.22699446 0.50126156 1.12832649
v -0.21528582 0.48098280 1.15201175
v -0.21060450 0.46912001 1.15887028
v -0.20486164 0.45725726 1.16491513
v -0.20474486 0.45585460 1.16481341
v -0.24452027 0.49283848 1.07415555
v -0.24442473 0.45585460 1.06228385
v -0.24404259 0.46912001 1.07415555
v -0.24280060 0.46912001 1.08601272
v -0.24319336 0.48098280 1.08601272
v -0.24465827 0.50470126 1.06228385
v -0.24356490 0.51655695 1.06228385
v -0.24379842 0.51655695 1.05042669
v -0.24065632 0.52509984 1.06228385
v -0.23752480 0.52786288 1.06228385
v -0.22476526 0.48098280 1.13666719
v -0.21945762 0.48098280 1.14529851
v -0.22723861 0.49748349 1.12882055
v -0.22753584 0.49283848 1.12941629
v -0.23187749 0.52786288 1.10971248
v -0.22909628 0.51655695 1.12021829
v -0.21603952 0.46912001 1.15292718
v -0.21625181 0.45725726 1.15313062
v -0.21078495 0.45725726 1.15905918
v -0.21133694 0.45585460 1.15824547
v -0.24298105 0.49283848 1.08601272
v -0.24374535 0.50470126 1.07415555
v -0.24213183 0.45585460 1.08461776
v -0.24209999 0.45725726 1.08601272
v -0.24068815 0.45725726 1.09786988
v -0.24103846 0.46912001 1.09786988
v -0.24082615 0.48098280 1.09786988
v -0.24270505 0.51655695 1.07415555
v -0.24034846 0.52521966 1.07415555
v -0.23777957 0.52786288 1.07415555
v -0.22816215 0.48098280 1.13073862
v -0.22877783 0.46912001 1.13194467
v -0.22580556 0.45725726 1.13877417
v -0.23116626 0.49283848 1.12156965
v -0.23204732 0.52786288 1.10929111
v -0.23345916 0.51655695 1.10971248
v -0.23826787 0.49831523 1.10372579
v -0.22146391 0.45725726 1.14529851
v -0.22581617 0.45585460 1.13875964
v -0.22198406 0.45585460 1.14451383
v -0.21679319 0.45585460 1.15220066
v -0.21616688 0.45585460 1.15301437
v -0.23991323 0.49374072 1.09901781
v -0.24168599 0.49747646 1.09013945
v -0.23914895 0.51655695 1.09487650
v -0.24260952 0.49747646 1.08601272
v -0.24202567 0.50470126 1.08601272
v -0.24101723 0.51655695 1.08601272
v -0.24055016 0.45585460 1.09792801
v -0.23903217 0.45585460 1.10621058
v -0.23908526 0.45725726 1.10638492
v -0.23915956 0.46912001 1.10632679
v -0.23888357 0.48098280 1.10530965
v -0.24169660 0.51913674 1.07797717
v -0.23879865 0.52341522 1.09359780
v -0.23955232 0.52455710 1.08601272
v -0.23700467 0.52786288 1.08601272
v -0.22922367 0.45725726 1.13284557
v -0.23489223 0.52786288 1.09891609
v -0.22921306 0.45585460 1.13281650
v -0.23966910 0.50470126 1.09654755
v -0.23517884 0.52786288 1.09776816
f 1 9 10
f 10 11 1
f 1 11 12
f 12 13 1
f 11 25 12
f 12 25 13
f 39 24 40
f 8 9 1
f 3 4 1
f 26 41 42
f 42 43 26
f 18 27 29
f 29 30 18
f 60 39 62
f 9 8 23
f 2 3 1
f 19 3 18
f 4 3 16
f 3 19 16
f 106 84 100
f 115 110 112
f 112 94 115
f 92 94 112
f 74 47 73
f 73 94 74
f 73 47 71
f 47 46 71
f 129 128 138
f 131 110 115
f 1 4 5
f 5 6 1
f 7 8 1
f 1 6 7
f 7 23 8
f 17 14 27
f 17 27 18
f 18 3 17
f 6 5 21
f 28 16 19
f 28 34 36
f 19 34 28
f 100 84 79
f 79 63 60
f 60 62 79
f 132 133 134
f 132 106 133
f 133 106 126
f 126 106 100
f 66 67 41
f 93 94 73
f 134 133 140
f 140 135 134
f 114 133 115
f 114 113 133
f 114 93 113
f 115 94 114
f 94 93 114
f 134 135 107
f 107 132 134
f 106 132 107
f 42 41 68
f 41 67 68
f 86 87 67
f 67 66 86
f 91 94 92
f 91 74 94
f 31 46 47
f 30 44 31
f 18 30 31
f 83 79 62
f 121 131 115
f 121 139 122
f 128 129 103
f 36 49 54
f 49 55 54
f 76 55 49
f 75 95 76
f 15 2 14
f 14 17 15
f 3 2 15
f 15 17 3
f 50 49 36
f 36 34 50
f 33 34 19
f 49 50 33
f 20 21 5
f 4 16 20
f 20 5 4
f 20 28 36
f 16 28 20
f 41 63 64
f 63 79 64
f 64 79 84
f 133 113 137
f 137 140 133
f 70 43 42
f 108 107 135
f 108 88 87
f 87 107 108
f 85 107 87
f 87 86 85
f 106 107 85
f 84 106 85
f 85 64 84
f 86 64 85
f 90 95 75
f 89 95 90
f 46 31 45
f 45 31 44
f 48 31 47
f 48 33 31
f 61 81 62
f 61 39 40
f 61 62 39
f 82 81 102
f 102 103 82
f 82 103 83
f 82 83 62
f 62 81 82
f 128 103 127
f 102 101 127
f 127 103 102
f 104 103 129
f 83 103 104
f 104 129 130
f 53 38 35
f 21 20 35
f 109 89 92
f 110 89 109
f 92 112 109
f 109 112 110
f 110 131 136
f 136 131 130
f 136 129 138
f 130 129 136
f 32 33 19
f 31 33 32
f 32 19 18
f 18 31 32
f 51 50 34
f 34 33 51
f 51 33 50
f 65 66 41
f 41 64 65
f 65 86 66
f 65 64 86
f 125 126 100
f 100 124 125
f 122 139 123
f 123 125 124
f 115 133 123
f 133 126 123
f 126 125 123
f 123 121 115
f 139 121 123
f 69 70 42
f 42 68 69
f 88 70 69
f 87 88 69
f 67 87 69
f 69 68 67
f 92 89 72
f 89 90 72
f 72 91 92
f 74 91 72
f 72 90 75
f 75 48 72
f 47 74 72
f 72 48 47
f 49 33 52
f 33 48 52
f 52 48 75
f 52 76 49
f 75 76 52
f 80 101 102
f 102 81 80
f 81 61 80
f 105 104 130
f 83 104 105
f 130 131 105
f 131 121 105
f 22 38 23
f 23 7 22
f 22 35 38
f 21 35 22
f 53 35 37
f 37 20 36
f 37 35 20
f 36 54 37
f 55 56 37
f 37 54 55
f 96 76 95
f 99 105 121
f 99 121 122
f 83 105 99
f 122 123 99
f 99 123 124
f 79 83 99
f 100 79 99
f 99 124 100
f 59 37 58
f 53 37 59
f 58 37 57
f 57 37 56
f 77 56 55
f 55 76 77
f 78 57 77
f 77 57 56
f 110 136 111
f 111 89 110
f 111 95 89
f 76 96 97
f 97 77 76
f 98 78 97
f 78 77 97
f 96 119 120
f 98 97 120
f 120 97 96
f 117 136 138
f 117 111 136
f 118 119 96
f 96 117 118
f 116 117 96
f 111 117 116
f 116 96 95
f 95 111 116
f 25 41 26
f 13 25 26
f 11 24 63
f 63 39 60
f 63 25 11
f 24 39 63
f 63 41 25
f 45 29 27
f 1 13 45
f 13 26 45
f 27 14 45
f 45 2 1
f 45 44 30
f 45 26 43
f 135 140 45
f 73 71 45
f 30 29 45
f 14 2 45
f 45 93 73
f 45 71 46
f 45 108 135
f 113 93 45
f 45 137 113
f 43 70 45
f 140 137 45
f 45 70 88
f 88 108 45
f 6 21 22
f 22 7 6
f 118 10 9
f 118 24 11
f 11 10 118
f 40 24 118
f 9 23 118
f 23 38 118
f 138 128 118
f 118 59 58
f 118 61 40
f 128 127 118
f 58 57 118
f 118 127 101
f 118 38 53
f 101 80 118
f 118 80 61
f 118 78 98
f 53 59 118
f 118 57 78
f 98 120 118
f 118 120 119
f 118 117 138