# https://github.com/mikedh/trimesh
v -0.16096327 -0.01297650 0.25383334
v -0.13832008 -0.01297650 0.25383334
v -0.15962032 -0.01568956 0.25383334
v -0.16670798 -0.02234625 0.26193394
v -0.16853585 -0.01442992 0.26033162
v -0.16883427 -0.01297650 0.26004234
v 0.12631036 -0.00782168 0.25385561
v -0.06613797 -0.02734604 0.25383334
v 0.14996074 -0.00782168 0.25385561
v -0.15805359 -0.01827666 0.25383334
v -0.15842661 -0.02915798 0.25926342
v -0.16435786 -0.02915798 0.26375881
v -0.16838663 -0.03667704 0.27201519
v -0.17047561 -0.02915798 0.26970074
v -0.17338531 -0.01795690 0.26709698
v -0.17457898 -0.01297650 0.26607326
v -0.16980418 -0.01297650 0.26099928
v 0.06408826 -0.00849026 0.35050650
v 0.13530049 -0.00781199 0.40983677
v 0.13537509 -0.00781199 0.40743330
v 0.13634498 -0.00781199 0.39786391
v 0.14264925 -0.00781199 0.35130766
v 0.14410410 -0.00781199 0.34084809
v 0.14514859 -0.00781199 0.33868941
v 0.14600656 -0.00781199 0.33750994
v -0.17991340 -0.01297650 0.27212645
v -0.18009990 -0.01297650 0.27277184
v -0.18174125 -0.01297650 0.27962622
v -0.06613797 -0.04806221 0.25383334
v 0.16238278 -0.00781199 0.33750994
v 0.15615309 -0.00782168 0.25881833
v 0.15447444 -0.01730771 0.26033162
v 0.14611848 -0.01665851 0.25385561
v -0.15025717 -0.02925488 0.25383334
v -0.15596459 -0.03577591 0.26106603
v -0.16044099 -0.04017495 0.26798716
v -0.15700910 -0.04827538 0.27185941
v -0.16405942 -0.04381821 0.27931463
v -0.16943114 -0.03789792 0.27931463
v -0.17562349 -0.02822779 0.27982648
v -0.17827205 -0.02148389 0.27626578
v -0.17983880 -0.01357725 0.27225999
v 0.05222578 -0.00869373 0.35050650
v -0.21102443 -0.01298619 0.48118442
v 0.13548700 -0.00781199 0.41043764
v -0.18058483 -0.01743367 0.27982648
v -0.07270337 -0.04863389 0.25383334
v 0.14582004 -0.01712361 0.25385561
v 0.14164206 -0.02315048 0.25385561
v 0.13556160 -0.02922581 0.25385561
v 0.12720564 -0.03447752 0.25385561
v 0.11948383 -0.03804326 0.25385561
v 0.11224697 -0.04020402 0.25385561
v 0.09967572 -0.04277174 0.25385561
v 0.08915616 -0.04417672 0.25385561
v 0.08781323 -0.04434144 0.25385561
v 0.07595074 -0.04561077 0.25385561
v 0.16518050 -0.00781199 0.37734533
v 0.16883627 -0.00782168 0.27933691
v 0.16674725 -0.00782168 0.27065768
v 0.16346456 -0.00782168 0.26636258
v 0.16219624 -0.00782168 0.26491604
v 0.15305690 -0.02330552 0.26151112
v 0.16085333 -0.01769529 0.26776460
v -0.14924998 -0.03031103 0.25383334
v -0.15148818 -0.04368255 0.26393683
v -0.14828009 -0.04024278 0.25948595
v -0.14249806 -0.05834278 0.27931463
v -0.14939919 -0.05460263 0.27931463
v -0.15812819 -0.04912806 0.27931463
v -0.14357986 -0.04702543 0.26144433
v -0.14828009 -0.04987415 0.26772009
v -0.13447783 -0.05965087 0.27194844
v -0.16805089 -0.05949583 0.43805537
v -0.17991340 -0.04794594 0.43743225
v -0.20830128 -0.01719143 0.48118442
v -0.17864509 -0.02442950 0.28343172
v -0.17864509 -0.02441981 0.28340945
v -0.17924192 -0.02364465 0.28416609
v -0.17950306 -0.02259818 0.28340945
v -0.19151476 -0.01298619 0.48118442
v 0.14984880 -0.00781199 0.41043764
v -0.08389440 -0.04936061 0.25383334
v 0.06408826 -0.04653127 0.25385561
v 0.14619308 -0.02801462 0.25959722
v 0.14167938 -0.03552399 0.26119953
v 0.13526319 -0.03733593 0.25959722
v 0.12231890 -0.04139583 0.25795042
v 0.11773057 -0.04703512 0.26144433
v 0.11146360 -0.04759711 0.26084350
v 0.09967572 -0.04847886 0.25988653
v 0.08781323 -0.04919588 0.25904086
v 0.07595074 -0.04992260 0.25830649
v 0.06408826 -0.05063962 0.25779465
v 0.16521784 -0.00781199 0.38083928
v 0.17006728 -0.00782168 0.31492170
v 0.16648615 -0.01583490 0.27933691
v 0.16585198 -0.01398421 0.27190393
v 0.15548162 -0.02801462 0.26807615
v 0.15380297 -0.03589219 0.27241577
v 0.14962500 -0.03121216 0.26451546
v -0.13753670 -0.04053346 0.25383334
v -0.14604189 -0.07196623 0.43754351
v -0.13660412 -0.06039696 0.27931463
v -0.13746210 -0.04059160 0.25383334
v -0.13753670 -0.04848855 0.26004234
v -0.13805896 -0.05500959 0.26778684
v -0.12567422 -0.05659867 0.26442643
v -0.12567422 -0.06051323 0.27034612
v -0.12567422 -0.06280964 0.27931463
v -0.01421161 -0.10659653 0.39043093
v -0.16805089 -0.05949583 0.44092619
v -0.17991340 -0.04794594 0.44174960
v -0.19740868 -0.03011724 0.48118442
v -0.19834129 -0.02915798 0.48118442
v 0.01682483 -0.04467088 0.48118442
v 0.11041910 -0.05998031 0.44450916
v 0.11041910 -0.08202395 0.44450916
v 0.14977420 -0.00873249 0.41043764
v -0.09008677 -0.04960284 0.25383334
v 0.05218847 -0.04712233 0.25385561
v 0.05218847 -0.05115316 0.25750530
v 0.14074678 -0.04664754 0.27439642
v 0.13612116 -0.04382790 0.26720825
v 0.12563890 -0.04558170 0.26309119
v 0.14619308 -0.03800450 0.26807615
v 0.12231890 -0.04965129 0.26720825
v 0.11146360 -0.05203491 0.26747529
v 0.09374447 -0.05878850 0.27339498
v 0.08781323 -0.05512586 0.26694121
v 0.06408826 -0.05653084 0.26509409
v 0.05218847 -0.05708314 0.26402586
v 0.04040059 -0.05744166 0.26329145
v 0.14876703 -0.01729802 0.41043764
v 0.16495670 -0.01147463 0.38021615
v 0.16719489 -0.01681355 0.31492170
v 0.16398683 -0.02177457 0.27933691
v 0.15458634 -0.03676424 0.27933691
v 0.14641690 -0.04335311 0.27875828
v 0.15962232 -0.02915798 0.27933691
v -0.14604189 -0.07196623 0.44277331
v -0.12567422 -0.04620182 0.25383334
v -0.12567422 -0.05066869 0.25788364
v -0.11381173 -0.05764513 0.26297990
v -0.11381173 -0.06120119 0.26889959
v -0.00149115 -0.10630585 0.37999361
v -0.00611677 -0.10663529 0.38631386
v -0.00708666 -0.10680001 0.39793066
v -0.01421161 -0.10658685 0.39793066
v -0.18670262 -0.03810140 0.48118442
v -0.19636421 -0.03094085 0.48118442
v 0.01682483 -0.05822651 0.48118442
v -0.06613797 -0.06164690 0.48118442
v -0.00708666 -0.09157780 0.43509553
v 0.00477583 -0.09509509 0.42908684
v -0.00708666 -0.09951350 0.42165386
v 0.00477583 -0.09885462 0.42165386
v -0.00708666 -0.10475553 0.41028187
v 0.00417897 -0.10432919 0.40872405
v -0.00022283 -0.10627678 0.40407288
v 0.00783471 -0.10580200 0.39793066
v 0.00738707 -0.10520124 0.38606906
v 0.12332609 -0.05434101 0.27933691
v 0.13612116 -0.04977725 0.27875828
v 0.14205239 -0.04756805 0.28231897
v 0.14238813 -0.04783935 0.29119849
v 0.14839399 -0.04285894 0.29119849
v 0.14887893 -0.04312056 0.31492170
v 0.15488478 -0.03720996 0.31492170
v 0.15499668 -0.02600889 0.38602454
v 0.14854319 -0.01818946 0.41043764
v -0.09527194 -0.04968036 0.25383334
v -0.00708666 -0.05826527 0.26208971
v 0.00485043 -0.05812961 0.26224549
v 0.02853810 -0.05769358 0.26286863
v 0.01663831 -0.05793582 0.26253480
v 0.13283846 -0.04864358 0.27099147
v 0.10169010 -0.05802303 0.27553141
v -0.00081969 -0.10630585 0.37999361
v 0.08781323 -0.05908887 0.27288313
v 0.05218847 -0.06061982 0.26994555
v 0.04040059 -0.06111398 0.26923338
v 0.02853810 -0.06139498 0.26878832
v 0.01682483 -0.06170504 0.26845449
v 0.16439716 -0.02274352 0.31492170
v 0.16025646 -0.02916767 0.31492170
v -0.13824548 -0.07346810 0.44617823
v -0.14264727 -0.07026088 0.45065136
v -0.18558351 -0.03872152 0.48118442
v -0.01339094 -0.10634461 0.40429542
v -0.11381173 -0.04876954 0.25383334
v -0.11381173 -0.05172485 0.25674869
v -0.10194924 -0.05807147 0.26224549
v -0.10194924 -0.06165659 0.26818742
v -0.09008677 -0.06188914 0.26794262
v -0.06636179 -0.06228641 0.26814294
v -0.05446200 -0.06238331 0.26809843
v -0.04263682 -0.06241237 0.26809843
v -0.01891184 -0.06236393 0.26796489
v 0.00141852 -0.10647057 0.38606906
v 0.00190347 -0.10644150 0.39793066
v -0.00708666 -0.10634461 0.40433994
v -0.07803776 -0.06179225 0.48118442
v -0.00708666 -0.09507571 0.42917585
v -0.08990025 -0.06131746 0.48118442
v -0.11384904 -0.07362314 0.45496872
v -0.12571153 -0.07292549 0.45365571
v -0.12571153 -0.07629744 0.44535481
v 0.10795708 -0.05911794 0.28343172
v 0.11172472 -0.05706376 0.27942590
v -0.09008677 -0.05826527 0.26200069
v -0.10194924 -0.04962222 0.25383334
v -0.01891184 -0.05833309 0.26202296
v -0.00708666 -0.06227672 0.26800940
v 0.00485043 -0.06201511 0.26818742
v -0.13477625 -0.07174337 0.45234270
v -0.16014257 -0.04813004 0.48118442
v -0.17249000 -0.04381821 0.48118442
v -0.17282573 -0.04369224 0.48118442
v -0.10198655 -0.06020317 0.48118442
v -0.11049173 -0.05920515 0.48118442
v -0.13757401 -0.05365306 0.48118442
v -0.14936189 -0.05120162 0.48118442
f 118 82 117
f 117 82 116
f 7 28 18
f 18 19 7
f 45 18 44
f 19 18 45
f 81 116 82
f 95 135 96
f 118 135 171
f 43 28 44
f 44 18 43
f 43 18 28
f 6 7 1
f 27 28 7
f 7 26 27
f 103 111 141
f 118 152 153
f 203 154 153
f 153 154 118
f 58 95 96
f 118 171 134
f 135 95 134
f 134 171 135
f 118 156 157
f 161 162 118
f 155 156 118
f 118 154 155
f 141 111 149
f 149 190 141
f 149 111 148
f 148 190 149
f 202 190 148
f 207 206 221
f 190 202 158
f 156 206 158
f 158 206 207
f 158 208 190
f 207 208 158
f 158 157 156
f 158 159 118
f 118 157 158
f 16 26 7
f 148 111 147
f 59 60 30
f 30 58 59
f 59 58 96
f 8 2 9
f 165 138 167
f 8 9 29
f 7 19 20
f 20 21 7
f 22 23 7
f 7 21 22
f 24 25 7
f 7 23 24
f 82 118 119
f 118 134 119
f 119 95 82
f 119 134 95
f 200 179 162
f 162 161 200
f 148 147 200
f 200 147 179
f 156 155 204
f 204 155 154
f 203 156 204
f 204 154 203
f 148 200 201
f 201 200 161
f 205 156 203
f 205 206 156
f 187 188 141
f 141 190 187
f 190 208 187
f 159 158 160
f 160 158 202
f 118 159 160
f 160 161 118
f 160 201 161
f 160 202 148
f 148 201 160
f 7 6 17
f 17 16 7
f 69 103 74
f 68 103 69
f 70 69 74
f 38 74 75
f 38 70 74
f 31 9 30
f 100 63 99
f 63 64 99
f 164 165 118
f 100 138 139
f 139 138 165
f 140 138 100
f 100 137 140
f 60 59 98
f 98 137 100
f 100 99 98
f 98 99 64
f 170 135 118
f 118 169 170
f 168 169 118
f 138 169 168
f 118 167 168
f 168 167 138
f 135 170 185
f 185 140 137
f 118 165 166
f 166 167 118
f 165 167 166
f 63 85 49
f 101 63 100
f 68 73 104
f 104 73 111
f 104 103 68
f 111 103 104
f 111 73 110
f 220 221 206
f 206 205 220
f 207 221 222
f 222 223 207
f 218 188 217
f 207 223 216
f 188 187 216
f 223 217 216
f 216 217 188
f 216 208 207
f 216 187 208
f 13 41 42
f 42 14 13
f 42 27 26
f 26 16 42
f 28 27 42
f 15 42 16
f 14 42 15
f 37 38 13
f 70 38 37
f 69 70 37
f 37 73 68
f 68 69 37
f 13 14 4
f 14 15 4
f 16 17 4
f 4 15 16
f 113 114 75
f 112 114 113
f 150 112 141
f 182 181 179
f 9 31 32
f 32 64 63
f 165 164 123
f 123 164 177
f 123 139 165
f 100 139 123
f 177 124 123
f 163 127 177
f 177 164 163
f 163 179 209
f 162 179 163
f 118 162 163
f 163 164 118
f 210 163 209
f 97 98 59
f 137 98 97
f 97 59 96
f 96 135 136
f 135 185 136
f 136 97 96
f 136 185 137
f 137 97 136
f 186 170 169
f 186 185 170
f 140 185 186
f 186 169 138
f 138 140 186
f 89 88 125
f 125 124 177
f 125 127 89
f 177 127 125
f 86 49 85
f 124 125 86
f 86 85 63
f 63 101 86
f 86 101 100
f 86 123 124
f 51 29 50
f 29 49 50
f 50 86 51
f 49 86 50
f 33 29 9
f 33 32 63
f 9 32 33
f 52 29 51
f 52 88 89
f 105 142 106
f 71 105 106
f 211 172 213
f 213 199 211
f 28 42 46
f 46 42 41
f 41 80 46
f 44 28 46
f 46 80 44
f 40 41 13
f 71 37 66
f 66 67 71
f 35 67 66
f 13 35 36
f 36 37 13
f 35 66 36
f 36 66 37
f 72 37 71
f 73 37 72
f 35 34 65
f 65 67 35
f 5 6 1
f 1 4 5
f 5 17 6
f 5 4 17
f 12 35 13
f 13 4 12
f 75 114 115
f 115 76 75
f 39 38 75
f 75 76 39
f 13 38 39
f 39 40 13
f 39 76 44
f 151 114 112
f 112 150 151
f 141 188 189
f 189 150 141
f 179 215 184
f 64 32 62
f 62 32 31
f 62 31 30
f 179 181 180
f 180 129 179
f 89 127 128
f 128 129 89
f 127 129 128
f 127 163 178
f 178 129 127
f 163 210 178
f 178 210 209
f 209 179 178
f 179 129 178
f 51 86 87
f 87 86 125
f 87 125 88
f 87 52 51
f 88 52 87
f 100 123 126
f 126 86 100
f 123 86 126
f 48 49 29
f 29 33 48
f 63 49 48
f 48 33 63
f 120 83 121
f 56 57 29
f 29 57 47
f 89 129 90
f 90 54 89
f 53 54 29
f 29 52 53
f 89 54 53
f 53 52 89
f 71 106 107
f 107 72 71
f 73 72 107
f 107 108 73
f 106 108 107
f 143 142 191
f 143 106 142
f 143 108 106
f 172 211 212
f 108 143 144
f 73 108 109
f 109 110 73
f 108 144 109
f 109 144 145
f 145 144 194
f 41 40 78
f 67 65 102
f 102 105 71
f 71 67 102
f 3 4 1
f 3 10 4
f 11 10 34
f 11 34 35
f 4 10 11
f 35 12 11
f 11 12 4
f 219 188 218
f 219 189 188
f 183 182 179
f 179 184 183
f 174 176 215
f 122 174 121
f 176 174 122
f 61 98 64
f 64 62 61
f 60 98 61
f 30 60 61
f 61 62 30
f 29 54 55
f 55 56 29
f 83 47 84
f 84 47 57
f 121 83 84
f 84 122 121
f 192 143 191
f 192 144 143
f 191 212 192
f 195 211 196
f 211 197 196
f 198 211 199
f 198 197 211
f 146 109 145
f 145 194 146
f 110 109 146
f 146 194 195
f 111 110 146
f 195 196 146
f 146 147 111
f 179 147 146
f 146 196 197
f 197 198 146
f 146 199 179
f 146 198 199
f 44 80 79
f 79 80 41
f 41 78 79
f 40 39 77
f 77 78 40
f 77 79 78
f 77 39 44
f 44 79 77
f 133 183 184
f 182 183 133
f 121 174 173
f 173 120 121
f 173 199 213
f 172 120 173
f 213 172 173
f 193 212 211
f 193 192 212
f 144 192 193
f 193 194 144
f 193 211 195
f 195 194 193
f 176 122 175
f 122 133 175
f 175 133 184
f 175 184 215
f 215 176 175
f 130 90 129
f 94 133 122
f 94 84 57
f 122 84 94
f 199 173 214
f 214 173 174
f 214 174 215
f 214 215 179
f 179 199 214
f 57 56 93
f 93 94 57
f 56 55 92
f 92 93 56
f 129 180 131
f 131 130 129
f 133 94 132
f 94 93 132
f 93 92 132
f 181 182 132
f 182 133 132
f 132 180 181
f 132 131 180
f 91 55 54
f 91 92 55
f 54 90 91
f 90 130 91
f 130 131 91
f 91 132 92
f 131 132 91
f 152 118 117
f 117 116 152
f 82 45 81
f 81 45 44
f 74 103 112
f 112 103 141
f 9 25 30
f 7 25 9
f 9 2 1
f 1 7 9
f 24 45 82
f 82 95 24
f 19 45 24
f 24 58 30
f 30 25 24
f 24 20 19
f 23 22 24
f 95 58 24
f 21 20 24
f 24 22 21
f 74 112 113
f 75 74 113
f 1 2 3
f 8 29 3
f 3 2 8
f 191 142 3
f 29 47 3
f 3 212 191
f 3 142 105
f 3 120 172
f 105 102 3
f 3 65 34
f 34 10 3
f 83 120 3
f 3 47 83
f 172 212 3
f 3 102 65
f 219 222 221
f 219 81 44
f 203 153 219
f 219 152 116
f 116 81 219
f 219 153 152
f 219 205 203
f 218 217 219
f 221 220 219
f 44 76 219
f 219 220 205
f 223 222 219
f 219 217 223
f 114 151 219
f 219 115 114
f 76 115 219
f 219 151 150
f 150 189 219