# https://github.com/mikedh/trimesh
v 0.00756368 0.54912191 1.16904522
v 0.00756368 0.54895758 1.16625528
v 0.00477220 0.54907626 1.16904522
v 0.00477220 0.54750598 1.17708827
v 0.00756368 0.54791681 1.17519508
v 0.15692646 0.53093588 1.16105402
v 0.16105783 0.53093588 1.15763032
v 0.16645468 0.53093588 1.15289140
v 0.16671525 0.53093588 1.15250479
v 0.00756368 0.54874760 1.16341351
v -0.13290358 0.54640130 1.16341351
v -0.00710089 0.54729601 1.17679333
v 0.00477220 0.54265820 1.18301892
v 0.00756368 0.54380853 1.18159603
v 0.00756368 0.54750598 1.17706037
v -0.00710089 0.54275861 1.18272398
v 0.15554932 0.52595113 1.16470487
v 0.15930851 0.52931083 1.16010143
v 0.14966860 0.53093588 1.16537843
v 0.16716187 0.52842525 1.15367258
v 0.16824124 0.52842525 1.15250479
v 0.14047532 0.53093588 1.15250479
v -0.13305245 0.54638305 1.16341351
v -0.13286635 0.54639218 1.16343744
v -0.05451883 0.53537283 1.18783760
v -0.13710940 0.54307816 1.16805279
v -0.13751882 0.53689747 1.17723177
v -0.01893676 0.53669661 1.18881405
v -0.00710089 0.53684270 1.18869052
v 0.00477220 0.53672402 1.18847527
v 0.00756368 0.53804780 1.18716004
v 0.00756368 0.54257604 1.18298703
v 0.11419820 0.53093588 1.17708431
v 0.12115829 0.53093588 1.17563352
v 0.12748565 0.53093588 1.17369650
v 0.14732374 0.53093588 1.16641869
v -0.04264573 0.53582019 1.18824808
v -0.03077264 0.53627666 1.18860680
v 0.15930851 0.51552523 1.16553785
v 0.16343991 0.51879361 1.16195876
v 0.14806815 0.52931083 1.16682521
v 0.14713766 0.51655687 1.17085472
v 0.17345201 0.51621909 1.15250479
v 0.16094618 0.48576294 1.15250479
v -0.15851076 0.45585460 1.15987823
v -0.19111521 0.52303882 1.16341351
v -0.17399417 0.53484331 1.16341351
v -0.17053271 0.53656880 1.16341351
v -0.16104168 0.53983718 1.16341351
v -0.15538430 0.54146223 1.16341351
v -0.14954080 0.54302339 1.16341351
v -0.13997532 0.54497710 1.16341351
v -0.06371210 0.53484331 1.18731547
v -0.05451883 0.52841613 1.19079092
v -0.04264573 0.52841613 1.19140073
v -0.14987576 0.53909768 1.16981845
v -0.14622824 0.53595712 1.17619946
v -0.13751882 0.52841613 1.18082680
v -0.07822780 0.52717451 1.18891368
v -0.07160268 0.53415861 1.18666577
v -0.03077264 0.52841613 1.19182323
v -0.01893676 0.52841613 1.19200256
v -0.00710089 0.52841613 1.19176744
v 0.00756368 0.53665097 1.18840753
v 0.10321838 0.53093588 1.17890176
v 0.13035156 0.52338577 1.17519112
v 0.09968251 0.52842525 1.18008150
v 0.11155560 0.52842525 1.17810859
v 0.13466905 0.52777707 1.17232145
v 0.14635605 0.50527275 1.17294717
v 0.15901074 0.50469759 1.16733539
v 0.16500312 0.51088743 1.16318235
v 0.16883676 0.51552523 1.15767416
v 0.13872600 0.51655687 1.17380013
v 0.14084753 0.50960017 1.17458131
v 0.17568518 0.50929887 1.15250479
v 0.18108206 0.48576294 1.15250479
v -0.10815245 0.45585460 1.15987823
v -0.16602912 0.45585460 1.16184715
v -0.19915468 0.49749438 1.16341351
v -0.19327399 0.51656600 1.16341351
v -0.19137575 0.52257323 1.16341351
v -0.16870897 0.51327938 1.17563352
v -0.16197217 0.51696771 1.17753067
v -0.15851076 0.52539425 1.17640672
v -0.15415604 0.53330955 1.17428238
v -0.16997441 0.53615797 1.16444578
v -0.16126499 0.53802040 1.16656217
v -0.06713631 0.52948429 1.18921265
v -0.06639192 0.51656600 1.19219390
v -0.05451883 0.51656600 1.19281566
v -0.14987576 0.52898217 1.17801692
v -0.14939191 0.51656600 1.18127320
v -0.09010088 0.52498342 1.18798899
v -0.07822780 0.51656600 1.19108989
v -0.04264573 0.51656600 1.19311060
v -0.01893676 0.51656600 1.19316639
v -0.00710089 0.51656600 1.19294316
v -0.03077264 0.51656600 1.19322218
v 0.00477220 0.51656600 1.19250475
v 0.00477220 0.52841613 1.19131701
v 0.00853139 0.53093588 1.19033257
v 0.02070224 0.53093588 1.18968295
v 0.03305919 0.53093588 1.18880606
v 0.04303408 0.53093588 1.18791729
v 0.04902646 0.53093588 1.18711217
v 0.13280807 0.51655687 1.17573715
v 0.09968251 0.51655687 1.18136887
v 0.11155560 0.51655687 1.17949559
v 0.05129686 0.52746665 1.18732339
v 0.05844305 0.52287449 1.18688901
v 0.14598385 0.48576294 1.17472478
v 0.14870088 0.49284746 1.17293922
v 0.14188967 0.50170311 1.17520703
v 0.15901074 0.49284746 1.16829194
v 0.16671525 0.49284746 1.16438999
v 0.16563585 0.50469759 1.16364070
v 0.17267041 0.49284746 1.15950360
v 0.17899775 0.49284746 1.15356896
v 0.17773226 0.50260694 1.15250479
v 0.13623228 0.50527275 1.17627519
v 0.18000269 0.49284746 1.15250479
v 0.17963047 0.48576294 1.15403926
v 0.00756368 0.46062021 1.15987823
v -0.10979012 0.45585460 1.16130112
v -0.17310087 0.45585460 1.16406316
v -0.17310087 0.45585460 1.16412295
v -0.17310087 0.45586372 1.17864267
v -0.17310087 0.45726055 1.17902929
v -0.17310087 0.46911980 1.17963111
v -0.19599099 0.49749438 1.16554983
v -0.19238069 0.51656600 1.16411100
v -0.17049548 0.50470674 1.17633098
v -0.16126499 0.50470674 1.17965901
v -0.06639192 0.50470674 1.19215006
v -0.07822780 0.50470674 1.19108989
v -0.05451883 0.50470674 1.19268810
v -0.12047218 0.49984069 1.18695279
v -0.12050940 0.49748526 1.18695279
v -0.04264573 0.50470674 1.19287542
v -0.01893676 0.50470674 1.19285548
v -0.00710089 0.50470674 1.19264030
v -0.03077264 0.50470674 1.19293524
v 0.00477220 0.50470674 1.19231743
v 0.00760090 0.50469759 1.19220182
v 0.01664530 0.50469759 1.19181524
v 0.00760090 0.51655687 1.19235732
v 0.00760090 0.52842525 1.19116958
v 0.01664530 0.52842525 1.19067538
v 0.02851839 0.52842525 1.18980252
v 0.04039148 0.52842525 1.18864265
v 0.12339147 0.50469759 1.17861478
v 0.11155560 0.50469759 1.18039239
v 0.05222735 0.51655687 1.18822814
v 0.04039148 0.51655687 1.18993404
v 0.15365112 0.48576294 1.17124530
v 0.14360178 0.48576294 1.17574910
v 0.00756368 0.46227266 1.16557773
v 0.13526456 0.49284746 1.17728357
v 0.15901074 0.48576294 1.16878218
v 0.16716187 0.48576294 1.16470886
v 0.17307982 0.48576294 1.15997390
v 0.17795561 0.50165747 1.15250479
v -0.15110401 0.45585460 1.17663791
v -0.14339953 0.45585460 1.17462515
v -0.13591837 0.45585460 1.17225367
v -0.11719685 0.45585460 1.16560562
v -0.16312600 0.45585460 1.17840752
v -0.00710089 0.47582088 1.18635889
v -0.01893676 0.47565655 1.18642666
v -0.01893676 0.48158161 1.18894953
v -0.03077264 0.48170942 1.18900935
v -0.04264573 0.48191028 1.18901331
v -0.05451883 0.48203809 1.18890972
v -0.06639192 0.48222982 1.18864668
v -0.05451883 0.49284746 1.19173555
v -0.06639192 0.49284746 1.19121342
v -0.07822780 0.49284746 1.19031666
v -0.12050940 0.49651754 1.18695279
v -0.17310087 0.48098821 1.17849920
v -0.18445291 0.49749438 1.17101414
v -0.19416725 0.50470674 1.16527084
v -0.17310087 0.49466424 1.17665781
v -0.07361255 0.49748526 1.19103410
v -0.05451883 0.49748526 1.19211018
v -0.04264573 0.49284746 1.19193086
v -0.04264573 0.49749438 1.19230152
v -0.03803049 0.49748526 1.19232542
v -0.01893676 0.49284746 1.19182719
v -0.00710089 0.49748526 1.19202250
v -0.03077264 0.49749438 1.19233341
v -0.03077264 0.49284746 1.19193878
v 0.00477220 0.49284746 1.19137287
v 0.00477220 0.49748526 1.19174347
v 0.01664530 0.49284746 1.19100221
v 0.02851839 0.49284746 1.19051197
v 0.02851839 0.50469759 1.19118952
v 0.01664530 0.51655687 1.19187103
v 0.02851839 0.51655687 1.19106592
v 0.12339147 0.49284746 1.17924849
v 0.13526456 0.48576294 1.17767018
v 0.09968251 0.50469759 1.18207832
v 0.04039148 0.50469759 1.19027282
v 0.05222735 0.50469759 1.18873033
v 0.00756368 0.46483806 1.17150838
v 0.00756368 0.46285695 1.16697668
v -0.15207173 0.45585460 1.17682122
v -0.16126499 0.45585460 1.17820822
v 0.00756368 0.47076313 1.18018513
v 0.00756368 0.47623171 1.18611974
v 0.00477220 0.47611303 1.18617953
v 0.00477220 0.48204721 1.18871442
v -0.00710089 0.48174595 1.18884198
v -0.00710089 0.49284746 1.19161994
v 0.00756368 0.48215678 1.18868253
v 0.01664530 0.48576294 1.18933618
v 0.00760090 0.49284746 1.19128512
v 0.02851839 0.48576294 1.18891771
v 0.04039148 0.48576294 1.18837960
v 0.04039148 0.49284746 1.18979453
v 0.12339147 0.48576294 1.17922855
v 0.00756368 0.46622573 1.17360083
v 0.05222735 0.49284746 1.18857094
v 0.00756368 0.47762854 1.18674151
v 0.05937354 0.48576294 1.18692882
v 0.05684260 0.48576294 1.18722779
v 0.05222735 0.48576294 1.18759046
v 0.05985740 0.48620117 1.18705638
f 44 45 22
f 22 45 46
f 80 45 79
f 79 126 80
f 127 128 80
f 80 126 127
f 77 124 78
f 22 23 11
f 11 10 22
f 85 46 84
f 1 8 9
f 22 10 9
f 84 46 83
f 86 85 57
f 46 85 86
f 57 87 86
f 1 9 2
f 2 9 10
f 10 11 2
f 162 161 124
f 53 54 25
f 25 54 55
f 130 131 80
f 1 2 3
f 3 2 11
f 12 3 11
f 18 20 8
f 6 5 15
f 15 19 6
f 1 5 6
f 6 19 17
f 17 18 6
f 81 45 80
f 84 83 133
f 128 173 174
f 174 173 186
f 223 221 203
f 124 161 158
f 161 160 158
f 52 23 22
f 22 51 52
f 47 87 48
f 22 46 47
f 47 48 22
f 46 86 47
f 47 86 87
f 48 87 88
f 88 56 51
f 88 87 57
f 57 56 88
f 93 130 138
f 27 58 59
f 57 58 27
f 53 25 27
f 25 12 27
f 65 67 33
f 33 67 68
f 100 63 98
f 63 62 98
f 101 63 100
f 123 124 77
f 123 162 124
f 40 18 17
f 20 18 40
f 20 40 43
f 21 9 8
f 8 20 21
f 20 43 21
f 89 53 59
f 59 54 89
f 89 54 53
f 90 54 59
f 80 128 129
f 129 130 80
f 128 174 129
f 55 38 37
f 37 25 55
f 34 15 33
f 34 35 15
f 36 19 15
f 15 35 36
f 7 8 1
f 1 6 7
f 7 18 8
f 7 6 18
f 180 133 183
f 131 130 180
f 183 133 181
f 181 180 183
f 131 180 181
f 132 133 83
f 80 131 132
f 132 81 80
f 125 78 124
f 124 167 125
f 124 165 166
f 166 167 124
f 176 174 186
f 177 129 176
f 128 169 170
f 170 171 128
f 169 171 170
f 172 173 128
f 128 171 172
f 186 173 172
f 228 221 223
f 228 225 221
f 226 225 228
f 197 146 196
f 153 200 152
f 155 203 204
f 204 200 155
f 204 203 221
f 157 205 206
f 206 158 157
f 157 158 112
f 201 205 157
f 157 159 201
f 201 204 221
f 200 204 201
f 152 200 201
f 201 159 152
f 221 225 210
f 210 201 221
f 209 201 210
f 210 225 226
f 226 227 210
f 48 88 49
f 22 48 49
f 92 93 58
f 57 85 92
f 92 58 57
f 92 85 84
f 84 93 92
f 95 90 59
f 95 93 138
f 59 53 60
f 60 27 59
f 53 27 60
f 26 27 12
f 57 27 26
f 26 56 57
f 23 52 26
f 26 52 51
f 51 56 26
f 64 65 31
f 151 150 155
f 105 150 151
f 110 111 67
f 105 151 110
f 155 111 110
f 110 151 155
f 67 111 108
f 108 153 152
f 28 13 16
f 16 38 28
f 16 37 38
f 16 12 25
f 25 37 16
f 33 15 14
f 61 62 28
f 28 38 61
f 61 38 55
f 97 62 99
f 97 98 62
f 99 143 97
f 97 142 98
f 155 150 199
f 199 203 155
f 149 198 199
f 199 150 149
f 199 197 203
f 198 197 199
f 148 101 100
f 148 198 149
f 149 103 148
f 162 123 118
f 115 160 161
f 115 71 113
f 113 112 115
f 114 159 157
f 157 112 114
f 75 114 70
f 113 71 70
f 70 112 113
f 70 114 112
f 55 54 91
f 54 90 91
f 91 61 55
f 90 135 91
f 130 93 134
f 134 180 130
f 134 93 84
f 84 133 134
f 133 180 134
f 82 83 46
f 82 132 83
f 81 132 82
f 82 46 45
f 45 81 82
f 182 181 133
f 133 132 182
f 131 181 182
f 182 132 131
f 186 191 188
f 188 191 143
f 188 187 186
f 175 129 174
f 174 176 175
f 175 176 129
f 213 171 169
f 195 218 196
f 220 197 196
f 203 197 220
f 223 203 220
f 220 228 223
f 220 227 226
f 226 228 220
f 155 200 202
f 202 153 155
f 200 153 202
f 158 206 207
f 207 206 205
f 156 158 160
f 156 112 158
f 160 115 156
f 156 115 112
f 205 201 222
f 222 201 209
f 219 210 227
f 219 218 215
f 196 218 219
f 219 220 196
f 227 220 219
f 50 88 51
f 50 49 88
f 50 51 22
f 22 49 50
f 58 93 94
f 93 95 94
f 59 58 94
f 94 95 59
f 24 12 11
f 24 26 12
f 24 11 23
f 23 26 24
f 144 142 194
f 194 195 144
f 98 142 144
f 100 98 144
f 190 142 141
f 143 191 141
f 141 97 143
f 142 97 141
f 105 64 104
f 104 64 103
f 104 150 105
f 149 150 104
f 104 103 149
f 29 62 63
f 28 62 29
f 29 13 28
f 103 64 102
f 101 148 102
f 102 148 103
f 63 101 102
f 102 64 63
f 105 110 106
f 106 110 67
f 67 65 106
f 106 64 105
f 65 64 106
f 109 68 67
f 67 108 109
f 109 108 152
f 152 107 109
f 109 107 68
f 155 153 154
f 153 108 154
f 154 111 155
f 154 108 111
f 152 159 121
f 121 107 152
f 159 114 121
f 75 107 121
f 121 114 75
f 68 107 66
f 33 68 66
f 66 34 33
f 35 34 66
f 66 107 75
f 4 16 13
f 4 14 15
f 13 14 4
f 12 16 4
f 15 5 4
f 3 12 4
f 4 5 1
f 1 3 4
f 32 13 31
f 32 14 13
f 31 65 32
f 32 65 33
f 33 14 32
f 147 148 100
f 198 148 147
f 147 197 198
f 100 146 147
f 146 197 147
f 116 115 161
f 71 115 116
f 161 162 116
f 162 118 116
f 71 72 39
f 39 70 71
f 39 40 17
f 39 72 40
f 73 43 40
f 40 72 73
f 130 129 179
f 137 91 135
f 186 187 137
f 137 135 177
f 212 213 169
f 169 211 212
f 212 211 215
f 215 218 216
f 218 195 216
f 164 165 124
f 124 158 164
f 158 207 164
f 128 127 168
f 209 210 168
f 210 211 168
f 168 169 128
f 168 211 169
f 224 219 215
f 210 219 224
f 215 211 224
f 224 211 210
f 145 195 196
f 145 144 195
f 196 146 145
f 145 146 100
f 100 144 145
f 63 64 30
f 30 29 63
f 30 64 31
f 31 13 30
f 13 29 30
f 35 66 69
f 74 66 75
f 117 72 71
f 71 116 117
f 118 72 117
f 117 116 118
f 119 118 123
f 119 123 77
f 119 72 118
f 43 73 76
f 76 73 72
f 178 129 177
f 178 179 129
f 139 95 138
f 138 130 139
f 130 179 139
f 136 179 135
f 90 95 136
f 136 135 90
f 140 137 187
f 140 188 143
f 187 188 140
f 140 143 99
f 91 137 96
f 61 91 96
f 96 140 99
f 137 140 96
f 99 62 96
f 62 61 96
f 185 176 186
f 186 137 185
f 177 176 185
f 185 137 177
f 213 212 189
f 171 213 189
f 190 141 189
f 208 222 209
f 209 168 208
f 205 222 208
f 208 207 205
f 41 36 35
f 35 69 41
f 17 19 41
f 19 36 41
f 122 119 77
f 163 119 122
f 120 76 72
f 72 119 120
f 120 119 163
f 135 179 184
f 179 178 184
f 177 135 184
f 184 178 177
f 193 212 215
f 215 216 193
f 193 142 190
f 194 142 193
f 171 189 192
f 186 172 192
f 192 172 171
f 192 191 186
f 192 141 191
f 192 189 141
f 66 74 42
f 42 69 66
f 42 41 69
f 17 41 42
f 42 74 75
f 42 39 17
f 75 70 42
f 70 39 42
f 214 189 212
f 212 193 214
f 190 189 214
f 214 193 190
f 217 216 195
f 217 193 216
f 217 195 194
f 194 193 217
f 78 44 77
f 45 44 78
f 136 139 179
f 95 139 136
f 126 79 208
f 208 79 45
f 208 127 126
f 45 78 208
f 208 166 165
f 78 125 208
f 208 125 167
f 167 166 208
f 165 164 208
f 208 164 207
f 208 168 127
f 77 44 120
f 120 44 22
f 22 9 120
f 9 21 120
f 120 21 43
f 43 76 120
f 120 122 77
f 163 122 120