# https://github.com/mikedh/trimesh
v 0.00893399 -0.54575183 0.10664693
v 0.00893399 -0.54320209 0.10664693
v 0.01288064 -0.54575183 0.10664693
v -0.00705327 -0.54780111 0.12507397
v -0.13635610 -0.55550075 0.19718528
v -0.13635610 -0.55263935 0.18437150
v -0.12568678 -0.55051140 0.17250620
v -0.13635610 -0.54926798 0.17250620
v -0.13635610 -0.54580851 0.16602188
v -0.13635610 -0.54458400 0.16602188
v -0.01631786 -0.54290302 0.11793154
v -0.00705327 -0.54154632 0.11650887
v -0.00507995 -0.54141409 0.11592819
v 0.00492045 -0.54075620 0.11302479
v 0.02853344 -0.53436292 0.12177374
v 0.01288064 -0.54320209 0.10664693
v 0.12074449 -0.53927356 0.13055175
v 0.11890495 -0.54535521 0.13076466
v 0.01679384 -0.54625551 0.11311187
v -0.13635610 -0.55599495 0.20455996
v -0.13635610 -0.54225457 0.17172226
v -0.12568678 -0.54308874 0.16462824
v -0.00705327 -0.53761464 0.12507397
v 0.02853344 -0.53314152 0.12770641
v 0.04037337 -0.53306915 0.12805480
v 0.11154680 -0.53304080 0.13039690
v 0.12041002 -0.53312264 0.13065821
v 0.02070704 -0.53323281 0.12919682
v 0.19262027 -0.53270085 0.15409850
v 0.19262027 -0.53483194 0.15409850
v 0.20532980 -0.53708579 0.15941177
v 0.20532980 -0.53711729 0.15949889
v 0.20532980 -0.54050750 0.17251589
v 0.20532980 -0.54248752 0.20551810
v 0.16924141 -0.54533948 0.20551810
v 0.12338673 -0.54759018 0.19623683
v 0.11154680 -0.54798369 0.19623683
v -0.00507995 -0.55040753 0.20551810
v -0.13635610 -0.53947816 0.20455996
v 0.11154680 -0.54773185 0.20551810
v -0.13635610 -0.54197126 0.17250620
v -0.12568678 -0.54027773 0.17250620
v -0.11381340 -0.53866601 0.17250620
v 0.06408670 -0.52383965 0.20551810
v 0.07596008 -0.52395925 0.20551810
v 0.18272019 -0.53065790 0.16064087
v 0.20526291 -0.53133153 0.15946017
v 0.20532980 -0.53136929 0.15941177
v 0.20532980 -0.52663808 0.20551810
v 0.13268476 -0.54694487 0.20551810
v 0.12338673 -0.54729744 0.20551810
v -0.00507995 -0.53348780 0.20551810
v -0.13635610 -0.54113708 0.18318111
v 0.01053941 -0.53106081 0.20551810
v 0.02050636 -0.52951835 0.20551810
v 0.03933655 -0.52678919 0.20551810
v 0.20532980 -0.52983316 0.17251589
v 0.20532980 -0.53129373 0.15981825
f 34 18 33
f 35 18 34
f 36 18 35
f 35 50 36
f 8 9 1
f 49 57 45
f 45 26 44
f 27 26 45
f 32 18 31
f 32 33 18
f 18 3 17
f 27 17 16
f 16 17 3
f 4 20 5
f 18 20 4
f 5 1 4
f 1 3 4
f 37 18 36
f 37 20 18
f 38 20 40
f 40 37 36
f 20 37 40
f 44 39 56
f 6 1 5
f 44 28 43
f 43 39 44
f 42 39 43
f 47 48 27
f 27 45 46
f 46 45 57
f 46 47 27
f 57 47 46
f 31 18 30
f 18 17 30
f 15 26 27
f 27 16 15
f 19 3 18
f 18 4 19
f 19 4 3
f 36 50 51
f 51 40 36
f 55 56 39
f 7 6 8
f 7 8 1
f 1 6 7
f 53 39 42
f 42 41 53
f 58 47 57
f 48 47 58
f 27 48 29
f 29 17 27
f 29 30 17
f 26 15 25
f 44 26 25
f 10 11 2
f 2 15 16
f 23 41 42
f 42 43 23
f 23 43 28
f 28 15 23
f 39 52 54
f 54 55 39
f 24 15 28
f 24 25 15
f 24 28 44
f 44 25 24
f 10 22 13
f 13 22 23
f 21 22 10
f 41 23 21
f 23 22 21
f 12 11 10
f 10 13 12
f 12 2 11
f 12 13 2
f 2 13 14
f 14 13 23
f 15 2 14
f 14 23 15
f 39 20 52
f 52 20 38
f 58 49 34
f 31 48 58
f 58 57 49
f 34 33 58
f 58 32 31
f 33 32 58
f 29 48 31
f 31 30 29
f 9 10 2
f 1 9 2
f 2 3 1
f 2 16 3
f 38 40 54
f 54 35 34
f 34 49 54
f 54 45 44
f 50 35 54
f 54 52 38
f 49 45 54
f 44 56 54
f 54 51 50
f 40 51 54
f 56 55 54
f 21 6 5
f 5 20 21
f 21 20 39
f 9 8 21
f 21 10 9
f 8 6 21
f 39 53 21
f 21 53 41