# https://github.com/mikedh/trimesh
v 0.11777251 0.41359860 0.25382506
v 0.11777251 0.43827007 0.25382506
v 0.11777251 0.41561153 0.24996887
v 0.15539906 0.03480316 0.24494445
v 0.15596228 0.03480316 0.25383044
v 0.14952871 0.31150600 0.25383044
v 0.14950706 0.32673217 0.25383044
v 0.14976699 0.33855178 0.25383044
v 0.15100171 0.37984300 0.25383044
v 0.12268974 0.43919915 0.25382506
v 0.13534023 0.45721246 0.25305707
v 0.12726038 0.46908366 0.25122901
v 0.11777251 0.46531582 0.24467946
v 0.11777251 0.41571477 0.24980121
v 0.15557236 0.03480316 0.24369512
v 0.11777251 0.42428270 0.24216455
v 0.17212197 0.03480316 0.25383044
v 0.16978249 0.37984300 0.25383044
v 0.13031470 0.44033463 0.25382506
v 0.14396163 0.43026992 0.25382506
v 0.15555070 0.41814062 0.25382506
v 0.15568067 0.46639975 0.25066113
v 0.14718925 0.46799977 0.25118573
v 0.13508029 0.46980626 0.25153731
v 0.12916662 0.47517412 0.24983908
v 0.11777251 0.51362660 0.22712379
v 0.15866999 0.03480316 0.23165602
v 0.11777251 0.43445065 0.23797304
v 0.11777251 0.43919915 0.23605305
v 0.31738603 0.03480316 0.22558780
v 0.28426513 0.12936008 0.23804336
v 0.17391991 0.04202913 0.25383044
v 0.22651476 0.31212540 0.25383044
v 0.27761496 0.46908366 0.23490106
v 0.28660461 0.52554942 0.22661541
v 0.28948563 0.55207905 0.22168836
v 0.13096455 0.47517412 0.24983908
v 0.27761496 0.55207905 0.22175865
v 0.26576594 0.55207905 0.22162345
v 0.25391694 0.55207905 0.22084464
v 0.11777251 0.51956217 0.22424651
v 0.11777251 0.51672340 0.22567976
v 0.15892994 0.03480316 0.23069873
v 0.11777251 0.46438678 0.22653968
v 0.11777251 0.47047724 0.22428438
v 0.31792757 0.03480316 0.22547965
v 0.28426513 0.13178593 0.23804336
v 0.22961241 0.30298969 0.25383044
v 0.22904919 0.29117007 0.25383044
v 0.32462105 0.03480316 0.22369486
v 0.28948563 0.46908366 0.23004433
v 0.29598416 0.50464572 0.22630711
v 0.29570256 0.51243943 0.22610703
v 0.29013547 0.51646537 0.22701022
v 0.29451116 0.52038801 0.22555534
v 0.29860525 0.55207905 0.21752931
v 0.29715390 0.55925340 0.21604200
v 0.28948563 0.55992438 0.21725346
v 0.27761496 0.55992438 0.21708581
v 0.26576594 0.55982114 0.21697765
v 0.25391694 0.55951146 0.21650170
v 0.11777251 0.52312354 0.22115294
v 0.16480029 0.05952629 0.21389486
v 0.16997746 0.03480316 0.22100147
v 0.11777251 0.51042650 0.21209385
v 0.32793532 0.03480316 0.22191552
v 0.29624410 0.49277452 0.22649099
v 0.33475880 0.03480316 0.21801605
v 0.29895184 0.51646537 0.22094741
v 0.29925508 0.54025940 0.21804309
v 0.30319755 0.54025940 0.20811327
v 0.30228774 0.55207905 0.20811327
v 0.29823699 0.55997600 0.20811327
v 0.28948563 0.56193732 0.20811327
v 0.27761496 0.56178246 0.20811327
v 0.26576594 0.56157602 0.20811327
v 0.25391694 0.56105986 0.20811327
v 0.24694184 0.55884045 0.21518746
v 0.11777251 0.52632364 0.21831353
v 0.17090892 0.06577159 0.21150974
v 0.17142879 0.05493264 0.21269418
v 0.17571783 0.04672600 0.21353791
v 0.18277959 0.03480316 0.21695061
v 0.11777251 0.52859467 0.21209385
v 0.21839159 0.51455561 0.19858367
v 0.18277959 0.06577159 0.20916252
v 0.33902619 0.03480316 0.20811327
v 0.30265601 0.54975640 0.19858367
v 0.30246106 0.55207905 0.19858367
v 0.29821531 0.56002762 0.19858367
v 0.29650403 0.56044050 0.19858367
v 0.28948563 0.56204056 0.19858367
v 0.26576594 0.56152440 0.19858367
v 0.25391694 0.56100824 0.19858367
v 0.24611869 0.55935661 0.19858367
v 0.24620535 0.55930502 0.20811327
v 0.18277959 0.05395197 0.21032533
v 0.18277959 0.04486790 0.21291593
v 0.19462859 0.04326787 0.21248866
v 0.32377627 0.03480316 0.20472221
v 0.21839159 0.53050437 0.19858367
v 0.29301649 0.37984300 0.19858367
v 0.30252604 0.06654579 0.20472221
v 0.33904782 0.03480316 0.20472221
v 0.30326253 0.54025940 0.19858367
v 0.30503880 0.37984300 0.19858367
f 95 84 96
f 95 101 84
f 86 103 100
f 97 80 86
f 86 100 97
f 18 19 9
f 102 86 85
f 102 103 86
f 102 100 103
f 86 80 65
f 85 86 65
f 65 80 63
f 63 43 65
f 104 106 105
f 34 48 47
f 47 48 31
f 64 43 63
f 4 3 14
f 1 3 4
f 4 5 1
f 83 64 82
f 82 64 63
f 99 100 83
f 1 5 6
f 33 48 34
f 31 48 49
f 77 94 95
f 77 95 96
f 104 105 88
f 88 87 104
f 71 87 88
f 68 87 70
f 70 71 56
f 70 87 71
f 50 47 31
f 31 46 50
f 34 47 50
f 90 73 89
f 81 82 63
f 97 82 81
f 63 80 81
f 80 97 81
f 83 82 98
f 98 99 83
f 98 82 97
f 98 97 100
f 100 99 98
f 1 6 7
f 18 33 21
f 78 77 96
f 84 79 78
f 96 84 78
f 58 57 74
f 74 73 92
f 74 57 73
f 53 52 68
f 53 70 56
f 56 55 53
f 34 52 53
f 30 46 31
f 31 17 30
f 31 49 32
f 32 17 31
f 51 52 34
f 34 50 51
f 68 52 66
f 92 73 91
f 73 90 91
f 89 73 72
f 73 57 72
f 72 57 56
f 56 71 72
f 72 88 89
f 71 88 72
f 1 7 2
f 16 4 14
f 45 65 43
f 43 27 45
f 36 55 56
f 35 55 36
f 56 57 36
f 36 57 58
f 54 35 34
f 54 55 35
f 34 53 54
f 54 53 55
f 92 93 76
f 68 70 69
f 69 53 68
f 70 53 69
f 52 51 67
f 67 51 50
f 50 66 67
f 67 66 52
f 34 35 22
f 35 36 22
f 22 33 34
f 22 21 33
f 10 9 19
f 10 2 9
f 13 2 12
f 12 24 25
f 9 2 8
f 8 2 7
f 4 16 15
f 29 27 15
f 44 27 29
f 44 45 27
f 25 24 37
f 24 36 37
f 25 37 38
f 38 37 36
f 38 36 58
f 40 41 25
f 75 74 92
f 92 76 75
f 23 36 24
f 23 22 36
f 13 12 26
f 26 12 25
f 29 15 28
f 28 15 16
f 41 40 61
f 61 62 41
f 79 62 61
f 61 78 79
f 61 76 77
f 77 78 61
f 20 19 18
f 18 21 20
f 21 22 11
f 22 23 11
f 11 20 21
f 19 20 11
f 11 23 24
f 11 10 19
f 2 10 11
f 24 12 11
f 11 12 2
f 25 41 42
f 42 26 25
f 58 74 59
f 39 61 40
f 25 38 39
f 39 40 25
f 39 38 58
f 58 59 39
f 61 39 60
f 60 39 59
f 76 61 60
f 60 75 76
f 74 75 60
f 60 59 74
f 104 100 102
f 102 106 104
f 65 101 85
f 84 101 65
f 91 93 92
f 89 88 91
f 85 101 91
f 101 95 91
f 91 102 85
f 95 94 91
f 106 102 91
f 91 105 106
f 91 88 105
f 91 90 89
f 94 93 91
f 76 93 94
f 94 77 76
f 18 9 8
f 8 33 18
f 8 6 5
f 5 17 8
f 48 33 8
f 8 49 48
f 8 32 49
f 8 7 6
f 17 32 8
f 5 4 15
f 15 64 83
f 15 100 104
f 104 87 15
f 83 100 15
f 15 17 5
f 43 64 15
f 68 66 15
f 15 87 68
f 46 30 15
f 15 50 46
f 15 30 17
f 15 66 50
f 15 27 43
f 42 3 1
f 84 65 42
f 14 3 42
f 1 2 42
f 42 79 84
f 42 16 14
f 65 45 42
f 42 2 13
f 13 26 42
f 42 44 29
f 42 62 79
f 45 44 42
f 41 62 42
f 29 28 42
f 42 28 16