# https://github.com/mikedh/trimesh
v -0.27037553 -0.13363632 0.84494734
v -0.33355082 -0.12443350 0.80823757
v -0.33215541 -0.12443350 0.81336388
v -0.32300627 -0.12443350 0.84809607
v -0.32300627 -0.12443350 0.86808294
v -0.32300627 -0.12467625 0.86812133
v -0.27037553 -0.15460968 0.84494734
v -0.27037553 -0.14508320 0.78942190
v -0.32300627 -0.13606918 0.67282231
v -0.33731580 -0.12443350 0.80201688
v -0.33736848 -0.12443350 0.85759990
v -0.33565710 -0.13338818 0.85627513
v -0.33273464 -0.14129634 0.85397118
v -0.32300627 -0.14254245 0.85813750
v -0.27993278 -0.15750107 0.84494734
v -0.27128387 -0.15522463 0.84494734
v -0.27119171 -0.15519227 0.84494734
v -0.27113905 -0.15516531 0.84494734
v -0.27037553 -0.15496032 0.84440974
v -0.27037553 -0.14903189 0.77811329
v -0.27037553 -0.16173566 0.75332652
v -0.27037553 -0.17333898 0.75332652
v -0.32300627 -0.14373999 0.67570226
v -0.33923780 -0.14468401 0.67516467
v -0.33902715 -0.13606918 0.67199672
v -0.35228359 -0.12443350 0.79180265
v -0.35112513 -0.12443350 0.79199465
v -0.34354252 -0.12443350 0.79431780
v -0.34330553 -0.12443350 0.79458661
v -0.34148889 -0.12443350 0.84872966
v -0.40486165 -0.13606918 0.75438250
v -0.40203133 -0.14692268 0.75438250
v -0.39664713 -0.15814840 0.75438250
v -0.39638387 -0.15866086 0.75438250
v -0.32753475 -0.14780196 0.84897926
v -0.32300627 -0.14949581 0.85026563
v -0.32482291 -0.14411221 0.85635194
v -0.39617323 -0.15893598 0.75438250
v -0.39089435 -0.16458928 0.75438250
v -0.32300627 -0.14454916 0.85681273
v -0.28267094 -0.15781394 0.84494734
v -0.27993278 -0.16034930 0.83684508
v -0.28378991 -0.16613208 0.82096694
v -0.27037553 -0.15539187 0.84298896
v -0.27037553 -0.17340371 0.75384490
v -0.29392639 -0.17773000 0.75630247
v -0.29587471 -0.17751422 0.75332652
v -0.32300627 -0.16984341 0.70638333
v -0.32300627 -0.16715702 0.69837706
v -0.32300627 -0.16427101 0.69463313
v -0.32300627 -0.16249627 0.69244437
v -0.32300627 -0.15875256 0.68789405
v -0.32300627 -0.15656785 0.68537889
v -0.32300627 -0.15228469 0.68163496
v -0.32300627 -0.14967383 0.67946539
v -0.32738997 -0.14993275 0.67925419
v -0.35109879 -0.14466783 0.67526067
v -0.35109879 -0.13606918 0.67209272
v -0.33923780 -0.13606918 0.67199672
v -0.33923780 -0.15061784 0.67890860
v -0.35109879 -0.15059625 0.67885100
v -0.35228359 -0.12443350 0.80898635
v -0.36295981 -0.13606918 0.67328310
v -0.37164819 -0.13606918 0.67547186
v -0.37745365 -0.13606918 0.67839021
v -0.37759846 -0.13606918 0.67848621
v -0.38548386 -0.13606918 0.68439970
v -0.39132880 -0.13606918 0.68996762
v -0.39140779 -0.13606918 0.69006361
v -0.39506744 -0.13606918 0.69597711
v -0.39838482 -0.13606918 0.70624893
v -0.39842432 -0.13606918 0.70638333
v -0.39709473 -0.14778578 0.71824872
v -0.39371152 -0.15513294 0.71824872
v -0.39461984 -0.15630351 0.73009492
v -0.39554135 -0.15736082 0.74196032
v -0.39635753 -0.15861771 0.75382571
v -0.32233487 -0.15423747 0.84396815
v -0.32154502 -0.15401089 0.84494734
v -0.31967570 -0.15483084 0.84494734
v -0.39306646 -0.15426443 0.71072245
v -0.39081537 -0.16455152 0.75382571
v -0.38103432 -0.16570592 0.72301024
v -0.38495727 -0.16728647 0.75438250
v -0.34804470 -0.17787565 0.77256459
v -0.35228359 -0.17411037 0.77696130
v -0.31551580 -0.15619023 0.84494734
v -0.30369427 -0.15846665 0.84494734
v -0.29134619 -0.15867164 0.84494734
v -0.29179378 -0.16169789 0.83684508
v -0.27037553 -0.16053271 0.82142775
v -0.27037553 -0.15770605 0.83361952
v -0.27037553 -0.15705333 0.83632668
v -0.29179378 -0.16651509 0.82250291
v -0.31551580 -0.17816694 0.77300618
v -0.30813062 -0.17764909 0.77204619
v -0.29392639 -0.17773000 0.76154397
v -0.27037553 -0.17308544 0.76569111
v -0.31551580 -0.17913254 0.76569111
v -0.30219357 -0.17797275 0.75332652
v -0.32738997 -0.16993512 0.70638333
v -0.30332569 -0.17801051 0.75332652
v -0.31602920 -0.17828563 0.75332652
v -0.32738997 -0.16721635 0.69830026
v -0.32738997 -0.16264731 0.69236757
v -0.32738997 -0.15671888 0.68516770
v -0.36295981 -0.14353501 0.67587506
v -0.33923780 -0.15688610 0.68482210
v -0.35109879 -0.15685375 0.68478370
v -0.36295981 -0.15627114 0.68562849
v -0.36295981 -0.14946883 0.67969579
v -0.36946293 -0.14231588 0.67648944
v -0.38348287 -0.14512636 0.68631967
v -0.39392214 -0.14452218 0.69808907
v -0.39502795 -0.14820116 0.70661372
v -0.39172373 -0.15242495 0.70283139
v -0.38734002 -0.15756040 0.70661372
v -0.38566816 -0.16157922 0.71872872
v -0.37541321 -0.16689807 0.71872872
v -0.37482079 -0.17046377 0.75438250
v -0.38441753 -0.16746449 0.75438250
v -0.37977057 -0.16492914 0.71509998
v -0.37162189 -0.16651509 0.70638333
v -0.34776822 -0.17783789 0.76569111
v -0.33922461 -0.17884663 0.76569111
v -0.33922461 -0.17838811 0.77348617
v -0.30365478 -0.16145515 0.83684508
v -0.30110090 -0.16626694 0.82171574
v -0.32737678 -0.17862547 0.77385097
v -0.32299308 -0.17845824 0.77354376
v -0.32737678 -0.17953711 0.76569111
v -0.31883318 -0.17826944 0.75332652
v -0.33923780 -0.16974632 0.70638333
v -0.33923780 -0.16712465 0.69828107
v -0.33923780 -0.16280913 0.69234837
v -0.35109879 -0.16278217 0.69252116
v -0.36295981 -0.16219957 0.69326995
v -0.36954192 -0.16580842 0.70004744
v -0.37176670 -0.15505201 0.68714526
v -0.37457068 -0.14767251 0.68276773
v -0.37966525 -0.15302373 0.68921883
v -0.38760332 -0.14877836 0.69365395
v -0.38382515 -0.15627114 0.69712909
v -0.37754579 -0.16403906 0.70638333
v -0.36295981 -0.16828983 0.70638333
v -0.34574093 -0.17752501 0.75935521
v -0.33922461 -0.17788643 0.75768484
v -0.32737678 -0.17833417 0.75515048
v -0.32382245 -0.17831259 0.75438250
v -0.32300627 -0.17830720 0.75420970
v -0.35109879 -0.16932555 0.70638333
v -0.35109879 -0.16689268 0.69845387
v -0.36295981 -0.16635864 0.69920265
v -0.37461018 -0.15961026 0.69463313
f 25 26 9
f 1 9 2
f 31 26 72
f 1 5 6
f 47 48 22
f 8 9 1
f 8 20 9
f 22 9 21
f 9 20 21
f 4 5 1
f 38 39 13
f 39 85 86
f 26 69 70
f 63 64 26
f 62 26 31
f 31 30 62
f 11 6 5
f 11 30 31
f 31 32 11
f 23 9 22
f 22 48 49
f 22 45 46
f 46 47 22
f 27 9 26
f 27 28 9
f 10 2 9
f 1 2 3
f 3 4 1
f 34 38 13
f 38 34 77
f 77 34 33
f 33 32 77
f 84 85 39
f 39 83 84
f 71 72 26
f 26 70 71
f 58 63 26
f 26 66 67
f 26 64 65
f 65 66 26
f 13 6 12
f 6 11 12
f 12 11 32
f 12 32 33
f 12 34 13
f 33 34 12
f 153 152 151
f 151 152 133
f 133 148 151
f 138 153 145
f 145 153 151
f 85 120 124
f 124 145 146
f 151 148 147
f 147 145 151
f 146 145 147
f 55 23 22
f 25 9 24
f 9 23 24
f 97 45 98
f 97 46 45
f 98 43 97
f 99 46 97
f 131 99 129
f 1 6 7
f 91 43 98
f 39 86 78
f 9 28 29
f 29 10 9
f 121 120 85
f 85 84 121
f 121 83 120
f 121 84 83
f 59 26 25
f 59 58 26
f 25 24 59
f 59 24 58
f 63 58 107
f 68 69 26
f 26 67 68
f 48 47 100
f 100 102 48
f 47 46 100
f 100 46 99
f 100 99 131
f 131 102 100
f 48 102 103
f 131 132 103
f 103 102 131
f 152 153 136
f 150 133 132
f 150 132 131
f 120 83 119
f 119 124 120
f 146 147 125
f 125 124 146
f 125 148 131
f 125 147 148
f 85 124 125
f 22 53 54
f 54 55 22
f 61 24 60
f 52 53 22
f 22 51 52
f 22 49 50
f 50 51 22
f 99 97 96
f 96 97 43
f 6 15 16
f 15 42 16
f 16 42 43
f 14 6 13
f 14 15 6
f 14 40 15
f 13 39 35
f 39 78 35
f 87 40 80
f 85 87 80
f 80 86 85
f 80 78 86
f 43 42 90
f 88 40 87
f 127 90 88
f 88 87 85
f 85 127 88
f 126 127 85
f 131 129 126
f 126 125 131
f 85 125 126
f 74 81 39
f 72 71 114
f 114 71 70
f 114 70 69
f 69 68 114
f 31 72 73
f 73 32 31
f 73 74 32
f 81 74 73
f 58 24 57
f 57 107 58
f 57 24 61
f 61 107 57
f 66 65 113
f 113 67 66
f 113 68 67
f 113 114 68
f 132 133 101
f 101 49 48
f 101 104 49
f 48 103 101
f 101 103 132
f 152 136 134
f 104 101 134
f 134 133 152
f 134 101 133
f 148 133 149
f 133 150 149
f 131 148 149
f 149 150 131
f 145 124 123
f 124 119 123
f 138 145 123
f 123 119 83
f 56 24 23
f 56 60 24
f 23 55 56
f 55 54 56
f 54 60 56
f 53 52 106
f 106 54 53
f 106 60 54
f 61 60 108
f 60 106 108
f 95 96 43
f 99 96 95
f 18 7 6
f 19 7 18
f 37 14 13
f 40 14 37
f 94 90 127
f 94 126 129
f 43 90 94
f 94 95 43
f 40 88 89
f 89 88 90
f 38 77 75
f 39 38 75
f 75 74 39
f 32 74 75
f 39 81 82
f 81 118 82
f 82 83 39
f 82 118 83
f 138 123 144
f 72 114 115
f 115 73 72
f 81 73 115
f 115 116 81
f 114 116 115
f 112 65 64
f 112 113 65
f 64 63 112
f 63 107 112
f 137 136 153
f 137 153 138
f 138 110 137
f 49 104 105
f 105 50 49
f 51 50 105
f 105 108 106
f 105 52 51
f 105 106 52
f 136 137 109
f 109 137 110
f 109 110 61
f 61 108 109
f 6 16 17
f 17 18 6
f 17 16 43
f 19 18 17
f 78 80 79
f 79 35 78
f 36 80 40
f 40 37 36
f 36 79 80
f 35 79 36
f 13 35 36
f 36 37 13
f 127 126 128
f 128 94 127
f 126 94 128
f 130 94 129
f 95 94 130
f 130 129 99
f 99 95 130
f 15 40 41
f 40 89 41
f 41 89 90
f 41 42 15
f 41 90 42
f 76 77 32
f 32 75 76
f 76 75 77
f 117 118 81
f 81 116 117
f 114 113 142
f 142 116 114
f 142 113 141
f 141 113 140
f 113 112 140
f 135 105 104
f 108 105 135
f 135 109 108
f 136 109 135
f 135 134 136
f 104 134 135
f 83 118 122
f 118 117 122
f 122 117 144
f 122 123 83
f 122 144 123
f 143 117 116
f 141 154 143
f 144 117 143
f 143 142 141
f 116 142 143
f 143 154 138
f 138 144 143
f 139 140 112
f 141 140 139
f 139 154 141
f 138 154 139
f 139 110 138
f 19 17 44
f 44 17 43
f 43 93 44
f 43 91 92
f 92 93 43
f 110 139 111
f 111 139 112
f 111 112 107
f 111 107 61
f 61 110 111
f 29 11 5
f 5 4 29
f 26 62 29
f 29 27 26
f 2 10 29
f 29 62 30
f 30 11 29
f 28 27 29
f 29 3 2
f 4 3 29
f 92 45 22
f 22 21 92
f 92 8 1
f 98 45 92
f 20 8 92
f 92 21 20
f 1 7 92
f 92 7 19
f 92 91 98
f 19 44 92
f 92 44 93