# https://github.com/mikedh/trimesh
v 0.21839671 0.44210064 0.13045516
v 0.21850983 0.44210064 0.13045516
v 0.21839671 0.45085217 0.14358530
v 0.17371325 0.49670033 0.08585767
v 0.17371325 0.49224779 0.07896482
v 0.17371325 0.49088961 0.07682951
v 0.17371325 0.48471274 0.06605943
v 0.17371325 0.47267788 0.04140998
v 0.18113821 0.46595774 0.02680013
v 0.18130275 0.46595774 0.01844628
v 0.18211519 0.46595774 0.01522461
v 0.18528263 0.46595774 0.00966166
v 0.19462039 0.46595774 0.00726412
v 0.20648798 0.46595774 0.00722668
v 0.27875281 0.44686024 0.13045516
v 0.27875281 0.44895071 0.13476320
v 0.21904461 0.46595774 0.00763875
v 0.27875281 0.45406461 0.14148748
v 0.21839671 0.45477325 0.14847399
v 0.21839671 0.46152881 0.15643451
v 0.21839671 0.46787104 0.16237209
v 0.21839671 0.47379989 0.16757919
v 0.21839671 0.48721655 0.17812452
v 0.21839671 0.51456954 0.19855955
v 0.17371325 0.49847189 0.08709388
v 0.17371325 0.47200467 0.02910401
v 0.17371325 0.47345736 0.02736204
v 0.17371325 0.47818154 0.02264193
v 0.17371325 0.47968146 0.02119970
v 0.17371325 0.48957862 0.01898948
v 0.17371325 0.49286192 0.01893327
v 0.17371325 0.50190874 0.01915806
v 0.17371325 0.50470781 0.01938281
v 0.17371325 0.51655369 0.02043171
v 0.17371325 0.52841139 0.02168669
v 0.19462039 0.52841139 0.01848376
v 0.20648798 0.52841139 0.01717263
v 0.21904461 0.52841139 0.01655451
v 0.17371325 0.53526143 0.02279176
v 0.27875281 0.56262626 0.13045516
v 0.24747952 0.46596955 0.04757235
v 0.24747952 0.53131673 0.02852333
v 0.24747952 0.55563444 0.02852333
v 0.27875281 0.46051312 0.14791208
v 0.23021288 0.51564428 0.19855955
v 0.21839671 0.53056087 0.19855955
v 0.17371325 0.54196976 0.09589724
v 0.17371325 0.51624663 0.09439880
v 0.17371325 0.50898318 0.09293780
v 0.17371325 0.50552272 0.09183273
v 0.19462039 0.54028089 0.02112475
v 0.17371325 0.53823766 0.02333497
v 0.21904461 0.54028089 0.01882091
v 0.27875281 0.56275615 0.16064886
v 0.24747952 0.55901224 0.03429237
v 0.24747952 0.56012241 0.03831944
v 0.24747952 0.56107906 0.04204684
v 0.24747952 0.56174046 0.04849014
v 0.24747952 0.56208295 0.05392200
v 0.23020261 0.56242547 0.05392200
v 0.21904461 0.54744980 0.02245461
v 0.21904461 0.54795765 0.02271688
v 0.24491884 0.55553997 0.02852333
v 0.18971496 0.55802017 0.03622162
v 0.27875281 0.54975286 0.19855955
v 0.23845028 0.52016767 0.19855955
v 0.23273245 0.51628206 0.19855955
v 0.24613234 0.55936654 0.19855955
v 0.17371325 0.55962637 0.08668181
v 0.17371325 0.55522110 0.09121460
v 0.17371325 0.55368575 0.09261939
v 0.17371325 0.54915051 0.09518550
v 0.17371325 0.54774509 0.09589724
v 0.18262937 0.54095406 0.02281050
v 0.17857753 0.54537118 0.02455247
v 0.18648583 0.54658766 0.02395309
v 0.17371325 0.54406023 0.02502072
v 0.21905488 0.56239001 0.05392200
v 0.26578484 0.56256718 0.16064886
v 0.27765244 0.56182312 0.19855955
v 0.27875281 0.56183493 0.19855955
v 0.21833500 0.56053579 0.04204684
v 0.21833500 0.56237820 0.05390330
v 0.24205992 0.55539823 0.02852333
v 0.24205992 0.55552816 0.02869190
v 0.18276306 0.55781938 0.03665242
v 0.17371325 0.55913033 0.04174713
v 0.17371325 0.55955552 0.04317065
v 0.25392753 0.56105544 0.19855955
v 0.17371325 0.55992166 0.08452777
v 0.17371325 0.54924502 0.02878556
v 0.17371325 0.55137088 0.03075228
v 0.17371325 0.55588246 0.03543492
v 0.17371325 0.55752413 0.03723307
v 0.26578484 0.56156329 0.19855955
v 0.27531800 0.56177588 0.19855955
v 0.17371325 0.56112633 0.05390330
v 0.17371325 0.56074838 0.07759747
v 0.17371325 0.56073657 0.05122479
f 17 41 15
f 10 1 9
f 9 26 10
f 8 26 9
f 9 1 8
f 14 1 13
f 13 1 12
f 20 18 44
f 4 24 25
f 24 50 25
f 24 48 49
f 49 50 24
f 12 1 11
f 1 10 11
f 11 10 26
f 7 8 1
f 12 34 35
f 35 13 12
f 66 44 65
f 66 67 44
f 4 1 3
f 3 16 18
f 80 81 54
f 96 80 79
f 79 80 54
f 29 30 12
f 12 11 29
f 6 7 1
f 15 16 2
f 2 17 15
f 2 3 1
f 16 3 2
f 2 1 14
f 14 17 2
f 23 24 4
f 4 22 23
f 23 22 44
f 4 20 21
f 21 22 4
f 21 20 44
f 44 22 21
f 19 20 4
f 4 3 19
f 18 20 19
f 19 3 18
f 89 79 98
f 98 79 97
f 79 83 97
f 83 99 97
f 47 48 24
f 33 34 12
f 12 32 33
f 12 30 31
f 31 32 12
f 41 17 42
f 17 43 42
f 15 41 42
f 40 43 55
f 62 43 61
f 27 11 26
f 5 1 4
f 5 6 1
f 38 43 17
f 38 17 14
f 14 13 38
f 13 37 38
f 53 38 37
f 61 43 53
f 43 38 53
f 24 23 45
f 44 67 45
f 45 23 44
f 96 79 95
f 79 89 95
f 88 99 83
f 58 40 57
f 58 59 40
f 40 59 60
f 54 40 60
f 59 58 60
f 60 58 57
f 69 46 68
f 68 89 69
f 76 84 62
f 76 62 61
f 61 53 76
f 28 29 11
f 11 27 28
f 13 35 39
f 36 37 13
f 36 39 52
f 13 39 36
f 82 83 57
f 82 88 83
f 54 60 78
f 78 79 54
f 78 83 79
f 57 83 78
f 78 60 57
f 90 89 98
f 90 69 89
f 64 55 43
f 84 76 64
f 64 82 55
f 64 87 88
f 88 82 64
f 43 62 63
f 62 84 63
f 63 64 43
f 56 82 57
f 55 82 56
f 57 40 56
f 40 55 56
f 73 46 72
f 46 71 72
f 46 69 70
f 70 71 46
f 86 76 94
f 86 64 76
f 94 87 86
f 87 64 86
f 84 64 85
f 85 63 84
f 64 63 85
f 76 91 92
f 77 91 75
f 75 91 76
f 75 52 77
f 75 74 52
f 51 76 53
f 51 53 37
f 51 75 76
f 74 75 51
f 37 36 51
f 51 36 52
f 52 74 51
f 94 76 93
f 76 92 93
f 15 40 16
f 54 81 16
f 65 44 16
f 44 18 16
f 16 81 65
f 16 40 54
f 73 47 46
f 46 47 24
f 42 40 15
f 42 43 40
f 95 46 24
f 95 80 96
f 65 81 95
f 95 66 65
f 67 66 95
f 81 80 95
f 24 45 95
f 95 89 68
f 68 46 95
f 95 45 67
f 48 47 93
f 93 31 30
f 93 90 98
f 4 25 93
f 93 49 48
f 26 8 93
f 93 27 26
f 93 25 50
f 50 49 93
f 98 97 93
f 8 7 93
f 93 35 34
f 93 39 35
f 34 33 93
f 30 29 93
f 7 6 93
f 93 5 4
f 29 28 93
f 93 97 99
f 93 47 73
f 93 33 32
f 32 31 93
f 93 70 69
f 6 5 93
f 77 52 93
f 99 88 93
f 93 87 94
f 93 28 27
f 52 39 93
f 88 87 93
f 73 72 93
f 69 90 93
f 93 91 77
f 93 72 71
f 71 70 93
f 93 92 91