# https://github.com/mikedh/trimesh
v -0.33922002 0.13489188 0.64375715
v -0.33037946 0.13985093 0.64375715
v -0.35024951 0.13797700 0.64375715
v -0.34622799 0.15414535 0.46911743
v -0.33922002 0.15220286 0.46911743
v -0.32729971 0.15305983 0.46985856
v -0.32116559 0.15453384 0.47428632
v -0.32912381 0.14087930 0.64375715
v -0.35166638 0.13967954 0.64375715
v -0.35853014 0.16463477 0.46911743
v -0.35216695 0.15870447 0.46911743
v -0.34526080 0.15468239 0.46311241
v -0.33922002 0.15403108 0.46233328
v -0.33119395 0.15384826 0.46212425
v -0.32329516 0.15593929 0.46634296
v -0.31613445 0.16118401 0.47048567
v -0.30944040 0.16640587 0.47460936
v -0.29682436 0.17726094 0.57585860
v -0.28526885 0.18952146 0.64375715
v -0.35704538 0.14740378 0.64375715
v -0.36160141 0.17254183 0.46911743
v -0.35746961 0.16597167 0.46265633
v -0.35980276 0.15170009 0.64375715
v -0.34996104 0.16148109 0.46096504
v -0.33922002 0.16902250 0.45222356
v -0.33922002 0.16066982 0.45731643
v -0.32729971 0.16021276 0.45898871
v -0.31901908 0.16385778 0.46083203
v -0.31112029 0.16997090 0.46670402
v -0.30938100 0.17788938 0.46290338
v -0.30862592 0.17336454 0.47004859
v -0.27983046 0.21803030 0.52740035
v -0.27983046 0.21252279 0.53448856
v -0.28535369 0.18956717 0.63516769
v -0.29710435 0.17756945 0.56400058
v -0.28247753 0.19622874 0.64375715
v -0.36245832 0.18440243 0.46911743
v -0.35864890 0.17254183 0.46134511
v -0.36250923 0.16066982 0.64375715
v -0.36496118 0.17249614 0.64375715
v -0.36610656 0.18439101 0.64375715
v -0.35032588 0.17288462 0.45511205
v -0.32652765 0.17175342 0.45266064
v -0.34587168 0.17708955 0.45095035
v -0.33922002 0.17496424 0.45032324
v -0.32992981 0.17518134 0.45036124
v -0.31524360 0.17336454 0.45940678
v -0.32254852 0.18440243 0.45176748
v -0.30938100 0.18019752 0.46290338
v -0.27983046 0.23063361 0.52435983
v -0.27983046 0.22754849 0.52456887
v -0.27983046 0.21168866 0.54258393
v -0.28036496 0.20810078 0.64375715
v -0.27983046 0.21116305 0.54919706
v -0.27983046 0.21106020 0.55178150
v -0.34606680 0.25057268 0.47371621
v -0.35819925 0.19226379 0.46176318
v -0.35919189 0.18440243 0.46068000
v -0.36650530 0.19590881 0.64375715
v -0.36650530 0.19622874 0.64375715
v -0.36616592 0.23064503 0.64375715
v -0.35187000 0.18440243 0.45473199
v -0.34593952 0.18440243 0.45091234
v -0.33922002 0.18440243 0.44962012
v -0.32846202 0.18440243 0.45003819
v -0.33023525 0.19197814 0.45058928
v -0.32672278 0.19604592 0.45402886
v -0.31789070 0.19624018 0.45961581
v -0.31454790 0.18425388 0.45862765
v -0.30995794 0.18811602 0.46391054
v -0.27983046 0.23063361 0.57034766
v -0.33302653 0.24998993 0.47462837
v -0.33256840 0.25042413 0.48097545
v -0.27983046 0.21232853 0.56029495
v -0.27983046 0.22044127 0.56616695
v -0.27983046 0.22711428 0.56924547
v -0.27983046 0.22982234 0.57010062
v -0.28152731 0.22016704 0.64375715
v -0.33922002 0.19186387 0.45062728
v -0.34549836 0.19072123 0.45115938
v -0.34640618 0.25082405 0.48097545
v -0.33922850 0.25161247 0.48097545
v -0.33922850 0.25060695 0.47373521
v -0.33922850 0.25065265 0.49199733
v -0.34591407 0.25028700 0.49017301
v -0.28392835 0.23064503 0.64375715
v -0.28380107 0.23014228 0.64375715
v -0.28218058 0.22316075 0.64375715
v -0.33259385 0.25034414 0.49042006
f 10 23 21
f 8 18 19
f 71 89 86
f 50 73 71
f 71 73 89
f 71 78 53
f 56 61 81
f 61 85 81
f 84 61 86
f 86 89 84
f 84 85 61
f 72 50 68
f 72 73 50
f 20 23 10
f 56 80 57
f 56 66 79
f 79 80 56
f 79 66 64
f 64 80 79
f 37 61 56
f 56 57 37
f 37 57 58
f 39 21 23
f 40 21 39
f 10 21 22
f 42 24 22
f 1 3 4
f 4 5 1
f 7 16 17
f 17 8 7
f 18 8 17
f 32 17 31
f 1 7 2
f 7 8 2
f 78 71 88
f 89 73 82
f 82 84 89
f 56 81 82
f 82 81 85
f 85 84 82
f 73 72 82
f 67 72 68
f 66 72 67
f 68 48 67
f 67 48 66
f 83 66 56
f 83 72 66
f 56 82 83
f 83 82 72
f 10 3 9
f 9 20 10
f 60 37 59
f 61 37 60
f 59 37 41
f 41 21 40
f 41 37 21
f 63 80 64
f 64 44 63
f 62 63 44
f 80 63 62
f 58 57 62
f 62 57 80
f 42 22 38
f 58 62 38
f 38 22 21
f 38 44 42
f 38 62 44
f 38 37 58
f 21 37 38
f 11 3 10
f 11 4 3
f 10 22 11
f 13 5 12
f 5 4 12
f 12 22 24
f 12 11 22
f 4 11 12
f 64 66 65
f 66 48 65
f 15 16 7
f 33 17 32
f 53 36 55
f 55 36 54
f 55 74 53
f 87 71 86
f 87 88 71
f 53 74 75
f 68 50 70
f 50 49 70
f 47 48 30
f 48 49 30
f 30 31 17
f 32 31 30
f 30 51 32
f 50 51 30
f 30 49 50
f 64 65 46
f 46 65 48
f 6 15 7
f 6 7 1
f 1 5 6
f 34 36 19
f 17 33 34
f 19 18 34
f 53 75 76
f 69 49 48
f 69 70 49
f 69 48 68
f 68 70 69
f 29 30 17
f 25 12 24
f 42 44 25
f 25 24 42
f 52 34 33
f 54 36 52
f 36 34 52
f 18 17 35
f 35 34 18
f 17 34 35
f 77 71 53
f 53 76 77
f 45 25 44
f 46 25 45
f 45 44 64
f 64 46 45
f 13 12 26
f 12 25 26
f 15 6 14
f 13 26 14
f 14 5 13
f 14 6 5
f 25 27 14
f 14 26 25
f 43 25 46
f 43 27 25
f 43 48 47
f 43 46 48
f 28 43 47
f 27 43 28
f 15 14 28
f 28 14 27
f 47 30 28
f 30 29 28
f 16 15 28
f 28 17 16
f 28 29 17
f 1 2 87
f 87 9 3
f 87 3 1
f 86 61 87
f 87 60 59
f 87 39 23
f 23 20 87
f 19 36 87
f 53 78 87
f 87 8 19
f 59 41 87
f 40 39 87
f 87 36 53
f 87 2 8
f 78 88 87
f 20 9 87
f 61 60 87
f 87 41 40
f 77 51 50
f 32 51 77
f 77 33 32
f 50 71 77
f 77 55 54
f 54 52 77
f 74 55 77
f 77 75 74
f 77 76 75
f 77 52 33