# https://github.com/mikedh/trimesh
v -0.37508355 0.08947369 0.83753572
v -0.37508355 0.10107243 0.83740294
v -0.38668333 0.08947369 0.83613210
v -0.37508355 0.07755607 0.83734603
v -0.35229646 -0.11814786 0.80953915
v -0.35229646 -0.11192997 0.80950122
v -0.37508355 0.11318933 0.83696667
v -0.38668333 0.10135144 0.83580964
v -0.39521060 0.10135144 0.83258510
v -0.39527795 0.08947369 0.83283169
v -0.38668333 0.07755607 0.83522162
v -0.35229646 -0.12380772 0.80929258
v -0.32300238 -0.13604420 0.68712062
v -0.35229646 0.04252068 0.80183821
v -0.38668333 0.11318933 0.83527855
v -0.37508355 0.19222821 0.83108665
v -0.38132116 0.19186949 0.83106768
v -0.39436882 0.12506708 0.83201607
v -0.39482339 0.11318933 0.83230058
v -0.39835887 0.13690498 0.82497901
v -0.39931849 0.11318933 0.82497901
v -0.39972257 0.10135144 0.82497901
v -0.39963839 0.08947369 0.82497901
v -0.40421768 -0.11527806 0.78290829
v -0.39414993 0.07755607 0.83211090
v -0.38732309 -0.12384758 0.79925858
v -0.37483101 -0.12400702 0.80394364
v -0.37375355 -0.13612392 0.79872749
v -0.35229646 -0.13596449 0.80343151
v -0.35229646 -0.16773149 0.78510855
v -0.35229646 -0.17410881 0.77695237
v -0.35229646 -0.17654016 0.76568547
v -0.32300238 -0.13604420 0.67281885
v -0.32300238 -0.06892294 0.67695384
v -0.32684935 0.13945590 0.66312628
v -0.32684935 0.14902189 0.66126742
v -0.37508355 0.23065154 0.82588945
v -0.39270209 0.15527963 0.83095387
v -0.39315665 0.14878273 0.83121941
v -0.39383848 0.13690498 0.83165568
v -0.37602634 0.23065154 0.82581357
v -0.38668333 0.23065154 0.82440996
v -0.39602714 0.20809178 0.82239936
v -0.39775277 0.14878273 0.82497901
v -0.39949527 0.20809178 0.81312408
v -0.40631374 -0.00542877 0.78842793
v -0.40819932 -0.06473782 0.77754039
v -0.40529518 0.21996954 0.78668290
v -0.40537932 0.20809178 0.78740366
v -0.40550561 0.17249838 0.78804858
v -0.40816563 -0.00542877 0.77754039
v -0.40780369 -0.07657571 0.77754039
v -0.40454599 -0.10734628 0.78355319
v -0.40573288 -0.12400702 0.77558669
v -0.40505105 -0.13584492 0.77327262
v -0.40353585 -0.12400702 0.78152364
v -0.39315665 -0.11978204 0.79609095
v -0.40590124 -0.11165096 0.77839393
v -0.39328291 -0.15469785 0.78398946
v -0.38381284 -0.13245697 0.79789290
v -0.37989014 -0.16518057 0.78315487
v -0.37198580 -0.16629661 0.78408430
v -0.36298714 -0.16709377 0.78467230
v -0.37550442 -0.16872796 0.77854567
v -0.36298714 -0.17167746 0.77754039
v -0.37483101 -0.17179703 0.76568547
v -0.35229646 -0.17634088 0.76454741
v -0.37483101 -0.17044185 0.75436166
v -0.35229646 -0.17434795 0.75436166
v -0.33924883 -0.13604420 0.67198427
v -0.32300238 -0.13584492 0.67276195
v -0.32300238 -0.05282021 0.67249640
v -0.32684935 0.15986332 0.65705657
v -0.34815490 0.23065154 0.64376009
v -0.32684935 0.16050105 0.65679101
v -0.32684935 0.16117864 0.65643062
v -0.32684935 0.16707766 0.65309228
v -0.32684935 0.17293682 0.64751573
v -0.32684935 0.17301653 0.64734501
v -0.39472237 0.23065154 0.82093885
v -0.39545473 0.21996954 0.82165961
v -0.39815685 0.23065154 0.81312408
v -0.39890604 0.21996954 0.81312408
v -0.40508471 0.23065154 0.78582935
v -0.40899058 -0.06473782 0.76568547
v -0.40883908 -0.07657571 0.76568547
v -0.40866230 -0.08845347 0.76568547
v -0.40838451 -0.10029136 0.76568547
v -0.40644841 0.21996954 0.77754039
v -0.40520258 0.23065154 0.78491887
v -0.40661677 0.20809178 0.77754039
v -0.40697033 0.16066048 0.77754039
v -0.40760163 0.14878273 0.76566650
v -0.40788787 -0.11216912 0.76568547
v -0.40670095 -0.10029136 0.77754039
v -0.40708817 -0.12400702 0.76568547
v -0.40458807 -0.14222223 0.77192591
v -0.39695310 -0.12384758 0.79004020
v -0.40231527 -0.13584492 0.77920955
v -0.39638069 -0.13584492 0.78683463
v -0.39465502 -0.14772266 0.78495681
v -0.40060643 -0.14680592 0.77653509
v -0.39514325 -0.15732850 0.77754039
v -0.38781131 -0.16350652 0.77854567
v -0.38668333 -0.15712920 0.78512752
v -0.38461255 -0.16745249 0.77524527
v -0.38643078 -0.16813007 0.76568547
v -0.38494083 -0.16725320 0.75436166
v -0.37760048 -0.13604420 0.67849024
v -0.37744895 -0.13604420 0.67839540
v -0.37165749 -0.13604420 0.67547435
v -0.36296186 -0.13604420 0.67329305
v -0.35110953 -0.13604420 0.67209807
v -0.33924883 -0.13584492 0.67192736
v -0.32300238 -0.12400702 0.67044786
v -0.32300238 -0.04305494 0.66841831
v -0.36617748 0.23065154 0.64376009
v -0.32684935 0.17357455 0.64376009
v -0.40728177 0.14878273 0.75481690
v -0.40724811 0.14874288 0.75381160
v -0.40729860 0.13690498 0.75381160
v -0.40760163 -0.05282021 0.75381160
v -0.40752590 -0.06469796 0.75381160
v -0.40733230 -0.08789546 0.75436166
v -0.40713869 -0.10029136 0.75436166
v -0.40672619 -0.11216912 0.75381160
v -0.40616220 0.21996954 0.76566650
v -0.40643999 0.20809178 0.76566650
v -0.40598542 0.23065154 0.77754039
v -0.40596018 0.23065154 0.77634541
v -0.40622114 -0.12344900 0.75436166
v -0.40613696 -0.12400702 0.75381160
v -0.40508471 -0.13516733 0.75436166
v -0.40463014 -0.14234180 0.75872427
v -0.40571605 -0.13584492 0.76568547
v -0.40467225 -0.14254109 0.76568547
v -0.40263513 -0.14844011 0.76568547
v -0.39670897 -0.15944098 0.76568547
v -0.39235694 -0.16537985 0.76568547
v -0.39087540 -0.16458269 0.75436166
v -0.39132997 -0.13604420 0.68996579
v -0.38549641 -0.13604420 0.68440821
v -0.37763414 -0.13584492 0.67843334
v -0.37170801 -0.13584492 0.67545538
v -0.36296186 -0.12400702 0.67114968
v -0.36296186 -0.13584492 0.67323614
v -0.35110953 -0.13584492 0.67204116
v -0.35110953 -0.12400702 0.67016336
v -0.33924883 -0.12400702 0.67012542
v -0.33924883 -0.05282021 0.66096394
v -0.32738810 -0.05282021 0.66134330
v -0.32300238 -0.05282021 0.66157091
v -0.32300238 -0.04305494 0.66284175
v -0.37191003 0.23065154 0.64909006
v -0.36649734 0.19621404 0.64376009
v -0.32684935 0.14595280 0.64376009
v -0.40572447 0.14874288 0.74195669
v -0.40581706 0.13690498 0.74195669
v -0.40033705 0.04196267 0.69453705
v -0.40724811 -0.08841361 0.75381160
v -0.40707134 -0.10029136 0.75381160
v -0.39906595 -0.12400702 0.70639195
v -0.40545509 0.23065154 0.76490779
v -0.40473119 0.22901735 0.75853459
v -0.40500894 0.21996954 0.75707407
v -0.39846830 -0.13584492 0.70639195
v -0.40457965 -0.13074305 0.74736253
v -0.39842622 -0.13604420 0.70641092
v -0.40204589 -0.14688563 0.75438063
v -0.39665845 -0.15812567 0.75436166
v -0.39638069 -0.15864382 0.75436166
v -0.39617022 -0.15892283 0.75436166
v -0.39507589 -0.13604420 0.69599757
v -0.39141415 -0.13604420 0.69007960
v -0.39145623 -0.13584492 0.69002269
v -0.38553006 -0.13584492 0.68438924
v -0.38014265 -0.12400702 0.67718146
v -0.38365290 -0.13588476 0.68296665
v -0.37421653 -0.12400702 0.67437421
v -0.36296186 -0.01726667 0.66069839
v -0.35201025 0.05320269 0.65172660
v -0.35110953 -0.04098231 0.66098291
v -0.32738810 0.06571817 0.64926077
v -0.34806231 0.04200253 0.65244737
v -0.33924042 0.06571817 0.64931768
v -0.32684935 0.06571817 0.64927974
v -0.37786144 0.23065154 0.65478042
v -0.36649734 0.19589516 0.64376009
v -0.32914743 0.14081108 0.64376009
v -0.40447864 0.15480134 0.73598182
v -0.40459648 0.14874288 0.73545071
v -0.39825786 0.05384042 0.68266316
v -0.39824945 0.04256054 0.68266316
v -0.39824945 0.04196267 0.68268213
v -0.40019397 0.03016463 0.69453705
v -0.39569882 -0.12400702 0.69484053
v -0.39798007 0.03016463 0.68268213
v -0.40500052 0.23065154 0.76137976
v -0.38675068 0.23065154 0.67078929
v -0.39509276 -0.13584492 0.69597860
v -0.39839253 -0.13604420 0.70625918
v -0.39230646 -0.12400702 0.68890359
v -0.38637188 -0.12400702 0.68313737
v -0.38365290 -0.12400702 0.68051980
v -0.38071509 -0.11770941 0.67674519
v -0.38231448 0.03016463 0.66379015
v -0.37481418 0.03016463 0.66048974
v -0.37142177 -0.01726667 0.66341079
v -0.36252415 0.16062062 0.64376009
v -0.35983041 0.15161265 0.64376009
v -0.35707780 0.14734783 0.64376009
v -0.35169039 0.13961534 0.64376009
v -0.35028462 0.13790143 0.64376009
v -0.33924042 0.13487221 0.64376009
v -0.33041008 0.13977478 0.64376009
v -0.37845068 0.23065154 0.65536842
v -0.36612696 0.18437614 0.64376009
v -0.38902348 0.04260040 0.66841831
v -0.39771070 0.06567832 0.68266316
v -0.38332462 0.23065154 0.66130536
v -0.39442772 0.06567832 0.67426040
v -0.39448666 0.05384042 0.67426040
v -0.39439406 0.04196267 0.67435525
v -0.39420046 0.03016463 0.67473460
v -0.39373747 0.01836659 0.67545538
v -0.38824905 0.03016463 0.66879766
v -0.38309732 0.04200253 0.66318317
v -0.36497373 0.17245852 0.64376009
v -0.38928444 0.04260040 0.66868386
v -0.39400685 0.05284397 0.67372930
v -0.38366131 0.04196267 0.66367634
v -0.38366131 0.04256054 0.66365737
v -0.38903189 0.04196267 0.66845625
f 74 37 79
f 37 77 78
f 78 79 37
f 12 4 11
f 13 12 29
f 29 30 13
f 31 32 13
f 13 30 31
f 220 192 199
f 33 69 70
f 13 32 33
f 37 17 16
f 5 4 12
f 5 12 13
f 13 6 5
f 14 36 37
f 37 16 14
f 35 36 14
f 14 6 13
f 38 42 80
f 17 42 38
f 25 11 10
f 150 149 148
f 74 79 118
f 152 156 118
f 124 86 85
f 67 33 32
f 69 33 67
f 133 96 132
f 32 31 66
f 92 51 49
f 221 192 220
f 229 216 218
f 85 51 93
f 93 51 92
f 115 151 152
f 115 149 150
f 150 151 115
f 76 77 37
f 37 75 76
f 37 36 73
f 73 75 37
f 36 72 73
f 73 72 75
f 7 14 16
f 7 16 17
f 6 14 7
f 34 14 13
f 35 14 34
f 34 36 35
f 34 72 36
f 152 118 153
f 41 17 37
f 41 42 17
f 47 51 85
f 85 86 47
f 47 88 52
f 52 53 23
f 23 47 52
f 22 47 23
f 10 22 23
f 150 181 184
f 182 181 150
f 114 148 149
f 149 115 114
f 85 122 123
f 123 124 85
f 101 59 57
f 30 29 63
f 63 31 30
f 125 124 161
f 132 96 131
f 132 166 167
f 167 133 132
f 166 133 167
f 127 120 128
f 50 51 22
f 22 49 50
f 50 49 51
f 48 45 84
f 48 49 22
f 22 45 48
f 220 216 222
f 222 221 220
f 192 221 222
f 188 218 216
f 121 122 85
f 85 120 121
f 128 120 119
f 119 93 128
f 119 120 85
f 85 93 119
f 128 93 89
f 89 127 128
f 49 48 89
f 198 199 164
f 199 165 164
f 165 127 164
f 219 199 192
f 157 158 120
f 120 127 157
f 157 127 165
f 75 72 116
f 116 76 75
f 77 76 116
f 116 78 77
f 79 78 116
f 116 118 79
f 116 153 118
f 4 5 1
f 1 5 6
f 17 38 15
f 15 7 17
f 9 22 10
f 22 51 46
f 46 47 22
f 51 47 46
f 87 47 86
f 88 47 87
f 87 125 88
f 86 124 87
f 124 125 87
f 96 54 94
f 94 131 96
f 52 88 94
f 56 57 24
f 53 58 24
f 24 58 54
f 57 25 24
f 24 25 10
f 10 23 24
f 24 23 53
f 174 140 173
f 175 174 173
f 181 182 145
f 150 148 145
f 145 182 150
f 150 184 185
f 185 184 181
f 71 114 115
f 161 195 162
f 162 166 132
f 196 166 162
f 162 197 196
f 159 123 122
f 122 121 159
f 158 157 159
f 120 158 159
f 159 121 120
f 159 157 192
f 100 101 57
f 57 59 26
f 59 60 26
f 26 25 57
f 11 25 26
f 28 29 12
f 88 125 126
f 126 94 88
f 131 94 126
f 132 131 126
f 126 125 161
f 126 162 132
f 161 162 126
f 172 140 139
f 172 173 140
f 198 164 163
f 163 164 127
f 20 43 45
f 80 82 81
f 82 43 81
f 81 38 80
f 81 43 38
f 45 43 83
f 83 43 82
f 83 82 84
f 84 45 83
f 230 216 229
f 230 222 216
f 228 227 217
f 218 188 217
f 91 93 92
f 91 89 93
f 92 49 91
f 49 89 91
f 129 89 90
f 90 48 84
f 90 89 48
f 190 165 199
f 190 157 165
f 199 219 190
f 190 219 192
f 6 7 2
f 2 1 6
f 18 15 40
f 40 43 18
f 19 20 9
f 95 53 52
f 95 58 53
f 54 58 95
f 52 94 95
f 95 94 54
f 96 133 134
f 134 166 168
f 134 133 166
f 55 54 96
f 96 97 55
f 55 97 56
f 56 24 55
f 55 24 54
f 56 97 99
f 101 100 99
f 59 101 99
f 179 145 144
f 144 145 111
f 175 173 200
f 200 166 196
f 200 173 166
f 66 108 68
f 69 67 68
f 68 111 69
f 68 67 32
f 32 66 68
f 110 111 68
f 110 68 109
f 109 68 108
f 141 140 174
f 141 108 140
f 141 174 175
f 228 209 207
f 180 210 181
f 181 145 180
f 180 145 179
f 180 209 210
f 179 209 180
f 111 145 146
f 186 156 152
f 152 151 186
f 160 159 195
f 161 124 160
f 160 195 161
f 124 123 160
f 123 159 160
f 195 159 194
f 194 162 195
f 197 162 194
f 98 57 56
f 98 100 57
f 56 99 98
f 98 99 100
f 139 106 104
f 107 106 139
f 66 106 107
f 107 108 66
f 139 140 107
f 140 108 107
f 64 106 66
f 27 26 60
f 27 28 12
f 60 28 27
f 12 11 27
f 11 26 27
f 29 28 61
f 59 104 61
f 61 28 60
f 61 104 106
f 106 64 61
f 173 172 201
f 168 166 201
f 166 173 201
f 130 163 127
f 130 89 129
f 127 89 130
f 21 45 22
f 21 20 45
f 22 9 21
f 9 20 21
f 18 43 44
f 43 20 44
f 44 19 18
f 20 19 44
f 196 197 224
f 205 226 227
f 155 154 117
f 218 217 232
f 192 157 191
f 191 190 192
f 157 190 191
f 1 2 3
f 3 11 4
f 4 1 3
f 10 11 3
f 3 9 10
f 39 15 38
f 39 40 15
f 38 43 39
f 43 40 39
f 135 97 96
f 96 134 135
f 168 170 169
f 169 134 168
f 171 201 172
f 171 172 139
f 139 138 171
f 171 170 168
f 168 201 171
f 97 138 103
f 103 138 139
f 139 104 103
f 103 104 59
f 137 138 97
f 137 169 170
f 134 169 137
f 170 171 137
f 137 171 138
f 59 99 102
f 102 99 97
f 102 103 59
f 97 103 102
f 142 141 175
f 142 109 108
f 108 141 142
f 206 227 228
f 228 207 206
f 206 205 227
f 206 207 179
f 179 205 206
f 208 209 179
f 179 207 208
f 208 207 209
f 70 69 113
f 69 111 112
f 111 146 112
f 112 113 69
f 213 214 185
f 213 185 181
f 156 186 189
f 183 151 150
f 183 186 151
f 150 185 183
f 185 214 183
f 214 186 183
f 193 159 192
f 193 194 159
f 192 222 193
f 65 66 31
f 31 64 65
f 65 64 66
f 62 63 29
f 29 61 62
f 31 63 62
f 62 64 31
f 62 61 64
f 105 60 59
f 59 61 105
f 105 61 60
f 222 230 223
f 223 230 229
f 229 224 223
f 223 193 222
f 194 193 223
f 197 194 223
f 223 224 197
f 233 226 224
f 229 218 233
f 233 224 229
f 177 205 179
f 179 144 177
f 204 205 177
f 175 204 177
f 203 205 204
f 203 204 175
f 205 203 202
f 202 203 175
f 196 224 202
f 175 200 202
f 202 200 196
f 154 155 187
f 187 155 188
f 187 188 216
f 231 217 227
f 231 232 217
f 227 226 231
f 226 233 231
f 218 232 231
f 231 233 218
f 8 3 2
f 7 15 8
f 8 2 7
f 9 3 8
f 8 19 9
f 8 15 18
f 18 19 8
f 97 135 136
f 136 135 134
f 136 137 97
f 134 137 136
f 147 146 145
f 147 145 148
f 148 114 147
f 181 210 211
f 215 186 214
f 215 189 186
f 109 142 143
f 110 109 143
f 143 177 144
f 143 111 110
f 143 144 111
f 176 142 175
f 175 177 176
f 176 177 142
f 226 205 225
f 205 202 225
f 224 226 225
f 225 202 224
f 212 213 181
f 181 211 212
f 142 177 178
f 178 143 142
f 177 143 178
f 71 115 152
f 13 33 71
f 71 34 13
f 71 116 72
f 72 34 71
f 152 153 71
f 153 116 71
f 71 33 70
f 70 114 71
f 187 199 198
f 187 37 74
f 187 216 220
f 74 117 187
f 187 82 80
f 187 41 37
f 220 199 187
f 80 42 187
f 117 154 187
f 198 163 187
f 42 41 187
f 84 82 187
f 187 90 84
f 187 130 129
f 129 90 187
f 163 130 187
f 113 112 147
f 147 112 146
f 147 114 70
f 70 113 147
f 212 117 74
f 212 209 228
f 74 118 212
f 212 118 156
f 228 217 212
f 156 189 212
f 210 209 212
f 212 217 188
f 212 155 117
f 188 155 212
f 214 213 212
f 212 211 210
f 212 215 214
f 189 215 212