# https://github.com/mikedh/trimesh
v 0.11047332 -0.05331843 0.41780513
v 0.12475066 -0.05331843 0.42120637
v 0.18271494 -0.09192980 0.45247933
v 0.17480684 -0.09389644 0.45157846
v 0.16694148 -0.09466449 0.45117399
v 0.13522356 -0.09650312 0.44966642
v 0.12338277 -0.09700350 0.44944580
v 0.01685843 -0.07965282 0.44453699
v -0.19837034 -0.02918341 0.48119678
v -0.20837303 -0.01709263 0.48119678
v -0.21102332 -0.01298479 0.48119678
v -0.19153090 -0.01298479 0.48119678
v 0.13466785 -0.05331843 0.42453405
v 0.18968263 -0.08370248 0.45089821
v 0.19404278 -0.08796160 0.45475908
v 0.19455574 -0.09793446 0.46036651
v 0.17707241 -0.10627815 0.46312427
v 0.18168903 -0.10109971 0.45933695
v 0.12338277 -0.10292671 0.45553124
v 0.11154199 -0.10698800 0.46180055
v -0.16126635 -0.11700741 0.53569006
v -0.17314989 -0.11606481 0.53703217
v -0.17314989 -0.11012997 0.53092833
v -0.18499067 -0.10810515 0.53273007
v -0.18563188 -0.03872570 0.48119678
v -0.18674328 -0.03810894 0.48119678
v -0.19636125 -0.03096386 0.48119678
v -0.19738717 -0.03013764 0.48119678
v -0.20358543 -0.09529288 0.53368609
v -0.22940431 -0.02281801 0.49901189
v -0.22940431 -0.01696462 0.49533487
v -0.22940431 -0.01298479 0.49344121
v -0.19324075 -0.01298479 0.48378907
v 0.17194282 -0.05331843 0.49961859
v 0.17596100 -0.05331843 0.48127032
v 0.17707241 -0.05331843 0.47527679
v 0.17754262 -0.05331843 0.46911779
v 0.17279776 -0.05331843 0.45707559
v 0.15548542 -0.05331843 0.43705428
v 0.14753455 -0.05331843 0.43107913
v 0.14740632 -0.05331843 0.43100559
v 0.19075130 -0.06919121 0.45065921
v 0.19694954 -0.07659231 0.45312281
v 0.19100777 -0.07659231 0.45051213
v 0.20267759 -0.08845035 0.46056875
v 0.20148068 -0.09581654 0.46211309
v 0.19455574 -0.10279870 0.46911779
v 0.14407209 -0.12300043 0.57584300
v -0.14942557 -0.13072736 0.57617393
v 0.12338277 -0.10712765 0.46145124
v -0.14942557 -0.12964513 0.57021718
v -0.16126635 -0.12472270 0.55212629
v -0.16126635 -0.12087087 0.54162843
v -0.17314989 -0.12003302 0.54297053
v -0.18139998 -0.11896241 0.54466196
v -0.18520441 -0.11438910 0.54054371
v -0.19144540 -0.10660399 0.53401702
v -0.19935350 -0.10321764 0.53728956
v -0.20362817 -0.10697637 0.54517674
v -0.20756084 -0.09909815 0.54142619
v -0.21512697 -0.09497867 0.54552606
v -0.22940431 -0.02630909 0.50221088
v -0.22940431 -0.01298479 0.51228590
v -0.19683147 -0.01298479 0.48845887
v -0.19892605 -0.01298479 0.49081215
v -0.20892873 -0.01298479 0.49875449
v 0.14407209 -0.05128196 0.50533634
v 0.14407209 -0.05275985 0.50814926
v 0.14407209 -0.05623930 0.51327868
v 0.14407209 -0.11131695 0.58663503
v 0.20058300 -0.07055274 0.49882803
v 0.20135244 -0.05820594 0.47748299
v 0.20190814 -0.05775210 0.46911779
v 0.20152342 -0.05800812 0.46191086
v 0.20293406 -0.06475754 0.45988850
v 0.20361801 -0.07659231 0.45904280
v 0.20614005 -0.08845035 0.46911779
v 0.20293406 -0.09765518 0.46911779
v 0.14407209 -0.12380339 0.58663503
v 0.14407209 -0.12372193 0.58466783
v -0.13754203 -0.13170487 0.58771975
v -0.13754203 -0.13062263 0.57773666
v -0.14942557 -0.13186778 0.58771975
v -0.15801762 -0.13036662 0.57801244
v -0.14942557 -0.13045971 0.57464798
v -0.17314989 -0.12337281 0.55212629
v -0.18520441 -0.12026575 0.55203437
v -0.18930808 -0.11730996 0.54798966
v -0.19597653 -0.10878009 0.54085625
v -0.20563725 -0.10861718 0.55212629
v -0.21157902 -0.10294999 0.55212629
v -0.19648949 -0.11479639 0.55203437
v -0.21666586 -0.09701515 0.55212629
v -0.22269312 -0.08779869 0.55253076
v -0.22534341 -0.08003685 0.54885375
v -0.22940431 -0.02900886 0.50478479
v -0.22940431 -0.02449372 0.55245722
v -0.22940431 -0.06894684 0.60560840
v -0.13578942 -0.11039763 0.60562678
v 0.20058300 -0.07094840 0.49882803
v 0.20314780 -0.07557990 0.49323898
v 0.20212187 -0.06807407 0.49283451
v 0.20361801 -0.06393132 0.48125193
v 0.20528512 -0.06475754 0.46911779
v 0.20703773 -0.07659231 0.46911779
v 0.20584082 -0.08845035 0.48097615
v 0.20720871 -0.07659231 0.48097615
v 0.20242110 -0.09675913 0.48097615
v -0.13578942 -0.13016879 0.60562678
v -0.13942288 -0.13057609 0.60562678
v -0.14942557 -0.13104156 0.60562678
v -0.14942557 -0.13182124 0.59959648
v 0.20079672 -0.09462957 0.48713515
v 0.20242110 -0.08845035 0.48908396
v -0.16126635 -0.13107647 0.59959648
v -0.16169382 -0.13065754 0.58812422
v -0.16776382 -0.13007570 0.59233439
v -0.18499067 -0.12289570 0.56398465
v -0.19225759 -0.11878786 0.55589523
v -0.20012295 -0.11642556 0.56398465
v -0.20931345 -0.10990887 0.56438912
v -0.21367359 -0.10519591 0.56071211
v -0.21811924 -0.10085534 0.56438912
v -0.22457396 -0.09137123 0.56398465
v -0.22696777 -0.08339992 0.55675932
v -0.22842115 -0.07627812 0.55253076
v -0.22940431 -0.03167372 0.50750578
v -0.22940431 -0.09899342 0.60560840
v -0.22158170 -0.10819825 0.60562678
v -0.19708795 -0.10819825 0.60562678
v -0.16126635 -0.13070409 0.60562678
v -0.16878974 -0.13020370 0.60562678
v -0.16883250 -0.13022698 0.59959648
v -0.18499067 -0.12384993 0.57464798
v -0.19683147 -0.12273279 0.59959648
v -0.19683147 -0.12165055 0.58771975
v -0.19747266 -0.12005629 0.57617393
v -0.19418118 -0.11960245 0.56398465
v -0.20183281 -0.11737979 0.57242339
v -0.20538076 -0.11542479 0.57464798
v -0.20798831 -0.11356287 0.57464798
v -0.21508423 -0.10666217 0.56861768
v -0.22709600 -0.09525796 0.57970386
v -0.22807917 -0.08543639 0.56398465
v -0.22940431 -0.07987393 0.56049149
v -0.22940431 -0.07635958 0.55606069
v -0.22940431 -0.07466058 0.55413026
v -0.22940431 -0.09863268 0.60204170
v -0.22735249 -0.10180957 0.60560840
v -0.22521516 -0.10474207 0.60560840
v -0.22230840 -0.10758149 0.60560840
v -0.21927339 -0.11028126 0.60562678
v -0.19683147 -0.12268624 0.60562678
v -0.20529527 -0.11928825 0.60562678
v -0.20525253 -0.11928825 0.59959648
v -0.20405564 -0.11874132 0.58771975
v -0.20320070 -0.11833402 0.58034734
v -0.20777458 -0.11409818 0.57617393
v -0.21598190 -0.10753494 0.57464798
v -0.22371903 -0.10270561 0.58771975
v -0.22812193 -0.09679404 0.58771975
v -0.22940431 -0.09230218 0.58317864
v -0.22940431 -0.08898565 0.57591654
v -0.22940431 -0.08366757 0.56626439
v -0.22940431 -0.09833012 0.59957810
v -0.22931882 -0.09849304 0.59957810
v -0.22495869 -0.10442788 0.59957810
v -0.21901692 -0.11017653 0.59959648
v -0.21119430 -0.11611137 0.59959648
v -0.21123704 -0.11619282 0.60562678
v -0.20833029 -0.11777545 0.60562678
v -0.20999739 -0.11508732 0.58771975
v -0.21615290 -0.10768622 0.57584300
v -0.21777726 -0.10915248 0.58771975
v -0.21923064 -0.10819825 0.59009142
v -0.22940431 -0.09512996 0.58985241
v -0.22940431 -0.09428046 0.58771975
f 99 70 98
f 71 34 70
f 70 34 69
f 7 8 1
f 10 32 11
f 10 11 1
f 110 79 109
f 107 104 103
f 98 70 97
f 70 69 97
f 41 40 42
f 42 13 41
f 14 2 13
f 74 73 104
f 40 39 74
f 74 39 38
f 38 37 74
f 74 37 73
f 73 37 36
f 47 78 79
f 29 61 30
f 32 10 31
f 1 8 9
f 9 10 1
f 30 31 9
f 9 31 10
f 9 29 30
f 22 55 56
f 17 47 48
f 79 101 100
f 100 101 71
f 79 78 108
f 107 103 102
f 102 101 107
f 71 101 102
f 72 73 34
f 72 102 103
f 104 73 72
f 72 103 104
f 34 71 72
f 71 102 72
f 63 97 67
f 67 66 63
f 34 66 67
f 12 41 13
f 13 2 12
f 1 11 12
f 12 2 1
f 40 41 12
f 12 39 40
f 38 39 12
f 12 37 38
f 12 36 37
f 43 13 42
f 34 64 65
f 65 66 34
f 6 7 1
f 2 14 3
f 1 2 3
f 3 4 1
f 8 7 19
f 19 20 8
f 19 6 17
f 7 6 19
f 54 55 22
f 125 124 144
f 164 145 144
f 144 145 125
f 59 29 58
f 91 59 90
f 61 59 91
f 123 124 93
f 61 91 93
f 24 25 8
f 22 56 24
f 83 81 112
f 112 81 79
f 130 99 98
f 135 133 132
f 118 138 119
f 82 48 81
f 79 81 80
f 81 48 80
f 80 47 79
f 80 48 47
f 114 101 79
f 68 97 69
f 68 67 97
f 68 69 34
f 34 67 68
f 33 64 34
f 34 12 33
f 35 12 34
f 36 12 35
f 34 73 35
f 73 36 35
f 44 14 13
f 13 43 44
f 44 43 14
f 78 47 46
f 75 74 104
f 75 43 42
f 42 40 75
f 40 74 75
f 5 4 17
f 17 6 5
f 1 4 5
f 5 6 1
f 50 19 17
f 20 19 50
f 51 20 50
f 21 54 22
f 22 8 21
f 8 20 21
f 52 20 51
f 147 127 126
f 125 145 126
f 125 126 95
f 95 126 127
f 127 96 95
f 95 96 61
f 61 29 60
f 60 59 61
f 29 59 60
f 90 59 92
f 23 8 22
f 22 24 23
f 23 24 8
f 58 29 57
f 57 59 58
f 57 89 59
f 57 24 56
f 25 24 57
f 8 25 26
f 26 27 8
f 25 57 26
f 26 57 27
f 28 9 8
f 8 27 28
f 27 57 28
f 29 9 28
f 28 57 29
f 98 128 129
f 129 130 98
f 111 79 110
f 111 112 79
f 115 132 133
f 83 112 115
f 135 132 153
f 135 155 156
f 156 169 157
f 155 169 156
f 139 138 157
f 122 91 90
f 90 121 122
f 123 93 122
f 122 93 91
f 84 52 51
f 87 118 119
f 135 118 134
f 157 138 137
f 138 118 137
f 79 108 113
f 113 114 79
f 106 108 78
f 107 101 106
f 101 114 106
f 106 113 108
f 114 113 106
f 14 43 15
f 15 3 14
f 17 4 18
f 105 75 104
f 105 104 107
f 43 75 76
f 75 105 76
f 20 52 53
f 53 52 54
f 53 21 20
f 54 21 53
f 147 126 146
f 146 126 145
f 30 61 62
f 61 96 62
f 125 95 94
f 94 95 61
f 61 93 94
f 94 124 125
f 94 93 124
f 88 92 59
f 59 89 88
f 119 92 88
f 88 56 55
f 55 87 88
f 88 87 119
f 88 57 56
f 89 57 88
f 152 169 170
f 164 144 163
f 159 158 173
f 112 111 131
f 131 115 112
f 132 115 131
f 154 155 135
f 135 153 154
f 173 158 172
f 157 169 172
f 172 158 157
f 157 158 140
f 140 139 157
f 120 121 90
f 90 92 120
f 139 140 120
f 120 92 119
f 119 138 120
f 138 139 120
f 118 84 117
f 117 134 118
f 117 133 135
f 135 134 117
f 83 84 49
f 49 81 83
f 49 82 81
f 49 50 17
f 17 48 49
f 48 82 49
f 118 87 86
f 86 84 118
f 52 84 86
f 54 52 86
f 55 54 86
f 86 87 55
f 136 118 135
f 136 137 118
f 157 137 136
f 136 156 157
f 135 156 136
f 3 15 16
f 16 15 46
f 4 3 16
f 16 18 4
f 17 18 16
f 16 47 17
f 16 46 47
f 43 76 45
f 45 15 43
f 46 15 45
f 167 150 166
f 169 152 168
f 168 172 169
f 143 144 124
f 143 163 144
f 143 124 123
f 142 122 121
f 123 122 142
f 142 143 123
f 155 154 171
f 170 169 171
f 171 169 155
f 116 84 83
f 116 117 84
f 83 115 116
f 116 115 133
f 133 117 116
f 85 84 51
f 85 49 84
f 51 50 85
f 50 49 85
f 77 76 105
f 77 45 76
f 77 106 78
f 78 46 77
f 46 45 77
f 107 106 77
f 77 105 107
f 149 129 128
f 149 150 129
f 176 166 165
f 151 152 129
f 151 168 152
f 129 150 151
f 151 150 167
f 167 168 151
f 173 172 174
f 172 168 174
f 163 143 162
f 160 159 173
f 160 142 159
f 143 142 160
f 173 174 160
f 158 159 141
f 159 142 141
f 141 142 121
f 141 140 158
f 121 120 141
f 141 120 140
f 148 165 166
f 148 149 128
f 148 166 150
f 150 149 148
f 175 168 167
f 175 174 168
f 167 160 175
f 175 160 174
f 161 162 143
f 161 166 176
f 143 160 161
f 167 166 161
f 161 160 167
f 177 161 176
f 162 161 177
f 70 99 109
f 109 79 70
f 70 79 100
f 100 71 70
f 33 32 63
f 11 32 33
f 63 66 33
f 33 12 11
f 33 65 64
f 66 65 33
f 171 109 99
f 110 109 171
f 99 130 171
f 132 131 171
f 171 111 110
f 130 129 171
f 171 152 170
f 171 153 132
f 129 152 171
f 171 131 111
f 171 154 153
f 177 31 30
f 98 97 177
f 177 145 164
f 63 32 177
f 177 97 63
f 177 128 98
f 32 31 177
f 177 127 147
f 30 62 177
f 147 146 177
f 177 96 127
f 164 163 177
f 177 146 145
f 177 62 96
f 177 148 128
f 176 165 177
f 163 162 177
f 165 148 177