# https://github.com/mikedh/trimesh
v 0.20667936 0.50417729 0.80531487
v 0.20667936 0.48484921 0.80531487
v 0.20667936 0.50375784 0.80124813
v 0.20660190 0.50421042 0.80531487
v 0.20667936 0.48415380 0.80124813
v 0.18658997 0.49663814 0.80531487
v -0.05706484 0.43629172 0.65786835
v -0.05706484 0.43500021 0.65580751
v -0.05706484 0.43036414 0.64808621
v -0.05706484 0.42705263 0.64215098
v -0.05706484 0.42391776 0.63519906
v -0.05706484 0.40223853 0.58466717
v -0.05706484 0.39848550 0.57590172
v -0.05706484 0.39758036 0.57342870
v -0.04263044 0.39881664 0.57590172
v 0.05970148 0.40380599 0.58197434
v 0.17086448 0.40965627 0.58777218
v 0.18271669 0.41056141 0.58777218
v 0.18578948 0.41165422 0.58777218
v 0.18578948 0.40869595 0.57595667
v 0.18578948 0.39721609 0.52863970
v 0.18578948 0.39642134 0.52460045
v 0.20644697 0.50426561 0.80531487
v 0.20667936 0.50371368 0.80091840
v 0.20644697 0.50383509 0.80124813
v 0.20667936 0.46776193 0.69391938
v 0.18658997 0.50147291 0.80531487
v 0.04619666 0.47489266 0.72422753
v -0.05706484 0.44283741 0.65951703
v -0.05706484 0.39344100 0.56117355
v 0.05229062 0.40152106 0.57590172
v 0.06383298 0.40224956 0.57686345
v 0.06414284 0.39861798 0.56403125
v 0.01213767 0.39189565 0.54666521
v 0.17899835 0.40356313 0.55952487
v 0.18271669 0.40771352 0.57590172
v 0.18578948 0.41067179 0.52460045
v 0.20667936 0.46753010 0.69180358
v 0.01213767 0.39189565 0.54347777
v 0.00914234 0.39189565 0.54347777
v 0.01632081 0.39291116 0.53982321
v 0.00503667 0.39304364 0.53982321
v 0.00483009 0.39866214 0.53045324
v -0.05706484 0.40088084 0.53061811
v -0.05706484 0.40600259 0.52460045
v 0.19459474 0.50333838 0.78937767
v 0.19459474 0.50466297 0.80531487
v 0.20667936 0.49062225 0.70598218
v 0.20644697 0.49072160 0.70636688
v 0.20107602 0.49886788 0.75904205
v 0.19459474 0.50187027 0.77753468
v 0.03235617 0.47565432 0.71356610
v 0.04619666 0.47511342 0.72422753
v -0.04970562 0.44944937 0.66517748
v -0.05706484 0.44525482 0.65951703
v -0.05706484 0.39273456 0.55468876
v 0.00914234 0.39189565 0.54666521
v 0.18377538 0.41167628 0.52460045
v 0.20667936 0.48839251 0.69180358
v -0.05706484 0.39273456 0.55424911
v -0.05706484 0.39291116 0.55166620
v -0.05706484 0.39547204 0.54051016
v -0.05706484 0.41902780 0.52460045
v 0.18343972 0.49957432 0.76555432
v 0.17548658 0.49919902 0.76942871
v 0.03235617 0.47565432 0.71015883
v 0.20667936 0.48878987 0.69422163
v 0.20644697 0.48885613 0.69449642
v 0.19459474 0.49891204 0.75882223
v 0.18785524 0.49885681 0.75920691
v -0.04970562 0.45159078 0.66517748
v -0.04970562 0.45159078 0.66385854
v -0.05706484 0.44454838 0.64706953
v 0.18251011 0.41230547 0.52460045
v 0.20644697 0.48840354 0.69180358
v 0.18578948 0.47485956 0.65066914
v 0.18578948 0.47604065 0.65325206
v -0.04263044 0.45247386 0.66229229
v 0.19573091 0.48785164 0.69180358
v 0.18578948 0.47790612 0.65888503
v -0.05448266 0.41910505 0.52460045
v 0.19459474 0.49046771 0.70636688
v 0.19459474 0.49239943 0.71823734
v 0.16866962 0.41559488 0.52460045
v 0.16125876 0.41667665 0.52460045
v 0.15898642 0.41695260 0.52460045
v 0.14011067 0.41878494 0.52460045
v 0.12722558 0.41983359 0.52460045
v 0.11537336 0.42026408 0.52460045
v 0.04423421 0.42063938 0.52460045
v 0.02856036 0.42065044 0.52460045
v 0.00857426 0.42057316 0.52460045
v 0.00483009 0.42051797 0.52460045
v -0.05107417 0.41919337 0.52460045
f 5 2 22
f 78 66 63
f 2 17 18
f 7 2 6
f 80 77 63
f 44 45 22
f 22 34 39
f 9 10 2
f 2 10 11
f 2 18 19
f 35 17 34
f 34 17 33
f 17 32 33
f 33 30 34
f 16 17 2
f 2 15 16
f 66 78 72
f 72 78 63
f 7 6 28
f 26 5 22
f 22 38 26
f 66 64 82
f 89 90 77
f 22 42 43
f 43 44 22
f 42 44 43
f 41 42 22
f 8 2 7
f 8 9 2
f 12 13 2
f 2 11 12
f 22 2 21
f 21 34 22
f 21 35 34
f 36 18 17
f 17 35 36
f 36 21 18
f 35 21 36
f 34 30 56
f 2 13 14
f 14 15 2
f 30 15 14
f 31 32 17
f 17 16 31
f 31 33 32
f 30 33 31
f 31 15 30
f 31 16 15
f 73 72 63
f 53 52 71
f 27 52 53
f 66 52 47
f 47 52 27
f 66 82 79
f 63 66 79
f 79 80 63
f 75 79 82
f 80 79 75
f 75 59 77
f 77 80 75
f 64 51 70
f 70 82 64
f 59 37 58
f 58 74 59
f 77 93 94
f 77 90 91
f 88 89 77
f 42 41 40
f 22 39 40
f 40 41 22
f 2 19 20
f 20 21 2
f 20 19 18
f 18 21 20
f 71 72 55
f 72 73 55
f 46 51 64
f 69 70 51
f 82 70 83
f 76 86 87
f 87 88 76
f 76 88 77
f 74 84 76
f 77 59 76
f 59 74 76
f 63 77 81
f 77 94 81
f 92 93 77
f 77 91 92
f 42 40 62
f 62 44 42
f 34 56 57
f 29 28 54
f 7 28 29
f 25 50 51
f 51 46 25
f 59 75 68
f 68 69 51
f 70 69 68
f 68 83 70
f 68 75 82
f 82 83 68
f 66 47 65
f 47 46 65
f 65 64 66
f 65 46 64
f 85 76 84
f 86 76 85
f 61 62 40
f 48 25 24
f 50 25 49
f 49 25 48
f 51 50 49
f 49 68 51
f 23 25 46
f 23 46 47
f 59 68 67
f 67 49 48
f 68 49 67
f 60 61 40
f 3 24 25
f 25 23 3
f 1 3 4
f 4 3 23
f 52 72 71
f 66 72 52
f 59 38 37
f 37 38 22
f 54 28 53
f 53 71 54
f 53 6 27
f 53 28 6
f 57 40 39
f 57 39 34
f 54 71 29
f 71 55 29
f 85 45 63
f 22 45 85
f 85 91 90
f 85 37 22
f 74 58 85
f 85 84 74
f 87 86 85
f 85 88 87
f 90 89 85
f 93 92 85
f 85 58 37
f 85 94 93
f 63 81 85
f 89 88 85
f 85 81 94
f 85 92 91
f 63 45 60
f 60 14 13
f 45 44 60
f 44 62 60
f 60 8 7
f 10 9 60
f 60 11 10
f 13 12 60
f 9 8 60
f 60 12 11
f 60 56 30
f 30 14 60
f 60 73 63
f 60 55 73
f 7 29 60
f 60 29 55
f 62 61 60
f 40 57 60
f 60 57 56
f 2 5 3
f 1 2 3
f 5 26 3
f 3 38 59
f 3 26 38
f 59 67 3
f 48 24 3
f 3 67 48
f 4 2 1
f 4 6 2
f 27 6 4
f 4 47 27
f 4 23 47