# https://github.com/mikedh/trimesh
v -0.26008576 0.23066648 0.77580374
v -0.26008576 0.24690326 0.77580374
v -0.23619944 0.28821157 0.61027535
v -0.24963481 0.23066648 0.77580374
v -0.26008576 0.23066648 0.81435745
v -0.23619944 0.30698537 0.61027535
v -0.26008576 0.31255182 0.80684873
v -0.17690147 0.28821157 0.61027535
v -0.24977590 0.23066648 0.77785771
v -0.25957569 0.23066648 0.81361668
v -0.20151490 0.30764199 0.85698539
v -0.20465127 0.30998497 0.86489818
v -0.20266526 0.32067020 0.87853507
v -0.20117847 0.34308536 0.90372122
v -0.20300169 0.38311021 0.95055810
v -0.20786361 0.38311021 0.95288142
v -0.20984960 0.38311021 0.95358850
v -0.22096255 0.38311021 0.95426195
v -0.22124472 0.38311021 0.95419460
v -0.22162455 0.38311021 0.95409359
v -0.23250960 0.38311021 0.94897555
v -0.23619944 0.38311021 0.94506968
v -0.26008576 0.31255182 0.82664751
v -0.23619944 0.30838817 0.61232930
v -0.23418089 0.30771659 0.61027535
v -0.23619944 0.38311021 0.91641536
v -0.23619944 0.30991037 0.61519137
v -0.15220122 0.32472941 0.61027535
v -0.14922764 0.32628145 0.64893008
v -0.14922764 0.32628145 0.65896414
v -0.14922764 0.32731118 0.69452110
v -0.14922764 0.32804244 0.70637341
v -0.24994955 0.23066648 0.77873316
v -0.20246992 0.28486870 0.79762278
v -0.20313192 0.28558502 0.80553556
v -0.25897880 0.23066648 0.81253920
v -0.19971339 0.30562732 0.84873590
v -0.14921678 0.38311021 0.88833343
v -0.20083119 0.31852122 0.87244055
v -0.18943609 0.38311021 0.93904251
v -0.19538325 0.38311021 0.94486762
v -0.19611037 0.38311021 0.94547372
v -0.17458989 0.32472941 0.61027535
v -0.14921678 0.38311021 0.85378663
v -0.14943383 0.33866800 0.64893008
v -0.16130644 0.33647422 0.64893008
v -0.19069498 0.32472941 0.62347453
v -0.17908282 0.32472941 0.61350781
v -0.14922764 0.33868292 0.64893008
v -0.14921678 0.34542834 0.78671327
v -0.14922764 0.33002727 0.71782167
v -0.25083945 0.23066648 0.78260536
v -0.14921678 0.34851750 0.80021548
v -0.19908395 0.29274831 0.81314528
v -0.20062500 0.29492715 0.82499760
v -0.25561454 0.23066648 0.80270716
v -0.25515873 0.23066648 0.80129298
v -0.14922764 0.34257793 0.77627516
v -0.20197070 0.29637473 0.83297771
v -0.20395671 0.29791185 0.84089048
v -0.19827001 0.30232921 0.83691728
v -0.14921678 0.37928979 0.88018496
v -0.14921678 0.38309529 0.85371927
v -0.14921678 0.35978475 0.78671327
v -0.14921678 0.34881597 0.80115829
v -0.14921678 0.35306917 0.81371771
v -0.19397242 0.30340371 0.82614243
v -0.14921678 0.36630634 0.84833186
v -0.14921678 0.37605140 0.87244055
f 7 26 27
f 27 26 47
f 28 43 49
f 40 13 38
f 5 13 14
f 14 40 41
f 13 40 14
f 18 5 17
f 5 16 17
f 6 2 7
f 48 27 47
f 43 27 48
f 5 22 23
f 21 22 5
f 32 9 8
f 8 9 4
f 29 8 28
f 29 30 8
f 28 49 29
f 15 16 5
f 5 14 15
f 7 27 24
f 24 6 7
f 24 27 43
f 45 49 43
f 43 48 45
f 45 26 44
f 44 49 45
f 20 21 5
f 12 13 5
f 5 11 12
f 12 11 13
f 59 61 37
f 38 11 37
f 38 13 39
f 39 11 38
f 13 11 39
f 8 30 31
f 31 32 8
f 36 37 11
f 55 54 66
f 55 61 59
f 59 36 55
f 9 32 34
f 42 14 41
f 42 15 14
f 25 24 43
f 6 24 25
f 26 45 46
f 46 45 48
f 47 26 46
f 46 48 47
f 19 5 18
f 19 20 5
f 63 49 44
f 63 64 49
f 38 37 62
f 62 37 61
f 59 37 60
f 60 36 59
f 37 36 60
f 10 11 5
f 10 36 11
f 66 54 65
f 54 53 65
f 50 53 58
f 32 31 50
f 50 31 30
f 30 29 50
f 67 55 66
f 61 55 67
f 66 68 67
f 67 68 61
f 56 55 36
f 9 34 35
f 54 55 35
f 35 53 54
f 35 56 57
f 55 56 35
f 58 53 35
f 61 68 69
f 69 62 61
f 9 35 33
f 51 34 32
f 51 35 34
f 58 35 51
f 51 50 58
f 32 50 51
f 52 35 57
f 52 33 35
f 1 2 6
f 6 3 1
f 23 2 1
f 1 5 23
f 7 2 23
f 23 22 26
f 23 26 7
f 3 8 4
f 1 3 4
f 28 8 25
f 25 8 3
f 25 43 28
f 3 6 25
f 18 17 19
f 38 44 19
f 19 40 38
f 44 26 19
f 19 42 41
f 26 22 19
f 41 40 19
f 19 17 16
f 22 21 19
f 16 15 19
f 21 20 19
f 15 42 19
f 50 29 49
f 49 64 50
f 69 44 38
f 38 62 69
f 69 63 44
f 69 68 66
f 66 65 69
f 64 63 69
f 69 50 64
f 69 65 53
f 53 50 69
f 52 5 1
f 1 4 52
f 52 4 9
f 57 56 52
f 52 10 5
f 36 10 52
f 52 56 36
f 9 33 52