# https://github.com/mikedh/trimesh
v 0.04840885 0.52476025 0.95550544
v 0.04798940 0.52487081 0.96736830
v 0.04840885 0.51956489 0.95550544
v 0.04756996 0.52374696 0.94364258
v 0.03519652 0.53480095 1.00291066
v 0.03885163 0.53810794 1.06790246
v 0.04798940 0.52038472 0.96736830
v 0.04715052 0.52416151 0.97923112
v 0.04756996 0.51986888 0.94364258
v 0.03843219 0.50917413 0.91996308
v 0.04034962 0.52734874 0.95550544
v 0.03444752 0.53434957 0.99700232
v 0.04664121 0.52280739 0.93653413
v 0.02851545 0.54065955 1.05036206
v 0.02851545 0.54161758 1.06222492
v 0.03885163 0.53291258 1.06790246
v 0.04655133 0.52320348 0.98643192
v 0.02851545 0.54202286 1.06790246
v 0.00757347 0.54873816 1.16340527
v 0.04715052 0.52149934 0.97923112
v 0.03726375 0.50916494 0.90814636
v 0.04664121 0.52114928 0.93653413
v -0.11379418 0.45869432 0.69189176
v -0.10771231 0.46016819 0.69189176
v 0.04655133 0.52222706 0.98643192
v 0.00757347 0.53401797 1.15269642
v 0.00757347 0.53320734 1.14738813
v 0.00757347 0.53293100 1.14549562
v -0.23573105 0.46187233 1.03115995
v 0.04034962 0.52532216 0.94364258
v 0.02851545 0.52552482 0.94364258
v 0.02851545 0.52753294 0.95550544
v -0.12559839 0.53982131 1.02659020
v 0.01662137 0.53866985 1.02663638
v 0.01662137 0.54030030 1.03849920
v -0.14935660 0.52681445 0.94350413
v 0.03534632 0.51142179 0.90173028
v -0.10618436 0.47545951 0.69955415
v -0.08410389 0.48698328 0.74779023
v 0.04034962 0.52323112 0.93427233
v 0.00757347 0.53650509 1.16340527
v -0.14935660 0.55033178 1.10967631
v -0.13752243 0.54954879 1.14526481
v -0.12565831 0.54791833 1.15712767
v -0.13713295 0.54766961 1.15772773
v -0.13287865 0.54638921 1.16340527
v -0.16122073 0.55058973 1.10967631
v 0.03534632 0.51003084 0.90173028
v -0.10612444 0.46138410 0.69189176
v -0.11699988 0.45804028 0.69189176
v -0.20406341 0.46187233 0.69184561
v -0.01936050 0.53270069 1.16340527
v -0.03083515 0.53189006 1.16340527
v -0.09012583 0.52822383 1.16340527
v -0.10201993 0.52787377 1.16340527
v -0.13899047 0.52784616 1.16340527
v -0.24645670 0.46187233 1.03115995
v -0.16125069 0.45649273 0.69189176
v -0.14935660 0.45671381 0.69189176
v 0.02851545 0.52346139 0.93270293
v -0.22263856 0.49891235 0.78250175
v -0.13752243 0.53985815 1.02659020
v -0.16125069 0.52684210 0.94350413
v -0.10567503 0.46824680 0.69189176
v -0.11379418 0.47572666 0.69895408
v -0.23243545 0.48072859 0.69184561
v -0.11379418 0.47832434 0.70647797
v -0.11298526 0.47198671 0.69189176
v -0.11379418 0.47224467 0.69189176
v -0.11379418 0.47281576 0.69299958
v -0.09015580 0.48716751 0.74691321
v -0.10198996 0.48746231 0.74552844
v -0.14935660 0.54846182 1.14526481
v -0.14935660 0.54715377 1.15417350
v -0.13299849 0.54637079 1.16340527
v -0.16122073 0.54898689 1.09776728
v -0.19681312 0.53775788 1.02659020
v -0.20406341 0.53735257 1.02663638
v -0.20873717 0.53706700 1.02663638
v -0.20873717 0.53761971 1.03115995
v -0.20870721 0.53851326 1.03854538
v -0.19291833 0.54653660 1.10136768
v -0.19291833 0.54653660 1.10690677
v -0.17308486 0.54902373 1.10967631
v -0.25571431 0.46187233 0.69184561
v -0.20406341 0.47344216 0.69184561
v -0.18408016 0.52784616 1.16340527
v -0.24726564 0.46935219 1.03115995
v -0.25029158 0.47375537 1.02118960
v -0.25002194 0.46187233 1.01597363
v -0.18497895 0.45699015 0.69189176
v -0.17308486 0.45660329 0.69189176
v -0.18752554 0.52784616 1.16174356
v -0.19630380 0.52784616 1.15634299
v -0.20271524 0.52784616 1.15121933
v -0.20822784 0.52784616 1.14512636
v -0.21392023 0.52784616 1.13861797
v -0.21748545 0.52784616 1.13354048
v -0.22809128 0.52784616 1.11826185
v -0.23186623 0.52784616 1.10967631
v -0.23204598 0.52784616 1.10926088
v -0.11379418 0.48773865 0.74432831
v -0.23243545 0.48129969 0.69456898
v -0.22527505 0.48706618 0.72341832
v -0.22797144 0.49891235 0.78250175
v -0.14935660 0.53955416 1.02659020
v -0.17308486 0.52677761 0.94350413
v -0.18494899 0.52832516 0.95532082
v -0.22069118 0.47849016 0.69184561
v -0.24441944 0.47867436 0.69184561
v -0.23839750 0.48692801 0.72415686
v -0.21137364 0.47583718 0.69184561
v -0.15627734 0.54642605 1.15223481
v -0.14935660 0.54499825 1.16012802
v -0.14000911 0.54496141 1.16340527
v -0.19681312 0.52799356 0.95532082
v -0.20406341 0.52758824 0.95545930
v -0.20873717 0.52730267 0.95545930
v -0.21649679 0.53481015 1.01791232
v -0.22057134 0.53656958 1.03854538
v -0.22057134 0.53889092 1.07408774
v -0.22057134 0.53960023 1.08599677
v -0.22057134 0.54008842 1.09776728
v -0.22057134 0.53736179 1.05040820
v -0.22057134 0.53957258 1.10967631
v -0.20870721 0.54095435 1.12153913
v -0.25595402 0.46187233 0.69913870
v -0.25655319 0.46912192 0.75383706
v -0.25610379 0.46912192 0.74197420
v -0.25472566 0.46642287 0.69184561
v -0.17398367 0.53483780 1.16340527
v -0.18497895 0.53114391 1.16077425
v -0.23516183 0.52784616 1.09772111
v -0.25032154 0.48098651 1.02132809
v -0.25355720 0.46187233 0.98380087
v -0.25238876 0.46187233 0.99566372
v -0.25116041 0.46187233 1.00757272
v -0.25056122 0.46187233 1.01315795
v -0.25394667 0.46187233 0.97918498
v -0.25451593 0.46187233 0.97193804
v -0.25484548 0.46187233 0.96732213
v -0.25553456 0.46187233 0.95545930
v -0.25586411 0.46187233 0.94821233
v -0.25607384 0.46187233 0.94359645
v -0.25625359 0.46187233 0.93634947
v -0.25745200 0.46187233 0.87708141
v -0.25751193 0.46187233 0.87246551
v -0.25766173 0.46187233 0.86060267
v -0.25760180 0.46187233 0.84873983
v -0.25673298 0.46187233 0.76569990
v -0.19303817 0.53576818 1.15283490
v -0.20097754 0.53236909 1.14955762
v -0.21287164 0.53154004 1.13741782
v -0.22698276 0.53492990 1.11636934
v -0.22803135 0.52840806 1.11812340
v -0.23177636 0.52840806 1.10967631
v -0.23588086 0.49833203 0.78540977
v -0.23213587 0.49943742 0.78937944
v -0.19681312 0.52608672 0.94350413
v -0.18494899 0.52653811 0.94350413
v -0.25077093 0.47563452 0.69184561
v -0.23884689 0.49904133 0.79330295
v -0.19684308 0.54135043 1.13340199
v -0.18497895 0.54118462 1.14526481
v -0.16062154 0.54376388 1.15657379
v -0.16107092 0.53982131 1.16340527
v -0.15537855 0.54144254 1.16340527
v -0.14953636 0.54300854 1.16340527
v -0.22060131 0.52563537 0.95545930
v -0.22051141 0.53526153 1.02765186
v -0.22054138 0.53568527 1.03115995
v -0.22509528 0.53460749 1.03115995
v -0.22656332 0.53438641 1.03231392
v -0.22710260 0.53473647 1.03854538
v -0.22770180 0.53513255 1.05040820
v -0.22860059 0.53575895 1.07408774
v -0.22922976 0.53644983 1.09776728
v -0.22836092 0.53607216 1.10967631
v -0.22024177 0.53693806 1.12080059
v -0.20882705 0.53779472 1.13340199
v -0.25325763 0.47977979 0.75383706
v -0.25712245 0.46912192 0.84873983
v -0.25637344 0.48098651 0.86060267
v -0.25619370 0.48098651 0.84873983
v -0.25517503 0.46912192 0.71829467
v -0.25385680 0.46927851 0.69184561
v -0.25469568 0.46912192 0.70643182
v -0.25415640 0.46912192 0.69456898
v -0.17053826 0.53656958 1.16340527
v -0.23695941 0.52784616 1.08599677
v -0.25029158 0.48747150 1.02100498
v -0.25089078 0.48098651 1.01477352
v -0.25053125 0.49199443 1.01403498
v -0.25448595 0.46912192 0.96732213
v -0.25517503 0.46912192 0.95545930
v -0.25568436 0.46912192 0.94359645
v -0.25628357 0.48098651 0.87246551
v -0.18497895 0.53737099 1.15481973
v -0.19693295 0.53781314 1.14549562
v -0.20493226 0.53607216 1.14166441
v -0.21607735 0.53580502 1.12952465
v -0.25140010 0.47440019 0.69184561
v -0.25095069 0.47583718 0.69456898
v -0.25035151 0.48705699 0.77054658
v -0.24981223 0.48646744 0.76265341
v -0.24325101 0.51468271 0.95545930
v -0.23477235 0.52060580 0.95545930
v -0.22764187 0.52293636 0.94715067
v -0.23303466 0.53023199 1.03854538
v -0.23363387 0.53070176 1.05040820
v -0.23848738 0.52257708 0.99621764
v -0.23887685 0.52289949 1.00291066
v -0.23456262 0.53113472 1.07408774
v -0.23776833 0.52784616 1.07408774
v -0.23492214 0.53047149 1.08599677
v -0.25283817 0.49119299 0.84873983
v -0.25026163 0.51065723 0.97295353
v -0.25116041 0.48810712 0.78947175
v -0.25068105 0.48746231 0.77760891
v -0.25154990 0.47657413 0.70643182
v -0.25385680 0.49285110 0.94359645
v -0.25199929 0.50302997 0.95545930
v -0.25208918 0.50224699 0.94359645
v -0.25301792 0.49190230 0.86060267
v -0.25029158 0.51066642 0.98555489
v -0.25029158 0.49919792 1.00960372
v -0.25116041 0.49285110 1.00291066
v -0.25361712 0.49285110 0.95545930
v -0.23944608 0.52336929 1.01477352
v -0.23995541 0.52400488 1.03115995
v -0.23692947 0.52784616 1.05040820
v -0.23746875 0.52784616 1.06227106
v -0.25029158 0.51068484 0.97918498
f 50 23 29
f 51 23 50
f 35 33 47
f 29 23 10
f 10 28 29
f 58 85 51
f 29 57 58
f 162 204 206
f 206 204 217
f 90 57 89
f 47 19 42
f 42 35 47
f 36 33 12
f 35 14 12
f 51 86 64
f 7 10 3
f 29 41 52
f 55 56 29
f 29 54 55
f 51 50 59
f 59 58 51
f 59 50 29
f 29 58 59
f 57 90 91
f 162 206 207
f 89 57 88
f 88 133 89
f 89 137 138
f 138 90 89
f 137 91 138
f 138 91 90
f 122 123 82
f 47 33 62
f 62 76 47
f 62 33 36
f 81 82 47
f 120 82 81
f 47 76 77
f 118 169 119
f 119 79 118
f 169 170 119
f 120 81 119
f 33 35 34
f 34 12 33
f 35 12 34
f 5 12 14
f 26 41 29
f 10 25 26
f 20 10 7
f 20 25 10
f 38 66 67
f 24 10 23
f 24 23 51
f 64 38 37
f 9 3 10
f 53 54 29
f 29 52 53
f 179 125 178
f 126 125 179
f 43 19 47
f 205 204 162
f 85 58 92
f 92 91 85
f 92 58 57
f 57 91 92
f 127 128 85
f 150 128 127
f 85 91 127
f 127 91 150
f 148 183 182
f 183 128 182
f 184 128 183
f 223 222 217
f 183 222 223
f 217 184 223
f 223 184 183
f 217 222 233
f 233 222 225
f 233 214 217
f 225 214 233
f 197 183 148
f 121 122 82
f 82 123 83
f 123 125 83
f 83 125 126
f 47 82 83
f 83 84 47
f 160 107 105
f 105 159 160
f 47 79 80
f 80 81 47
f 79 119 80
f 80 119 81
f 78 79 47
f 47 77 78
f 159 105 116
f 116 78 77
f 160 159 116
f 116 77 76
f 120 119 171
f 171 119 170
f 28 10 27
f 10 26 27
f 29 28 27
f 27 26 29
f 6 8 2
f 6 2 1
f 1 5 6
f 69 109 66
f 51 64 49
f 49 24 51
f 22 9 21
f 21 9 10
f 10 24 21
f 24 49 21
f 13 37 38
f 154 179 178
f 57 98 99
f 45 46 19
f 162 110 161
f 161 205 162
f 204 205 161
f 67 66 72
f 36 12 32
f 140 192 191
f 211 206 217
f 217 212 211
f 211 207 206
f 217 230 229
f 229 212 217
f 232 230 217
f 217 214 232
f 190 214 225
f 190 191 133
f 190 133 178
f 217 204 219
f 204 220 219
f 148 182 149
f 149 182 128
f 149 128 150
f 149 91 148
f 150 91 149
f 217 219 218
f 128 184 181
f 217 218 181
f 181 219 220
f 181 218 219
f 225 222 221
f 221 228 225
f 197 228 221
f 221 222 183
f 183 197 221
f 227 228 195
f 195 194 227
f 196 144 195
f 195 228 196
f 196 228 197
f 197 146 196
f 191 192 134
f 89 133 134
f 133 191 134
f 124 82 120
f 124 121 82
f 63 105 107
f 63 62 36
f 107 62 63
f 66 110 111
f 111 110 162
f 118 105 158
f 117 105 118
f 117 116 105
f 78 116 117
f 160 116 108
f 108 107 160
f 108 62 107
f 76 62 106
f 106 116 76
f 62 108 106
f 106 108 116
f 208 169 162
f 208 170 169
f 8 6 17
f 41 26 16
f 16 26 25
f 15 5 14
f 15 6 5
f 15 14 35
f 70 69 66
f 38 69 70
f 109 69 112
f 68 64 86
f 86 112 68
f 68 112 69
f 68 38 64
f 68 69 38
f 22 21 48
f 48 21 49
f 64 37 48
f 48 49 64
f 30 13 40
f 4 5 1
f 12 5 4
f 97 154 98
f 57 96 97
f 97 98 57
f 101 88 57
f 133 88 101
f 19 43 44
f 44 45 19
f 43 45 44
f 74 45 43
f 46 45 74
f 57 87 93
f 93 94 57
f 95 96 57
f 57 94 95
f 102 72 66
f 36 32 31
f 148 91 147
f 91 146 147
f 147 197 148
f 147 146 197
f 91 144 145
f 145 146 91
f 144 196 145
f 145 196 146
f 89 134 135
f 135 134 192
f 174 211 212
f 207 211 174
f 174 124 120
f 121 124 174
f 122 121 174
f 177 190 178
f 178 125 177
f 177 125 123
f 226 190 225
f 191 190 226
f 225 228 226
f 228 227 226
f 128 181 129
f 85 128 129
f 224 184 217
f 66 111 103
f 103 111 105
f 157 169 118
f 118 158 157
f 162 169 157
f 157 158 105
f 157 111 162
f 105 111 157
f 19 6 18
f 6 15 18
f 18 42 19
f 35 42 18
f 18 15 35
f 66 38 65
f 65 70 66
f 38 70 65
f 39 38 67
f 39 13 38
f 39 40 13
f 11 4 13
f 11 13 30
f 12 4 11
f 11 32 12
f 30 31 11
f 11 31 32
f 57 99 100
f 100 101 57
f 178 133 156
f 133 101 156
f 156 154 178
f 101 100 156
f 156 100 99
f 73 43 47
f 73 74 43
f 47 84 73
f 84 83 73
f 85 129 130
f 203 220 204
f 204 161 203
f 60 102 66
f 66 103 60
f 30 40 60
f 60 103 104
f 60 40 72
f 72 102 60
f 60 31 30
f 136 91 137
f 136 135 91
f 136 137 89
f 89 135 136
f 139 140 91
f 91 135 139
f 192 140 139
f 139 135 192
f 143 144 91
f 91 142 143
f 195 144 143
f 143 142 195
f 91 140 141
f 141 142 91
f 141 140 191
f 122 174 175
f 162 207 173
f 207 174 173
f 173 208 162
f 173 174 120
f 213 232 214
f 214 177 213
f 214 190 215
f 215 177 214
f 190 177 215
f 191 226 193
f 193 226 227
f 193 141 191
f 194 141 193
f 193 227 194
f 185 181 187
f 185 129 181
f 187 130 185
f 185 130 129
f 216 181 184
f 184 224 216
f 217 181 216
f 216 224 217
f 72 40 71
f 40 39 71
f 67 72 71
f 71 39 67
f 154 156 155
f 155 156 99
f 98 154 155
f 155 99 98
f 179 154 201
f 180 163 126
f 180 201 200
f 126 179 180
f 179 201 180
f 96 95 153
f 200 201 153
f 153 97 96
f 154 97 153
f 153 201 154
f 186 130 188
f 188 130 187
f 187 181 188
f 188 181 220
f 220 203 188
f 188 203 186
f 202 203 161
f 186 203 202
f 31 60 61
f 36 31 61
f 61 60 104
f 61 63 36
f 105 63 61
f 61 103 105
f 104 103 61
f 170 208 172
f 208 173 172
f 172 171 170
f 120 171 172
f 172 173 120
f 176 177 123
f 123 122 176
f 122 175 176
f 230 232 231
f 232 213 231
f 87 131 132
f 132 93 87
f 151 131 189
f 151 132 131
f 94 93 151
f 93 132 151
f 210 229 230
f 230 231 210
f 210 175 174
f 210 231 213
f 212 229 210
f 210 176 175
f 210 213 177
f 177 176 210
f 114 168 115
f 152 95 94
f 94 151 152
f 152 151 200
f 152 153 95
f 200 153 152
f 209 174 212
f 212 210 209
f 209 210 174
f 114 115 75
f 46 74 75
f 74 114 75
f 167 168 114
f 114 166 167
f 189 166 198
f 198 151 189
f 165 166 114
f 165 198 166
f 151 198 199
f 200 151 199
f 199 165 164
f 198 165 199
f 199 180 200
f 163 180 199
f 199 164 163
f 164 165 113
f 163 164 113
f 113 114 74
f 113 165 114
f 113 73 83
f 74 73 113
f 113 83 126
f 126 163 113
f 3 2 7
f 1 2 3
f 7 2 20
f 2 8 20
f 29 56 87
f 87 57 29
f 79 78 117
f 118 79 117
f 17 20 8
f 25 20 17
f 16 19 41
f 16 6 19
f 25 17 16
f 16 17 6
f 37 13 48
f 48 13 22
f 1 3 4
f 3 9 4
f 22 13 4
f 4 9 22
f 195 142 141
f 141 194 195
f 202 86 51
f 51 85 202
f 202 112 86
f 202 110 66
f 66 109 202
f 202 161 110
f 109 112 202
f 85 130 202
f 202 130 186
f 41 19 167
f 56 55 167
f 167 52 41
f 19 46 167
f 167 55 54
f 54 53 167
f 167 53 52
f 167 87 56
f 167 131 87
f 189 131 167
f 167 166 189
f 167 115 168
f 46 75 167
f 167 75 115