# https://github.com/mikedh/trimesh
v -0.31069800 0.45715455 0.23180886
v -0.31069800 0.50467365 0.22846447
v -0.31551682 0.50467365 0.22823381
v -0.32333200 0.50467365 0.22673463
v -0.31551682 0.45715455 0.23049416
v -0.33457861 0.01585879 0.22618107
v -0.33442266 -0.04103338 0.22620412
v -0.32736271 -0.04103338 0.22712672
v -0.29309744 -0.50358193 0.22701139
v -0.29309744 -0.07656374 0.22901803
v -0.29309744 0.00637676 0.22689606
v -0.29309744 0.01542283 0.22629636
v -0.31069800 0.51339276 0.22694220
v -0.31551682 0.51295683 0.22680382
v -0.29309744 0.04757453 0.22182183
v -0.32228123 0.51175792 0.22625026
v -0.32925904 0.50467365 0.22311344
v -0.32373424 0.49279389 0.22689606
v -0.32736271 0.54020403 0.22050713
v -0.33562121 0.54020403 0.21660918
v -0.34044000 0.00637676 0.22433589
v -0.34034970 -0.04103338 0.22415137
v -0.33922504 -0.33748297 0.22198326
v -0.32736271 -0.53922127 0.22265215
v -0.29309744 -0.50478083 0.22696525
v -0.27763949 0.14882515 0.10137767
v -0.27770516 0.16070493 0.10137767
v -0.28020897 0.27928476 0.10137767
v -0.28279488 0.35034549 0.10137767
v -0.28337774 0.36157131 0.10230028
v -0.31069800 0.54020403 0.22087617
v -0.31551682 0.54020403 0.22089922
v -0.32966952 0.49279389 0.22322877
v -0.33594956 0.52832420 0.21702436
v -0.35864805 -0.05280417 0.21598643
v -0.35878760 -0.06468395 0.21607870
v -0.35108737 -0.05280417 0.21997662
v -0.32736271 0.54794223 0.21665532
v -0.33452936 0.54707030 0.21534062
v -0.33814963 0.54020403 0.20809828
v -0.35108737 -0.06468395 0.21993052
v -0.34860816 -0.33748297 0.21826987
v -0.33922504 -0.44429203 0.22055327
v -0.33922504 -0.52734151 0.21923857
v -0.34010341 -0.53943927 0.21792388
v -0.33672943 -0.54881232 0.21709355
v -0.32824112 -0.55208200 0.21880034
v -0.31552503 -0.55110110 0.22131441
v -0.29309744 -0.51175614 0.22664235
v -0.27772159 0.13694537 0.10137767
v -0.27734397 0.14882515 0.08952238
v -0.27937165 0.27928476 0.08952238
v -0.28280308 0.36222524 0.09062950
v -0.28390312 0.37410507 0.09909427
v -0.31069800 0.54816017 0.21690903
v -0.31069800 0.54347371 0.21930776
v -0.31551682 0.54816017 0.21686289
v -0.36089737 -0.05280417 0.20809828
v -0.36120111 -0.06468395 0.20809828
v -0.35863985 -0.07656374 0.21600951
v -0.31069800 0.55033998 0.20809828
v -0.31551682 0.55023101 0.20809828
v -0.32736271 0.54990405 0.20809828
v -0.33533387 0.54772423 0.20809828
v -0.33868321 0.54020403 0.17248630
v -0.33938923 0.52832420 0.17248630
v -0.35878760 0.01825654 0.19621993
v -0.34593196 -0.52734151 0.21524838
v -0.34561181 -0.53562469 0.21476401
v -0.33277261 -0.55676846 0.21130429
v -0.32487534 -0.55796736 0.21550209
v -0.34463490 -0.54358082 0.21070462
v -0.31552503 -0.55851233 0.21635547
v -0.29309744 -0.55110110 0.22115294
v -0.29309744 -0.54052914 0.22297506
v -0.29309744 -0.55829433 0.21598643
v -0.29309744 -0.56101904 0.20809828
v -0.29309744 -0.56189098 0.19621993
v -0.29310566 -0.55273587 0.03019985
v -0.29310566 -0.54990219 0.01820618
v -0.29310566 -0.54630554 0.01084851
v -0.29310566 -0.54042018 0.00499009
v -0.29310566 -0.53442578 -0.00047624
v -0.29310566 -0.53377184 -0.00075307
v -0.29310566 -0.52734151 -0.00245983
v -0.29310566 -0.52603364 -0.00252905
v -0.29593784 0.01803856 -0.00165259
v -0.29932004 0.55077591 0.07090915
v -0.29932004 0.55077591 0.07764404
v -0.29932004 0.55023101 0.11715397
v -0.36102052 -0.06468395 0.19621993
v -0.35285235 -0.38500214 0.19621993
v -0.35206424 -0.38500214 0.20809828
v -0.31064055 0.55121192 0.16759659
v -0.31551682 0.55110288 0.17248630
v -0.32736271 0.55044895 0.17248630
v -0.33550627 0.54794223 0.17248630
v -0.33878995 0.54020403 0.07764404
v -0.33979967 0.52832420 0.12508826
v -0.33953698 0.52832420 0.16060796
v -0.33979147 0.52832420 0.11323296
v -0.33958623 0.52832420 0.07090915
v -0.34728650 -0.52734151 0.20809828
v -0.34596480 -0.53943927 0.20729104
v -0.33340470 -0.55709542 0.20339309
v -0.32824112 -0.55851233 0.20766008
v -0.34521777 -0.54521567 0.20281647
v -0.31552503 -0.56101904 0.20809828
v -0.30366270 -0.56123705 0.20809828
v -0.30366270 -0.55851233 0.21626322
v -0.30366270 -0.56210892 0.19621993
v -0.32735451 -0.55873027 0.06576569
v -0.31891545 -0.55720446 0.03557394
v -0.30908900 -0.55698646 0.05905386
v -0.32211704 -0.55720446 0.03557394
v -0.30476275 -0.54881232 0.01719133
v -0.30153652 -0.54586960 0.01144821
v -0.29906555 -0.53377184 0.00016957
v -0.30326866 -0.52777745 -0.00174480
v -0.31612430 -0.51567969 -0.00156031
v -0.30398288 -0.51535272 -0.00227534
v -0.30366270 -0.31372338 -0.00375144
v -0.30366270 -0.30184362 -0.00379761
v -0.30366270 0.01803856 -0.00382066
v -0.30440976 0.04757453 -0.00204468
v -0.29656174 0.02784756 -0.00089145
v -0.32391484 0.38718374 0.04325451
v -0.33612195 0.38718374 0.04325451
v -0.31551682 0.55044895 0.07090915
v -0.31064055 0.55132088 0.16060796
v -0.35200679 -0.39677293 0.18431854
v -0.35183439 0.01803856 0.05395654
v -0.35139931 0.00615878 0.04210125
v -0.35148961 -0.00561201 0.04210125
v -0.35132542 -0.01738280 0.04210125
v -0.34002135 -0.51546175 0.03019985
v -0.35167844 -0.42053245 0.19621993
v -0.31551682 0.55121192 0.16060796
v -0.32736271 0.54990405 0.07764404
v -0.33545702 0.54783320 0.07764404
v -0.33924968 0.53344673 0.07090915
v -0.33860115 0.54020403 0.07090915
v -0.34965073 -0.00561201 0.03019985
v -0.35107093 0.01803856 0.04210125
v -0.34760664 -0.52734151 0.19621993
v -0.34646558 -0.53922127 0.19621993
v -0.33466894 -0.55785840 0.06576569
v -0.32833142 -0.55862130 0.19658898
v -0.34531627 -0.54543367 0.19621993
v -0.31552503 -0.56156402 0.19621993
v -0.33406143 -0.55742239 0.05690884
v -0.32887321 -0.55556962 0.04205515
v -0.33516148 -0.54739548 0.03278311
v -0.32740376 -0.55131903 0.03019985
v -0.32479324 -0.54728644 0.02189656
v -0.31552503 -0.54881232 0.01954393
v -0.30944199 -0.54499766 0.01244000
v -0.30697103 -0.53191907 0.00139199
v -0.31256972 -0.52407183 -0.00091451
v -0.32234689 -0.51186510 -0.00024565
v -0.32322526 -0.50358193 -0.00105289
v -0.32338125 -0.50074825 -0.00119127
v -0.32383278 -0.49159320 -0.00162954
v -0.32401337 -0.47971337 -0.00183707
v -0.31552503 -0.23078292 -0.00370533
v -0.31552503 -0.21901213 -0.00372839
v -0.30958154 0.04757453 -0.00220612
v -0.31552503 -0.01738280 -0.00372839
v -0.31563997 0.04757453 -0.00204468
v -0.33716452 0.54347371 0.07090915
v -0.33526818 0.54761527 0.07090915
v -0.33085164 0.54881410 0.07090915
v -0.32736271 0.54968604 0.07090915
v -0.32060654 0.55023101 0.07090915
v -0.32192821 0.03852846 0.00012339
v -0.33711527 -0.00561201 0.00865738
v -0.34305055 -0.00561201 0.01587664
v -0.34644914 -0.00561201 0.02178123
v -0.34077658 -0.53911230 0.05393349
v -0.34962612 -0.01738280 0.03019985
v -0.33950417 -0.52734151 0.03019985
v -0.34007881 -0.53911230 0.04205515
v -0.33750930 -0.50358193 0.01834456
v -0.34644914 -0.01738280 0.02148138
v -0.34127736 -0.53911230 0.06576569
v -0.34697456 -0.53224604 0.19126103
v -0.34641633 -0.53922127 0.19455928
v -0.34630959 -0.54009321 0.19455928
v -0.34532448 -0.54543367 0.19455928
v -0.33909369 -0.55099206 0.06576569
v -0.33693467 -0.55197297 0.05333379
v -0.33651599 -0.54957522 0.04205515
v -0.33670482 -0.53987521 0.02936953
v -0.33269872 -0.54434380 0.02487187
v -0.32351259 -0.53518868 0.01098689
v -0.31552503 -0.54358082 0.01361628
v -0.31552503 -0.53769546 0.00902642
v -0.31612430 -0.52777745 0.00298345
v -0.32046699 -0.51982131 0.00118438
v -0.33328155 -0.52134711 0.01239386
v -0.32915234 -0.50358193 0.00517457
v -0.32930009 -0.50074825 0.00508233
v -0.32972697 -0.49159320 0.00482862
v -0.32991577 -0.47971337 0.00473638
v -0.33207480 -0.05291316 0.00146118
v -0.32615595 -0.05291316 -0.00188325
v -0.32595895 -0.06479294 -0.00195240
v -0.32572087 -0.04103338 -0.00169869
v -0.31648550 0.04223408 -0.00195240
v -0.33163971 -0.04103338 0.00178408
v -0.33029341 -0.01738280 0.00229150
v -0.33747649 -0.01738280 0.00821915
v -0.34341174 -0.01738280 0.01553065
v -0.33772274 -0.49159320 0.01834456
v -0.33625330 -0.51655162 0.01716825
v -0.33597420 -0.52734151 0.01970540
v -0.33442266 -0.49159320 0.01077932
v -0.33425846 -0.50074825 0.01100998
v -0.33420921 -0.50358193 0.01110222
v -0.33470175 -0.53638759 0.02212718
v -0.33186959 -0.52734151 0.01377775
v -0.32595075 -0.52734151 0.00888801
v -0.33382338 -0.51339091 0.01167887
v -0.33448831 -0.47971337 0.01064093
v -0.33704137 -0.05291316 0.00736574
f 58 91 59
f 112 78 111
f 8 9 1
f 1 7 8
f 24 9 8
f 8 7 24
f 24 7 23
f 150 112 111
f 1 9 10
f 35 58 59
f 40 58 35
f 67 58 40
f 91 58 67
f 6 7 1
f 6 21 7
f 7 21 22
f 22 23 7
f 44 45 24
f 151 112 147
f 112 150 147
f 150 148 147
f 108 150 111
f 40 35 20
f 163 162 201
f 78 112 113
f 25 9 24
f 24 49 25
f 27 12 11
f 11 12 1
f 1 10 11
f 143 144 102
f 102 132 91
f 91 67 102
f 102 128 143
f 134 135 91
f 143 180 134
f 134 180 135
f 91 131 92
f 92 131 137
f 59 91 92
f 92 93 59
f 137 93 92
f 142 98 140
f 128 88 127
f 36 35 59
f 66 67 40
f 23 22 41
f 42 23 41
f 41 21 37
f 41 22 21
f 37 36 41
f 41 36 42
f 5 6 1
f 21 6 5
f 110 76 74
f 77 78 51
f 51 76 77
f 76 110 77
f 24 45 46
f 46 47 24
f 70 71 46
f 71 47 46
f 43 23 42
f 42 44 43
f 24 23 43
f 43 44 24
f 189 147 149
f 190 147 189
f 151 147 190
f 105 147 148
f 105 149 147
f 106 148 150
f 150 108 106
f 106 105 148
f 70 105 106
f 106 71 70
f 106 108 71
f 15 12 27
f 27 28 15
f 30 31 13
f 13 15 28
f 35 33 34
f 34 20 35
f 34 33 17
f 17 20 34
f 216 193 181
f 115 112 151
f 115 113 112
f 51 78 79
f 122 86 121
f 123 86 122
f 122 165 123
f 123 165 166
f 88 53 87
f 51 86 87
f 48 49 24
f 48 75 49
f 74 75 48
f 24 47 48
f 48 47 71
f 49 75 50
f 50 75 74
f 50 76 51
f 74 76 50
f 136 183 181
f 136 180 183
f 135 180 136
f 91 135 136
f 136 131 91
f 132 102 133
f 133 102 144
f 91 132 133
f 133 134 91
f 133 144 143
f 143 134 133
f 142 128 141
f 128 102 141
f 141 98 142
f 101 67 99
f 101 102 67
f 101 141 102
f 99 98 101
f 98 141 101
f 175 128 169
f 164 203 204
f 163 203 164
f 166 165 164
f 164 165 122
f 122 121 164
f 164 121 163
f 140 96 139
f 97 96 140
f 97 140 98
f 169 128 167
f 128 127 167
f 54 53 90
f 30 53 54
f 90 55 54
f 54 55 30
f 52 27 51
f 52 28 27
f 51 87 52
f 52 87 53
f 42 36 60
f 59 93 60
f 60 36 59
f 65 66 40
f 65 98 99
f 65 97 98
f 99 67 100
f 67 66 100
f 100 65 99
f 66 65 100
f 109 77 110
f 109 108 111
f 111 78 109
f 78 77 109
f 70 46 72
f 151 190 191
f 179 145 137
f 137 131 179
f 131 136 179
f 56 31 30
f 30 55 56
f 56 55 57
f 17 33 18
f 21 5 18
f 37 21 18
f 18 33 35
f 18 36 37
f 35 36 18
f 30 13 29
f 29 13 28
f 28 52 29
f 29 53 30
f 29 52 53
f 12 15 2
f 15 13 2
f 1 12 2
f 2 3 1
f 13 19 14
f 3 2 14
f 14 2 13
f 202 163 201
f 202 203 163
f 201 162 161
f 151 191 192
f 192 191 190
f 78 113 114
f 114 79 78
f 113 79 114
f 80 79 113
f 80 115 81
f 113 115 80
f 80 81 51
f 51 79 80
f 73 48 71
f 71 108 73
f 73 110 74
f 74 48 73
f 108 109 73
f 73 109 110
f 26 25 49
f 49 50 26
f 9 25 26
f 26 10 9
f 51 27 26
f 26 50 51
f 27 11 26
f 26 11 10
f 143 128 178
f 128 177 178
f 128 175 176
f 176 177 128
f 212 177 176
f 209 175 169
f 170 128 142
f 170 171 128
f 142 140 170
f 140 171 170
f 89 130 90
f 88 130 89
f 90 53 89
f 89 53 88
f 90 130 94
f 172 171 140
f 140 139 172
f 128 171 172
f 138 139 96
f 138 174 139
f 20 19 39
f 40 20 39
f 125 127 88
f 125 167 127
f 69 46 45
f 69 72 46
f 70 72 107
f 107 105 70
f 149 105 107
f 185 179 190
f 145 179 185
f 31 56 32
f 32 13 31
f 32 19 13
f 32 56 57
f 1 3 4
f 4 19 20
f 4 5 1
f 4 18 5
f 4 20 17
f 17 18 4
f 201 161 200
f 200 223 201
f 152 115 151
f 190 179 182
f 182 192 190
f 181 193 182
f 182 136 181
f 182 179 136
f 183 180 214
f 204 203 217
f 183 214 217
f 181 183 215
f 215 216 181
f 215 200 216
f 223 200 215
f 211 176 175
f 205 206 164
f 205 164 204
f 166 164 207
f 164 206 207
f 166 207 168
f 168 207 206
f 57 55 61
f 61 55 90
f 90 94 61
f 129 88 128
f 128 174 129
f 174 138 129
f 129 130 88
f 129 138 130
f 139 174 173
f 173 172 139
f 173 174 128
f 128 172 173
f 95 94 130
f 130 138 95
f 95 61 94
f 95 138 96
f 96 97 64
f 40 39 64
f 64 65 40
f 97 65 64
f 88 87 126
f 126 125 88
f 87 125 126
f 68 60 93
f 42 60 68
f 68 44 42
f 45 44 68
f 68 69 45
f 145 187 146
f 149 107 146
f 189 149 146
f 188 190 189
f 188 185 190
f 187 185 188
f 189 146 188
f 188 146 187
f 186 187 145
f 145 185 186
f 186 185 187
f 16 4 3
f 19 4 16
f 3 14 16
f 16 14 19
f 115 155 156
f 213 178 177
f 213 177 212
f 219 215 183
f 223 215 219
f 203 202 219
f 219 202 201
f 201 223 219
f 206 205 208
f 175 209 208
f 208 209 169
f 169 168 208
f 208 168 206
f 167 125 124
f 169 167 124
f 124 168 169
f 124 125 87
f 86 123 124
f 124 87 86
f 124 123 166
f 166 168 124
f 63 64 39
f 96 64 63
f 63 95 96
f 104 146 107
f 72 69 104
f 104 107 72
f 51 81 82
f 82 83 51
f 120 161 162
f 120 121 86
f 162 163 120
f 163 121 120
f 199 159 198
f 85 86 51
f 85 120 86
f 119 83 118
f 159 120 119
f 120 85 119
f 193 194 153
f 153 182 193
f 192 182 153
f 151 192 153
f 153 152 151
f 115 152 153
f 193 216 220
f 220 194 193
f 216 200 220
f 198 159 158
f 158 119 118
f 159 119 158
f 200 199 222
f 81 115 116
f 115 156 116
f 178 213 184
f 184 213 217
f 184 217 214
f 184 214 180
f 184 180 143
f 143 178 184
f 204 217 224
f 217 213 224
f 225 205 204
f 204 224 225
f 225 224 213
f 212 205 225
f 225 213 212
f 183 217 218
f 218 219 183
f 218 217 203
f 203 219 218
f 175 208 210
f 210 208 205
f 210 211 175
f 176 211 210
f 212 176 210
f 210 205 212
f 38 63 39
f 38 39 19
f 57 61 38
f 38 32 57
f 19 32 38
f 145 146 103
f 146 104 103
f 103 104 69
f 69 68 103
f 103 68 93
f 103 93 137
f 137 145 103
f 160 120 159
f 159 199 160
f 161 120 160
f 160 200 161
f 160 199 200
f 83 119 84
f 84 119 85
f 51 83 84
f 84 85 51
f 115 153 154
f 154 153 194
f 154 155 115
f 154 194 155
f 155 194 195
f 195 196 155
f 197 196 195
f 198 158 195
f 195 158 197
f 195 199 198
f 195 222 199
f 157 156 155
f 155 196 157
f 157 158 118
f 197 158 157
f 157 196 197
f 62 38 61
f 63 38 62
f 61 95 62
f 95 63 62
f 194 220 221
f 221 195 194
f 221 220 200
f 200 222 221
f 222 195 221
f 156 157 117
f 81 116 117
f 117 116 156
f 117 82 81
f 83 82 117
f 118 83 117
f 117 157 118