# https://github.com/mikedh/trimesh
v 0.27763713 -0.50368948 -0.00331169
v 0.26578617 -0.50368948 -0.00326289
v 0.26578617 -0.49442487 -0.00264841
v 0.30133905 -0.50368948 -0.00319466
v 0.18270973 -0.52507890 -0.00269713
v 0.08785414 -0.52497007 -0.00259962
v 0.08785414 -0.51824445 -0.00259962
v 0.25391127 -0.50368948 -0.00316538
v 0.30208123 -0.49232114 -0.00201435
v 0.25391127 -0.49416578 -0.00245332
v 0.30208123 -0.50368428 -0.00309708
v 0.30208123 -0.50430608 -0.00292150
v 0.30133905 -0.51150324 -0.00066829
v 0.19458463 -0.52459700 -0.00232647
v 0.28436466 -0.53348338 0.01218792
v 0.18270973 -0.53101177 0.00472588
v 0.17090664 -0.53095994 0.00455030
v 0.07600318 -0.53076305 0.00485270
v 0.07600318 -0.52483020 -0.00203386
v 0.07600318 -0.51884549 -0.00203386
v 0.30208123 -0.49232114 0.00332123
v 0.24443049 -0.49541454 -0.00132180
v 0.25391127 -0.49416578 0.00393578
v 0.06412827 -0.52027043 -0.00052192
v 0.06412827 -0.51927556 0.00644264
v 0.30208123 -0.51142033 -0.00061950
v 0.30133905 -0.51743095 0.00304815
v 0.30133905 -0.52585096 0.00897876
v 0.30208123 -0.52577324 0.00904703
v 0.30208123 -0.52612040 0.00933967
v 0.30208123 -0.53170092 0.01405102
v 0.30208123 -0.53201700 0.01440217
v 0.30208123 -0.53608968 0.01998163
v 0.30133905 -0.53611560 0.01992312
v 0.28879379 -0.53573733 0.01766011
v 0.27718224 -0.53585651 0.01718214
v 0.17090664 -0.53440570 0.01048092
v 0.07600318 -0.53406370 0.01078331
v 0.06922778 -0.53378390 0.01136855
v 0.06412827 -0.52306847 -0.00052192
v 0.30208123 -0.52609448 0.03013586
v 0.08787808 -0.53280978 0.09633844
v 0.09972904 -0.53304295 0.09582147
v 0.10583409 -0.53329684 0.09544105
v 0.24443049 -0.49541454 0.00262869
v 0.05749653 -0.52072121 0.01291950
v 0.08079145 -0.53299112 0.09612383
v 0.05809505 -0.52135337 0.00043396
v 0.05759229 -0.52082484 0.00644264
v 0.30208123 -0.51784026 0.00346757
v 0.30208123 -0.53631249 0.02052788
v 0.30208123 -0.53983596 0.03013586
v 0.30133905 -0.53985668 0.03013586
v 0.17090664 -0.53794468 0.01829415
v 0.15905568 -0.53796540 0.01829415
v 0.08785414 -0.53716227 0.01829415
v 0.06894048 -0.53433315 0.01829415
v 0.05759229 -0.52230157 0.00644264
v 0.05809505 -0.52159170 0.00043396
v 0.07600318 -0.53632805 0.01829415
v 0.08172516 -0.54525067 0.09496307
v 0.23686504 -0.53107396 0.05237572
v 0.08093509 -0.53927116 0.09602632
v 0.08862027 -0.54038521 0.09622138
v 0.09972904 -0.53648347 0.09582147
v 0.10583409 -0.53369583 0.09544105
v 0.05749653 -0.52245187 0.01291950
v 0.23686504 -0.53650939 0.05237572
v 0.08519665 -0.54525067 0.09551908
v 0.27763713 -0.54017276 0.03013586
v 0.08519665 -0.54525067 0.09496307
v 0.15903174 -0.54139560 0.03016513
v 0.08787808 -0.54007949 0.03016513
v 0.08172516 -0.54525067 0.09551908
f 47 23 46
f 42 23 47
f 47 63 42
f 21 23 42
f 41 21 44
f 44 62 41
f 67 47 46
f 63 47 67
f 61 39 60
f 60 39 56
f 56 39 38
f 73 72 61
f 56 72 73
f 61 60 73
f 73 60 56
f 52 66 65
f 65 69 52
f 72 54 70
f 63 67 74
f 68 66 52
f 15 32 33
f 3 10 9
f 4 3 9
f 16 5 15
f 55 72 56
f 55 54 72
f 56 38 55
f 64 65 42
f 69 65 64
f 42 63 64
f 63 74 64
f 64 74 69
f 42 65 43
f 43 21 42
f 43 44 21
f 72 70 71
f 61 72 71
f 53 70 54
f 53 71 70
f 69 71 53
f 52 69 53
f 57 74 67
f 61 74 57
f 57 39 61
f 28 29 15
f 31 32 15
f 11 4 9
f 25 22 10
f 25 45 22
f 23 45 25
f 46 23 25
f 10 3 7
f 7 20 10
f 54 55 37
f 37 16 15
f 37 55 38
f 52 53 35
f 15 29 30
f 30 31 15
f 27 28 15
f 50 29 27
f 29 28 27
f 5 4 14
f 4 13 14
f 13 27 14
f 15 5 14
f 14 27 15
f 50 27 26
f 26 27 13
f 10 20 24
f 24 25 10
f 18 37 38
f 18 38 39
f 52 35 51
f 36 53 54
f 36 35 53
f 15 35 36
f 36 37 15
f 54 37 36
f 4 11 12
f 12 13 4
f 12 26 13
f 39 57 58
f 58 57 67
f 46 25 49
f 39 58 59
f 3 4 1
f 1 2 3
f 1 4 5
f 7 2 1
f 8 7 3
f 3 2 8
f 8 2 7
f 5 16 17
f 16 37 17
f 37 18 17
f 33 51 34
f 34 51 35
f 15 33 34
f 34 35 15
f 19 18 40
f 40 18 39
f 39 59 40
f 25 24 48
f 48 49 25
f 6 1 5
f 7 1 6
f 6 18 19
f 5 17 6
f 6 17 18
f 21 10 23
f 9 10 21
f 52 41 68
f 41 62 68
f 68 44 66
f 62 44 68
f 23 10 45
f 10 22 45
f 66 44 43
f 43 65 66
f 69 74 71
f 71 74 61
f 9 21 12
f 12 21 41
f 12 41 52
f 32 31 12
f 50 26 12
f 12 33 32
f 12 29 50
f 12 11 9
f 12 30 29
f 31 30 12
f 52 51 12
f 12 51 33
f 49 58 67
f 49 67 46
f 40 24 20
f 20 19 40
f 24 40 48
f 48 40 59
f 58 49 48
f 48 59 58
f 6 19 20
f 20 7 6