# https://github.com/mikedh/trimesh
v 0.18579823 0.38313701 0.48225069
v 0.18579823 0.38607449 0.48308735
v 0.22525557 0.40982032 0.54474308
v 0.22196800 0.39796107 0.53747054
v 0.22595040 0.39796107 0.54339154
v 0.22237332 0.38610182 0.53785669
v 0.21635788 0.38315065 0.52871774
v 0.22234758 0.38315065 0.53811412
v 0.21033603 0.38313701 0.52105905
v 0.18579823 0.38313701 0.51050419
v 0.18579823 0.39796107 0.48727066
v 0.22450283 0.41624182 0.54596590
v 0.24799839 0.42769119 0.60556214
v 0.22555152 0.38610182 0.54377769
v 0.22926371 0.39796107 0.55220869
v 0.22537781 0.38315065 0.54403514
v 0.22800915 0.38315065 0.55220869
v 0.24675670 0.38315065 0.61476546
v 0.24858386 0.38315065 0.62107261
v 0.24917574 0.38315065 0.62435492
v 0.24932371 0.38315065 0.62692926
v 0.24971617 0.38315065 0.63529591
v 0.24979981 0.38315065 0.63960795
v 0.21373941 0.38313701 0.93057407
v 0.18579823 0.41165114 0.58779912
v 0.19432276 0.38313701 0.94331714
v 0.19432276 0.43062867 1.09983770
v 0.18579823 0.39951863 0.48868658
v 0.18579823 0.40688284 0.49576604
v 0.22070057 0.42416620 0.55027794
v 0.22427124 0.42763653 0.55812971
v 0.24706551 0.43558825 0.60839392
v 0.24824930 0.43991934 0.61637442
v 0.24864819 0.43240483 0.61206238
v 0.24946525 0.42167957 0.61154752
v 0.24940736 0.40865900 0.61032469
v 0.24806917 0.42167957 0.60549779
v 0.24798552 0.40394536 0.60562650
v 0.24808845 0.41184242 0.60543342
v 0.24968400 0.39796107 0.61251290
v 0.24900848 0.38872506 0.61476546
v 0.24961967 0.38529571 0.62300338
v 0.25036595 0.38610182 0.63529591
v 0.25037239 0.38610182 0.65897994
v 0.24974833 0.38315065 0.65897994
v 0.21449213 0.38315065 0.92999487
v 0.20973127 0.38313701 0.93598022
v 0.24954889 0.38315065 0.66219789
v 0.22943100 0.38315065 0.87239374
v 0.22800272 0.38315065 0.88423573
v 0.22548719 0.38315065 0.89588469
v 0.21801776 0.38315065 0.91982618
v 0.18579823 0.41296276 0.59082399
v 0.19432276 0.43390773 1.10865489
v 0.19432276 0.43781530 1.11856612
v 0.19461871 0.38313701 0.94338148
v 0.20366438 0.38313701 0.94054971
v 0.20866329 0.38313701 0.93694560
v 0.21280654 0.42781416 0.54609462
v 0.18579823 0.47604362 0.65325202
v 0.18669250 0.47572938 0.65164304
v 0.19461871 0.47675409 0.64945485
v 0.20648229 0.47700003 0.64874689
v 0.21739369 0.42934438 0.55343152
v 0.23773035 0.46428001 0.63967231
v 0.23917148 0.44213271 0.60227985
v 0.23941596 0.46561896 0.64713793
v 0.24569516 0.45604138 0.64829639
v 0.24798552 0.45134139 0.65299458
v 0.24942023 0.43355251 0.62338953
v 0.25044961 0.42167957 0.62338953
v 0.25119589 0.40982032 0.62338953
v 0.25152401 0.39796107 0.62338953
v 0.25123450 0.39796107 0.65897994
v 0.25032736 0.39796107 0.67088632
v 0.22647796 0.44538443 0.97922935
v 0.20069847 0.43920887 1.10427850
v 0.22465725 0.43840276 0.98701677
v 0.21264569 0.45058994 1.06958909
v 0.20461654 0.44538443 1.09784259
v 0.18579823 0.41490286 0.59468550
v 0.19432276 0.44206440 1.12545254
v 0.18579823 0.47220440 0.69186730
v 0.21033603 0.47648083 0.64977664
v 0.21368793 0.47602998 0.65067766
v 0.18579823 0.47790177 0.65891560
v 0.19461871 0.48015611 0.65897994
v 0.20648229 0.48066163 0.65897994
v 0.21033603 0.47818868 0.65453919
v 0.21280654 0.48715143 0.68710474
v 0.21343060 0.51117052 0.86248247
v 0.21447285 0.51192197 0.87239374
v 0.21541216 0.51275541 0.88423573
v 0.21603620 0.51354783 0.89607777
v 0.21672461 0.51554259 0.93057407
v 0.22263709 0.50718100 0.93057407
v 0.24798552 0.45134139 0.65305894
v 0.24878973 0.44560303 0.65782148
v 0.24858386 0.44560303 0.64829639
v 0.22290731 0.50660718 0.93057407
v 0.25021799 0.43355251 0.65897994
v 0.25041743 0.42167957 0.67088632
v 0.25067477 0.40982032 0.67088632
v 0.22711489 0.45724368 0.97922935
v 0.21803706 0.48096222 1.06225218
v 0.22503683 0.44643647 0.99100701
v 0.20188226 0.44576701 1.10878358
v 0.20101372 0.44997510 1.11695716
v 0.19937315 0.44205072 1.11219462
v 0.21682111 0.46910297 1.06225218
v 0.21308961 0.45813178 1.07377240
v 0.21247199 0.46269512 1.08027263
v 0.20482885 0.45724368 1.10968459
v 0.19432276 0.44523413 1.12867046
v 0.19768112 0.44576701 1.12120485
v 0.18579823 0.48489708 0.69186730
v 0.19432276 0.44807602 1.13111608
v 0.19432276 0.45132774 1.13330430
v 0.19432276 0.45463412 1.13536377
v 0.19432276 0.45769457 1.13658658
v 0.19432276 0.46302305 1.13851734
v 0.19432276 0.46910297 1.13967580
v 0.19432276 0.47404886 1.13974015
v 0.18579823 0.48022442 0.66779710
v 0.19847888 0.48727439 0.68633243
v 0.20648229 0.48737003 0.68575320
v 0.20875979 0.48824444 0.69186730
v 0.20670747 0.49058078 0.70602623
v 0.20670747 0.51462720 0.87207193
v 0.20670747 0.52221002 0.92632641
v 0.21242053 0.51061035 0.85456634
v 0.21019448 0.52147222 0.93057407
v 0.21103729 0.52089840 0.93057407
v 0.21593970 0.48574417 1.07409421
v 0.21826224 0.48574417 1.06225218
v 0.22519768 0.50127870 0.93057407
v 0.22730146 0.49279414 0.93057407
v 0.22657446 0.48574417 0.96732294
v 0.22583459 0.48574417 0.97961551
v 0.22630425 0.48096222 0.97922935
v 0.22692188 0.46910297 0.97922935
v 0.21554081 0.48096222 1.07409421
v 0.20177289 0.45803614 1.12120485
v 0.20071778 0.46254483 1.12783381
v 0.19930239 0.45462044 1.12487327
v 0.20360003 0.46910297 1.12152665
v 0.18970343 0.48615405 0.69186730
v 0.18579823 0.48081192 0.67082197
v 0.19432276 0.48096222 1.13928965
v 0.19432276 0.48325754 1.13883915
v 0.19432276 0.48574417 1.13832430
v 0.20670747 0.52271553 0.93057407
v 0.19786769 0.46910297 1.13478457
v 0.19764895 0.48096222 1.13517073
v 0.19575746 0.48783457 0.69186730
v 0.20648229 0.48839474 0.69186730
v 0.20670747 0.48876364 0.69431293
v 0.20960903 0.52171815 0.93057407
v 0.20131610 0.48574417 1.12886357
v 0.20241626 0.48574417 1.12616050
v 0.20405039 0.48574417 1.12152665
v 0.20423053 0.48096222 1.12152665
v 0.20121959 0.46910297 1.12886357
v 0.19715356 0.48574417 1.13478457
v 0.19901931 0.48574417 1.13240330
v 0.20148982 0.48096222 1.12924973
f 18 19 9
f 27 10 26
f 27 25 10
f 139 137 136
f 33 66 65
f 138 137 139
f 138 98 137
f 139 101 138
f 101 98 138
f 65 66 31
f 137 98 97
f 97 136 137
f 134 161 162
f 133 134 95
f 133 161 134
f 95 94 133
f 133 94 93
f 139 136 135
f 95 134 135
f 135 96 95
f 116 151 152
f 152 130 116
f 116 83 123
f 123 149 116
f 85 90 65
f 62 63 29
f 2 11 12
f 28 29 12
f 12 11 28
f 35 72 73
f 12 31 32
f 66 33 32
f 32 31 66
f 24 49 50
f 48 49 24
f 24 45 48
f 51 24 50
f 12 29 30
f 30 31 12
f 29 63 59
f 59 30 29
f 31 30 59
f 59 85 65
f 1 2 3
f 3 2 12
f 18 9 17
f 9 16 17
f 38 40 16
f 41 40 73
f 41 19 18
f 18 17 41
f 16 40 41
f 41 17 16
f 95 96 67
f 67 94 95
f 67 33 65
f 93 94 67
f 67 92 93
f 65 90 67
f 90 130 131
f 104 75 103
f 76 75 104
f 100 135 136
f 96 135 100
f 136 97 100
f 151 116 150
f 150 116 149
f 88 126 90
f 63 62 88
f 61 62 29
f 161 133 132
f 93 92 132
f 132 133 93
f 73 43 42
f 42 41 73
f 19 41 42
f 44 75 76
f 76 49 44
f 44 49 48
f 48 45 44
f 44 43 73
f 22 42 43
f 40 38 36
f 73 40 36
f 36 35 73
f 13 32 33
f 13 36 37
f 35 36 13
f 5 3 13
f 12 32 13
f 13 3 12
f 72 35 71
f 101 72 71
f 71 70 101
f 33 70 34
f 34 13 33
f 35 13 34
f 34 71 35
f 70 71 34
f 99 98 101
f 101 70 99
f 46 24 52
f 24 51 52
f 65 31 64
f 64 59 65
f 31 59 64
f 4 5 1
f 1 3 4
f 4 3 5
f 8 16 9
f 8 9 1
f 1 7 8
f 15 13 37
f 5 13 15
f 68 67 96
f 33 67 68
f 90 131 91
f 91 67 90
f 92 67 91
f 91 132 92
f 131 132 91
f 123 83 122
f 83 121 122
f 51 80 77
f 77 52 51
f 46 52 77
f 162 166 163
f 50 49 78
f 78 49 76
f 79 51 50
f 79 80 51
f 50 78 79
f 135 104 141
f 103 102 141
f 141 104 103
f 155 124 147
f 147 130 155
f 147 116 130
f 86 124 87
f 62 61 87
f 87 88 62
f 165 159 152
f 63 88 89
f 90 85 89
f 89 88 90
f 60 61 29
f 86 87 60
f 60 87 61
f 90 126 127
f 126 156 127
f 155 130 129
f 129 130 90
f 161 132 160
f 160 132 159
f 159 166 160
f 160 162 161
f 160 166 162
f 152 159 158
f 159 132 158
f 158 130 152
f 158 131 130
f 158 132 131
f 103 75 74
f 75 44 74
f 74 44 73
f 74 102 103
f 101 102 74
f 73 72 74
f 74 72 101
f 20 9 19
f 19 42 20
f 23 24 9
f 9 22 23
f 45 24 23
f 23 22 43
f 43 44 23
f 23 44 45
f 37 36 39
f 39 36 38
f 39 15 37
f 38 15 39
f 56 27 26
f 56 57 27
f 47 46 27
f 47 24 46
f 6 8 7
f 1 5 6
f 6 7 1
f 14 38 16
f 14 15 38
f 5 15 14
f 16 8 14
f 14 6 5
f 8 6 14
f 69 68 96
f 96 100 69
f 69 100 97
f 33 68 69
f 69 70 33
f 69 99 70
f 69 97 98
f 98 99 69
f 46 77 55
f 77 82 55
f 55 53 25
f 81 53 55
f 55 83 81
f 55 82 83
f 134 162 146
f 162 163 146
f 153 163 166
f 123 122 153
f 153 122 121
f 106 78 76
f 105 135 134
f 105 106 76
f 76 104 105
f 105 104 135
f 139 135 140
f 135 141 140
f 140 141 102
f 140 101 139
f 140 102 101
f 116 147 148
f 148 147 124
f 125 124 155
f 125 87 124
f 125 156 126
f 126 88 125
f 88 87 125
f 155 129 125
f 154 150 149
f 154 149 123
f 151 150 154
f 123 153 154
f 154 153 166
f 154 166 159
f 159 165 154
f 63 89 84
f 84 89 85
f 84 59 63
f 85 59 84
f 21 22 9
f 9 20 21
f 42 22 21
f 21 20 42
f 27 57 58
f 58 47 27
f 27 46 54
f 46 55 54
f 25 27 54
f 54 55 25
f 107 77 80
f 80 108 107
f 107 108 77
f 144 146 163
f 144 153 121
f 163 153 144
f 109 82 77
f 77 108 109
f 143 144 108
f 111 112 79
f 156 125 128
f 128 125 129
f 90 127 128
f 128 129 90
f 151 154 164
f 164 154 165
f 152 151 164
f 164 165 152
f 117 118 83
f 117 144 118
f 118 144 119
f 83 118 119
f 82 109 115
f 115 109 108
f 108 117 115
f 79 112 113
f 113 143 108
f 113 112 146
f 80 79 113
f 113 108 80
f 146 144 113
f 144 143 113
f 142 105 134
f 142 112 105
f 134 146 142
f 146 112 142
f 105 112 110
f 112 111 110
f 78 106 110
f 106 105 110
f 110 79 78
f 110 111 79
f 157 127 156
f 156 128 157
f 157 128 127
f 108 144 145
f 145 117 108
f 144 117 145
f 120 121 83
f 83 119 120
f 120 144 121
f 120 119 144
f 82 115 114
f 114 115 117
f 83 82 114
f 114 117 83
f 1 10 148
f 81 83 148
f 29 28 148
f 148 53 81
f 148 124 86
f 10 25 148
f 148 2 1
f 25 53 148
f 83 116 148
f 11 2 148
f 148 28 11
f 86 60 148
f 148 60 29
f 58 10 1
f 26 10 58
f 1 9 58
f 9 24 58
f 58 56 26
f 57 56 58
f 24 47 58