# https://github.com/mikedh/trimesh
v 0.38236880 0.23065154 0.71614833
v 0.37615195 0.30301405 0.71614833
v 0.36954594 0.23065154 0.71614833
v 0.38041329 0.23065154 0.70633848
v 0.37419643 0.31420713 0.71614833
v 0.33048389 0.23066036 0.48647089
v 0.36849520 0.23400328 0.71614833
v 0.33033798 0.23065154 0.64208638
v 0.37976144 0.23065154 0.70367859
v 0.37222144 0.32076068 0.71614833
v 0.32095917 0.26394852 0.47287863
v 0.32807108 0.23066036 0.47719790
v 0.36698722 0.23954249 0.71614833
v 0.32005438 0.24371454 0.62783525
v 0.32705928 0.23065154 0.63527805
v 0.36587811 0.24408500 0.71614833
v 0.37048965 0.23065154 0.67197959
v 0.35850351 0.32076068 0.67080826
v 0.35836728 0.32076068 0.71614833
v 0.32311904 0.23066036 0.47085321
v 0.31624061 0.23066036 0.46699760
v 0.31339000 0.23066036 0.46685118
v 0.31325381 0.26371037 0.47309825
v 0.29655880 0.32076068 0.57410069
v 0.31109394 0.32076068 0.57410069
v 0.35051597 0.32076068 0.65255511
v 0.35395031 0.32076068 0.65953425
v 0.35551670 0.32076068 0.66312144
v 0.33449226 0.23065154 0.57410069
v 0.31748591 0.24371454 0.62188101
v 0.31841017 0.23648181 0.61961157
v 0.31938309 0.25117660 0.62907979
v 0.32272988 0.23065154 0.62344278
v 0.36573217 0.24515226 0.71614833
v 0.36448684 0.25491644 0.71614833
v 0.30945948 0.32076068 0.61243720
v 0.31907175 0.25908849 0.62942142
v 0.31799184 0.23065154 0.57410069
v 0.30278537 0.23066036 0.46841294
v 0.30702723 0.26199921 0.47461121
v 0.28297706 0.27992226 0.50572455
v 0.30694938 0.32076068 0.60648296
v 0.28297706 0.27992226 0.52551507
v 0.31711623 0.25531336 0.62439448
v 0.28297706 0.23066036 0.50396757
v 0.36482738 0.25200571 0.71614833
v 0.32058949 0.23065154 0.61146109
v 0.31970415 0.23065154 0.59960142
v 0.28297706 0.23066036 0.48263968
v 0.29115917 0.23066036 0.47566053
v 0.29897157 0.23066036 0.47070680
v 0.28297706 0.23886333 0.48590963
v 0.28297706 0.26027043 0.49493859
v 0.28297706 0.26774129 0.49855018
v 0.28297706 0.27545913 0.50240580
v 0.32033652 0.23065154 0.60836196
f 32 35 19
f 38 45 49
f 22 29 38
f 38 39 22
f 23 40 41
f 23 39 40
f 23 11 22
f 22 39 23
f 5 11 10
f 11 12 20
f 20 12 29
f 29 12 17
f 6 5 2
f 6 12 11
f 11 5 6
f 42 43 44
f 41 43 24
f 24 43 42
f 24 23 41
f 24 25 11
f 11 23 24
f 50 38 49
f 49 40 50
f 46 35 32
f 41 40 55
f 52 40 49
f 52 53 40
f 22 11 21
f 11 20 21
f 21 29 22
f 21 20 29
f 9 17 12
f 12 6 9
f 10 11 18
f 11 28 18
f 11 25 26
f 19 36 37
f 32 19 37
f 37 44 32
f 37 36 42
f 42 44 37
f 14 31 15
f 15 8 14
f 14 16 32
f 14 8 16
f 15 31 33
f 33 31 45
f 45 47 33
f 39 38 51
f 38 50 51
f 40 39 51
f 51 50 40
f 45 38 48
f 32 16 34
f 34 46 32
f 40 53 54
f 54 55 40
f 4 2 1
f 4 6 2
f 4 9 6
f 27 28 11
f 11 26 27
f 31 14 30
f 45 31 30
f 32 44 30
f 30 14 32
f 43 45 30
f 30 44 43
f 56 47 45
f 45 48 56
f 8 3 7
f 16 8 13
f 8 7 13
f 54 43 41
f 49 45 54
f 54 45 43
f 41 55 54
f 54 52 49
f 53 52 54
f 27 19 10
f 27 24 42
f 42 36 27
f 10 18 27
f 25 24 27
f 27 36 19
f 27 18 28
f 27 26 25
f 1 3 56
f 56 38 29
f 56 48 38
f 29 17 56
f 15 33 56
f 56 8 15
f 17 9 56
f 56 33 47
f 56 4 1
f 56 3 8
f 9 4 56
f 1 2 13
f 10 19 13
f 13 34 16
f 13 19 35
f 13 5 10
f 2 5 13
f 35 46 13
f 46 34 13
f 13 3 1
f 13 7 3