# https://github.com/mikedh/trimesh
v 0.11105470 0.45724976 0.06095716
v 0.11251638 0.46484920 0.06095716
v 0.11182400 0.45339332 0.06095716
v -0.00505874 0.48880699 0.13046817
v -0.00505874 0.50080480 0.13046817
v 0.11333697 0.46816371 0.06095716
v 0.11418320 0.44695333 0.06095716
v 0.09225806 0.43756431 0.09329404
v 0.09033481 0.43551004 0.10134129
v 0.08920650 0.43561088 0.11320507
v -0.00505874 0.48937409 0.13678466
v 0.11820922 0.44068978 0.06095716
v 0.11897852 0.43966895 0.06095716
v -0.00505874 0.52495160 0.18511248
v 0.00481397 0.50138452 0.13046817
v 0.12092743 0.47707385 0.06095716
v 0.11805536 0.47435165 0.06095716
v 0.11477300 0.47033140 0.06095716
v 0.12367127 0.43595114 0.06095716
v 0.13528774 0.42802403 0.06095716
v 0.13880089 0.42613364 0.06095716
v 0.09974595 0.43132596 0.10134129
v 0.09120669 0.43800540 0.12506881
v -0.00505874 0.50834123 0.21207963
v -0.00505874 0.49191987 0.14878155
v -0.00505874 0.48967659 0.13882605
v 0.09974595 0.43185526 0.11320507
v -0.00505874 0.52774943 0.19431356
v 0.00481397 0.52517847 0.18474266
v 0.21837244 0.53030776 0.19617744
v 0.14908390 0.47707385 0.06095716
v 0.14713501 0.42309638 0.06095716
v 0.21106409 0.40328488 0.06231810
v 0.09310430 0.43910181 0.13046817
v -0.00505874 0.52724529 0.21207963
v 0.09341203 0.43927827 0.13132615
v 0.09972030 0.43872376 0.13236164
v 0.09972030 0.44247937 0.13829353
v 0.11605517 0.45094841 0.15514244
v 0.12344048 0.45074674 0.15539393
v 0.06415287 0.50854286 0.21207963
v 0.09974595 0.43573692 0.12506881
v 0.21503880 0.40448213 0.07021739
v 0.22296262 0.40370077 0.07197774
v -0.00505874 0.52831653 0.19623662
v 0.00481397 0.52856858 0.19623662
v 0.18272808 0.53153025 0.20810040
v 0.21837244 0.53156804 0.20801162
v 0.25686325 0.46594564 0.07931494
v 0.24881121 0.46594564 0.06231810
v 0.17367595 0.43590072 0.06095716
v 0.15898228 0.42164705 0.06095716
v 0.21850068 0.40302021 0.06231810
v 0.21873146 0.40305804 0.06606063
v 0.00481397 0.52745955 0.21207963
v -0.00505874 0.52865683 0.20810040
v 0.09972030 0.43794236 0.13046817
v 0.11156757 0.43820704 0.13350069
v 0.11156757 0.44155935 0.13940299
v 0.12344048 0.44677687 0.14878155
v 0.13526210 0.44694071 0.14878155
v 0.13526210 0.45089799 0.15526078
v 0.14713501 0.46268155 0.16699141
v 0.07600014 0.50859328 0.21207963
v 0.23016844 0.40288158 0.06656360
v 0.22619370 0.40370077 0.07197774
v 0.12344048 0.43809361 0.13382610
v 0.10731076 0.43731226 0.13046817
v 0.00481397 0.52885846 0.20810040
v 0.02855979 0.52924914 0.20810040
v 0.18272808 0.52984145 0.21207963
v 0.19460099 0.53154283 0.20810040
v 0.02855979 0.52790064 0.21207963
v 0.21837244 0.53155545 0.20810040
v 0.25686325 0.46594564 0.13046817
v 0.21832118 0.53155545 0.20810040
v 0.25686325 0.45724976 0.07558716
v 0.25524771 0.44539058 0.06231810
v 0.25258079 0.45724976 0.06231810
v 0.24919586 0.46525250 0.06231810
v 0.17367595 0.42211335 0.06095716
v 0.25604265 0.43353144 0.06231810
v 0.24147717 0.40309583 0.06231810
v 0.23016844 0.40281858 0.06231810
v 0.12344048 0.44143334 0.13974321
v 0.13526210 0.44144592 0.13949173
v 0.14721193 0.44810016 0.14984664
v 0.14331414 0.45115004 0.15496492
v 0.15659744 0.46284535 0.16688785
v 0.20557637 0.51055930 0.21207963
v 0.24204134 0.40312104 0.06252518
v 0.23409189 0.40425528 0.07103099
v 0.25686325 0.42919607 0.10515782
v 0.19460099 0.44890677 0.14653308
v 0.18272808 0.44837742 0.14709519
v 0.21832118 0.52984145 0.21207963
v 0.25686325 0.44783553 0.13046817
v 0.21837244 0.51940639 0.21207963
v 0.25686325 0.44539058 0.07098662
v 0.25555543 0.42167226 0.06231810
v 0.25193970 0.41256049 0.06231810
v 0.25076010 0.40964924 0.06231810
v 0.24929843 0.40664981 0.06231810
v 0.24260549 0.40317146 0.06231810
v 0.24204134 0.40312104 0.06231810
v 0.25686325 0.43353144 0.07048368
v 0.19460099 0.45304043 0.15245015
v 0.19460099 0.45897632 0.15892938
v 0.20644826 0.45984592 0.15816015
v 0.21832118 0.51285299 0.21207963
v 0.24204134 0.40578021 0.06845707
v 0.25686325 0.42560429 0.09922593
v 0.25686325 0.42643607 0.10070521
v 0.25686325 0.43905143 0.11968426
v 0.25391424 0.43882456 0.11999493
v 0.20644826 0.44968812 0.14532006
v 0.25686325 0.44531496 0.12746525
v 0.20644826 0.45391004 0.15125195
v 0.25686325 0.42302075 0.08194805
v 0.25686325 0.42348706 0.09169643
f 49 48 75
f 25 10 24
f 16 29 30
f 30 48 49
f 49 50 30
f 10 25 26
f 14 29 16
f 48 30 47
f 46 30 29
f 46 47 30
f 24 39 40
f 4 10 11
f 10 26 11
f 52 53 33
f 84 53 52
f 16 30 31
f 31 30 50
f 13 8 4
f 56 35 55
f 29 14 28
f 28 46 29
f 47 46 70
f 73 47 70
f 82 99 106
f 109 97 110
f 98 97 75
f 75 96 98
f 110 97 98
f 24 10 23
f 38 39 24
f 24 40 41
f 90 109 110
f 33 22 32
f 32 52 33
f 4 8 9
f 9 10 4
f 9 22 10
f 51 31 50
f 51 82 81
f 4 3 7
f 20 8 19
f 8 13 19
f 15 5 14
f 15 14 16
f 16 5 15
f 17 5 16
f 4 5 1
f 1 3 4
f 56 46 45
f 46 28 45
f 73 70 69
f 69 55 73
f 56 55 69
f 69 46 56
f 69 70 46
f 81 101 102
f 102 103 81
f 102 101 119
f 119 103 102
f 83 52 81
f 84 52 83
f 100 101 81
f 81 82 100
f 119 101 100
f 100 106 119
f 100 82 106
f 48 76 74
f 74 75 48
f 74 96 75
f 71 47 73
f 97 109 118
f 118 109 107
f 107 116 118
f 34 36 24
f 24 23 34
f 24 36 37
f 37 38 24
f 64 41 63
f 63 41 40
f 63 90 64
f 33 53 54
f 54 53 84
f 21 32 22
f 22 9 21
f 21 8 20
f 21 9 8
f 82 51 78
f 49 77 78
f 78 77 99
f 99 82 78
f 12 13 4
f 4 7 12
f 6 5 18
f 5 17 18
f 2 5 6
f 2 1 5
f 84 83 65
f 65 54 84
f 120 103 119
f 120 112 103
f 103 112 104
f 81 103 104
f 72 71 76
f 47 71 72
f 48 47 72
f 72 76 48
f 27 34 23
f 33 43 27
f 36 34 27
f 27 23 10
f 10 22 27
f 27 22 33
f 39 38 59
f 38 37 59
f 37 58 59
f 59 40 39
f 88 95 107
f 90 63 89
f 89 88 107
f 107 95 94
f 94 95 66
f 94 116 107
f 79 78 51
f 49 78 79
f 97 118 117
f 118 114 117
f 115 118 116
f 115 114 118
f 116 94 115
f 111 112 92
f 92 104 111
f 111 104 112
f 91 104 92
f 92 66 91
f 66 65 91
f 91 65 83
f 36 27 42
f 44 42 27
f 44 27 43
f 44 43 33
f 33 54 44
f 44 65 66
f 54 65 44
f 40 59 60
f 66 95 87
f 95 88 87
f 108 89 107
f 90 89 108
f 107 109 108
f 109 90 108
f 88 89 62
f 62 87 88
f 62 63 40
f 62 89 63
f 66 87 62
f 80 51 50
f 80 79 51
f 80 50 49
f 49 79 80
f 93 94 66
f 93 115 94
f 93 66 92
f 114 115 93
f 105 91 83
f 104 91 105
f 105 83 81
f 81 104 105
f 42 44 57
f 57 37 36
f 36 42 57
f 57 58 37
f 85 59 58
f 85 60 59
f 86 60 85
f 66 86 85
f 61 86 66
f 66 62 61
f 61 60 86
f 40 60 61
f 61 62 40
f 92 112 113
f 113 93 92
f 68 44 58
f 58 57 68
f 68 57 44
f 58 44 67
f 67 85 58
f 67 44 66
f 66 85 67
f 4 11 45
f 24 35 45
f 45 25 24
f 45 26 25
f 45 35 56
f 45 5 4
f 45 11 26
f 14 5 45
f 45 28 14
f 71 74 76
f 96 74 71
f 110 98 71
f 71 35 24
f 24 41 71
f 64 90 71
f 73 55 71
f 71 55 35
f 71 98 96
f 71 41 64
f 71 90 110
f 16 31 2
f 2 7 3
f 20 19 2
f 81 52 2
f 3 1 2
f 2 17 16
f 2 51 81
f 52 32 2
f 31 51 2
f 2 21 20
f 2 19 13
f 13 12 2
f 6 18 2
f 32 21 2
f 2 12 7
f 2 18 17
f 75 97 113
f 49 75 113
f 119 106 113
f 106 99 113
f 113 77 49
f 99 77 113
f 113 120 119
f 112 120 113
f 97 117 113
f 113 117 114
f 114 93 113