# https://github.com/mikedh/trimesh
v 0.37223554 0.32076202 0.71611484
v 0.37047059 0.32659739 0.71611484
v 0.36007527 0.37237997 0.77753671
v 0.36007527 0.37240662 0.77813870
v 0.36007527 0.37188644 0.78615114
v 0.36007527 0.34747797 0.78615114
v 0.36007527 0.31580029 0.71611484
v 0.35850478 0.32076202 0.67082166
v 0.34616501 0.36199635 0.62336969
v 0.34833383 0.36199635 0.63555442
v 0.36007527 0.36831856 0.75887560
v 0.36007527 0.36970571 0.76412728
v 0.34881244 0.37437399 0.77753671
v 0.35208809 0.37419392 0.78615114
v 0.24088072 0.38313036 0.62538318
v 0.28606666 0.35928875 0.78615114
v 0.24203243 0.34634426 0.77384186
v 0.24255594 0.34631088 0.77384186
v 0.25229312 0.31500002 0.69840857
v 0.25338500 0.31500002 0.69845008
v 0.26579955 0.31500002 0.69465143
v 0.26590424 0.31500002 0.69460992
v 0.27303887 0.31500002 0.68998097
v 0.27736151 0.31500002 0.68265352
v 0.27791493 0.31500002 0.68095140
v 0.31109019 0.32076202 0.57409104
v 0.35051756 0.32076202 0.65259645
v 0.35394278 0.32076202 0.65957102
v 0.35549835 0.32076202 0.66316209
v 0.33742995 0.36199635 0.61240965
v 0.34881244 0.37476746 0.78615114
v 0.33704108 0.36199635 0.61203602
v 0.29608804 0.36199635 0.57409104
v 0.23464354 0.38313036 0.62538318
v 0.24088072 0.38313036 0.68076458
v 0.28606666 0.37454737 0.78615114
v 0.24088072 0.34712452 0.77384186
v 0.24088072 0.31500002 0.69597993
v 0.24195764 0.31500002 0.69660266
v 0.24312432 0.31500002 0.69691402
v 0.24088072 0.31500002 0.68095140
v 0.29655173 0.32076202 0.57409104
v 0.30968420 0.32642397 0.57409104
v 0.34022697 0.37542769 0.78615114
v 0.28606666 0.36199635 0.57409104
v 0.23162216 0.37560107 0.62538318
v 0.21958155 0.38313036 0.68265352
v 0.23201105 0.38313036 0.75692436
v 0.24088072 0.36513745 0.77384186
v 0.28953675 0.37497418 0.78615114
v 0.21947684 0.38313036 0.75692436
v 0.22184010 0.37419392 0.75692436
v 0.22330592 0.36933224 0.75692436
v 0.22393412 0.36753162 0.75692436
v 0.22726960 0.36159620 0.75692436
v 0.22258796 0.32717757 0.68080609
v 0.22270762 0.32717757 0.68113821
v 0.22012002 0.32717757 0.67127833
v 0.22006018 0.32717757 0.67080091
v 0.22040420 0.32717757 0.65934268
v 0.22046404 0.32717757 0.65890678
v 0.22299181 0.32717757 0.65145478
v 0.28606666 0.33718773 0.57409104
v 0.22943840 0.35118592 0.62538318
v 0.32836584 0.37570113 0.78615114
v 0.22723968 0.36172959 0.62538318
v 0.22794267 0.36445052 0.62538318
v 0.23106874 0.37419392 0.62538318
v 0.21943198 0.38313036 0.69448538
v 0.31650472 0.37576781 0.78615114
v 0.30138292 0.37560107 0.78615114
v 0.31324405 0.37574112 0.78615114
f 26 9 27
f 8 9 1
f 8 29 9
f 1 6 7
f 7 8 1
f 29 8 7
f 7 25 26
f 26 27 7
f 17 6 16
f 42 41 62
f 30 9 26
f 45 63 66
f 9 29 28
f 28 27 9
f 29 7 28
f 28 7 27
f 23 7 22
f 25 7 24
f 24 7 23
f 37 17 16
f 52 53 37
f 37 53 54
f 18 7 6
f 6 17 18
f 19 7 18
f 18 17 19
f 17 37 38
f 1 9 10
f 9 3 10
f 5 6 1
f 43 30 26
f 9 30 15
f 15 3 9
f 62 66 64
f 64 66 63
f 63 42 64
f 64 42 62
f 67 66 47
f 45 66 67
f 20 7 19
f 19 17 40
f 41 38 59
f 69 47 59
f 1 3 4
f 4 5 1
f 32 43 33
f 30 43 32
f 33 15 32
f 32 15 30
f 45 67 68
f 68 67 47
f 21 22 7
f 7 20 21
f 17 38 39
f 39 40 17
f 62 41 61
f 61 66 62
f 47 66 61
f 55 37 54
f 57 38 37
f 2 3 1
f 1 10 2
f 10 11 2
f 12 10 3
f 12 11 10
f 3 2 12
f 12 2 11
f 3 15 13
f 49 36 51
f 51 37 49
f 52 37 51
f 69 59 51
f 46 34 45
f 45 68 46
f 46 47 34
f 46 68 47
f 41 59 60
f 60 61 41
f 60 59 47
f 47 61 60
f 58 59 38
f 54 53 58
f 58 53 52
f 52 51 58
f 58 51 59
f 38 57 56
f 56 58 38
f 54 58 56
f 56 55 54
f 37 55 56
f 56 57 37
f 5 4 14
f 14 4 3
f 3 13 14
f 48 44 35
f 31 13 15
f 31 14 13
f 31 15 35
f 35 44 31
f 50 51 36
f 50 71 51
f 70 48 51
f 44 48 65
f 48 70 65
f 51 71 72
f 72 70 51
f 25 41 42
f 26 25 42
f 45 33 43
f 26 42 43
f 43 63 45
f 43 42 63
f 15 33 45
f 45 34 15
f 49 37 36
f 36 37 16
f 39 41 25
f 25 24 39
f 39 20 19
f 23 22 39
f 39 24 23
f 39 38 41
f 19 40 39
f 22 21 39
f 39 21 20
f 34 47 48
f 48 47 69
f 48 15 34
f 35 15 48
f 69 51 48
f 72 36 16
f 16 6 72
f 6 5 72
f 5 14 72
f 72 31 44
f 72 50 36
f 14 31 72
f 71 50 72
f 44 65 72
f 72 65 70