# https://github.com/mikedh/trimesh
v -0.29174126 0.55101435 0.18527066
v -0.29174126 0.55087007 0.19625593
v 0.11775086 0.52860415 0.21209303
v -0.28272438 0.54872204 0.18527066
v -0.31069768 0.55035709 0.18527066
v -0.31069768 0.55042123 0.20330212
v -0.31069768 0.55042123 0.20811362
v -0.30360998 0.55054946 0.20811362
v -0.29174126 0.55064566 0.20811362
v 0.11775086 0.52635995 0.21831378
v 0.11775086 0.51042593 0.21209303
v -0.25621894 0.51233354 0.18527066
v -0.29174126 0.54836937 0.21728033
v -0.31069768 0.53788562 0.18527066
v -0.31069768 0.54913881 0.21333451
v 0.11775086 0.52315391 0.22114565
v 0.11775086 0.47049478 0.22427954
v 0.10814684 0.45726988 0.22489020
v 0.10563051 0.45129062 0.22587665
v 0.09963323 0.45726988 0.22226635
v 0.08776450 0.45726988 0.21994445
v 0.07593771 0.45726988 0.21870972
v -0.25621894 0.48816002 0.18527066
v -0.31069768 0.54819305 0.21694481
v -0.31069768 0.54349620 0.21934050
v -0.29174126 0.54027414 0.22124631
v 0.11775086 0.51674182 0.22567534
v 0.11775086 0.51959519 0.22423927
v -0.31069768 0.38725006 0.21621334
v -0.28129846 0.50329252 0.18527066
v 0.11775086 0.46445141 0.22654102
v 0.09963323 0.44941507 0.22495730
v 0.11775086 0.43920389 0.23604997
v 0.11775086 0.43447497 0.23796922
v 0.11775086 0.42431183 0.24216334
v 0.08667408 0.44510296 0.22389031
v 0.07593771 0.44540755 0.22191739
v 0.06406898 0.44540755 0.22074974
v -0.11924627 0.41554333 0.21397872
v -0.26016123 0.48899359 0.18527066
v -0.25613508 0.38726612 0.21664284
v -0.31069768 0.54027414 0.22091079
v -0.17309592 0.46408269 0.25037047
v -0.16495975 0.46413081 0.25041070
v 0.11775086 0.51366405 0.22713153
v -0.25735131 0.38725006 0.21666295
v -0.31069768 0.38725006 0.22854749
v -0.27496567 0.49596674 0.18527066
v -0.26951359 0.49184697 0.18527066
v -0.26791994 0.49094929 0.18527066
v 0.11775086 0.41576773 0.24980004
v -0.20870210 0.38726612 0.21974313
v 0.07593771 0.43880310 0.22536665
v 0.08201887 0.43942829 0.22586994
v -0.24426635 0.38726612 0.21726693
v -0.31069768 0.51342359 0.22697720
v -0.19117160 0.46342546 0.24982020
v -0.17309592 0.45728590 0.25176627
v 0.11775086 0.43829016 0.25381972
v 0.11775086 0.46533304 0.24467985
v -0.25621894 0.38725006 0.22729933
v -0.19825930 0.38726612 0.22312532
v -0.19234590 0.38726612 0.22725906
v -0.16705669 0.38726612 0.25381972
v -0.30360998 0.38725006 0.22905749
v -0.19289110 0.38726612 0.25381972
v -0.30360998 0.45726988 0.23373482
v -0.31069768 0.45726988 0.23181558
v 0.11775086 0.41565555 0.24996780
v 0.11775086 0.41361970 0.25381972
v -0.31069768 0.50468716 0.22850722
v -0.19188457 0.45728590 0.25057847
v -0.18492270 0.45728590 0.25130994
v -0.17309592 0.41815625 0.25381972
v -0.15074243 0.42264468 0.25381972
v -0.00676594 0.43667108 0.25381972
v 0.01663601 0.43798557 0.25381972
v -0.25621894 0.38725006 0.22768852
v -0.30243568 0.38725006 0.22907092
v -0.29056696 0.38725006 0.22905077
v -0.27874020 0.38725006 0.22869513
v -0.19234590 0.38880500 0.25381972
v -0.18592924 0.40228637 0.25381972
f 3 4 1
f 12 4 3
f 42 43 26
f 47 67 68
f 63 70 64
f 29 14 30
f 30 48 29
f 40 23 29
f 29 50 40
f 29 48 49
f 49 50 29
f 6 1 5
f 6 7 1
f 2 9 3
f 3 1 2
f 9 2 8
f 1 7 8
f 8 2 1
f 59 60 44
f 44 60 45
f 45 26 44
f 44 26 43
f 42 26 25
f 23 11 22
f 22 39 23
f 39 37 53
f 53 52 39
f 35 52 53
f 51 52 35
f 62 70 63
f 62 52 70
f 23 39 41
f 29 23 41
f 67 47 66
f 15 8 7
f 68 67 71
f 42 56 57
f 57 43 42
f 56 71 57
f 38 37 39
f 39 22 38
f 38 22 37
f 70 52 69
f 52 51 69
f 39 52 55
f 55 41 39
f 64 78 61
f 13 15 24
f 13 10 3
f 3 9 13
f 24 25 13
f 13 25 26
f 9 8 13
f 8 15 13
f 27 26 45
f 27 13 26
f 28 13 27
f 72 71 67
f 72 57 71
f 67 66 72
f 11 17 18
f 18 19 11
f 18 17 19
f 32 19 35
f 35 36 32
f 35 53 54
f 54 36 35
f 54 53 37
f 37 36 54
f 29 41 46
f 41 55 46
f 46 55 52
f 52 62 46
f 46 62 63
f 63 64 46
f 64 61 46
f 81 78 64
f 64 80 81
f 64 66 79
f 79 80 64
f 10 13 16
f 16 13 28
f 82 72 66
f 58 74 75
f 43 57 58
f 75 76 58
f 58 44 43
f 76 77 58
f 58 77 59
f 59 44 58
f 35 19 34
f 19 33 34
f 19 17 31
f 31 33 19
f 11 19 20
f 19 32 20
f 20 32 36
f 65 66 47
f 65 79 66
f 74 58 73
f 83 74 73
f 57 72 73
f 73 58 57
f 73 82 83
f 72 82 73
f 21 22 11
f 11 20 21
f 37 22 21
f 21 36 37
f 21 20 36
f 3 11 12
f 12 11 23
f 5 1 49
f 49 12 23
f 49 14 5
f 49 1 4
f 4 12 49
f 48 30 49
f 23 40 49
f 49 30 14
f 49 40 50
f 5 14 71
f 71 6 5
f 42 25 71
f 71 14 29
f 29 47 71
f 71 56 42
f 71 47 68
f 7 6 71
f 71 25 24
f 71 15 7
f 24 15 71
f 82 70 59
f 82 74 83
f 59 77 82
f 82 64 70
f 82 76 75
f 75 74 82
f 82 66 64
f 82 77 76
f 31 11 3
f 31 60 59
f 59 70 31
f 70 69 31
f 3 10 31
f 45 60 31
f 31 51 35
f 31 27 45
f 10 16 31
f 31 17 11
f 31 69 51
f 28 27 31
f 35 34 31
f 31 16 28
f 31 34 33
f 65 47 29
f 78 81 65
f 29 46 65
f 65 61 78
f 65 46 61
f 65 81 80
f 80 79 65