# https://github.com/mikedh/trimesh
v -0.23620881 0.23062041 0.59260187
v -0.23620881 0.23062041 0.61110486
v -0.23620881 0.23185345 0.59213400
v -0.22943002 -0.09893259 0.60563657
v -0.22943002 -0.09954911 0.61146308
v -0.23620881 0.28819379 0.61150694
v -0.22943002 -0.09864803 0.61457737
v -0.22943002 -0.09542316 0.62331347
v -0.22943002 -0.08840434 0.62914728
v -0.22943002 -0.08318764 0.63140624
v -0.22938600 -0.04994305 0.63873141
v -0.22938600 -0.04093240 0.64014234
v -0.22938600 -0.02907627 0.64126085
v -0.22938600 -0.01660362 0.64188956
v -0.22938600 0.01839568 0.64335898
v -0.22938600 0.03347668 0.64351982
v -0.23620881 0.23394014 0.59161495
v -0.13575944 -0.12942655 0.57469104
v -0.22516027 -0.10471838 0.60563657
v -0.22542437 -0.10500292 0.61146308
v -0.23620881 0.24370959 0.58924633
v -0.23620881 0.25556571 0.58765263
v -0.23620881 0.30697388 0.61027146
v -0.22938600 0.04210794 0.64340284
v -0.22938600 0.04575963 0.64324932
v -0.22846161 -0.09727272 0.62331347
v -0.22700903 -0.09509119 0.62965902
v -0.22846161 -0.08840434 0.63072636
v -0.22656883 -0.04709758 0.64112927
v -0.22731715 -0.04093240 0.64144362
v -0.22841759 -0.02907627 0.64172873
v -0.22053835 0.00649212 0.64301539
v 0.00294168 0.33509662 0.64890037
v -0.00528971 0.33424300 0.64890037
v -0.03297711 0.33187177 0.64890037
v -0.04006403 0.33135010 0.64890037
v -0.15904503 0.32471064 0.64890037
v -0.19452365 0.32471064 0.64890037
v -0.13575944 -0.12980595 0.57575107
v -0.19681259 -0.12264484 0.60563657
v -0.20526407 -0.11923029 0.60563657
v -0.20830131 -0.11771270 0.60563657
v -0.21120651 -0.11614769 0.60563657
v -0.21921781 -0.11021962 0.60563657
v -0.22225506 -0.10751642 0.60563657
v -0.23620881 0.26680532 0.58756491
v -0.13575944 -0.11652709 0.57469104
v 0.06403885 0.14871827 0.57423048
v 0.01680739 -0.12240773 0.57469104
v 0.14710106 -0.12373561 0.58665109
v -0.21948191 -0.11031447 0.61146308
v -0.21789728 -0.10879689 0.62078402
v -0.23620881 0.30649965 0.60957696
v -0.22938600 0.06397064 0.64175797
v -0.19575614 0.32471064 0.64701425
v -0.19866135 0.32471064 0.63721812
v -0.19910152 0.32471064 0.63517848
v -0.19681259 0.32580143 0.63517848
v -0.15050551 0.34263712 0.61147039
v -0.14359467 0.34458154 0.60540264
v -0.15574367 0.33300994 0.59334755
v -0.21274715 -0.10514521 0.62868672
v -0.22053835 -0.09713045 0.63039008
v -0.22053835 -0.08840434 0.63328505
v -0.22053835 -0.07650079 0.63587299
v -0.20869747 -0.08840434 0.63473985
v -0.18497170 -0.10026048 0.63457902
v -0.22260720 -0.04709758 0.64112927
v -0.22071443 -0.04093240 0.64144362
v 0.19450858 -0.07659563 0.63564636
v 0.00294168 0.34766412 0.64890037
v 0.20634946 -0.06464466 0.63577064
v 0.21343638 -0.04576970 0.63607768
v 0.21343638 0.01355838 0.63652362
v 0.21343638 0.01844311 0.63653825
v -0.18616020 0.32869433 0.64890037
v -0.13575944 -0.13051732 0.57822934
v -0.16877303 -0.13013792 0.60563657
v -0.16877303 -0.13013792 0.60731800
v -0.19681259 -0.12259743 0.61146308
v -0.20530809 -0.11923029 0.61146308
v -0.21125053 -0.11624254 0.61146308
v -0.14931702 0.24370959 0.57786382
v -0.14931702 0.23185345 0.57759333
v -0.23620881 0.27875630 0.58971421
v -0.14575155 0.31019876 0.58146060
v -0.14786442 0.30299022 0.58087576
v 0.00479044 0.13686213 0.57478608
v -0.14821657 0.23062041 0.57756408
v -0.13756418 0.21990247 0.57730090
v 0.12333126 0.18433408 0.57522471
v 0.12333126 0.17243052 0.57509312
v 0.12333126 0.16057439 0.57512236
v -0.07818373 0.30299022 0.57776878
v 0.11153440 0.31484636 0.57784188
v 0.20771403 -0.10291625 0.58665109
v 0.20185960 -0.10713703 0.58665109
v 0.19450858 -0.11045674 0.58665109
v 0.18121511 -0.11548374 0.58665109
v 0.17038665 -0.11946740 0.58665109
v 0.15784148 -0.12240773 0.58665109
v 0.12333126 0.14871827 0.57524664
v 0.21348040 -0.09822122 0.58665109
v 0.14710106 -0.12387788 0.58775498
v -0.20407558 -0.11870861 0.61848851
v -0.23620881 0.30066644 0.60241993
v -0.18431144 0.33016448 0.64697770
v -0.17995365 0.33296253 0.64297883
v -0.17995365 0.33296253 0.63859251
v -0.14456307 0.34486608 0.61147039
v -0.14438700 0.34481867 0.61027877
v -0.13752017 0.34581460 0.61147039
v -0.13747615 0.34481867 0.60499325
v -0.13747615 0.34021848 0.59907170
v -0.14931702 0.33391101 0.59260918
v -0.14931702 0.32670250 0.58869804
v -0.23620881 0.28700817 0.59260918
v -0.19681259 -0.11496207 0.62653742
v -0.18809699 -0.11704876 0.62849665
v -0.20486790 -0.10704217 0.62970289
v -0.19681259 -0.10908143 0.63062401
v -0.19681259 -0.10026048 0.63335084
v -0.18448751 -0.11273311 0.63121617
v -0.17308682 -0.11216403 0.63193260
v 0.19450858 -0.08840434 0.63443280
v 0.18266771 -0.08840434 0.63451322
v 0.20643749 -0.07659563 0.63510538
v 0.20634946 -0.06492921 0.63575601
v 0.14714507 0.34614655 0.62241427
v 0.13526018 0.34932399 0.62241427
v 0.12341931 0.35013021 0.62241427
v 0.00294168 0.34780639 0.64840326
v -0.13936893 0.33936482 0.64890037
v 0.21343638 0.03029924 0.63644321
v 0.21343638 0.10783833 0.63370175
v 0.21343638 0.20259252 0.62933736
v 0.21317227 0.32229203 0.62241427
v 0.21343638 -0.05767325 0.63576332
v 0.21348040 -0.06492921 0.63499572
v -0.18109811 0.33101815 0.64890037
v -0.13575944 -0.13156065 0.58779884
v -0.16124593 -0.13065959 0.60563657
v -0.16124593 -0.13042247 0.60881666
v -0.16124593 -0.12928428 0.61473089
v -0.17282271 -0.12828837 0.61133880
v -0.18497170 -0.12572744 0.61146308
v -0.19681259 -0.12008393 0.62061588
v -0.13747615 0.29113410 0.57930399
v -0.09002460 0.30299022 0.57828052
v -0.13747615 0.30299022 0.58033478
v -0.14958114 0.31441955 0.58379267
v -0.01884729 0.33111297 0.58258643
v -0.01884729 0.32518490 0.58038595
v 0.21317227 0.27956252 0.58993352
v 0.21348040 -0.07787610 0.58665109
v 0.11153440 0.32670250 0.57875570
v 0.12425564 0.32712931 0.58032747
v 0.20793411 -0.10305852 0.58775498
v 0.20203567 -0.10727930 0.58775498
v 0.19450858 -0.11074129 0.58775498
v 0.17804580 -0.11851891 0.59203165
v 0.15894192 -0.12231287 0.58775498
v 0.21348040 -0.09850576 0.58775498
v -0.14936104 -0.13099157 0.60563657
v -0.13575944 -0.13103898 0.60022677
v -0.13575944 -0.13151324 0.58902702
v 0.17082682 -0.12074787 0.59961999
v 0.15894192 -0.12202833 0.59961999
v 0.14710106 -0.12255000 0.59961999
v -0.17559584 0.33286767 0.64890037
v -0.17286673 0.33376874 0.64890037
v -0.14473914 0.34491352 0.61925612
v -0.12563527 0.34624141 0.62332809
v 0.02851621 0.35292825 0.62241427
v 0.01663132 0.35088901 0.61146308
v 0.08780863 0.34477125 0.59327444
v -0.00713847 0.34315883 0.59583313
v -0.00713847 0.34647850 0.60174736
v -0.00713847 0.33723076 0.58836176
v -0.01884729 0.33680391 0.58852259
v -0.18448751 -0.12122211 0.62404452
v -0.18021776 -0.11832921 0.62945433
v 0.17989456 -0.10652050 0.62949819
v 0.18341601 -0.10139866 0.63119423
v -0.17308682 -0.11856634 0.62960785
v 0.19450858 -0.09850576 0.63132583
v 0.20714178 -0.08921055 0.63202763
v 0.21348040 -0.08233400 0.63196184
v 0.21348040 -0.07659563 0.63327774
v 0.21348040 -0.06952939 0.63473985
v 0.14723311 0.34614655 0.62226806
v 0.15308752 0.34453409 0.61726034
v 0.13526018 0.34899200 0.61146308
v 0.12341931 0.34989308 0.61146308
v 0.00294168 0.34813838 0.64704349
v -0.13237004 0.34462898 0.62965902
v -0.14936104 0.33865347 0.64890037
v 0.21343638 0.23062041 0.62183674
v 0.21343638 0.23062041 0.60850962
v 0.21317227 0.32219714 0.61897101
v 0.15308752 0.34453409 0.61761124
v 0.21348040 -0.06492921 0.62060126
v -0.14936104 -0.13065959 0.60838534
v -0.16146602 -0.12255000 0.62419804
v -0.17308682 -0.12340364 0.62331347
v 0.17082682 -0.11946740 0.60996442
v 0.17082682 -0.11738073 0.61587865
v -0.00713847 0.33144496 0.58243291
v 0.11153440 0.33414814 0.58082459
v -0.00713847 0.32551689 0.58029092
v 0.21317227 0.29089699 0.59070844
v 0.12086625 0.33386360 0.58102197
v 0.12878951 0.33135010 0.58203083
v 0.20925465 -0.10362762 0.59961999
v 0.20335622 -0.10832265 0.59961999
v 0.19450858 -0.11259084 0.59961999
v 0.18570495 -0.11643223 0.59961999
v 0.17976251 -0.11899316 0.59961999
v 0.21348040 -0.09964395 0.59961999
v 0.17945438 -0.11885088 0.60821720
v -0.16124593 0.33647196 0.64890037
v -0.13681587 0.34534034 0.62325498
v 0.00294168 0.35050961 0.63517848
v 0.08780863 0.35041475 0.61146308
v 0.02851621 0.35107869 0.61146308
v 0.08780863 0.34737958 0.59960537
v 0.09969353 0.34491352 0.59301126
v 0.11153440 0.34012362 0.58702393
v 0.18341601 -0.11002993 0.62443929
v 0.18781781 -0.10609369 0.62913266
v -0.16555972 -0.11847148 0.62951281
v 0.20362033 -0.09613454 0.63036814
v 0.21348040 -0.08650737 0.63098223
v 0.21317227 0.32181777 0.61541808
v 0.14661686 0.34600428 0.61257428
v 0.12368341 0.34643109 0.59865500
v 0.14239111 0.34510321 0.60438647
v 0.13526018 0.34600428 0.60198861
v 0.11153440 0.34728475 0.59960537
v 0.21317227 0.29175061 0.59094238
v 0.21317227 0.29625596 0.59222904
v 0.21317227 0.29791581 0.59303320
v 0.21317227 0.30071385 0.59453186
v 0.21317227 0.30811208 0.59940799
v 0.21317227 0.31190605 0.60277084
v 0.21317227 0.31446696 0.60517601
v 0.21317227 0.31783412 0.60949654
v 0.21317227 0.31973109 0.61204061
v 0.18310789 -0.11638481 0.61187247
v 0.11989785 0.34477125 0.59320134
v 0.12786513 0.34424955 0.59406398
v 0.13526018 0.33661423 0.59000663
v 0.20890250 -0.10315336 0.61146308
v 0.20296006 -0.10803809 0.61146308
v 0.19450858 -0.11230630 0.61146308
v 0.21348040 -0.09879031 0.61146308
v 0.09969353 0.34742702 0.59960537
v 0.11153440 0.34491352 0.59296009
v 0.19450858 -0.10884432 0.62136155
v 0.19450858 -0.10448126 0.62729041
v 0.21149958 -0.09371590 0.62848202
v 0.21348040 -0.08940025 0.62970289
v 0.13526018 0.34249485 0.59606707
v 0.20172755 -0.10708960 0.61883942
v 0.21348040 -0.09651394 0.61981172
v 0.21348040 -0.09219831 0.62712957
v 0.21348040 -0.09618196 0.62075478
f 19 4 18
f 102 93 103
f 174 173 223
f 222 173 172
f 137 71 136
f 18 4 22
f 22 46 18
f 4 21 22
f 112 173 174
f 174 175 112
f 112 175 113
f 172 173 112
f 86 117 151
f 87 46 86
f 127 138 128
f 128 138 72
f 49 50 18
f 49 102 103
f 93 102 49
f 48 95 91
f 48 49 18
f 93 49 48
f 174 223 195
f 195 131 174
f 197 222 172
f 71 134 135
f 135 136 71
f 137 136 198
f 3 4 1
f 86 46 85
f 85 117 86
f 176 113 178
f 113 175 178
f 60 112 113
f 86 152 153
f 228 179 176
f 156 212 157
f 157 95 156
f 213 212 251
f 211 157 213
f 213 157 212
f 129 71 137
f 33 72 73
f 72 138 73
f 29 67 68
f 204 144 207
f 207 183 204
f 91 95 154
f 211 155 154
f 154 157 211
f 95 157 154
f 93 48 92
f 92 48 91
f 92 155 103
f 103 93 92
f 92 154 155
f 91 154 92
f 95 48 94
f 156 95 94
f 94 153 156
f 86 153 94
f 260 259 264
f 232 187 186
f 185 183 124
f 67 123 124
f 124 182 185
f 124 123 182
f 254 264 255
f 255 215 254
f 230 259 260
f 260 232 230
f 232 186 230
f 173 222 196
f 222 197 196
f 196 223 173
f 196 195 223
f 17 21 4
f 4 3 17
f 172 112 110
f 61 117 106
f 177 113 176
f 176 179 177
f 156 153 210
f 251 212 250
f 212 228 250
f 228 258 250
f 179 228 209
f 209 228 212
f 209 210 153
f 209 212 156
f 156 210 209
f 251 246 252
f 252 213 251
f 246 213 252
f 191 129 137
f 129 191 130
f 130 191 192
f 130 131 71
f 71 129 130
f 263 246 251
f 235 192 234
f 227 228 176
f 227 258 228
f 176 178 227
f 227 178 175
f 258 227 257
f 33 73 74
f 66 29 65
f 67 29 66
f 12 2 11
f 11 29 12
f 97 98 49
f 160 97 159
f 98 97 160
f 205 204 185
f 144 204 205
f 185 182 205
f 231 183 185
f 185 204 231
f 231 204 183
f 141 164 142
f 18 46 47
f 46 84 47
f 47 48 18
f 47 88 48
f 48 88 90
f 90 94 48
f 88 47 90
f 83 94 84
f 148 94 83
f 83 84 46
f 46 87 83
f 87 148 83
f 86 94 149
f 149 94 148
f 253 219 256
f 253 264 254
f 188 189 127
f 127 187 188
f 125 187 127
f 125 186 187
f 67 124 125
f 218 255 220
f 220 167 218
f 249 264 259
f 249 255 264
f 249 220 255
f 207 220 249
f 259 230 229
f 207 249 229
f 229 249 259
f 229 183 207
f 229 230 183
f 133 196 197
f 221 197 172
f 172 110 109
f 109 110 59
f 139 198 136
f 136 135 139
f 139 135 134
f 139 74 73
f 139 73 138
f 199 202 155
f 199 155 211
f 137 198 199
f 112 60 111
f 111 110 112
f 111 60 59
f 59 110 111
f 86 151 116
f 116 152 86
f 116 151 117
f 117 61 116
f 114 60 113
f 113 177 114
f 114 177 179
f 152 179 208
f 179 209 208
f 208 153 152
f 208 209 153
f 137 192 201
f 201 191 137
f 192 191 201
f 235 234 237
f 251 238 237
f 237 263 251
f 234 199 248
f 263 237 248
f 248 237 234
f 200 192 137
f 200 234 192
f 137 199 200
f 200 199 234
f 224 257 225
f 225 175 174
f 174 224 225
f 239 257 224
f 239 250 258
f 258 257 239
f 64 66 65
f 65 29 64
f 29 27 64
f 96 49 103
f 96 97 49
f 50 49 101
f 49 100 101
f 49 98 99
f 99 100 49
f 215 255 216
f 159 215 216
f 216 160 159
f 5 7 2
f 5 2 1
f 1 4 5
f 167 220 168
f 181 145 144
f 144 205 181
f 181 205 182
f 203 164 169
f 169 164 104
f 104 168 169
f 167 168 104
f 50 101 104
f 141 142 78
f 84 94 89
f 94 90 89
f 89 47 84
f 89 90 47
f 150 148 87
f 150 149 148
f 150 87 86
f 86 149 150
f 219 253 214
f 214 163 219
f 254 215 214
f 214 253 254
f 261 232 260
f 260 264 261
f 70 125 127
f 127 128 70
f 69 68 70
f 70 128 72
f 70 72 33
f 68 67 126
f 67 125 126
f 126 70 68
f 125 70 126
f 184 124 183
f 184 125 124
f 186 125 184
f 183 230 184
f 184 230 186
f 132 133 71
f 71 131 132
f 131 195 132
f 195 196 132
f 196 133 132
f 172 109 108
f 59 60 23
f 60 61 23
f 12 29 30
f 75 139 134
f 74 139 75
f 75 134 71
f 75 71 33
f 33 74 75
f 127 189 190
f 190 138 127
f 190 139 138
f 244 199 243
f 244 243 213
f 152 116 115
f 115 116 61
f 115 61 60
f 60 114 115
f 246 263 247
f 263 248 247
f 247 199 246
f 247 248 199
f 226 257 227
f 226 225 257
f 226 227 175
f 175 225 226
f 250 239 236
f 236 238 251
f 251 250 236
f 122 123 67
f 67 66 122
f 66 64 122
f 103 163 158
f 158 96 103
f 158 214 215
f 163 214 158
f 158 215 159
f 159 97 158
f 97 96 158
f 218 167 162
f 167 104 162
f 162 104 101
f 98 160 161
f 161 99 98
f 161 160 218
f 100 99 161
f 218 162 161
f 161 101 100
f 161 162 101
f 218 160 217
f 160 216 217
f 217 255 218
f 217 216 255
f 20 26 7
f 7 5 20
f 4 19 20
f 20 5 4
f 206 220 207
f 206 168 220
f 169 168 206
f 206 203 169
f 207 144 206
f 144 203 206
f 105 82 81
f 143 142 164
f 164 203 143
f 143 203 144
f 165 104 164
f 141 78 77
f 50 104 77
f 77 104 141
f 171 108 170
f 171 221 172
f 172 108 171
f 170 108 140
f 58 109 59
f 59 23 58
f 58 108 109
f 53 61 106
f 53 23 61
f 240 199 211
f 240 241 199
f 211 213 240
f 213 241 240
f 243 199 242
f 199 241 242
f 213 243 242
f 242 241 213
f 246 199 245
f 199 244 245
f 245 213 246
f 245 244 213
f 180 114 179
f 180 115 114
f 180 179 152
f 152 115 180
f 238 236 193
f 235 237 193
f 193 237 238
f 193 192 235
f 193 130 192
f 121 122 64
f 123 122 121
f 182 123 121
f 7 26 8
f 2 7 8
f 8 9 2
f 8 26 27
f 27 9 8
f 10 11 2
f 2 9 10
f 29 11 10
f 45 20 19
f 45 19 18
f 18 44 45
f 145 181 147
f 80 147 105
f 80 105 81
f 82 105 52
f 26 20 52
f 27 26 52
f 52 62 27
f 52 105 62
f 79 78 142
f 142 143 79
f 79 143 144
f 144 145 79
f 166 164 141
f 166 165 164
f 141 104 166
f 104 165 166
f 39 77 78
f 18 50 39
f 50 77 39
f 43 44 18
f 81 82 42
f 42 41 81
f 82 43 42
f 18 41 42
f 42 43 18
f 267 266 261
f 267 261 264
f 261 266 262
f 232 261 262
f 107 140 108
f 2 16 6
f 38 23 54
f 32 70 33
f 69 70 32
f 32 30 69
f 55 23 38
f 55 107 108
f 194 236 239
f 194 193 236
f 194 239 224
f 174 131 194
f 194 224 174
f 131 130 194
f 130 193 194
f 63 64 27
f 63 121 64
f 120 121 63
f 27 62 63
f 62 120 63
f 28 9 27
f 28 10 9
f 28 27 29
f 29 10 28
f 119 181 182
f 119 147 181
f 119 120 62
f 182 121 119
f 119 121 120
f 145 147 146
f 147 80 146
f 146 79 145
f 80 79 146
f 81 41 40
f 40 80 81
f 40 39 78
f 78 79 40
f 40 79 80
f 40 41 18
f 18 39 40
f 51 52 20
f 82 52 51
f 51 45 44
f 20 45 51
f 44 43 51
f 51 43 82
f 265 253 256
f 264 253 265
f 265 267 264
f 233 188 187
f 233 187 232
f 232 262 233
f 140 107 76
f 76 55 38
f 107 55 76
f 13 2 12
f 13 14 2
f 12 30 13
f 15 16 2
f 2 14 15
f 30 32 15
f 15 37 38
f 38 16 15
f 36 37 15
f 15 35 36
f 34 35 15
f 33 34 15
f 15 32 33
f 38 54 25
f 23 6 25
f 25 54 23
f 57 58 23
f 105 147 118
f 147 119 118
f 62 105 118
f 118 119 62
f 30 15 31
f 31 15 14
f 31 13 30
f 14 13 31
f 24 16 38
f 38 25 24
f 24 6 16
f 24 25 6
f 56 55 108
f 108 58 56
f 58 57 56
f 23 55 56
f 56 57 23
f 199 139 202
f 198 139 199
f 30 29 68
f 30 68 69
f 46 22 6
f 6 85 46
f 106 117 6
f 6 22 21
f 6 3 1
f 1 2 6
f 117 85 6
f 21 17 6
f 6 17 3
f 6 53 106
f 23 53 6
f 189 188 233
f 103 155 233
f 233 163 103
f 256 219 233
f 155 202 233
f 219 163 233
f 233 190 189
f 202 139 233
f 139 190 233
f 233 265 256
f 266 267 233
f 233 262 266
f 267 265 233
f 76 34 33
f 33 71 76
f 71 133 76
f 197 221 76
f 76 133 197
f 36 35 76
f 76 37 36
f 76 171 170
f 76 35 34
f 38 37 76
f 221 171 76
f 170 140 76