# https://github.com/mikedh/trimesh
v -0.16645782 0.38313701 0.42269926
v -0.16492620 0.38313701 0.42094711
v -0.18432468 0.38313701 0.42269926
v -0.17825064 0.23064074 0.42269926
v -0.16132722 -0.01297330 0.40172290
v -0.16393038 0.38313701 0.41949247
v -0.18928639 0.38313701 0.38605262
v -0.19271650 0.30287581 0.42269926
v -0.19269904 0.23064074 0.42269926
v -0.17553100 -0.01297330 0.40172290
v -0.13834140 -0.01297330 0.25383047
v -0.16120492 0.38313701 0.41182263
v -0.19148772 0.38313701 0.33221494
v -0.19563995 0.37418031 0.25383047
v -0.19350850 0.29376404 0.42269926
v -0.19276308 0.30241053 0.42269926
v -0.19316492 0.23463442 0.42269926
v -0.18044613 0.00691752 0.40172290
v -0.18063833 -0.01297330 0.38497818
v -0.17551937 0.38313701 0.25383047
v -0.17284050 0.38313701 0.25561568
v -0.16705765 0.38313701 0.26764941
v -0.16094868 0.38313701 0.40952499
v -0.16102438 -0.01297330 0.25383047
v -0.19168573 0.38313701 0.32667745
v -0.19382881 0.38313701 0.25383047
v -0.19782963 0.30411658 0.25383047
v -0.19782963 0.30353498 0.25467349
v -0.19439953 0.27930152 0.42269926
v -0.19435877 0.28034840 0.42269926
v -0.19384629 0.24378497 0.42269926
v -0.18149439 0.01831694 0.40172290
v -0.18080139 0.01063978 0.40172290
v -0.18385878 -0.00541245 0.37416766
v -0.18233299 -0.01297330 0.37416766
v -0.16888044 -0.01297330 0.26006221
v -0.18112167 0.01955769 0.25383047
v -0.19782963 0.27205087 0.25383047
v -0.19782963 0.30295338 0.25511978
v -0.19464412 0.26743683 0.42269926
v -0.19452764 0.25557211 0.42269926
v -0.18473233 0.00649101 0.37416766
v -0.18533215 0.00649101 0.36231578
v -0.18604264 0.00649101 0.33859546
v -0.18522151 -0.00541245 0.32676011
v -0.18324730 -0.01297330 0.32676011
v -0.16983552 -0.01297330 0.26102095
v -0.18569322 0.03033672 0.25383047
v -0.17462252 -0.01297330 0.26607909
v -0.17991037 -0.01297330 0.27214555
v -0.19782963 0.28027085 0.25835963
v -0.18712000 0.04200756 0.25383047
v -0.19096941 0.09462323 0.28450985
v -0.19096941 0.09462323 0.28558427
v -0.19535459 0.20807456 0.31490821
v -0.19782963 0.29190291 0.26021099
v -0.19782963 0.29054584 0.26017793
v -0.18625811 0.00649101 0.32676011
v -0.18620570 0.00649101 0.31490821
v -0.18504098 -0.00541245 0.31490821
v -0.18196611 -0.01297330 0.28404701
v -0.18012002 -0.01297330 0.27279019
v -0.18366660 -0.00541245 0.27930293
v -0.18505261 0.00649101 0.27930293
v -0.18559423 0.00649101 0.29117137
v -0.18426061 -0.00541245 0.29117137
v -0.18174482 -0.01297330 0.27963354
f 4 5 1
f 11 22 23
f 11 20 21
f 21 22 11
f 12 5 11
f 11 23 12
f 5 12 6
f 34 19 18
f 45 60 46
f 8 3 7
f 14 25 26
f 14 15 7
f 1 5 2
f 5 6 2
f 37 50 48
f 63 48 62
f 48 50 62
f 62 67 63
f 10 18 19
f 9 18 10
f 17 18 9
f 61 46 60
f 60 66 61
f 63 67 61
f 61 66 63
f 35 19 34
f 34 45 35
f 45 46 35
f 41 43 42
f 42 43 34
f 42 31 41
f 7 15 16
f 16 8 7
f 13 14 7
f 25 14 13
f 36 37 24
f 32 17 31
f 31 42 32
f 32 42 34
f 65 66 60
f 44 43 41
f 44 45 34
f 34 43 44
f 15 14 30
f 14 29 30
f 50 37 49
f 18 17 33
f 17 32 33
f 34 18 33
f 33 32 34
f 63 66 64
f 66 65 64
f 59 60 45
f 59 65 60
f 53 38 52
f 52 64 65
f 52 59 53
f 65 59 52
f 52 48 63
f 63 64 52
f 41 38 55
f 55 44 41
f 41 40 51
f 51 38 41
f 37 36 47
f 47 49 37
f 53 59 58
f 45 44 58
f 58 59 45
f 54 38 53
f 54 55 38
f 44 55 54
f 53 58 54
f 54 58 44
f 39 56 40
f 57 51 40
f 40 56 57
f 40 29 28
f 28 39 40
f 28 14 27
f 28 29 14
f 4 9 10
f 5 4 10
f 1 2 13
f 13 3 1
f 22 21 13
f 13 23 22
f 7 3 13
f 13 21 20
f 20 26 13
f 13 12 23
f 13 6 12
f 26 25 13
f 13 2 6
f 1 3 30
f 30 4 1
f 3 8 30
f 30 9 4
f 41 31 30
f 30 40 41
f 30 17 9
f 30 16 15
f 31 17 30
f 8 16 30
f 30 29 40
f 52 20 11
f 52 37 48
f 52 26 20
f 11 24 52
f 27 14 52
f 52 14 26
f 24 37 52
f 52 38 27
f 47 24 11
f 11 5 47
f 67 62 47
f 5 10 47
f 19 35 47
f 47 61 67
f 47 62 50
f 47 10 19
f 46 61 47
f 47 35 46
f 47 36 24
f 50 49 47
f 27 38 28
f 38 51 28
f 51 57 28
f 56 39 28
f 28 57 56