# https://github.com/mikedh/trimesh
v -0.31886779 0.27931075 0.54892439
v -0.31849482 0.29117702 0.54892439
v -0.28601509 0.31489466 0.51038718
v -0.28605985 0.30719276 0.51032539
v -0.31475003 0.23066646 0.54644091
v -0.31507824 0.23066646 0.54831896
v -0.31507824 0.23066646 0.54892439
v -0.31625689 0.30304333 0.54892439
v -0.28586590 0.32092483 0.51058487
v -0.27398998 0.30928245 0.49873582
v -0.27398998 0.30853613 0.49873582
v -0.19467801 0.26744446 0.42269926
v -0.19454373 0.25559310 0.42269926
v -0.19387235 0.24381638 0.42269926
v -0.19318606 0.23463680 0.42269926
v -0.19270863 0.23066646 0.42269926
v -0.27028995 0.23066646 0.54892439
v -0.31196005 0.31464091 0.54892439
v -0.28486629 0.32883568 0.51353786
v -0.19278323 0.30243136 0.42269926
v -0.19351428 0.29378911 0.42269926
v -0.18433880 0.38313701 0.42269926
v -0.19437963 0.28037050 0.42269926
v -0.19442439 0.27931075 0.42269926
v -0.17826657 0.23066646 0.42269926
v -0.20589745 0.23066646 0.47125689
v -0.20738940 0.38313701 0.52993378
v -0.24343488 0.33859739 0.54892439
v -0.30870762 0.31941727 0.54892439
v -0.28613445 0.33304487 0.52145782
v -0.27694405 0.33537332 0.50789134
v -0.18823279 0.38313701 0.42735732
v -0.16645035 0.38313701 0.42269926
v -0.18908320 0.23066646 0.44449459
v -0.20128733 0.23066646 0.46532619
v -0.21634110 0.38313701 0.53598804
v -0.24243527 0.35046368 0.54892439
v -0.30330677 0.32670123 0.54892439
v -0.25143172 0.38313701 0.53291149
v -0.19382760 0.38313701 0.43511667
v -0.24152518 0.38313701 0.54892439
v -0.30284425 0.32728336 0.54892439
v -0.25307286 0.38313701 0.53681587
v -0.25623581 0.38313701 0.54892439
v -0.25408739 0.38313701 0.53947233
f 33 27 25
f 28 17 27
f 27 17 26
f 26 35 27
f 34 25 27
f 27 35 34
f 1 4 5
f 13 4 12
f 12 4 11
f 11 10 12
f 4 10 11
f 9 19 22
f 22 20 9
f 4 13 14
f 12 10 24
f 10 23 24
f 21 23 10
f 21 9 20
f 10 9 21
f 3 10 4
f 3 9 10
f 3 4 1
f 19 9 8
f 8 18 19
f 36 28 27
f 6 7 1
f 1 5 6
f 4 14 15
f 16 5 15
f 15 5 4
f 22 19 32
f 2 8 9
f 2 3 1
f 9 3 2
f 45 42 44
f 19 18 30
f 37 36 41
f 28 36 37
f 40 32 31
f 31 32 19
f 19 30 31
f 39 40 31
f 31 30 39
f 39 42 43
f 42 45 43
f 38 42 39
f 39 30 38
f 29 30 18
f 29 38 30
f 6 16 25
f 25 34 6
f 6 26 17
f 35 26 6
f 6 34 35
f 6 5 16
f 17 7 6
f 33 25 15
f 15 22 33
f 15 13 12
f 15 20 22
f 25 16 15
f 15 21 20
f 12 24 15
f 15 14 13
f 15 24 23
f 23 21 15
f 33 22 43
f 43 27 33
f 43 36 27
f 22 32 43
f 44 41 43
f 43 40 39
f 41 36 43
f 43 32 40
f 43 45 44
f 17 28 29
f 29 41 44
f 1 7 29
f 44 42 29
f 29 2 1
f 29 7 17
f 18 8 29
f 28 37 29
f 8 2 29
f 29 37 41
f 42 38 29