# https://github.com/mikedh/trimesh
v -0.24433229 0.38308769 0.70840864
v -0.23835221 0.33287219 0.67756087
v -0.24152039 0.38308769 0.54892440
v -0.24783751 0.40989736 0.69179830
v -0.25675467 0.38308769 0.70840864
v -0.23621440 0.28858712 0.70840864
v -0.23621440 0.30636081 0.68169785
v -0.23621440 0.31306324 0.67064509
v -0.26644222 0.40989736 0.62014279
v -0.23621440 0.31083495 0.62334309
v -0.23621440 0.30992257 0.61517842
v -0.23621440 0.30839609 0.61229035
v -0.23621440 0.30653628 0.60955839
v -0.23621440 0.30071113 0.60242406
v -0.23621440 0.28702557 0.59260460
v -0.23621440 0.27877914 0.58970091
v -0.23621440 0.26683059 0.58756217
v -0.23621440 0.25560141 0.58765584
v -0.24244485 0.35043536 0.54892440
v -0.25626356 0.38308769 0.54892440
v -0.27414602 0.40989736 0.69179830
v -0.33459201 0.32973156 0.69058063
v -0.29347294 0.32199395 0.70840864
v -0.23621440 0.27560338 0.70840864
v -0.27912460 0.40989736 0.62014279
v -0.23621440 0.24374060 0.58924818
v -0.24346562 0.33859205 0.54892440
v -0.32225631 0.38312279 0.57992828
v -0.30287158 0.32729269 0.54892440
v -0.27529195 0.40989736 0.69075235
v -0.33459201 0.33192473 0.68876972
v -0.33459201 0.31453707 0.69058063
v -0.29347294 0.30611516 0.70840864
v -0.26300438 0.23066911 0.70840864
v -0.23621440 0.23065157 0.61110389
v -0.27950980 0.40989736 0.62334309
v -0.32285332 0.38312279 0.58024051
v -0.32519336 0.38312279 0.58707822
v -0.23621440 0.23396768 0.59160548
v -0.23621440 0.23187976 0.59212065
v -0.27030374 0.23065157 0.54892440
v -0.30871685 0.31943226 0.54892440
v -0.27779569 0.40989736 0.68277502
v -0.33459201 0.36312080 0.63517640
v -0.33459201 0.33292484 0.68727105
v -0.33459201 0.23066911 0.60799726
v -0.27676531 0.23066911 0.70840864
v -0.29133513 0.23065157 0.61872217
v -0.23621440 0.23065157 0.59258899
v -0.27950980 0.40989736 0.62348360
v -0.32719636 0.37419208 0.58774951
v -0.31198134 0.31464232 0.54892440
v -0.31625696 0.30304470 0.54892440
v -0.32374891 0.30304470 0.55584017
v -0.32968084 0.30304470 0.56261544
v -0.33428385 0.30304470 0.56854770
v -0.33459201 0.30304470 0.56920338
v -0.32477928 0.38312279 0.59674157
v -0.27937497 0.40989736 0.67076999
v -0.27943276 0.40989736 0.65890546
v -0.33459201 0.36280500 0.62220347
v -0.33459201 0.36289272 0.62250009
v -0.33459201 0.36320855 0.63322500
v -0.29347294 0.23065157 0.54892440
v -0.27782458 0.40989736 0.68263452
v -0.32450004 0.38312279 0.59959842
v -0.33459201 0.23066911 0.55780718
v -0.29347294 0.23065157 0.61872217
v -0.33459201 0.35768166 0.61622437
v -0.33459201 0.31353697 0.57641576
v -0.32518375 0.29118388 0.55476300
v -0.33134679 0.23066911 0.54892440
v -0.33111567 0.29118388 0.56061720
v -0.33459201 0.30053566 0.56812620
v -0.33459201 0.27932305 0.56327111
v -0.33459201 0.29118388 0.56509762
f 22 5 21
f 1 3 4
f 1 2 3
f 3 2 8
f 2 1 8
f 23 5 22
f 22 21 30
f 7 1 6
f 7 8 1
f 32 46 47
f 47 46 68
f 4 3 9
f 58 44 66
f 45 30 44
f 33 32 47
f 64 67 72
f 35 24 34
f 34 48 35
f 22 30 31
f 30 45 31
f 53 37 52
f 76 73 72
f 52 37 42
f 3 14 15
f 3 8 10
f 10 11 3
f 13 14 3
f 58 66 59
f 71 53 72
f 72 73 71
f 72 67 75
f 75 76 72
f 69 61 51
f 29 42 28
f 28 42 37
f 20 29 28
f 28 25 20
f 37 25 28
f 16 17 3
f 3 15 16
f 3 11 12
f 12 13 3
f 27 19 26
f 26 39 27
f 27 39 40
f 41 27 40
f 49 41 40
f 65 59 66
f 54 71 73
f 53 71 54
f 73 55 54
f 37 53 54
f 54 55 37
f 69 51 70
f 38 61 62
f 38 51 61
f 62 63 38
f 37 51 38
f 38 63 44
f 38 44 58
f 58 59 38
f 38 36 25
f 38 25 37
f 18 19 3
f 18 26 19
f 3 17 18
f 44 30 43
f 43 66 44
f 43 65 66
f 57 51 37
f 57 70 51
f 60 38 59
f 56 57 37
f 37 55 56
f 36 38 50
f 38 60 50
f 57 56 74
f 73 76 74
f 74 55 73
f 74 56 55
f 4 21 1
f 1 21 5
f 6 1 33
f 5 23 33
f 33 1 5
f 33 24 6
f 47 34 33
f 34 24 33
f 22 32 33
f 33 23 22
f 46 67 64
f 64 68 46
f 48 34 47
f 47 68 48
f 35 64 41
f 35 41 49
f 68 64 35
f 35 48 68
f 3 20 25
f 25 9 3
f 3 19 42
f 42 20 3
f 72 53 42
f 42 64 72
f 42 27 41
f 42 29 20
f 41 64 42
f 42 19 27
f 42 53 52
f 6 24 18
f 18 7 6
f 14 13 18
f 8 7 18
f 18 15 14
f 18 35 49
f 18 10 8
f 24 35 18
f 49 40 18
f 11 10 18
f 17 16 18
f 18 12 11
f 18 16 15
f 13 12 18
f 39 26 18
f 18 40 39
f 50 21 4
f 50 30 21
f 4 9 50
f 9 25 50
f 25 36 50
f 50 43 30
f 59 65 50
f 65 43 50
f 50 60 59
f 74 32 22
f 44 63 74
f 22 31 74
f 46 32 74
f 74 67 46
f 74 61 69
f 74 45 44
f 74 63 62
f 62 61 74
f 74 31 45
f 74 75 67
f 76 75 74
f 69 70 74
f 70 57 74