# https://github.com/mikedh/trimesh
v 0.23020725 0.11319752 0.63770580
v 0.23896526 0.11319752 0.63263650
v 0.23842019 0.12506581 0.63175973
v 0.25138840 0.21930066 0.61365052
v 0.23020725 0.12506581 0.63623921
v 0.22466280 0.19216855 0.62943232
v 0.21355358 0.20267861 0.62932073
v 0.21348445 0.20267861 0.62932073
v 0.21834548 0.11319752 0.63595227
v 0.21348445 0.03018416 0.63643050
v 0.21348445 0.02530102 0.63647833
v 0.21348445 0.01831587 0.63652615
v 0.21348445 0.01343273 0.63652615
v 0.21834548 0.01831587 0.63679715
v 0.23021131 0.03018416 0.63719568
v 0.24171918 0.03018416 0.63317850
v 0.24765006 0.03018416 0.62884249
v 0.25138840 0.23065154 0.61130717
v 0.25148602 0.01831587 0.62300801
v 0.25495995 0.01831587 0.61145064
v 0.22146144 0.20009152 0.62877873
v 0.21834548 0.21994746 0.62431519
v 0.21834548 0.23065154 0.62155736
v 0.21348445 0.23065154 0.62182836
v 0.21348445 0.10776462 0.63368861
v 0.21348445 -0.04584404 0.63607980
v 0.23021131 0.01831587 0.63711597
v 0.24178427 0.01831587 0.63308285
v 0.24771515 0.01831587 0.62895408
v 0.25138840 0.23065154 0.49933615
v 0.25153891 0.00644758 0.62259354
v 0.25499248 -0.00542071 0.61145064
v 0.25503724 0.00644758 0.61145064
v 0.21348445 0.23065154 0.47496206
v 0.21348445 -0.05771234 0.63576097
v 0.21834548 -0.04099324 0.63620733
v 0.21834548 -0.05286153 0.63576097
v 0.23021131 -0.01728900 0.63576097
v 0.24135714 0.00644758 0.63281185
v 0.24079578 -0.00542071 0.63250896
v 0.24728804 0.00644758 0.62850773
v 0.25148602 -0.00542071 0.62213124
v 0.24150765 0.01831587 0.50470835
v 0.23770424 0.01831587 0.49715221
v 0.22577739 0.04202012 0.48559484
v 0.21348445 0.05392074 0.47504177
v 0.21348445 0.06494823 0.47485047
v 0.25446367 -0.00542071 0.59957444
v 0.25400807 -0.01728900 0.59957444
v 0.24301682 0.00644758 0.51656861
v 0.25433350 -0.01728900 0.61145064
v 0.21348445 -0.06958062 0.63474073
v 0.23021131 -0.04099324 0.63386397
v 0.23021131 -0.02912495 0.63512332
v 0.21834548 -0.06469749 0.63448568
v 0.24001884 -0.01728900 0.63212638
v 0.24672668 -0.00542071 0.62807732
v 0.25092059 -0.01728900 0.62138201
v 0.23971781 0.00589782 0.50384753
v 0.23710627 0.00951975 0.49785362
v 0.22532179 0.03018416 0.48608902
v 0.21348445 0.04593309 0.47561565
v 0.25274705 -0.02912495 0.59957444
v 0.24807719 -0.04713759 0.59337332
v 0.23858289 -0.00331870 0.50722706
v 0.24972466 -0.02912495 0.61986760
v 0.25256399 -0.02912495 0.61145064
v 0.21348445 -0.07659811 0.63327415
v 0.21875633 -0.07663045 0.63190320
v 0.22693673 -0.06469749 0.63128150
v 0.23056522 -0.05192371 0.63190320
v 0.23876595 -0.02912495 0.63145684
v 0.24594972 -0.01728900 0.62732808
v 0.23530016 0.00159678 0.49932022
v 0.22266145 0.01524370 0.48795414
v 0.22469535 0.02313433 0.48663102
v 0.21348445 0.03655488 0.47728948
v 0.25035924 -0.04099324 0.59957444
v 0.24843922 -0.04807541 0.59957444
v 0.24590496 -0.05399339 0.59957444
v 0.23856255 -0.06521491 0.58881413
v 0.23749272 -0.06130193 0.57585393
v 0.23639034 -0.05932926 0.56931804
v 0.23208659 -0.06385668 0.56480668
v 0.22470756 -0.07132691 0.55737808
v 0.21348445 -0.07963795 0.54900895
v 0.24469683 -0.02912495 0.62579772
v 0.24869143 -0.03743599 0.61840100
v 0.24965550 -0.04125195 0.61156223
v 0.24850431 -0.04823710 0.60767258
v 0.21348445 -0.08235440 0.63196696
v 0.22525264 -0.07271747 0.63011779
v 0.21507495 -0.08581464 0.63072355
v 0.23629678 -0.04736396 0.62940043
v 0.23720390 -0.04099324 0.63024532
v 0.21348445 -0.07349360 0.54427441
v 0.22740045 -0.00118435 0.49745510
v 0.21348445 0.01006951 0.48557890
v 0.21348445 0.01178346 0.48470213
v 0.21348445 0.01863926 0.48194431
v 0.21856108 0.01883329 0.48454273
v 0.21348445 0.02565675 0.47977631
v 0.21348445 0.03018416 0.47870824
v 0.24016120 -0.06469749 0.59957444
v 0.23615847 -0.07068014 0.59351679
v 0.23515372 -0.06951595 0.58557807
v 0.23408388 -0.06725224 0.57585393
v 0.22624113 -0.07375231 0.56399368
v 0.22226686 -0.07970262 0.56399368
v 0.21416783 -0.08452108 0.55543325
v 0.21348445 -0.08364794 0.55342466
v 0.24733685 -0.04535896 0.61557941
v 0.23929883 -0.05192371 0.62358189
v 0.23794425 -0.06149596 0.61981977
v 0.24553481 -0.05244113 0.61156223
v 0.23894494 -0.06515022 0.61076517
v 0.23635372 -0.07090651 0.60638134
v 0.21348445 -0.08649375 0.63097862
v 0.21348445 -0.08943657 0.62968737
v 0.22298279 -0.08060811 0.62653102
v 0.23475100 -0.05525459 0.62772661
v 0.21348445 0.00040025 0.49181191
v 0.21348445 0.00660927 0.48765126
v 0.23632118 -0.07087417 0.59957444
v 0.22111973 -0.09024503 0.58773013
v 0.22551298 -0.08432705 0.58773013
v 0.22493942 -0.08345391 0.57907406
v 0.22777469 -0.07747126 0.57540758
v 0.22380043 -0.08203101 0.57116722
v 0.21564038 -0.08846640 0.56499797
v 0.21348445 -0.09005100 0.56367486
v 0.21348445 -0.08494150 0.55503472
v 0.23516185 -0.06941893 0.61428818
v 0.22465060 -0.08306585 0.61862418
v 0.22099770 -0.08985697 0.61145064
v 0.22148990 -0.09053608 0.59957444
v 0.21348445 -0.09225003 0.62712084
v 0.21843905 -0.08840173 0.62355001
v 0.21555496 -0.09771526 0.59957444
v 0.21518885 -0.09713316 0.58773013
v 0.21370003 -0.09558091 0.57585393
v 0.22026957 -0.08781964 0.57540758
v 0.21348445 -0.09538688 0.57470617
v 0.21348445 -0.09267042 0.56824998
v 0.21389529 -0.09600131 0.62056901
v 0.21506682 -0.09726253 0.61145064
v 0.21348445 -0.09619534 0.62074436
v 0.21348445 -0.09881478 0.61145064
v 0.21348445 -0.09972025 0.59957444
v 0.21348445 -0.09855607 0.58773013
v 0.21348445 -0.09574261 0.57586987
v 0.21348445 -0.09658340 0.61981977
f 34 30 47
f 33 30 20
f 30 18 20
f 48 49 30
f 97 96 122
f 49 51 63
f 9 1 8
f 9 10 1
f 18 6 4
f 4 20 18
f 7 24 8
f 8 1 7
f 1 6 7
f 24 7 23
f 97 122 123
f 62 45 61
f 67 63 51
f 74 96 97
f 49 63 50
f 30 49 50
f 25 9 8
f 10 9 25
f 5 6 1
f 1 4 5
f 5 4 6
f 17 4 2
f 20 4 19
f 19 4 17
f 17 29 19
f 33 20 19
f 18 23 21
f 21 6 18
f 21 7 6
f 112 114 115
f 120 114 92
f 120 119 137
f 92 119 120
f 97 123 98
f 98 74 97
f 99 74 98
f 45 62 46
f 47 30 46
f 30 45 46
f 100 74 99
f 77 62 76
f 76 62 61
f 65 74 59
f 59 50 65
f 61 45 44
f 44 45 30
f 63 67 78
f 36 26 35
f 3 4 1
f 1 2 3
f 3 2 4
f 33 19 32
f 32 30 33
f 32 48 30
f 32 51 49
f 49 48 32
f 51 32 42
f 22 23 7
f 7 21 22
f 22 21 23
f 139 136 146
f 139 148 149
f 146 148 139
f 149 140 139
f 68 69 52
f 92 69 93
f 118 119 93
f 93 119 92
f 70 69 92
f 116 115 114
f 90 116 117
f 115 116 90
f 79 78 90
f 112 115 90
f 90 89 112
f 67 89 90
f 90 78 67
f 138 120 137
f 138 134 120
f 101 100 102
f 101 76 75
f 102 76 101
f 75 74 101
f 74 100 101
f 77 76 103
f 103 76 102
f 84 85 65
f 65 83 84
f 64 83 65
f 64 78 79
f 82 83 64
f 65 50 64
f 64 81 82
f 64 50 63
f 63 78 64
f 150 140 149
f 142 129 127
f 125 140 127
f 136 139 125
f 125 139 140
f 30 50 43
f 50 59 43
f 43 44 30
f 60 74 75
f 75 76 60
f 60 59 74
f 60 76 61
f 61 44 60
f 60 43 59
f 44 43 60
f 37 35 52
f 36 35 37
f 12 13 1
f 14 13 26
f 1 13 14
f 14 15 1
f 92 114 121
f 31 19 29
f 29 42 31
f 31 32 19
f 31 42 32
f 66 67 51
f 117 134 135
f 135 136 117
f 146 136 135
f 152 148 145
f 145 148 146
f 146 135 145
f 145 135 134
f 134 138 145
f 145 138 137
f 117 136 124
f 136 125 124
f 124 125 105
f 80 64 79
f 81 64 80
f 79 90 80
f 69 68 91
f 118 93 91
f 91 93 69
f 53 70 71
f 133 116 114
f 114 120 133
f 120 134 133
f 133 134 117
f 117 116 133
f 131 132 110
f 96 74 86
f 86 74 65
f 65 85 86
f 85 110 86
f 109 110 85
f 130 129 144
f 144 131 130
f 130 131 110
f 110 109 130
f 130 109 129
f 127 129 128
f 140 150 141
f 127 140 141
f 141 142 127
f 127 105 126
f 126 125 127
f 105 125 126
f 55 37 52
f 53 37 55
f 55 70 53
f 52 69 55
f 69 70 55
f 36 37 27
f 27 26 36
f 27 14 26
f 15 14 27
f 1 10 11
f 11 12 1
f 53 71 72
f 72 71 95
f 15 27 28
f 94 70 92
f 92 121 94
f 95 71 94
f 94 71 70
f 147 145 137
f 152 145 147
f 104 124 105
f 104 105 81
f 81 80 104
f 117 124 104
f 104 90 117
f 104 80 90
f 110 132 111
f 111 86 110
f 108 109 85
f 129 109 108
f 85 84 108
f 108 84 83
f 82 81 107
f 107 128 129
f 129 108 107
f 107 83 82
f 107 108 83
f 127 128 106
f 106 105 127
f 81 105 106
f 106 107 81
f 128 107 106
f 151 141 150
f 54 37 53
f 53 72 54
f 95 94 87
f 73 72 95
f 95 87 73
f 73 87 66
f 1 15 16
f 15 28 16
f 16 2 1
f 17 2 16
f 16 29 17
f 16 28 29
f 39 28 27
f 39 40 29
f 29 28 39
f 67 66 88
f 66 87 88
f 88 87 94
f 112 89 88
f 88 89 67
f 88 114 112
f 141 151 143
f 144 129 143
f 129 142 143
f 142 141 143
f 38 27 37
f 37 54 38
f 38 54 40
f 40 39 38
f 38 39 27
f 40 54 56
f 56 54 72
f 72 73 56
f 58 73 66
f 51 42 58
f 58 66 51
f 113 121 114
f 114 88 113
f 113 94 121
f 113 88 94
f 57 56 73
f 40 56 57
f 57 58 42
f 73 58 57
f 29 40 41
f 40 57 41
f 41 42 29
f 41 57 42
f 34 24 23
f 23 18 30
f 30 34 23
f 137 119 143
f 143 122 96
f 8 24 143
f 143 34 47
f 143 100 99
f 143 24 34
f 143 131 144
f 47 46 143
f 143 25 8
f 149 148 143
f 99 98 143
f 77 103 143
f 143 150 149
f 143 123 122
f 143 62 77
f 143 68 52
f 10 25 143
f 52 35 143
f 143 11 10
f 143 119 118
f 143 98 123
f 143 46 62
f 102 100 143
f 143 35 26
f 26 13 143
f 143 148 152
f 96 86 143
f 143 103 102
f 118 91 143
f 143 111 132
f 13 12 143
f 143 91 68
f 132 131 143
f 143 147 137
f 12 11 143
f 152 147 143
f 86 111 143
f 143 151 150