# https://github.com/mikedh/trimesh
v 0.26819503 0.11239130 0.83196281
v 0.26463504 0.11207732 0.83165884
v 0.25056112 -0.12676732 0.81343965
v 0.25648213 -0.13250855 0.81343965
v 0.26334386 -0.13573800 0.81343965
v 0.26819503 0.10575299 0.83144985
v 0.31238127 -0.11227964 0.69544237
v 0.32433396 0.04977587 0.67026987
v 0.26819503 0.12252817 0.83150685
v 0.26578790 0.12230390 0.83144985
v 0.25942420 0.12010609 0.83103192
v 0.25942420 0.11535162 0.83103192
v 0.25990378 0.10741256 0.83087992
v 0.24641088 -0.12084665 0.81343965
v 0.23764926 -0.12694673 0.77751421
v 0.24536871 -0.13241885 0.78640533
v 0.24357949 -0.13403358 0.77751421
v 0.25254402 -0.13995422 0.77751421
v 0.25939653 -0.14197264 0.78374560
v 0.26334386 -0.14233146 0.78452451
v 0.26334386 -0.14313882 0.77751421
v 0.26334386 -0.14322852 0.77367661
v 0.31238127 -0.11227964 0.68273264
v 0.32433396 0.04977587 0.65795910
v 0.32433396 0.16060874 0.66002989
v 0.26819503 0.23062499 0.82141886
v 0.26578790 0.23062499 0.82141886
v 0.25819757 0.23062499 0.82024097
v 0.25731218 0.21990502 0.82082992
v 0.25486815 0.12441202 0.82837217
v 0.25486815 0.11207732 0.82911310
v 0.24125535 -0.10025892 0.81343965
v 0.24299845 -0.11178626 0.81343965
v 0.24306301 -0.11214508 0.81343965
v 0.23567560 -0.11932164 0.78433455
v 0.23722503 -0.12806807 0.76564039
v 0.23502078 -0.12102607 0.77751421
v 0.24315525 -0.13430269 0.76564039
v 0.25229499 -0.14022335 0.76564039
v 0.25846502 -0.14219690 0.77751421
v 0.26334386 -0.14219690 0.71825911
v 0.25820678 -0.14224175 0.76564039
v 0.26334386 -0.14192777 0.71550438
v 0.26334386 -0.13775641 0.70663227
v 0.26334386 -0.13645566 0.70469445
v 0.26334386 -0.13165634 0.69886203
v 0.30136928 -0.11227964 0.68208670
v 0.30790822 -0.09456254 0.67667224
v 0.31238127 -0.08891100 0.67574133
v 0.31238127 -0.07653144 0.67319558
v 0.31238127 -0.07567923 0.67302459
v 0.31238127 -0.06469013 0.67102980
v 0.31238127 -0.02683382 0.66422847
v 0.31238127 -0.01723518 0.66265163
v 0.32433396 0.17464788 0.63787809
v 0.32433396 0.17330228 0.65590730
v 0.27790659 0.31499432 0.68096581
v 0.27735322 0.31499432 0.68265664
v 0.25120671 0.28844108 0.77382859
v 0.24215918 0.29301615 0.77382859
v 0.24086800 0.29324041 0.77382859
v 0.32433396 0.17890897 0.65313357
v 0.32433396 0.19330692 0.64200068
v 0.24762828 0.16940003 0.81957604
v 0.24720403 0.16056391 0.82024097
v 0.24504591 0.12503997 0.82244475
v 0.24438188 0.11319866 0.82274872
v 0.24123691 -0.09994495 0.81343965
v 0.23451354 -0.10025892 0.78750722
v 0.23506689 -0.11214508 0.78593039
v 0.23310244 -0.11214508 0.77751421
v 0.23459653 -0.12210255 0.76564039
v 0.23737258 -0.12770924 0.75380458
v 0.24330281 -0.13407843 0.75380458
v 0.23218018 -0.11214508 0.76564039
v 0.26051248 -0.14147925 0.71825911
v 0.24377316 -0.13380930 0.74196875
v 0.25462835 -0.13282253 0.70725920
v 0.25903684 -0.13062472 0.69990693
v 0.28963794 -0.11227964 0.68204870
v 0.26334386 -0.12380698 0.69377054
v 0.27765758 -0.11227964 0.68318859
v 0.28951803 -0.11227964 0.68204870
v 0.30550107 -0.09456254 0.67667224
v 0.30136928 -0.02634044 0.66438046
v 0.31323896 0.17464788 0.63787809
v 0.32433396 0.19057086 0.63787809
v 0.27956669 0.23062499 0.63787809
v 0.24086800 0.31499432 0.68096581
v 0.32433396 0.19604299 0.63791609
v 0.32431551 0.19604299 0.63787809
v 0.27303698 0.31499432 0.68998992
v 0.26589856 0.31499432 0.69462546
v 0.24160583 0.12503997 0.81309769
v 0.26579711 0.31499432 0.69466345
v 0.25339250 0.31499432 0.69848207
v 0.25228578 0.31499432 0.69842508
v 0.24311836 0.31499432 0.69692422
v 0.24194707 0.31499432 0.69660125
v 0.24086800 0.31499432 0.69601232
v 0.23037252 -0.05280397 0.76564039
v 0.23120256 -0.02912135 0.77751421
v 0.24065588 0.11319866 0.81309769
v 0.24066511 -0.07657631 0.81343965
v 0.23137778 -0.08841761 0.77751421
v 0.23103655 -0.07657631 0.77751421
v 0.23194038 -0.10025892 0.77751421
v 0.23094432 -0.10025892 0.76564039
v 0.23477177 -0.12178858 0.75380458
v 0.23520523 -0.12062239 0.74196875
v 0.23783371 -0.12654304 0.74196875
v 0.23250297 -0.11214508 0.75380458
v 0.24476924 -0.13313650 0.73013292
v 0.25394587 -0.13717331 0.71825911
v 0.24767440 -0.13035559 0.71179975
v 0.25055189 -0.12398641 0.70323160
v 0.24825544 -0.11752751 0.70070485
v 0.25647291 -0.12398641 0.69791213
v 0.26193278 -0.11555394 0.68974294
v 0.26334386 -0.11631645 0.68938198
v 0.26334386 -0.11851428 0.69063585
v 0.26609224 -0.11227964 0.68651326
v 0.26586167 -0.11183110 0.68643726
v 0.27765758 -0.11214508 0.68315059
v 0.28951803 -0.11214508 0.68201071
v 0.29759719 -0.09388974 0.67714719
v 0.30147994 -0.08931467 0.67589331
v 0.29417553 -0.02468086 0.66466543
v 0.30409000 0.17908838 0.63787809
v 0.26640581 0.23062499 0.63787809
v 0.24086800 0.30485746 0.68096581
v 0.23431063 -0.06464528 0.71825911
v 0.23231852 -0.06464528 0.73013292
v 0.23114723 -0.06464528 0.74196875
v 0.23037252 -0.06464528 0.75380458
v 0.23012351 -0.06464528 0.76564039
v 0.23094432 -0.05280397 0.77751421
v 0.23397861 -0.01723518 0.78938805
v 0.23390482 -0.04100751 0.78900808
v 0.23086131 -0.06464528 0.77751421
v 0.23038174 -0.08841761 0.76564039
v 0.23014194 -0.07657631 0.76564039
v 0.23128557 -0.10025892 0.75380458
v 0.23571248 -0.11914223 0.73351459
v 0.23344368 -0.11214508 0.74196875
v 0.23870066 -0.12349302 0.72977196
v 0.24645699 -0.13161149 0.71825911
v 0.24214074 -0.12398641 0.71825911
v 0.24590362 -0.12398641 0.70915900
v 0.24407752 -0.11299731 0.70535938
v 0.24690890 -0.10958845 0.69929899
v 0.25909217 -0.10765975 0.68809010
v 0.26334386 -0.11227964 0.68778613
v 0.26334386 -0.11420834 0.68854606
v 0.26540054 -0.11227964 0.68681723
v 0.26334386 -0.11026125 0.68702621
v 0.26580634 -0.10025892 0.68368253
v 0.28308979 -0.08321462 0.67661524
v 0.28951803 -0.08568155 0.67629227
v 0.27765758 -0.05280397 0.67256865
v 0.27765758 -0.04096266 0.67078282
v 0.27264962 0.20362322 0.63787809
v 0.27800804 0.19837536 0.63787809
v 0.27988949 0.19680550 0.63787809
v 0.26659028 0.22237195 0.63787809
v 0.24594974 0.05394725 0.68499341
v 0.23872833 -0.06464528 0.70577735
v 0.23601684 -0.07657631 0.71202772
v 0.23588772 -0.06464528 0.71170476
v 0.23455041 -0.07657631 0.71825911
v 0.23248452 -0.07657631 0.73013292
v 0.23121179 -0.07657631 0.74196875
v 0.23038174 -0.07657631 0.75380458
v 0.23072298 -0.08841761 0.75380458
v 0.23222628 -0.10025892 0.74196875
v 0.23159914 -0.08841761 0.74196875
v 0.23502078 -0.11250392 0.72977196
v 0.23571248 -0.10878108 0.72234370
v 0.23680999 -0.11667528 0.72561137
v 0.23354515 -0.10025892 0.73013292
v 0.23800895 -0.11250392 0.71833509
v 0.23697600 -0.10025892 0.71406053
v 0.24084033 -0.10025892 0.70640428
v 0.24594051 -0.10025892 0.69819710
v 0.25207365 -0.10025892 0.69226969
v 0.26334386 -0.10025892 0.68478443
v 0.25799466 -0.10025892 0.68723519
v 0.26991969 0.20931961 0.63787809
v 0.27052839 -0.06155040 0.67615929
v 0.27252050 0.20384748 0.63787809
v 0.24612498 0.04206108 0.68531638
v 0.26660871 0.22219254 0.63787809
v 0.24527648 -0.08841761 0.69728519
v 0.24489836 -0.07657631 0.69671525
v 0.23896813 -0.07657631 0.70608132
v 0.23612752 -0.08393226 0.71227470
v 0.23630274 -0.09187132 0.71254068
v 0.23513145 -0.08810364 0.71721421
v 0.23286264 -0.08841761 0.73013292
v 0.23525134 -0.10025892 0.71998793
v 0.23880210 -0.08810364 0.70756317
v 0.25093925 -0.08841761 0.69137677
v 0.25685103 -0.08841761 0.68638027
v 0.26688541 0.21990502 0.63787809
f 1 5 6
f 8 25 9
f 25 26 9
f 9 1 8
f 57 91 88
f 57 26 63
f 102 101 136
f 61 101 102
f 58 26 57
f 58 59 26
f 61 26 60
f 26 59 60
f 1 11 2
f 2 3 1
f 64 28 61
f 27 26 61
f 61 28 27
f 27 28 11
f 27 9 26
f 100 101 61
f 100 89 101
f 90 91 57
f 57 63 90
f 62 63 26
f 61 102 103
f 103 104 67
f 4 5 1
f 1 3 4
f 59 58 92
f 92 60 59
f 3 2 13
f 13 14 3
f 33 13 32
f 32 13 31
f 30 31 11
f 10 27 11
f 9 27 10
f 10 11 1
f 1 9 10
f 193 202 184
f 89 130 131
f 193 184 201
f 136 101 135
f 101 89 135
f 128 161 162
f 54 55 24
f 7 6 5
f 8 1 7
f 1 6 7
f 165 131 130
f 91 90 87
f 56 26 25
f 56 62 26
f 61 103 94
f 66 103 67
f 66 94 103
f 67 31 66
f 31 30 66
f 66 64 61
f 61 94 66
f 139 104 138
f 104 103 138
f 61 60 93
f 60 92 93
f 11 31 12
f 31 13 12
f 12 2 11
f 12 13 2
f 34 13 33
f 14 13 34
f 68 31 67
f 68 32 31
f 67 104 68
f 11 28 29
f 29 30 11
f 29 66 30
f 28 64 29
f 61 96 97
f 97 98 61
f 99 100 61
f 61 98 99
f 203 202 204
f 185 184 202
f 132 133 89
f 89 131 132
f 197 201 183
f 183 201 184
f 89 133 134
f 134 135 89
f 133 172 134
f 171 172 133
f 133 132 171
f 141 142 173
f 135 134 173
f 173 134 172
f 136 135 173
f 173 142 136
f 164 129 128
f 55 54 86
f 128 159 158
f 127 159 128
f 23 46 47
f 204 202 192
f 192 202 193
f 193 165 192
f 194 165 193
f 95 96 61
f 61 93 95
f 140 104 139
f 139 138 140
f 136 142 140
f 106 68 104
f 105 68 106
f 104 140 106
f 141 105 106
f 106 142 141
f 106 140 142
f 64 66 65
f 65 29 64
f 66 29 65
f 202 203 187
f 187 185 202
f 152 185 187
f 204 188 187
f 187 203 204
f 131 167 168
f 191 167 166
f 166 167 131
f 166 165 191
f 131 165 166
f 170 171 132
f 132 168 170
f 197 198 170
f 128 162 163
f 163 164 128
f 190 162 161
f 161 188 190
f 129 86 85
f 128 129 85
f 85 86 54
f 85 127 128
f 20 7 5
f 20 21 7
f 14 34 35
f 35 34 33
f 33 32 35
f 200 198 197
f 189 188 161
f 189 157 188
f 160 161 128
f 128 158 160
f 160 158 157
f 160 189 161
f 157 189 160
f 24 23 49
f 44 23 43
f 195 167 191
f 191 165 195
f 165 194 195
f 195 201 197
f 193 201 195
f 195 194 193
f 137 140 138
f 137 103 102
f 137 138 103
f 137 102 136
f 136 140 137
f 188 157 186
f 186 187 188
f 186 157 152
f 152 187 186
f 169 132 131
f 131 168 169
f 169 168 132
f 46 82 83
f 152 157 156
f 159 127 126
f 3 14 15
f 14 35 15
f 108 105 141
f 105 108 107
f 198 200 199
f 171 170 199
f 199 170 198
f 172 171 199
f 43 23 41
f 46 23 45
f 23 44 45
f 196 168 167
f 167 195 196
f 196 195 197
f 197 170 196
f 196 170 168
f 81 82 46
f 47 46 80
f 46 83 80
f 82 120 122
f 124 83 82
f 159 126 124
f 124 158 159
f 157 158 124
f 37 15 35
f 70 35 32
f 22 41 23
f 22 23 7
f 7 21 22
f 197 183 182
f 182 200 197
f 53 54 24
f 53 85 54
f 24 49 50
f 50 51 24
f 127 85 84
f 85 51 84
f 84 126 127
f 78 44 43
f 152 119 117
f 117 119 118
f 111 77 73
f 121 120 82
f 82 81 121
f 155 122 120
f 83 124 125
f 125 124 126
f 125 84 83
f 126 84 125
f 82 122 123
f 123 124 82
f 157 124 123
f 123 156 157
f 123 155 156
f 122 155 123
f 3 15 16
f 15 17 16
f 16 4 3
f 16 17 4
f 73 77 74
f 200 182 178
f 178 182 181
f 180 199 200
f 200 178 180
f 69 70 32
f 107 70 69
f 32 68 69
f 69 68 105
f 105 107 69
f 35 70 71
f 71 70 107
f 71 37 35
f 71 75 37
f 71 107 108
f 108 75 71
f 24 51 52
f 52 53 24
f 52 51 85
f 85 53 52
f 51 50 48
f 48 84 51
f 48 50 49
f 48 49 23
f 48 23 47
f 47 80 48
f 115 117 116
f 77 111 113
f 115 78 76
f 76 114 115
f 76 78 43
f 43 41 76
f 77 113 76
f 76 113 114
f 151 185 152
f 152 117 151
f 184 185 151
f 151 183 184
f 149 117 115
f 79 119 120
f 120 121 79
f 118 119 79
f 79 121 81
f 79 81 46
f 46 45 79
f 79 45 44
f 44 78 79
f 79 117 118
f 79 116 117
f 79 78 115
f 115 116 79
f 120 119 154
f 154 155 120
f 73 74 36
f 36 17 15
f 15 37 36
f 39 74 77
f 77 76 39
f 112 75 108
f 172 199 176
f 115 114 147
f 114 113 147
f 147 113 111
f 150 149 181
f 117 149 150
f 150 182 183
f 181 182 150
f 183 151 150
f 150 151 117
f 179 178 181
f 179 144 178
f 177 144 145
f 178 144 177
f 145 180 177
f 177 180 178
f 156 155 153
f 155 154 153
f 153 154 119
f 152 156 153
f 153 119 152
f 37 75 72
f 72 36 37
f 73 36 72
f 74 39 38
f 17 36 38
f 38 36 74
f 42 39 76
f 41 22 42
f 42 76 41
f 4 17 18
f 17 38 18
f 18 38 39
f 145 144 110
f 110 112 145
f 110 111 73
f 110 144 111
f 141 173 174
f 174 108 141
f 174 173 172
f 172 176 174
f 143 174 176
f 143 112 108
f 108 174 143
f 111 144 146
f 146 147 111
f 144 179 146
f 5 4 19
f 4 18 19
f 19 20 5
f 21 20 19
f 112 110 109
f 75 112 109
f 109 72 75
f 73 72 109
f 109 110 73
f 175 180 145
f 175 143 176
f 199 180 175
f 175 176 199
f 115 147 148
f 147 146 148
f 148 146 179
f 148 149 115
f 181 149 148
f 148 179 181
f 40 19 18
f 39 42 40
f 40 18 39
f 21 19 40
f 40 22 21
f 40 42 22
f 130 89 57
f 57 88 130
f 8 24 56
f 56 25 8
f 56 90 63
f 24 55 56
f 55 87 56
f 63 62 56
f 56 87 90
f 23 24 8
f 8 7 23
f 95 58 57
f 57 89 95
f 89 100 95
f 100 99 95
f 95 92 58
f 95 97 96
f 95 93 92
f 98 97 95
f 95 99 98
f 190 88 91
f 190 86 129
f 129 164 190
f 190 188 204
f 190 130 88
f 91 87 190
f 190 165 130
f 190 87 55
f 204 192 190
f 190 163 162
f 55 86 190
f 190 192 165
f 164 163 190
f 83 84 48
f 48 80 83
f 112 143 175
f 145 112 175