# https://github.com/mikedh/trimesh
v 0.22793964 0.48575449 0.93180663
v 0.22732778 0.49285308 0.93180663
v 0.22713866 0.49285308 0.94370018
v 0.22765040 0.48575449 0.94370018
v 0.20669135 0.48486480 0.80532714
v 0.22790627 0.48575449 0.93058329
v 0.22729441 0.49285308 0.93058329
v 0.22522520 0.50137766 0.93180663
v 0.22519183 0.50147231 0.94370018
v 0.22468009 0.50031763 0.96741932
v 0.22446872 0.49965507 0.97703611
v 0.22588156 0.49285308 0.96741932
v 0.22657130 0.48575449 0.96741932
v 0.22681604 0.48575449 0.96262793
v 0.15239135 0.49862657 0.84260495
v 0.18660001 0.49665791 0.80532714
v 0.20669135 0.50419186 0.80532714
v 0.22583707 0.48575449 0.97961873
v 0.21824997 0.48575449 1.06222799
v 0.21705962 0.48575449 1.06786890
v 0.20403252 0.48576079 1.12155982
v 0.20239718 0.48576079 1.12614735
v 0.20128470 0.48576079 1.12889985
v 0.19900413 0.48576079 1.13243392
v 0.19714630 0.48576079 1.13481264
v 0.19359750 0.48576079 1.13923025
v 0.19121679 0.48576079 1.14201677
v 0.18557654 0.48576079 1.14796351
v 0.18105988 0.48576079 1.15248308
v 0.16099080 0.48576079 1.15248308
v 0.22519183 0.50130826 0.93058329
v 0.22281112 0.50740356 0.94370018
v 0.22290013 0.50664009 0.93058329
v 0.22266650 0.50730892 0.93180663
v 0.21446756 0.52722280 1.03850882
v 0.21430068 0.52731112 1.05036839
v 0.21756024 0.51657809 1.05036839
v 0.22413498 0.49860766 0.98488586
v 0.22503609 0.49393206 0.98026439
v 0.21691500 0.51657809 1.06222799
v 0.11428903 0.52009897 0.95552577
v 0.13859664 0.50775694 0.85232368
v 0.18660001 0.50149126 0.80532714
v 0.21669250 0.51560008 0.93058329
v 0.22262201 0.50724584 0.93058329
v 0.20662460 0.50422340 0.80532714
v 0.20669135 0.51464728 0.87213495
v 0.21180873 0.52223802 0.93931655
v 0.21276547 0.52273650 0.94720027
v 0.21849472 0.50471558 1.06222799
v 0.21857259 0.49285308 1.06222799
v 0.21652564 0.49284675 1.07412154
v 0.21593602 0.48576079 1.07412154
v 0.20376553 0.49284675 1.12155982
v 0.21382232 0.50471558 1.08489368
v 0.20102883 0.49284675 1.12832217
v 0.20066172 0.49956675 1.12767651
v 0.19640093 0.49284675 1.13426895
v 0.19047143 0.49284675 1.14120119
v 0.18000303 0.49284675 1.15248308
v 0.18083739 0.48734457 1.15248308
v 0.14052122 0.53092669 1.15248308
v 0.11539038 0.54056183 1.06786890
v 0.11639161 0.53408161 1.05899971
v 0.21499042 0.52608071 1.00293011
v 0.21481242 0.52657290 1.01478968
v 0.21473455 0.52485660 0.97924491
v 0.21502379 0.52554437 0.99110452
v 0.21168637 0.53324870 1.05036839
v 0.21140824 0.53263033 1.06222799
v 0.21397806 0.52669279 1.06222799
v 0.21366658 0.52590404 1.06790292
v 0.21331058 0.52503327 1.07412154
v 0.21531304 0.51657179 1.07412154
v 0.11428903 0.52562639 0.95552577
v 0.11491201 0.52069843 0.94791389
v 0.13859664 0.51141663 0.85232368
v 0.19460985 0.50466510 0.80532714
v 0.21339957 0.52327914 0.95552577
v 0.21418944 0.52407418 0.96741932
v 0.20646884 0.50427389 0.80532714
v 0.20646884 0.51476717 0.87247477
v 0.20082858 0.52258507 0.91332065
v 0.20117346 0.53460533 0.99525024
v 0.20235269 0.53509748 1.00293011
v 0.20384340 0.53583574 1.01478968
v 0.20825993 0.53202459 1.00293011
v 0.20978402 0.53250415 1.01478968
v 0.21661463 0.50471558 1.07412154
v 0.20258630 0.50399624 1.12217150
v 0.20652447 0.50471558 1.10970025
v 0.20573461 0.51657179 1.10970025
v 0.21328833 0.51657179 1.08336451
v 0.19981624 0.50747929 1.12652112
v 0.20228594 0.51657179 1.11890928
v 0.17787819 0.50253867 1.15238111
v 0.17797832 0.50165531 1.15248308
v 0.16677568 0.53092669 1.15248308
v 0.13530371 0.54931990 1.06786890
v 0.12344471 0.54844280 1.06786890
v 0.11556837 0.54702942 1.06786890
v 0.11539038 0.54306051 1.06786890
v 0.21144162 0.53315406 1.03850882
v 0.21079638 0.53282596 1.02668322
v 0.20547874 0.53827135 1.06222799
v 0.20521175 0.53844170 1.06786890
v 0.21082975 0.53092669 1.07412154
v 0.21248735 0.52871824 1.06790292
v 0.21269872 0.52341798 1.08132563
v 0.11591324 0.54676440 1.06222799
v 0.11682547 0.54639210 1.05475202
v 0.11491201 0.52442752 0.94791389
v 0.12344471 0.52915994 0.95552577
v 0.12951883 0.53430244 0.97336613
v 0.14789695 0.51173844 0.84851774
v 0.15234685 0.51076040 0.84263892
v 0.15903284 0.51245146 0.84875562
v 0.17090296 0.51281742 0.84875562
v 0.17090296 0.51521517 0.86061518
v 0.18273971 0.51120210 0.83941068
v 0.18273971 0.51523408 0.86061518
v 0.18940346 0.52259769 0.90152903
v 0.18275085 0.53919258 1.00293011
v 0.19096093 0.53476305 0.98257512
v 0.19476559 0.53540667 0.99120645
v 0.19460985 0.53718604 1.00293011
v 0.19460985 0.53878875 1.01478968
v 0.18973720 0.54654357 1.06606789
v 0.19002644 0.54665080 1.06786890
v 0.20486688 0.53655505 1.02668322
v 0.20550100 0.53719237 1.03850882
v 0.20656896 0.52842168 1.09784068
v 0.20296455 0.52842168 1.10976824
v 0.20135145 0.52447172 1.11700630
v 0.19853688 0.51657179 1.12482208
v 0.19261852 0.51657179 1.13161837
v 0.17672122 0.51043863 1.15115781
v 0.17570886 0.50931545 1.15248308
v 0.17780032 0.50239357 1.15248308
v 0.16826639 0.52842168 1.15248308
v 0.18969270 0.53092669 1.12856005
v 0.18814636 0.54699156 1.06786890
v 0.18275085 0.54754049 1.06786890
v 0.18184974 0.54761622 1.06786890
v 0.17793383 0.54791911 1.06786890
v 0.16540733 0.54849962 1.06786890
v 0.14717384 0.54923155 1.06786890
v 0.14281293 0.54633532 1.04292643
v 0.13530371 0.54637319 1.04282450
v 0.12845086 0.54629746 1.04377599
v 0.12344471 0.54788754 1.06222799
v 0.20575686 0.53776655 1.05036839
v 0.20142932 0.54126222 1.06786890
v 0.20247505 0.53092669 1.10851089
v 0.20558999 0.53092669 1.09784068
v 0.20978402 0.52779069 1.08553934
v 0.12408995 0.54670129 1.05064024
v 0.13530371 0.54017691 1.00293011
v 0.13530371 0.53806311 0.99107050
v 0.15903284 0.51487444 0.86061518
v 0.14717384 0.53849851 0.99107050
v 0.18761236 0.52259769 0.90152903
v 0.15903284 0.53853634 0.99107050
v 0.17090296 0.53817038 0.99107050
v 0.17090296 0.54008859 1.00293011
v 0.18184974 0.53926198 1.00293011
v 0.19137254 0.54608925 1.06786890
v 0.19839226 0.53092669 1.11649658
v 0.19545533 0.54426568 1.06786890
v 0.20077297 0.53092669 1.11231684
v 0.19646768 0.52842168 1.12122001
v 0.19030457 0.52842168 1.12920567
v 0.17569775 0.51657179 1.14993444
v 0.17346166 0.51623104 1.15248308
v 0.15903284 0.54039778 1.00293011
v 0.14717384 0.54041669 1.00293011
f 29 30 5
f 62 63 30
f 1 5 6
f 15 30 41
f 15 5 30
f 41 30 64
f 64 63 41
f 30 63 64
f 113 114 77
f 5 15 16
f 141 129 98
f 99 62 98
f 100 62 99
f 100 101 62
f 63 62 102
f 62 101 102
f 75 102 101
f 4 5 1
f 5 18 19
f 128 129 85
f 160 161 119
f 121 120 119
f 147 148 99
f 99 98 147
f 159 161 160
f 160 114 159
f 50 18 39
f 42 15 41
f 42 16 15
f 115 114 160
f 115 77 114
f 78 120 121
f 78 119 120
f 110 75 101
f 101 100 110
f 5 4 14
f 5 19 20
f 20 19 53
f 51 18 50
f 51 19 18
f 81 78 122
f 122 78 121
f 128 123 142
f 142 129 128
f 142 98 129
f 113 77 112
f 77 78 43
f 117 115 160
f 160 119 118
f 119 78 118
f 118 117 160
f 78 117 118
f 107 70 106
f 154 106 153
f 111 150 114
f 111 114 113
f 111 110 100
f 113 112 111
f 75 110 111
f 111 112 75
f 13 18 5
f 5 14 13
f 13 39 18
f 21 20 53
f 5 20 21
f 162 119 161
f 121 119 162
f 162 122 121
f 99 148 149
f 149 150 99
f 158 159 114
f 114 150 158
f 161 159 158
f 158 176 161
f 150 149 158
f 158 149 176
f 128 85 84
f 84 127 128
f 85 48 84
f 148 147 146
f 146 165 148
f 145 165 146
f 146 147 98
f 98 145 146
f 143 142 123
f 98 142 143
f 12 11 39
f 39 13 12
f 50 39 38
f 39 11 38
f 76 42 41
f 115 117 116
f 116 117 78
f 77 115 116
f 116 78 77
f 5 23 24
f 29 5 28
f 89 51 50
f 174 138 137
f 137 173 174
f 172 174 173
f 172 171 141
f 167 130 129
f 169 130 167
f 132 154 133
f 133 92 132
f 107 106 155
f 106 154 155
f 154 132 155
f 150 111 157
f 22 23 5
f 5 21 22
f 131 169 153
f 131 130 169
f 86 85 129
f 129 130 86
f 86 48 85
f 49 48 86
f 108 70 107
f 50 38 40
f 40 38 11
f 17 48 49
f 49 44 17
f 17 44 45
f 45 33 17
f 17 33 31
f 17 31 7
f 17 7 6
f 17 6 5
f 123 122 166
f 122 165 166
f 166 145 123
f 166 165 145
f 163 162 161
f 122 162 163
f 161 176 163
f 83 122 123
f 81 122 83
f 83 82 81
f 123 145 144
f 144 143 123
f 144 145 98
f 98 143 144
f 11 12 3
f 3 4 1
f 3 14 4
f 3 13 14
f 3 12 13
f 57 24 56
f 56 24 23
f 57 26 25
f 25 24 57
f 25 26 5
f 5 24 25
f 58 26 57
f 57 59 58
f 94 59 57
f 135 94 95
f 95 94 57
f 54 21 55
f 54 22 21
f 23 22 54
f 54 56 23
f 55 21 52
f 52 89 55
f 52 21 53
f 51 89 52
f 53 19 52
f 19 51 52
f 93 92 55
f 55 89 93
f 174 172 140
f 141 98 140
f 140 172 141
f 99 150 151
f 150 157 151
f 151 100 99
f 151 111 100
f 151 157 111
f 152 131 153
f 71 36 70
f 70 108 71
f 37 9 36
f 36 71 37
f 37 71 40
f 37 40 11
f 164 165 122
f 122 163 164
f 164 163 165
f 148 165 175
f 165 163 175
f 175 163 176
f 175 149 148
f 176 149 175
f 81 82 47
f 48 17 47
f 47 84 48
f 47 83 84
f 82 83 47
f 127 84 126
f 84 83 126
f 126 123 128
f 128 127 126
f 9 3 2
f 2 3 1
f 11 3 10
f 10 3 9
f 10 37 11
f 9 37 10
f 36 9 35
f 9 32 35
f 8 32 9
f 9 2 8
f 31 33 8
f 8 2 7
f 7 31 8
f 29 28 61
f 28 60 61
f 137 138 96
f 96 60 59
f 59 94 96
f 26 58 27
f 27 58 59
f 5 26 27
f 27 28 5
f 27 60 28
f 59 60 27
f 136 94 135
f 136 173 137
f 137 96 136
f 136 96 94
f 136 172 173
f 135 172 136
f 134 92 133
f 134 95 92
f 135 95 134
f 134 172 135
f 171 172 134
f 55 92 91
f 91 54 55
f 92 54 91
f 92 95 90
f 90 54 92
f 90 95 57
f 57 56 90
f 56 54 90
f 74 93 89
f 74 89 50
f 50 40 74
f 153 106 105
f 105 152 153
f 34 65 32
f 34 33 45
f 45 67 34
f 34 8 33
f 32 8 34
f 88 86 130
f 130 131 88
f 81 47 46
f 46 47 17
f 124 83 123
f 123 126 124
f 32 65 66
f 66 35 32
f 139 96 138
f 133 154 170
f 170 134 133
f 169 167 170
f 153 169 170
f 170 154 153
f 93 74 109
f 109 132 92
f 92 93 109
f 109 155 132
f 80 88 67
f 45 44 80
f 80 67 45
f 49 86 87
f 87 88 49
f 86 88 87
f 152 105 103
f 131 152 103
f 125 126 83
f 83 124 125
f 125 124 126
f 60 96 97
f 96 139 97
f 171 134 168
f 134 170 168
f 141 171 168
f 168 129 141
f 168 167 129
f 168 170 167
f 107 155 156
f 156 109 107
f 155 109 156
f 40 71 72
f 72 71 108
f 73 74 40
f 73 109 74
f 40 72 73
f 107 109 73
f 73 108 107
f 73 72 108
f 49 88 79
f 88 80 79
f 79 44 49
f 79 80 44
f 68 103 65
f 67 103 68
f 65 34 68
f 68 34 67
f 67 88 104
f 104 103 67
f 104 88 131
f 131 103 104
f 69 66 65
f 65 103 69
f 35 66 69
f 36 35 69
f 70 36 69
f 69 106 70
f 69 105 106
f 69 103 105
f 63 102 75
f 41 63 75
f 43 42 77
f 16 42 43
f 41 75 76
f 75 112 76
f 77 42 76
f 76 112 77
f 6 7 2
f 1 6 2
f 5 16 46
f 16 43 46
f 46 78 81
f 46 43 78
f 46 17 5
f 97 62 30
f 97 30 29
f 97 98 62
f 97 140 98
f 138 174 97
f 29 61 97
f 174 140 97
f 97 61 60
f 97 139 138