# https://github.com/mikedh/trimesh
v 0.24086428 0.32689848 0.80282112
v 0.24086428 0.31591979 0.80275829
v 0.24086428 0.33330830 0.80131311
v 0.22799563 0.38311640 0.88428507
v 0.24086428 0.31572898 0.80272688
v 0.24086428 0.33798938 0.79986793
v 0.22736368 0.37418080 0.88428507
v 0.22942037 0.38311640 0.87244090
v 0.22547936 0.38311640 0.89590933
v 0.24086428 0.30299913 0.79854843
v 0.24086428 0.35161730 0.79261064
v 0.24086428 0.35619733 0.78836936
v 0.24086428 0.36126011 0.78246298
v 0.24086428 0.36360623 0.77903855
v 0.24086428 0.36434714 0.77731061
v 0.24086428 0.36716477 0.76571780
v 0.24086428 0.36740052 0.76053402
v 0.23197112 0.38311640 0.75754941
v 0.21801095 0.38311640 0.91984895
v 0.22511168 0.37418080 0.89308181
v 0.24086428 0.28076116 0.78635867
v 0.24086428 0.36737807 0.75695248
v 0.23198261 0.38311640 0.75695248
v 0.21448356 0.38311640 0.93002803
v 0.22449122 0.36744542 0.89085119
v 0.24086428 0.27409313 0.77756196
v 0.21349542 0.37834548 0.92757754
v 0.21390907 0.34237860 0.89245347
v 0.21380565 0.33089479 0.88035797
v 0.21367927 0.31945588 0.86810539
v 0.21320818 0.30817413 0.85560146
v 0.21209366 0.29719548 0.84268913
v 0.24086428 0.32715664 0.64451150
v 0.21945867 0.38311640 0.75695248
v 0.21321967 0.32232965 0.62242544
v 0.17864667 0.32787510 0.62242544
v 0.20970377 0.38311640 0.93593440
v 0.24086428 0.27376760 0.77677653
v 0.21374820 0.28470135 0.82025748
v 0.20865820 0.38311640 0.93690834
v 0.20363712 0.38311640 0.94055268
v 0.20645213 0.34597080 0.90074753
v 0.20645213 0.34047025 0.89477831
v 0.20645213 0.33454310 0.88830643
v 0.21320818 0.31935483 0.86823104
v 0.20645213 0.31782815 0.86983332
v 0.20645213 0.31190103 0.86311010
v 0.20645213 0.30693930 0.85717231
v 0.20747474 0.30027131 0.84818708
v 0.20417714 0.29643213 0.84385157
v 0.20747474 0.29363694 0.83797660
v 0.24086428 0.30897115 0.62541005
v 0.22396269 0.32078051 0.62541005
v 0.14902580 0.32787510 0.62242544
v 0.12348383 0.34457881 0.69198240
v 0.12348383 0.38311640 0.83979879
v 0.21321967 0.30494114 0.62242544
v 0.24086428 0.27139899 0.77052457
v 0.20645213 0.28735059 0.82713778
v 0.20645213 0.28430846 0.82123142
v 0.24086428 0.26965901 0.76568637
v 0.19459460 0.38311640 0.94338021
v 0.20137362 0.37970380 0.93819645
v 0.19459460 0.34483702 0.90178426
v 0.19459460 0.31089074 0.86417827
v 0.19459460 0.30624332 0.85824047
v 0.19459460 0.30031621 0.84966367
v 0.19459460 0.29651071 0.84372589
v 0.24086428 0.29388391 0.62541005
v 0.13467496 0.32787510 0.64652218
v 0.17021310 0.31200208 0.62242544
v 0.13435324 0.32787510 0.64708769
v 0.12348383 0.33078254 0.69198240
v 0.12348383 0.38311640 0.87460868
v 0.19531847 0.30379612 0.62242544
v 0.19786921 0.28455542 0.82072873
v 0.20645213 0.28172656 0.81303161
v 0.20645213 0.27932427 0.80125028
v 0.19458310 0.28099689 0.80125028
v 0.19458310 0.28003149 0.78937470
v 0.24086428 0.26905282 0.75616706
v 0.19297453 0.38311640 0.94328595
v 0.18698830 0.37950175 0.93847918
v 0.18273706 0.34601570 0.90059041
v 0.18273706 0.31814249 0.86917355
v 0.18514994 0.30725361 0.85704664
v 0.18843602 0.29700463 0.84300330
v 0.19459460 0.29301954 0.83687701
v 0.18745940 0.28437581 0.68579327
v 0.18465586 0.30531160 0.62242544
v 0.19305497 0.30375121 0.62242544
v 0.24086428 0.26891812 0.71821548
v 0.18272557 0.30596267 0.62242544
v 0.18703426 0.28409517 0.69198240
v 0.18686192 0.28399413 0.69455858
v 0.17995652 0.28754142 0.78937470
v 0.12348383 0.33078254 0.69207665
v 0.12348383 0.37699843 0.86059675
v 0.16551375 0.30955487 0.82924271
v 0.16683509 0.31120506 0.83687701
v 0.16393965 0.31928748 0.84554807
v 0.16555971 0.32157753 0.85343371
v 0.16769683 0.32389000 0.86056533
v 0.16449116 0.33203982 0.86731996
v 0.16342259 0.34274906 0.88067214
v 0.16643294 0.34611675 0.88858917
v 0.17067271 0.38311640 0.93125332
v 0.18994120 0.28591372 0.81764988
v 0.19418097 0.28342163 0.81347144
v 0.19420395 0.28332060 0.81303161
v 0.18758578 0.28463399 0.80970142
v 0.18647126 0.28396047 0.80125028
v 0.18583932 0.28352266 0.78937470
v 0.19458310 0.27991924 0.77753054
v 0.24086428 0.26844665 0.73156765
v 0.24086428 0.26867116 0.74375741
v 0.18408137 0.38311640 0.94165228
v 0.17432648 0.34277151 0.89245347
v 0.18034716 0.38311640 0.93970443
v 0.17591209 0.31998349 0.86738279
v 0.18182936 0.31173267 0.86081666
v 0.17725640 0.30926301 0.85421913
v 0.17994503 0.29890177 0.83687701
v 0.18583932 0.29552286 0.83687701
v 0.24086428 0.26846910 0.73012248
v 0.18057697 0.28794556 0.80125028
v 0.17359114 0.29388391 0.80125028
v 0.17305110 0.29349101 0.78937470
v 0.12348383 0.33091724 0.69430725
v 0.12348383 0.36688412 0.83470925
v 0.17723341 0.29747609 0.83009096
v 0.17275236 0.30484013 0.83687701
v 0.12348383 0.36343787 0.82500144
v 0.12348383 0.35489518 0.80062195
v 0.16441072 0.30826393 0.82135707
v 0.17571675 0.29609535 0.82220532
v 0.17480905 0.30705155 0.84633349
v 0.17017863 0.31426964 0.84988360
v 0.17361410 0.31745772 0.86056533
v 0.17109783 0.38311640 0.93172454
v 0.18181787 0.29332263 0.82569260
v 0.18857391 0.28515038 0.81303161
v 0.19337667 0.28356756 0.81303161
v 0.17454478 0.29492789 0.81312585
v 0.17272938 0.38311640 0.93320113
v 0.17454478 0.29490544 0.81300018
v 0.16763938 0.30034987 0.80125028
v 0.12348383 0.33097335 0.69477849
v 0.12348383 0.35185301 0.78937470
v 0.16866197 0.30131529 0.81303161
v 0.12348383 0.34299601 0.75415639
v 0.12348383 0.34043655 0.74196665
f 55 34 54
f 17 22 23
f 36 23 35
f 23 22 33
f 35 23 33
f 33 53 35
f 92 89 69
f 71 89 72
f 18 17 23
f 8 17 18
f 53 33 52
f 35 53 52
f 115 114 125
f 70 54 71
f 71 72 70
f 55 54 70
f 70 72 55
f 149 151 135
f 32 21 31
f 11 12 8
f 8 6 11
f 8 12 13
f 16 17 8
f 8 15 16
f 75 57 69
f 69 91 75
f 93 89 71
f 114 113 95
f 95 125 114
f 92 125 95
f 80 114 115
f 80 113 114
f 86 65 85
f 104 74 103
f 150 151 152
f 150 135 151
f 21 32 26
f 21 27 28
f 50 32 49
f 14 15 8
f 8 13 14
f 106 74 105
f 105 74 104
f 105 120 106
f 56 34 55
f 21 10 20
f 24 27 21
f 89 93 90
f 69 89 90
f 90 91 69
f 73 72 89
f 55 72 73
f 89 92 94
f 92 95 94
f 94 73 89
f 95 73 94
f 61 80 81
f 86 85 121
f 121 85 120
f 121 122 86
f 120 122 121
f 120 85 118
f 106 120 118
f 118 140 106
f 84 85 65
f 84 118 85
f 102 103 74
f 102 100 138
f 138 122 102
f 102 122 103
f 135 150 136
f 138 100 137
f 137 122 138
f 104 103 139
f 103 122 139
f 139 122 120
f 139 105 104
f 120 105 139
f 86 122 87
f 87 67 86
f 41 28 40
f 21 28 29
f 66 67 50
f 66 65 86
f 86 67 66
f 64 84 65
f 107 74 106
f 106 140 107
f 149 135 134
f 135 136 99
f 99 134 135
f 99 100 74
f 99 136 131
f 21 20 25
f 25 20 19
f 19 24 25
f 25 24 21
f 4 2 1
f 5 2 4
f 1 3 4
f 4 3 6
f 4 6 8
f 96 95 113
f 96 73 95
f 96 113 126
f 127 96 126
f 116 80 115
f 116 81 80
f 79 80 61
f 39 26 32
f 119 84 117
f 118 84 119
f 74 100 101
f 101 102 74
f 100 102 101
f 131 137 132
f 132 137 100
f 132 99 131
f 100 99 132
f 123 87 122
f 123 137 131
f 122 137 123
f 50 67 68
f 67 87 68
f 37 28 27
f 37 40 28
f 27 24 37
f 21 29 30
f 31 21 30
f 30 45 31
f 65 66 48
f 48 47 65
f 50 49 48
f 48 66 50
f 48 49 32
f 48 32 31
f 31 47 48
f 117 84 83
f 84 64 83
f 42 28 41
f 42 29 28
f 42 30 29
f 133 99 130
f 134 99 133
f 98 99 74
f 130 99 98
f 10 5 7
f 5 4 7
f 148 150 152
f 144 136 150
f 96 127 128
f 78 79 61
f 113 80 112
f 80 79 112
f 126 113 112
f 58 39 61
f 61 39 60
f 60 68 76
f 51 32 50
f 51 39 32
f 140 118 145
f 118 119 145
f 124 123 131
f 87 123 124
f 131 141 124
f 88 87 76
f 76 68 88
f 88 68 87
f 117 83 82
f 82 64 62
f 82 83 64
f 41 62 63
f 63 42 41
f 62 42 63
f 62 64 43
f 43 42 62
f 30 42 43
f 9 20 10
f 10 7 9
f 9 7 4
f 19 20 9
f 150 148 147
f 147 148 127
f 127 148 129
f 129 128 127
f 79 78 110
f 126 112 111
f 111 144 126
f 136 144 111
f 131 136 111
f 111 112 79
f 79 110 111
f 26 39 38
f 39 58 38
f 59 60 39
f 59 51 50
f 39 51 59
f 50 68 59
f 68 60 59
f 46 64 65
f 65 47 46
f 31 45 46
f 46 47 31
f 146 147 127
f 146 127 126
f 126 144 146
f 146 144 150
f 150 147 146
f 128 129 97
f 73 96 97
f 96 128 97
f 76 110 77
f 77 110 78
f 77 60 76
f 77 78 61
f 61 60 77
f 142 141 131
f 131 111 142
f 44 43 64
f 64 46 44
f 44 46 45
f 45 30 44
f 30 43 44
f 108 124 141
f 141 142 108
f 76 87 108
f 87 124 108
f 143 111 110
f 143 142 111
f 143 108 142
f 109 143 110
f 108 143 109
f 109 110 76
f 76 108 109
f 36 34 23
f 36 54 34
f 52 57 35
f 69 57 52
f 71 54 90
f 90 36 35
f 54 36 90
f 35 57 90
f 57 75 90
f 90 75 91
f 90 93 71
f 9 18 23
f 23 34 9
f 9 4 8
f 8 18 9
f 74 107 9
f 9 62 41
f 34 56 9
f 140 145 9
f 41 40 9
f 9 56 74
f 9 24 19
f 9 119 117
f 9 107 140
f 117 82 9
f 9 37 24
f 40 37 9
f 9 145 119
f 9 82 62
f 15 14 38
f 38 33 22
f 22 17 38
f 69 52 38
f 115 125 38
f 17 16 38
f 12 11 38
f 38 92 69
f 38 10 21
f 38 3 1
f 38 13 12
f 38 52 33
f 1 2 38
f 38 125 92
f 38 5 10
f 6 3 38
f 38 11 6
f 21 26 38
f 38 16 15
f 38 2 5
f 38 116 115
f 38 14 13
f 61 81 38
f 81 116 38
f 38 58 61
f 55 73 97
f 97 151 149
f 152 151 97
f 74 56 97
f 97 56 55
f 97 133 130
f 97 98 74
f 149 134 97
f 134 133 97
f 130 98 97
f 97 148 152
f 97 129 148