# https://github.com/mikedh/trimesh
v 0.28953195 -0.11232289 0.68205056
v 0.30139046 -0.11232289 0.68209867
v 0.30139046 -0.12337564 0.68587561
v 0.28953195 -0.12336076 0.68583952
v 0.27767340 -0.11232289 0.68320530
v 0.38879733 -0.11088365 0.75689137
v 0.40314300 -0.11088365 0.75689137
v 0.31239707 -0.11232289 0.68274821
v 0.36068314 -0.12016617 0.68653716
v 0.34882460 -0.12016617 0.68599588
v 0.30139046 -0.12930738 0.68917139
v 0.34882460 -0.12196987 0.68666948
v 0.28953195 -0.12929250 0.68918342
v 0.27767340 -0.12185087 0.68663340
v 0.26985475 -0.11970131 0.68775203
v 0.26608969 -0.11232289 0.68651311
v 0.32949093 -0.11088365 0.78325765
v 0.40369264 -0.11088365 0.76514287
v 0.40174140 -0.11453567 0.75689137
v 0.39029510 -0.12992473 0.71379356
v 0.39260361 -0.12520909 0.71794335
v 0.39220512 -0.12201821 0.70891001
v 0.39239749 -0.12016617 0.70824846
v 0.39138066 -0.12016617 0.70610739
v 0.38916832 -0.12016617 0.70281162
v 0.38262761 -0.12016617 0.69667712
v 0.37934350 -0.12016617 0.69387450
v 0.37447914 -0.12016617 0.69092754
v 0.36918885 -0.12016617 0.68820911
v 0.36646813 -0.12016617 0.68751147
v 0.36068314 -0.12126699 0.68695816
v 0.30139046 -0.13453252 0.69510140
v 0.34882460 -0.12789789 0.68997729
v 0.34882460 -0.13423872 0.69590730
v 0.32513502 -0.14052748 0.70217410
v 0.28953195 -0.13446558 0.69512546
v 0.27767340 -0.13391145 0.69607570
v 0.27767340 -0.12778261 0.69014569
v 0.26585610 -0.12381447 0.69225066
v 0.26334149 -0.11635052 0.68935182
v 0.26540265 -0.11232289 0.68682585
v 0.26334149 -0.11427906 0.68853389
v 0.26334149 -0.11232289 0.68778812
v 0.32385709 -0.11088365 0.78849001
v 0.40372011 -0.11088365 0.76563603
v 0.40370636 -0.11093199 0.76568414
v 0.40135666 -0.11686374 0.76568414
v 0.40112307 -0.11607532 0.75689137
v 0.38556817 -0.13386682 0.71794335
v 0.37571584 -0.14070599 0.71825610
v 0.38198177 -0.13276601 0.70638405
v 0.37924730 -0.13066108 0.69982856
v 0.38812402 -0.12520909 0.70551800
v 0.39601139 -0.12405993 0.75381209
v 0.39094094 -0.13068711 0.74196410
v 0.37860146 -0.14192209 0.74693185
v 0.38167944 -0.12405993 0.69772360
v 0.37265157 -0.12383307 0.69208226
v 0.37255540 -0.13225652 0.69818067
v 0.36068314 -0.12719873 0.69043437
v 0.30139046 -0.14046426 0.70195759
v 0.31241079 -0.14052377 0.70205382
v 0.36068314 -0.13384451 0.69636439
v 0.34882460 -0.14017046 0.70312436
v 0.33696605 -0.14033781 0.70261916
v 0.32513502 -0.14411999 0.70811614
v 0.30139046 -0.14460346 0.70788760
v 0.28953195 -0.14477453 0.70792369
v 0.28953195 -0.14039732 0.70199368
v 0.27767340 -0.13984319 0.70295596
v 0.26581488 -0.13223420 0.69825284
v 0.26334149 -0.13166892 0.69884223
v 0.26334149 -0.12388142 0.69375422
v 0.26334149 -0.11856330 0.69061480
v 0.26334149 -0.11232289 0.70513310
v 0.32165854 -0.11088365 0.80126420
v 0.32362349 -0.11088365 0.78976502
v 0.40369264 -0.11088365 0.76594876
v 0.40273075 -0.11088365 0.77325001
v 0.39610756 -0.12405993 0.77754416
v 0.39136691 -0.13118174 0.78533858
v 0.39171042 -0.13159082 0.77754416
v 0.39647858 -0.12405993 0.76568414
v 0.39613507 -0.12405993 0.75689137
v 0.37333864 -0.14340967 0.74257756
v 0.36977971 -0.14271795 0.71825610
v 0.36824072 -0.14232374 0.71121947
v 0.37232181 -0.13836677 0.70691330
v 0.39122948 -0.13097719 0.75381209
v 0.38468877 -0.13696471 0.75689137
v 0.37901370 -0.14218242 0.76568414
v 0.37255540 -0.14418322 0.75381209
v 0.38493608 -0.13711719 0.76568414
v 0.36068314 -0.13977625 0.70406257
v 0.34882460 -0.14342083 0.70906639
v 0.33696605 -0.14380760 0.70854917
v 0.32513502 -0.14661542 0.71825610
v 0.31241079 -0.14664889 0.71749831
v 0.28953195 -0.14651501 0.71824406
v 0.27767340 -0.14404189 0.70888596
v 0.31327647 -0.14680508 0.71825610
v 0.31239707 -0.14680508 0.71824406
v 0.30139046 -0.14680508 0.71824406
v 0.26841194 -0.14285183 0.71054588
v 0.26500415 -0.13872379 0.70650433
v 0.26334149 -0.13649985 0.70467601
v 0.26334149 -0.12813219 0.75614560
v 0.32215320 -0.11088365 0.80492083
v 0.40207120 -0.11088365 0.77702694
v 0.40094441 -0.11273197 0.77867483
v 0.40128793 -0.11088365 0.77994984
v 0.39307080 -0.12405993 0.78755180
v 0.38771178 -0.12405993 0.79348182
v 0.37949464 -0.13047141 0.79574316
v 0.38383680 -0.13305609 0.78934403
v 0.37542727 -0.14131962 0.78138123
v 0.37905493 -0.14220473 0.77347855
v 0.36068314 -0.14695013 0.75381209
v 0.37103013 -0.14317166 0.73009205
v 0.36068314 -0.14622121 0.74196410
v 0.36068314 -0.14423900 0.71825610
v 0.36068314 -0.14291506 0.70999257
v 0.37255540 -0.14431710 0.76568414
v 0.37255540 -0.14422040 0.75689137
v 0.33696605 -0.14599435 0.71825610
v 0.34882460 -0.14788358 0.75381209
v 0.33696605 -0.14836705 0.75381209
v 0.32513502 -0.14859762 0.75381209
v 0.27767340 -0.14526916 0.71824406
v 0.31327647 -0.14828524 0.75381209
v 0.31326275 -0.14837820 0.75689137
v 0.31326275 -0.14864226 0.76568414
v 0.31239707 -0.14857160 0.76568414
v 0.26646070 -0.14307868 0.71824406
v 0.26334149 -0.14199647 0.71547753
v 0.26334149 -0.13779405 0.70662462
v 0.26334149 -0.14241671 0.75614560
v 0.31239707 -0.12089509 0.80492083
v 0.34218765 -0.11088365 0.80492083
v 0.39594266 -0.11088365 0.78903129
v 0.38977293 -0.11590797 0.79494928
v 0.38177564 -0.12405993 0.79660919
v 0.36751243 -0.14197044 0.78365459
v 0.37255540 -0.12405993 0.79835332
v 0.32734732 -0.12990241 0.80492083
v 0.32323875 -0.13259122 0.80492083
v 0.31239707 -0.13809528 0.80492083
v 0.36068314 -0.14473735 0.77754416
v 0.37190956 -0.14294481 0.77747200
v 0.36068314 -0.14682368 0.76568414
v 0.34883835 -0.14801747 0.76568414
v 0.34883835 -0.14792077 0.75689137
v 0.36376113 -0.14626956 0.75689137
v 0.34882460 -0.14523196 0.71825610
v 0.33696605 -0.14872778 0.76568414
v 0.33696605 -0.14846375 0.75689137
v 0.32513502 -0.14866828 0.75689137
v 0.32512126 -0.14866828 0.75689137
v 0.32512126 -0.14886912 0.76568414
v 0.31326275 -0.14794308 0.77754416
v 0.31239707 -0.14790218 0.77754416
v 0.26334149 -0.14226052 0.71824406
v 0.34165176 -0.11219644 0.80492083
v 0.37255540 -0.11219644 0.79976065
v 0.37386080 -0.11088365 0.79949601
v 0.39036380 -0.11088365 0.79531012
v 0.38525212 -0.11205141 0.79698207
v 0.34883835 -0.14318282 0.78498974
v 0.33696605 -0.14746706 0.77754416
v 0.34883835 -0.14619889 0.77754416
v 0.33579808 -0.12294424 0.80492083
v 0.32512126 -0.14801747 0.77754416
v 0.38516967 -0.11088365 0.79701815
v 0.38681862 -0.11088365 0.79656107
v 0.38582927 -0.11088365 0.79684975
f 44 17 43
f 161 147 137
f 75 107 108
f 108 107 138
f 114 147 143
f 17 6 16
f 40 42 16
f 43 75 76
f 76 75 108
f 58 28 52
f 110 111 81
f 59 58 52
f 43 17 41
f 17 16 41
f 41 42 43
f 41 16 42
f 6 7 1
f 29 8 28
f 28 58 29
f 29 59 60
f 58 59 29
f 77 44 43
f 43 76 77
f 52 28 27
f 28 8 27
f 8 7 27
f 52 25 53
f 31 12 9
f 9 12 10
f 10 12 3
f 133 161 137
f 137 129 133
f 82 81 117
f 117 81 116
f 114 143 116
f 112 81 111
f 146 147 114
f 139 164 165
f 167 165 164
f 163 164 139
f 171 164 163
f 144 164 171
f 3 12 11
f 172 169 147
f 168 143 147
f 147 169 168
f 168 169 143
f 155 172 159
f 169 172 155
f 23 7 22
f 22 7 21
f 47 82 83
f 81 82 47
f 5 16 6
f 6 1 5
f 2 7 8
f 2 1 7
f 2 8 9
f 9 10 2
f 3 1 2
f 2 10 3
f 9 8 30
f 8 29 30
f 30 31 9
f 30 29 60
f 60 31 30
f 14 38 15
f 40 16 15
f 15 5 14
f 16 5 15
f 57 25 52
f 52 27 57
f 99 133 129
f 68 103 99
f 134 129 137
f 109 111 110
f 115 81 114
f 114 116 115
f 115 116 81
f 140 112 111
f 114 81 113
f 81 112 113
f 145 146 114
f 114 144 145
f 145 144 171
f 165 167 173
f 142 167 164
f 164 144 142
f 142 144 114
f 114 113 142
f 117 150 123
f 117 123 91
f 91 82 117
f 37 38 13
f 13 38 14
f 34 35 11
f 159 172 160
f 147 161 160
f 160 172 147
f 117 116 149
f 149 150 117
f 169 155 151
f 151 150 169
f 118 150 151
f 24 53 25
f 24 22 53
f 23 22 24
f 24 7 23
f 25 7 24
f 79 47 78
f 25 57 26
f 26 57 27
f 26 7 25
f 26 27 7
f 52 51 88
f 88 51 87
f 88 59 52
f 87 94 88
f 88 94 59
f 133 99 132
f 159 160 132
f 161 133 132
f 132 160 161
f 87 86 121
f 122 94 87
f 87 121 122
f 118 151 152
f 152 151 155
f 162 134 137
f 135 134 162
f 40 15 39
f 39 15 38
f 38 72 39
f 129 134 104
f 104 134 135
f 80 109 110
f 110 81 80
f 81 47 80
f 79 109 80
f 80 47 79
f 20 22 21
f 47 54 20
f 53 22 20
f 52 53 20
f 20 51 52
f 21 7 20
f 7 19 20
f 141 140 166
f 112 140 141
f 141 113 112
f 141 142 113
f 166 167 141
f 167 142 141
f 174 167 166
f 118 85 92
f 119 85 118
f 119 86 85
f 85 86 50
f 50 86 87
f 50 20 49
f 87 51 50
f 51 20 50
f 93 90 82
f 82 91 93
f 4 13 14
f 4 1 3
f 3 11 4
f 11 13 4
f 14 5 4
f 4 5 1
f 64 96 66
f 96 97 66
f 33 34 11
f 33 11 12
f 33 31 60
f 12 31 33
f 60 59 63
f 59 94 63
f 63 33 60
f 34 33 63
f 63 94 64
f 64 34 63
f 65 34 64
f 35 34 65
f 64 66 65
f 65 66 35
f 148 116 143
f 148 149 116
f 150 149 148
f 18 19 7
f 47 19 18
f 84 47 83
f 84 54 47
f 131 99 130
f 131 132 99
f 120 121 86
f 120 119 118
f 86 119 120
f 128 97 127
f 128 131 130
f 128 99 103
f 130 99 128
f 132 131 128
f 126 97 125
f 127 97 126
f 126 152 155
f 118 152 126
f 126 120 118
f 97 128 101
f 95 122 125
f 125 97 95
f 95 97 96
f 95 96 64
f 64 94 95
f 94 122 95
f 73 39 72
f 129 104 100
f 68 99 100
f 100 99 129
f 70 100 104
f 68 100 70
f 136 104 135
f 82 90 89
f 54 84 89
f 83 82 89
f 89 84 83
f 48 19 47
f 47 20 48
f 48 20 19
f 175 173 167
f 167 174 175
f 118 92 124
f 124 91 123
f 124 92 91
f 85 50 56
f 56 92 85
f 91 92 56
f 56 50 49
f 49 20 56
f 90 93 56
f 56 93 91
f 67 66 97
f 68 35 67
f 35 66 67
f 11 35 32
f 32 13 11
f 69 61 68
f 68 70 69
f 69 70 37
f 143 169 170
f 170 148 143
f 169 150 170
f 150 148 170
f 46 18 45
f 47 18 46
f 45 78 46
f 46 78 47
f 121 120 154
f 125 122 154
f 154 122 121
f 154 126 125
f 120 126 154
f 157 155 159
f 157 128 155
f 155 128 156
f 156 128 127
f 156 126 155
f 127 126 156
f 102 103 68
f 68 101 102
f 102 128 103
f 102 101 128
f 40 39 74
f 39 73 74
f 105 70 104
f 104 136 105
f 55 89 90
f 90 56 55
f 55 56 20
f 55 20 54
f 54 89 55
f 118 124 153
f 153 124 123
f 153 150 118
f 153 123 150
f 97 101 98
f 98 67 97
f 98 101 68
f 68 67 98
f 62 32 35
f 61 32 62
f 62 35 68
f 68 61 62
f 37 13 36
f 36 69 37
f 13 32 36
f 36 32 61
f 61 69 36
f 159 132 158
f 158 157 159
f 132 128 158
f 128 157 158
f 71 105 72
f 70 105 71
f 37 70 71
f 71 38 37
f 71 72 38
f 72 105 106
f 106 105 136
f 138 107 137
f 137 147 138
f 145 138 147
f 145 139 108
f 108 138 145
f 147 146 145
f 145 163 139
f 171 163 145
f 44 77 175
f 175 76 108
f 108 139 175
f 175 6 17
f 17 44 175
f 175 78 45
f 175 174 166
f 111 109 175
f 175 7 6
f 175 77 76
f 166 140 175
f 139 165 175
f 175 109 79
f 175 140 111
f 165 173 175
f 79 78 175
f 45 18 175
f 175 18 7
f 106 75 43
f 106 42 40
f 137 107 106
f 43 42 106
f 107 75 106
f 106 162 137
f 106 136 135
f 135 162 106
f 106 73 72
f 40 74 106
f 106 74 73