# https://github.com/mikedh/trimesh
v -0.31602418 -0.17828298 0.75331017
v -0.31882646 -0.17826972 0.75331017
v -0.31605168 -0.17824322 0.75271464
v -0.30328581 -0.17800471 0.75291316
v -0.30331328 -0.17800471 0.75331017
v -0.27037293 -0.15704272 0.83632000
v -0.27037293 -0.15538644 0.84297005
v -0.32300238 -0.17801797 0.75331017
v -0.32300238 -0.16982928 0.70636280
v -0.31246182 -0.17750120 0.74748725
v -0.30701299 -0.17750120 0.74748725
v -0.29910073 -0.17715669 0.74834745
v -0.30216854 -0.17797821 0.75331017
v -0.27037293 -0.15769199 0.83360704
v -0.25618762 -0.17057129 0.76565082
v -0.26329402 -0.15286889 0.83969465
v -0.27037293 -0.15494918 0.84439270
v -0.24751525 -0.16736471 0.76565082
v -0.26757066 -0.15607547 0.83615459
v -0.32300238 -0.16486041 0.75331017
v -0.27037293 -0.15459142 0.84492204
v -0.31550219 -0.16967027 0.70636280
v -0.32300238 -0.16713946 0.69835628
v -0.31550219 -0.16704671 0.69848862
v -0.30363378 -0.16918001 0.70636280
v -0.29584972 -0.17751445 0.75331017
v -0.29178370 -0.17070380 0.71820717
v -0.27992443 -0.16956427 0.71820717
v -0.26806518 -0.17057129 0.73008463
v -0.26806518 -0.17241309 0.74192900
v -0.27037293 -0.17307560 0.76565082
v -0.27037293 -0.16051431 0.82139874
v -0.26805602 -0.17271783 0.76565082
v -0.25618762 -0.17171082 0.75377336
v -0.24626979 -0.16809348 0.75377336
v -0.25091278 -0.14077136 0.83684936
v -0.26000639 -0.14689299 0.84492204
v -0.24157188 -0.16260787 0.76565082
v -0.24034475 -0.16376064 0.75377336
v -0.27037293 -0.13361619 0.84492204
v -0.25984154 -0.10678433 0.86278786
v -0.25984154 -0.10238523 0.86090202
v -0.25984154 -0.09658159 0.85726270
v -0.32300238 -0.04307685 0.66841451
v -0.30363378 -0.16674196 0.69885255
v -0.32300238 -0.16426414 0.69461769
v -0.22944706 -0.07989946 0.56055798
v -0.22944706 -0.08368904 0.56631474
v -0.29178370 -0.16835849 0.70636280
v -0.29178370 -0.16627820 0.69948116
v -0.25618762 -0.17167106 0.75331017
v -0.27985118 -0.16683470 0.70580037
v -0.27029051 -0.16619869 0.70937352
v -0.26703036 -0.16741771 0.71711537
v -0.26312917 -0.16692745 0.71876961
v -0.25936534 -0.16645046 0.72035769
v -0.26312917 -0.17055805 0.73501426
v -0.25619677 -0.17051829 0.74192900
v -0.24632475 -0.16806698 0.75331017
v -0.24916365 -0.13260917 0.84488897
v -0.25756127 -0.14424293 0.84492204
v -0.23752417 -0.15488292 0.77299564
v -0.23633367 -0.15667172 0.76565082
v -0.24747862 -0.16727198 0.74192900
v -0.24154441 -0.16285962 0.74192900
v -0.23613220 -0.15692347 0.74192900
v -0.23561937 -0.15782451 0.75377336
v -0.25171865 -0.10678433 0.85167135
v -0.24924606 -0.13266217 0.84492204
v -0.24914533 -0.13239716 0.84492204
v -0.24742367 -0.12404947 0.84492204
v -0.25877925 -0.10033143 0.85851992
v -0.23637030 -0.04294435 0.78629574
v -0.25984154 -0.09031419 0.85110892
v -0.32300238 -0.04307685 0.66285626
v -0.25984154 -0.04294435 0.79486471
v -0.32300238 -0.16248861 0.69246718
v -0.22944706 -0.07640138 0.55609153
v -0.22944706 -0.08900241 0.57594242
v -0.28377068 -0.16584092 0.70004360
v -0.27586757 -0.16515192 0.70146625
v -0.26312917 -0.16519167 0.71139170
v -0.26237824 -0.16532417 0.71248350
v -0.26312001 -0.16566867 0.71324445
v -0.25146224 -0.16488691 0.72565126
v -0.24912700 -0.16623845 0.73352545
v -0.25572973 -0.16765622 0.72978686
v -0.23269804 -0.14776752 0.76565082
v -0.24502434 -0.12404947 0.83684936
v -0.24365984 -0.15729449 0.71860419
v -0.23810112 -0.15406142 0.72287213
v -0.23726775 -0.15517443 0.73008463
v -0.22944706 -0.09835713 0.59963116
v -0.23265225 -0.14775427 0.74192900
v -0.23548201 -0.15740049 0.75331017
v -0.23204785 -0.14776752 0.75377336
v -0.24724967 -0.11219045 0.84492204
v -0.24979552 -0.10678433 0.84859446
v -0.24910869 -0.10344525 0.84551757
v -0.25275348 -0.09982791 0.84915692
v -0.23332993 -0.04294435 0.77752826
v -0.24433752 -0.04294435 0.79182092
v -0.24870576 -0.10678433 0.84634470
v -0.24632475 -0.04294435 0.79238335
v -0.25634330 -0.04294435 0.79499705
v -0.25835799 -0.04294435 0.79493088
v -0.24543644 -0.04294435 0.58775371
v -0.24371480 -0.04294435 0.57587626
v -0.23881540 -0.04294435 0.55476813
v -0.23199291 -0.04294435 0.52823411
v -0.23137935 -0.04294435 0.52717539
v -0.32300238 -0.05288208 0.66159903
v -0.25984154 -0.04294435 0.78057208
v -0.32300238 -0.15873877 0.68793456
v -0.22944706 -0.07469208 0.55417261
v -0.32300238 -0.15655247 0.68538703
v -0.22944706 -0.09234149 0.58322109
v -0.24918196 -0.15460467 0.69938191
v -0.25619677 -0.16096482 0.70632972
v -0.26312001 -0.16317762 0.70596579
v -0.26703036 -0.16442315 0.70580037
v -0.25572973 -0.16405214 0.71711537
v -0.24711232 -0.15615496 0.70632972
v -0.23050935 -0.13590849 0.76565082
v -0.23319256 -0.13590849 0.77752826
v -0.24485951 -0.11219045 0.83684936
v -0.23145260 -0.12404947 0.77752826
v -0.23115039 -0.11219045 0.77752826
v -0.23925498 -0.15252439 0.71496486
v -0.22944706 -0.09516380 0.58990422
v -0.22944706 -0.09864864 0.60211252
v -0.22970348 -0.12404947 0.76565082
v -0.23289951 -0.05288208 0.77752826
v -0.23057345 -0.07661338 0.76568390
v -0.23163575 -0.05288208 0.76568390
v -0.23225848 -0.04294435 0.76568390
v -0.22944706 -0.04294435 0.52479329
v -0.32300238 -0.13590849 0.67278170
v -0.32300238 -0.12404947 0.67046577
v -0.22944706 -0.07298280 0.55245219
v -0.32300238 -0.15227262 0.68164844
v -0.22944706 -0.09430253 0.58775371
v -0.23137019 -0.10033143 0.77752826
v -0.23166322 -0.08847240 0.77752826
v -0.22949284 -0.11219045 0.76565082
v -0.22970348 -0.10033143 0.76568390
v -0.22944706 -0.09961591 0.61147552
v -0.23011556 -0.08847240 0.76568390
v -0.22944706 -0.04294435 0.63986231
v -0.23058261 -0.06475435 0.74192900
v -0.32300238 -0.14966232 0.67946484
v -0.32300238 -0.14371293 0.67572626
v -0.22944706 -0.09868838 0.61458550
v -0.22944706 -0.09546856 0.62335298
v -0.22944706 -0.08847240 0.62917591
v -0.22944706 -0.08323853 0.63142567
v -0.22944706 -0.05002001 0.63877050
f 73 102 74
f 41 20 40
f 44 74 76
f 113 107 75
f 41 40 21
f 8 17 21
f 152 137 151
f 152 138 137
f 43 44 20
f 74 44 43
f 73 74 43
f 43 72 73
f 76 74 106
f 74 105 106
f 104 74 102
f 104 105 74
f 75 109 110
f 75 107 108
f 108 109 75
f 16 21 17
f 69 60 41
f 39 66 67
f 94 66 93
f 65 66 39
f 48 23 47
f 137 140 116
f 116 78 114
f 42 20 41
f 42 43 20
f 72 43 42
f 68 42 41
f 72 42 68
f 111 112 75
f 75 110 111
f 139 112 111
f 111 138 139
f 137 138 111
f 33 15 32
f 32 31 33
f 7 15 18
f 7 16 17
f 7 17 8
f 34 15 33
f 33 31 34
f 34 31 26
f 62 88 60
f 22 11 9
f 52 29 28
f 88 67 96
f 94 93 96
f 41 60 70
f 142 123 118
f 147 132 131
f 132 93 131
f 53 52 81
f 29 52 53
f 45 48 50
f 50 48 80
f 81 52 80
f 80 48 79
f 80 79 81
f 46 78 47
f 47 23 46
f 151 137 141
f 137 116 141
f 115 116 140
f 78 116 115
f 73 72 100
f 72 68 100
f 99 103 73
f 73 100 99
f 99 100 68
f 18 16 19
f 19 7 18
f 16 7 19
f 14 32 15
f 26 30 51
f 51 34 26
f 18 15 35
f 15 34 35
f 39 18 35
f 35 59 39
f 34 51 35
f 51 59 35
f 36 62 60
f 38 16 18
f 38 18 39
f 38 36 16
f 62 36 38
f 9 11 10
f 28 29 12
f 12 4 11
f 12 30 26
f 12 29 30
f 49 52 28
f 49 80 52
f 50 80 49
f 94 96 95
f 95 96 67
f 95 66 94
f 95 67 66
f 124 93 132
f 124 96 93
f 88 96 124
f 124 125 88
f 71 68 41
f 41 70 71
f 71 70 60
f 142 118 117
f 117 118 79
f 123 129 90
f 90 91 65
f 129 91 90
f 29 53 54
f 23 48 24
f 48 45 24
f 24 45 22
f 24 9 23
f 24 22 9
f 114 78 77
f 78 46 77
f 103 99 98
f 98 99 68
f 15 7 6
f 6 14 15
f 30 29 57
f 58 59 51
f 58 51 30
f 30 57 58
f 61 36 60
f 60 69 61
f 61 69 41
f 39 67 63
f 63 38 39
f 62 38 63
f 63 67 88
f 88 62 63
f 8 9 2
f 9 10 2
f 2 7 8
f 26 31 13
f 31 32 13
f 13 12 26
f 4 12 13
f 32 14 13
f 14 6 13
f 28 12 27
f 27 49 28
f 25 12 11
f 11 22 25
f 25 27 12
f 49 27 25
f 50 49 25
f 25 45 50
f 22 45 25
f 97 101 73
f 73 103 97
f 103 98 97
f 68 71 97
f 97 98 68
f 149 146 145
f 145 157 149
f 156 157 145
f 145 155 156
f 154 155 145
f 145 153 154
f 147 153 145
f 145 132 147
f 149 150 134
f 144 146 133
f 133 134 101
f 132 145 128
f 128 145 146
f 66 65 92
f 65 91 92
f 92 93 66
f 130 91 129
f 93 92 130
f 130 92 91
f 130 123 142
f 130 129 123
f 119 118 123
f 123 85 119
f 79 118 119
f 59 58 64
f 64 65 39
f 39 59 64
f 16 36 37
f 36 61 37
f 21 16 37
f 41 21 37
f 37 61 41
f 3 10 11
f 3 2 10
f 11 4 3
f 1 6 7
f 7 2 1
f 2 3 1
f 1 3 4
f 136 101 135
f 101 134 135
f 135 134 150
f 149 136 135
f 135 150 149
f 101 97 126
f 126 133 101
f 144 133 126
f 148 133 146
f 134 133 148
f 148 146 149
f 149 134 148
f 127 124 132
f 132 128 127
f 125 124 127
f 143 146 144
f 143 128 146
f 144 126 143
f 143 126 128
f 29 54 55
f 81 79 121
f 86 58 87
f 86 64 58
f 86 85 123
f 65 64 86
f 123 90 86
f 86 90 65
f 5 13 6
f 6 1 5
f 4 13 5
f 5 1 4
f 128 126 89
f 89 127 128
f 89 97 71
f 89 126 97
f 125 127 89
f 89 71 60
f 60 88 89
f 88 125 89
f 122 119 85
f 85 83 122
f 122 83 119
f 84 55 54
f 84 54 53
f 53 83 84
f 79 119 120
f 120 121 79
f 56 83 85
f 85 86 56
f 56 86 87
f 87 58 56
f 56 58 57
f 55 84 56
f 56 84 83
f 56 57 29
f 29 55 56
f 121 120 82
f 81 121 82
f 119 83 82
f 82 120 119
f 82 53 81
f 82 83 53
f 75 44 113
f 113 44 76
f 21 20 8
f 21 40 20
f 101 102 73
f 101 113 76
f 101 149 137
f 137 111 101
f 101 104 102
f 76 106 101
f 101 108 107
f 107 113 101
f 101 136 149
f 101 106 105
f 105 104 101
f 101 110 109
f 109 108 101
f 101 111 110
f 8 20 77
f 77 152 151
f 77 9 8
f 75 112 77
f 77 44 75
f 77 112 139
f 139 138 77
f 20 44 77
f 77 46 23
f 138 152 77
f 23 9 77
f 77 116 114
f 151 141 77
f 77 141 116
f 137 149 130
f 130 48 47
f 130 140 137
f 130 155 154
f 47 78 130
f 149 157 130
f 154 153 130
f 130 115 140
f 142 117 130
f 79 48 130
f 147 131 130
f 130 153 147
f 156 155 130
f 130 157 156
f 130 131 93
f 78 115 130
f 130 117 79