# https://github.com/mikedh/trimesh
v -0.27558114 0.08951150 0.83719220
v -0.26806424 0.10137775 0.83630230
v -0.27558114 0.09386129 0.83700287
v -0.32683535 0.13690689 0.66335920
v -0.32683535 0.12890326 0.66341600
v -0.32683535 0.12511024 0.66335920
v -0.32683535 0.11199125 0.66275331
v -0.27558114 0.08202985 0.83679459
v -0.26806424 0.08951150 0.83671886
v -0.25796745 0.10137775 0.83350007
v -0.25877483 0.11331359 0.83312140
v -0.26106702 0.14877313 0.83164454
v -0.26170735 0.15660276 0.83119013
v -0.26806424 0.14877313 0.83272379
v -0.27459746 0.16791223 0.83103865
v -0.27558114 0.16429322 0.83122800
v -0.32683535 0.13948197 0.66311306
v -0.32683535 0.07848042 0.66059484
v -0.32683535 0.07761046 0.66051910
v -0.32683535 0.06630099 0.65945880
v -0.27558114 0.07768005 0.83615084
v -0.26806424 0.07768005 0.83493906
v -0.25788392 0.08951150 0.83350007
v -0.25203744 0.10137775 0.82715719
v -0.25194465 0.08951150 0.82780095
v -0.26027820 0.13694169 0.83211790
v -0.23621481 0.27665716 0.77577033
v -0.26217135 0.22560794 0.81899663
v -0.26867673 0.23061891 0.82200714
v -0.27558114 0.23061891 0.82401415
v -0.26854681 0.16063938 0.83147414
v -0.27281566 0.16791223 0.83103865
v -0.32683535 0.14901672 0.66125752
v -0.32683535 0.06577901 0.65934519
v -0.27558114 0.07179913 0.83401130
v -0.27558114 0.06908486 0.83296993
v -0.26806424 0.07030280 0.83204217
v -0.26211567 0.07172953 0.83090612
v -0.26014829 0.07768005 0.83211790
v -0.24938333 0.08951150 0.82187461
v -0.23227075 -0.04293111 0.76575424
v -0.23621481 0.28566993 0.72614432
v -0.24947612 0.31256907 0.70844104
v -0.24985662 0.31256907 0.70925520
v -0.25130430 0.31256907 0.71167875
v -0.25352226 0.31256907 0.71404550
v -0.25692807 0.31256907 0.71684773
v -0.26010189 0.31256907 0.71809737
v -0.26281168 0.23061891 0.81837181
v -0.23226147 -0.04293111 0.76567851
v -0.23210371 -0.04293111 0.74193527
v -0.23202947 -0.04293111 0.73010153
v -0.32683535 0.17299281 0.64751144
v -0.32683535 0.16714668 0.65309698
v -0.32683535 0.16119616 0.65642936
v -0.32683535 0.16053499 0.65678910
v -0.32683535 0.15990861 0.65707311
v -0.32683535 0.14919071 0.66121966
v -0.32683535 0.05596587 0.65574774
v -0.27558114 0.04260330 0.80072532
v -0.24483605 -0.04289632 0.76575424
v -0.24437205 -0.04293111 0.76575424
v -0.23621481 0.28848860 0.70844104
v -0.26010189 0.31256907 0.70844104
v -0.28389616 0.23061891 0.64376251
v -0.32683535 0.17361917 0.64376251
v -0.32683535 0.17302760 0.64735997
v -0.23239140 -0.04293111 0.71822991
v -0.32683535 0.05596587 0.65152545
v -0.24893788 -0.04293111 0.70329099
v -0.24481749 -0.04293111 0.76567851
v -0.28035114 0.20806956 0.64376251
v -0.28150188 0.22014460 0.64376251
v -0.28216076 0.22313726 0.64376251
v -0.23422887 -0.04293111 0.70639617
v -0.23650250 -0.04293111 0.69990181
v -0.23707785 -0.04293111 0.69842496
v -0.29751940 0.23061891 0.64376251
v -0.32683535 0.14595446 0.64376251
v -0.31134681 0.04625713 0.65184733
v -0.24648792 -0.04293111 0.69189273
v -0.24853883 -0.04293111 0.69484643
v -0.32683535 0.06532663 0.64934804
v -0.28243917 0.19623811 0.64376251
v -0.27439330 0.04204652 0.66534727
v -0.28523249 0.18952202 0.64376251
v -0.30434029 0.05391277 0.65141185
v -0.32683535 0.06577901 0.64929124
v -0.30614063 0.04625713 0.65184733
v -0.28285677 0.03018027 0.66347281
v -0.28032330 0.04204652 0.66197702
f 27 48 30
f 4 1 3
f 3 16 4
f 72 63 77
f 43 27 42
f 42 63 43
f 42 27 52
f 52 63 42
f 43 63 65
f 45 46 27
f 48 27 47
f 27 46 47
f 27 41 50
f 48 64 66
f 66 64 78
f 81 85 72
f 72 77 81
f 81 91 85
f 4 16 17
f 17 16 30
f 57 58 30
f 73 63 72
f 12 24 27
f 44 27 43
f 44 45 27
f 52 27 51
f 27 50 51
f 87 91 89
f 72 85 84
f 85 91 84
f 91 87 84
f 61 36 60
f 30 48 53
f 68 63 52
f 68 75 63
f 76 77 63
f 63 75 76
f 89 91 90
f 90 81 89
f 91 81 90
f 89 81 80
f 80 81 69
f 30 58 33
f 33 17 30
f 30 55 56
f 56 57 30
f 74 65 63
f 63 73 74
f 1 8 9
f 59 60 36
f 61 60 59
f 69 70 59
f 7 8 1
f 40 41 27
f 27 24 40
f 37 36 41
f 41 38 37
f 48 66 67
f 67 53 48
f 54 55 30
f 30 53 54
f 69 81 82
f 82 70 69
f 61 59 71
f 71 59 70
f 16 3 15
f 3 14 15
f 30 16 15
f 13 12 27
f 12 13 2
f 2 13 14
f 9 10 2
f 2 14 3
f 2 3 1
f 1 9 2
f 22 37 38
f 36 37 22
f 29 27 30
f 29 49 27
f 30 13 29
f 86 84 87
f 87 79 86
f 88 87 89
f 88 79 87
f 8 7 18
f 6 7 1
f 61 71 62
f 62 36 61
f 41 36 62
f 30 15 32
f 32 15 14
f 27 49 28
f 28 13 27
f 49 29 28
f 28 29 13
f 25 40 24
f 24 10 25
f 41 40 25
f 12 2 11
f 11 2 10
f 11 10 24
f 23 10 9
f 9 22 23
f 23 25 10
f 21 9 8
f 21 22 9
f 20 34 21
f 21 8 20
f 89 80 83
f 83 88 89
f 83 80 69
f 20 8 19
f 8 18 19
f 5 1 4
f 5 6 1
f 14 13 31
f 31 32 14
f 31 13 30
f 30 32 31
f 24 12 26
f 26 11 24
f 12 11 26
f 39 22 38
f 39 23 22
f 39 38 41
f 41 25 39
f 25 23 39
f 36 22 35
f 22 21 35
f 35 59 36
f 34 59 35
f 35 21 34
f 43 65 64
f 64 65 78
f 48 47 44
f 43 64 44
f 44 64 48
f 46 45 44
f 44 47 46
f 78 65 86
f 86 73 72
f 86 66 78
f 72 84 86
f 65 74 86
f 86 74 73
f 86 79 66
f 52 51 62
f 77 76 62
f 62 50 41
f 62 68 52
f 62 81 77
f 62 51 50
f 75 68 62
f 62 76 75
f 62 82 81
f 70 82 62
f 62 71 70
f 69 59 5
f 66 79 5
f 4 17 5
f 5 33 58
f 5 56 55
f 5 67 66
f 58 57 5
f 5 34 20
f 5 83 69
f 17 33 5
f 57 56 5
f 55 54 5
f 5 59 34
f 20 19 5
f 53 67 5
f 5 54 53
f 79 88 5
f 5 18 7
f 7 6 5
f 88 83 5
f 5 19 18